%TF.GenerationSoftware,KiCad,Pcbnew,5.1.12-84ad8e8a86~92~ubuntu20.04.1*%
%TF.CreationDate,2021-12-25T03:04:52-06:00*%
%TF.ProjectId,Solder_Reflow_Oven_2.0,536f6c64-6572-45f5-9265-666c6f775f4f,rev?*%
%TF.SameCoordinates,Original*%
%TF.FileFunction,Legend,Bot*%
%TF.FilePolarity,Positive*%
%FSLAX46Y46*%
G04 Gerber Fmt 4.6, Leading zero omitted, Abs format (unit mm)*
G04 Created by KiCad (PCBNEW 5.1.12-84ad8e8a86~92~ubuntu20.04.1) date 2021-12-25 03:04:52*
%MOMM*%
%LPD*%
G01*
G04 APERTURE LIST*
%ADD10C,0.150000*%
G04 APERTURE END LIST*
D10*
X53187504Y-90101800D02*
X53282742Y-90054180D01*
X53425600Y-90054180D01*
X53568457Y-90101800D01*
X53663695Y-90197038D01*
X53711314Y-90292276D01*
X53758933Y-90482752D01*
X53758933Y-90625609D01*
X53711314Y-90816085D01*
X53663695Y-90911323D01*
X53568457Y-91006561D01*
X53425600Y-91054180D01*
X53330361Y-91054180D01*
X53187504Y-91006561D01*
X53139885Y-90958942D01*
X53139885Y-90625609D01*
X53330361Y-90625609D01*
X52711314Y-91054180D02*
X52711314Y-90054180D01*
X52139885Y-91054180D01*
X52139885Y-90054180D01*
X51663695Y-91054180D02*
X51663695Y-90054180D01*
X51425600Y-90054180D01*
X51282742Y-90101800D01*
X51187504Y-90197038D01*
X51139885Y-90292276D01*
X51092266Y-90482752D01*
X51092266Y-90625609D01*
X51139885Y-90816085D01*
X51187504Y-90911323D01*
X51282742Y-91006561D01*
X51425600Y-91054180D01*
X51663695Y-91054180D01*
X49240890Y-90092280D02*
X48621842Y-90092280D01*
X48955176Y-90473233D01*
X48812319Y-90473233D01*
X48717080Y-90520852D01*
X48669461Y-90568471D01*
X48621842Y-90663709D01*
X48621842Y-90901804D01*
X48669461Y-90997042D01*
X48717080Y-91044661D01*
X48812319Y-91092280D01*
X49098033Y-91092280D01*
X49193271Y-91044661D01*
X49240890Y-90997042D01*
X48193271Y-90997042D02*
X48145652Y-91044661D01*
X48193271Y-91092280D01*
X48240890Y-91044661D01*
X48193271Y-90997042D01*
X48193271Y-91092280D01*
X47812319Y-90092280D02*
X47193271Y-90092280D01*
X47526604Y-90473233D01*
X47383747Y-90473233D01*
X47288509Y-90520852D01*
X47240890Y-90568471D01*
X47193271Y-90663709D01*
X47193271Y-90901804D01*
X47240890Y-90997042D01*
X47288509Y-91044661D01*
X47383747Y-91092280D01*
X47669461Y-91092280D01*
X47764700Y-91044661D01*
X47812319Y-90997042D01*
X46907557Y-90092280D02*
X46574223Y-91092280D01*
X46240890Y-90092280D01*
X53593880Y-93585700D02*
X52641500Y-93585700D01*
X53403404Y-94905461D02*
X53260547Y-94953080D01*
X53022452Y-94953080D01*
X52927214Y-94905461D01*
X52879595Y-94857842D01*
X52831976Y-94762604D01*
X52831976Y-94667366D01*
X52879595Y-94572128D01*
X52927214Y-94524509D01*
X53022452Y-94476890D01*
X53212928Y-94429271D01*
X53308166Y-94381652D01*
X53355785Y-94334033D01*
X53403404Y-94238795D01*
X53403404Y-94143557D01*
X53355785Y-94048319D01*
X53308166Y-94000700D01*
X53212928Y-93953080D01*
X52974833Y-93953080D01*
X52831976Y-94000700D01*
X52641500Y-93585700D02*
X51689119Y-93585700D01*
X52451023Y-94905461D02*
X52308166Y-94953080D01*
X52070071Y-94953080D01*
X51974833Y-94905461D01*
X51927214Y-94857842D01*
X51879595Y-94762604D01*
X51879595Y-94667366D01*
X51927214Y-94572128D01*
X51974833Y-94524509D01*
X52070071Y-94476890D01*
X52260547Y-94429271D01*
X52355785Y-94381652D01*
X52403404Y-94334033D01*
X52451023Y-94238795D01*
X52451023Y-94143557D01*
X52403404Y-94048319D01*
X52355785Y-94000700D01*
X52260547Y-93953080D01*
X52022452Y-93953080D01*
X51879595Y-94000700D01*
X49317090Y-93800680D02*
X48698042Y-93800680D01*
X49031376Y-94181633D01*
X48888519Y-94181633D01*
X48793280Y-94229252D01*
X48745661Y-94276871D01*
X48698042Y-94372109D01*
X48698042Y-94610204D01*
X48745661Y-94705442D01*
X48793280Y-94753061D01*
X48888519Y-94800680D01*
X49174233Y-94800680D01*
X49269471Y-94753061D01*
X49317090Y-94705442D01*
X48269471Y-94705442D02*
X48221852Y-94753061D01*
X48269471Y-94800680D01*
X48317090Y-94753061D01*
X48269471Y-94705442D01*
X48269471Y-94800680D01*
X47888519Y-93800680D02*
X47269471Y-93800680D01*
X47602804Y-94181633D01*
X47459947Y-94181633D01*
X47364709Y-94229252D01*
X47317090Y-94276871D01*
X47269471Y-94372109D01*
X47269471Y-94610204D01*
X47317090Y-94705442D01*
X47364709Y-94753061D01*
X47459947Y-94800680D01*
X47745661Y-94800680D01*
X47840900Y-94753061D01*
X47888519Y-94705442D01*
X46983757Y-93800680D02*
X46650423Y-94800680D01*
X46317090Y-93800680D01*
X53393814Y-97216861D02*
X53250957Y-97264480D01*
X53012861Y-97264480D01*
X52917623Y-97216861D01*
X52870004Y-97169242D01*
X52822385Y-97074004D01*
X52822385Y-96978766D01*
X52870004Y-96883528D01*
X52917623Y-96835909D01*
X53012861Y-96788290D01*
X53203338Y-96740671D01*
X53298576Y-96693052D01*
X53346195Y-96645433D01*
X53393814Y-96550195D01*
X53393814Y-96454957D01*
X53346195Y-96359719D01*
X53298576Y-96312100D01*
X53203338Y-96264480D01*
X52965242Y-96264480D01*
X52822385Y-96312100D01*
X51822385Y-97169242D02*
X51870004Y-97216861D01*
X52012861Y-97264480D01*
X52108100Y-97264480D01*
X52250957Y-97216861D01*
X52346195Y-97121623D01*
X52393814Y-97026385D01*
X52441433Y-96835909D01*
X52441433Y-96693052D01*
X52393814Y-96502576D01*
X52346195Y-96407338D01*
X52250957Y-96312100D01*
X52108100Y-96264480D01*
X52012861Y-96264480D01*
X51870004Y-96312100D01*
X51822385Y-96359719D01*
X51393814Y-97264480D02*
X51393814Y-96264480D01*
X50822385Y-97264480D02*
X51250957Y-96693052D01*
X50822385Y-96264480D02*
X51393814Y-96835909D01*
X48704404Y-96312100D02*
X48799642Y-96264480D01*
X48942500Y-96264480D01*
X49085357Y-96312100D01*
X49180595Y-96407338D01*
X49228214Y-96502576D01*
X49275833Y-96693052D01*
X49275833Y-96835909D01*
X49228214Y-97026385D01*
X49180595Y-97121623D01*
X49085357Y-97216861D01*
X48942500Y-97264480D01*
X48847261Y-97264480D01*
X48704404Y-97216861D01*
X48656785Y-97169242D01*
X48656785Y-96835909D01*
X48847261Y-96835909D01*
X48228214Y-97264480D02*
X48228214Y-96264480D01*
X47656785Y-97264480D01*
X47656785Y-96264480D01*
X47180595Y-97264480D02*
X47180595Y-96264480D01*
X46942500Y-96264480D01*
X46799642Y-96312100D01*
X46704404Y-96407338D01*
X46656785Y-96502576D01*
X46609166Y-96693052D01*
X46609166Y-96835909D01*
X46656785Y-97026385D01*
X46704404Y-97121623D01*
X46799642Y-97216861D01*
X46942500Y-97264480D01*
X47180595Y-97264480D01*
X53273128Y-99677480D02*
X53273128Y-98677480D01*
X52939795Y-99391766D01*
X52606461Y-98677480D01*
X52606461Y-99677480D01*
X52130271Y-99677480D02*
X52130271Y-98677480D01*
X51701700Y-99629861D02*
X51558842Y-99677480D01*
X51320747Y-99677480D01*
X51225509Y-99629861D01*
X51177890Y-99582242D01*
X51130271Y-99487004D01*
X51130271Y-99391766D01*
X51177890Y-99296528D01*
X51225509Y-99248909D01*
X51320747Y-99201290D01*
X51511223Y-99153671D01*
X51606461Y-99106052D01*
X51654080Y-99058433D01*
X51701700Y-98963195D01*
X51701700Y-98867957D01*
X51654080Y-98772719D01*
X51606461Y-98725100D01*
X51511223Y-98677480D01*
X51273128Y-98677480D01*
X51130271Y-98725100D01*
X50511223Y-98677480D02*
X50320747Y-98677480D01*
X50225509Y-98725100D01*
X50130271Y-98820338D01*
X50082652Y-99010814D01*
X50082652Y-99344147D01*
X50130271Y-99534623D01*
X50225509Y-99629861D01*
X50320747Y-99677480D01*
X50511223Y-99677480D01*
X50606461Y-99629861D01*
X50701700Y-99534623D01*
X50749319Y-99344147D01*
X50749319Y-99010814D01*
X50701700Y-98820338D01*
X50606461Y-98725100D01*
X50511223Y-98677480D01*
X49069428Y-99677480D02*
X49069428Y-98677480D01*
X48736095Y-99391766D01*
X48402761Y-98677480D01*
X48402761Y-99677480D01*
X47736095Y-98677480D02*
X47545619Y-98677480D01*
X47450380Y-98725100D01*
X47355142Y-98820338D01*
X47307523Y-99010814D01*
X47307523Y-99344147D01*
X47355142Y-99534623D01*
X47450380Y-99629861D01*
X47545619Y-99677480D01*
X47736095Y-99677480D01*
X47831333Y-99629861D01*
X47926571Y-99534623D01*
X47974190Y-99344147D01*
X47974190Y-99010814D01*
X47926571Y-98820338D01*
X47831333Y-98725100D01*
X47736095Y-98677480D01*
X46926571Y-99629861D02*
X46783714Y-99677480D01*
X46545619Y-99677480D01*
X46450380Y-99629861D01*
X46402761Y-99582242D01*
X46355142Y-99487004D01*
X46355142Y-99391766D01*
X46402761Y-99296528D01*
X46450380Y-99248909D01*
X46545619Y-99201290D01*
X46736095Y-99153671D01*
X46831333Y-99106052D01*
X46878952Y-99058433D01*
X46926571Y-98963195D01*
X46926571Y-98867957D01*
X46878952Y-98772719D01*
X46831333Y-98725100D01*
X46736095Y-98677480D01*
X46498000Y-98677480D01*
X46355142Y-98725100D01*
X45926571Y-99677480D02*
X45926571Y-98677480D01*
X48375866Y-103817680D02*
X48709200Y-103341490D01*
X48947295Y-103817680D02*
X48947295Y-102817680D01*
X48566342Y-102817680D01*
X48471104Y-102865300D01*
X48423485Y-102912919D01*
X48375866Y-103008157D01*
X48375866Y-103151014D01*
X48423485Y-103246252D01*
X48471104Y-103293871D01*
X48566342Y-103341490D01*
X48947295Y-103341490D01*
X48042533Y-102817680D02*
X47375866Y-103817680D01*
X47375866Y-102817680D02*
X48042533Y-103817680D01*
X53276404Y-102830380D02*
X52704976Y-102830380D01*
X52990690Y-103830380D02*
X52990690Y-102830380D01*
X52466880Y-102830380D02*
X51800214Y-103830380D01*
X51800214Y-102830380D02*
X52466880Y-103830380D01*
M02*
