%TF.GenerationSoftware,KiCad,Pcbnew,5.1.12-84ad8e8a86~92~ubuntu20.04.1*%
%TF.CreationDate,2021-12-25T03:04:52-06:00*%
%TF.ProjectId,Solder_Reflow_Oven_2.0,536f6c64-6572-45f5-9265-666c6f775f4f,rev?*%
%TF.SameCoordinates,Original*%
%TF.FileFunction,Soldermask,Top*%
%TF.FilePolarity,Negative*%
%FSLAX46Y46*%
G04 Gerber Fmt 4.6, Leading zero omitted, Abs format (unit mm)*
G04 Created by KiCad (PCBNEW 5.1.12-84ad8e8a86~92~ubuntu20.04.1) date 2021-12-25 03:04:52*
%MOMM*%
%LPD*%
G01*
G04 APERTURE LIST*
%ADD10R,1.700000X1.700000*%
%ADD11O,1.700000X1.700000*%
%ADD12R,1.600000X1.600000*%
%ADD13C,1.600000*%
%ADD14C,4.000000*%
%ADD15R,2.200000X1.800000*%
%ADD16R,1.300000X0.300000*%
%ADD17R,1.300000X1.550000*%
%ADD18C,2.600000*%
%ADD19R,2.600000X2.600000*%
%ADD20R,2.200000X1.200000*%
%ADD21R,6.400000X5.800000*%
%ADD22R,1.060000X0.650000*%
%ADD23R,1.000000X0.800000*%
%ADD24R,1.800000X2.100000*%
%ADD25R,2.000000X3.800000*%
%ADD26R,2.000000X1.500000*%
%ADD27R,2.000000X2.000000*%
%ADD28C,2.000000*%
%ADD29C,1.524000*%
G04 APERTURE END LIST*
D10*
%TO.C,J8*%
X44132500Y-103212900D03*
D11*
X41592500Y-103212900D03*
%TD*%
D12*
%TO.C,J2*%
X46494700Y-116382800D03*
D13*
X46494700Y-113882800D03*
X44494700Y-113882800D03*
X44494700Y-116382800D03*
D14*
X41634700Y-109132800D03*
X41634700Y-121132800D03*
%TD*%
%TO.C,R4*%
G36*
G01*
X48902199Y-120154900D02*
X49802201Y-120154900D01*
G75*
G02*
X50052200Y-120404899I0J-249999D01*
G01*
X50052200Y-121104901D01*
G75*
G02*
X49802201Y-121354900I-249999J0D01*
G01*
X48902199Y-121354900D01*
G75*
G02*
X48652200Y-121104901I0J249999D01*
G01*
X48652200Y-120404899D01*
G75*
G02*
X48902199Y-120154900I249999J0D01*
G01*
G37*
G36*
G01*
X48902199Y-122154900D02*
X49802201Y-122154900D01*
G75*
G02*
X50052200Y-122404899I0J-249999D01*
G01*
X50052200Y-123104901D01*
G75*
G02*
X49802201Y-123354900I-249999J0D01*
G01*
X48902199Y-123354900D01*
G75*
G02*
X48652200Y-123104901I0J249999D01*
G01*
X48652200Y-122404899D01*
G75*
G02*
X48902199Y-122154900I249999J0D01*
G01*
G37*
%TD*%
%TO.C,C1*%
G36*
G01*
X77972500Y-123032500D02*
X77972500Y-123982500D01*
G75*
G02*
X77722500Y-124232500I-250000J0D01*
G01*
X77047500Y-124232500D01*
G75*
G02*
X76797500Y-123982500I0J250000D01*
G01*
X76797500Y-123032500D01*
G75*
G02*
X77047500Y-122782500I250000J0D01*
G01*
X77722500Y-122782500D01*
G75*
G02*
X77972500Y-123032500I0J-250000D01*
G01*
G37*
G36*
G01*
X80047500Y-123032500D02*
X80047500Y-123982500D01*
G75*
G02*
X79797500Y-124232500I-250000J0D01*
G01*
X79122500Y-124232500D01*
G75*
G02*
X78872500Y-123982500I0J250000D01*
G01*
X78872500Y-123032500D01*
G75*
G02*
X79122500Y-122782500I250000J0D01*
G01*
X79797500Y-122782500D01*
G75*
G02*
X80047500Y-123032500I0J-250000D01*
G01*
G37*
%TD*%
%TO.C,C2*%
G36*
G01*
X74427500Y-113886000D02*
X74427500Y-112936000D01*
G75*
G02*
X74677500Y-112686000I250000J0D01*
G01*
X75352500Y-112686000D01*
G75*
G02*
X75602500Y-112936000I0J-250000D01*
G01*
X75602500Y-113886000D01*
G75*
G02*
X75352500Y-114136000I-250000J0D01*
G01*
X74677500Y-114136000D01*
G75*
G02*
X74427500Y-113886000I0J250000D01*
G01*
G37*
G36*
G01*
X72352500Y-113886000D02*
X72352500Y-112936000D01*
G75*
G02*
X72602500Y-112686000I250000J0D01*
G01*
X73277500Y-112686000D01*
G75*
G02*
X73527500Y-112936000I0J-250000D01*
G01*
X73527500Y-113886000D01*
G75*
G02*
X73277500Y-114136000I-250000J0D01*
G01*
X72602500Y-114136000D01*
G75*
G02*
X72352500Y-113886000I0J250000D01*
G01*
G37*
%TD*%
%TO.C,C4*%
G36*
G01*
X68522000Y-107028000D02*
X68522000Y-106078000D01*
G75*
G02*
X68772000Y-105828000I250000J0D01*
G01*
X69447000Y-105828000D01*
G75*
G02*
X69697000Y-106078000I0J-250000D01*
G01*
X69697000Y-107028000D01*
G75*
G02*
X69447000Y-107278000I-250000J0D01*
G01*
X68772000Y-107278000D01*
G75*
G02*
X68522000Y-107028000I0J250000D01*
G01*
G37*
G36*
G01*
X66447000Y-107028000D02*
X66447000Y-106078000D01*
G75*
G02*
X66697000Y-105828000I250000J0D01*
G01*
X67372000Y-105828000D01*
G75*
G02*
X67622000Y-106078000I0J-250000D01*
G01*
X67622000Y-107028000D01*
G75*
G02*
X67372000Y-107278000I-250000J0D01*
G01*
X66697000Y-107278000D01*
G75*
G02*
X66447000Y-107028000I0J250000D01*
G01*
G37*
%TD*%
%TO.C,C5*%
G36*
G01*
X69184500Y-122243000D02*
X70134500Y-122243000D01*
G75*
G02*
X70384500Y-122493000I0J-250000D01*
G01*
X70384500Y-123168000D01*
G75*
G02*
X70134500Y-123418000I-250000J0D01*
G01*
X69184500Y-123418000D01*
G75*
G02*
X68934500Y-123168000I0J250000D01*
G01*
X68934500Y-122493000D01*
G75*
G02*
X69184500Y-122243000I250000J0D01*
G01*
G37*
G36*
G01*
X69184500Y-120168000D02*
X70134500Y-120168000D01*
G75*
G02*
X70384500Y-120418000I0J-250000D01*
G01*
X70384500Y-121093000D01*
G75*
G02*
X70134500Y-121343000I-250000J0D01*
G01*
X69184500Y-121343000D01*
G75*
G02*
X68934500Y-121093000I0J250000D01*
G01*
X68934500Y-120418000D01*
G75*
G02*
X69184500Y-120168000I250000J0D01*
G01*
G37*
%TD*%
%TO.C,C6*%
G36*
G01*
X62553000Y-107028000D02*
X62553000Y-106078000D01*
G75*
G02*
X62803000Y-105828000I250000J0D01*
G01*
X63478000Y-105828000D01*
G75*
G02*
X63728000Y-106078000I0J-250000D01*
G01*
X63728000Y-107028000D01*
G75*
G02*
X63478000Y-107278000I-250000J0D01*
G01*
X62803000Y-107278000D01*
G75*
G02*
X62553000Y-107028000I0J250000D01*
G01*
G37*
G36*
G01*
X60478000Y-107028000D02*
X60478000Y-106078000D01*
G75*
G02*
X60728000Y-105828000I250000J0D01*
G01*
X61403000Y-105828000D01*
G75*
G02*
X61653000Y-106078000I0J-250000D01*
G01*
X61653000Y-107028000D01*
G75*
G02*
X61403000Y-107278000I-250000J0D01*
G01*
X60728000Y-107278000D01*
G75*
G02*
X60478000Y-107028000I0J250000D01*
G01*
G37*
%TD*%
%TO.C,C7*%
G36*
G01*
X77083500Y-115222000D02*
X77083500Y-116172000D01*
G75*
G02*
X76833500Y-116422000I-250000J0D01*
G01*
X76158500Y-116422000D01*
G75*
G02*
X75908500Y-116172000I0J250000D01*
G01*
X75908500Y-115222000D01*
G75*
G02*
X76158500Y-114972000I250000J0D01*
G01*
X76833500Y-114972000D01*
G75*
G02*
X77083500Y-115222000I0J-250000D01*
G01*
G37*
G36*
G01*
X79158500Y-115222000D02*
X79158500Y-116172000D01*
G75*
G02*
X78908500Y-116422000I-250000J0D01*
G01*
X78233500Y-116422000D01*
G75*
G02*
X77983500Y-116172000I0J250000D01*
G01*
X77983500Y-115222000D01*
G75*
G02*
X78233500Y-114972000I250000J0D01*
G01*
X78908500Y-114972000D01*
G75*
G02*
X79158500Y-115222000I0J-250000D01*
G01*
G37*
%TD*%
%TO.C,C8*%
G36*
G01*
X62553000Y-104869000D02*
X62553000Y-103919000D01*
G75*
G02*
X62803000Y-103669000I250000J0D01*
G01*
X63478000Y-103669000D01*
G75*
G02*
X63728000Y-103919000I0J-250000D01*
G01*
X63728000Y-104869000D01*
G75*
G02*
X63478000Y-105119000I-250000J0D01*
G01*
X62803000Y-105119000D01*
G75*
G02*
X62553000Y-104869000I0J250000D01*
G01*
G37*
G36*
G01*
X60478000Y-104869000D02*
X60478000Y-103919000D01*
G75*
G02*
X60728000Y-103669000I250000J0D01*
G01*
X61403000Y-103669000D01*
G75*
G02*
X61653000Y-103919000I0J-250000D01*
G01*
X61653000Y-104869000D01*
G75*
G02*
X61403000Y-105119000I-250000J0D01*
G01*
X60728000Y-105119000D01*
G75*
G02*
X60478000Y-104869000I0J250000D01*
G01*
G37*
%TD*%
%TO.C,C9*%
G36*
G01*
X68522000Y-104869000D02*
X68522000Y-103919000D01*
G75*
G02*
X68772000Y-103669000I250000J0D01*
G01*
X69447000Y-103669000D01*
G75*
G02*
X69697000Y-103919000I0J-250000D01*
G01*
X69697000Y-104869000D01*
G75*
G02*
X69447000Y-105119000I-250000J0D01*
G01*
X68772000Y-105119000D01*
G75*
G02*
X68522000Y-104869000I0J250000D01*
G01*
G37*
G36*
G01*
X66447000Y-104869000D02*
X66447000Y-103919000D01*
G75*
G02*
X66697000Y-103669000I250000J0D01*
G01*
X67372000Y-103669000D01*
G75*
G02*
X67622000Y-103919000I0J-250000D01*
G01*
X67622000Y-104869000D01*
G75*
G02*
X67372000Y-105119000I-250000J0D01*
G01*
X66697000Y-105119000D01*
G75*
G02*
X66447000Y-104869000I0J250000D01*
G01*
G37*
%TD*%
%TO.C,C11*%
G36*
G01*
X71343500Y-122221500D02*
X72293500Y-122221500D01*
G75*
G02*
X72543500Y-122471500I0J-250000D01*
G01*
X72543500Y-123146500D01*
G75*
G02*
X72293500Y-123396500I-250000J0D01*
G01*
X71343500Y-123396500D01*
G75*
G02*
X71093500Y-123146500I0J250000D01*
G01*
X71093500Y-122471500D01*
G75*
G02*
X71343500Y-122221500I250000J0D01*
G01*
G37*
G36*
G01*
X71343500Y-120146500D02*
X72293500Y-120146500D01*
G75*
G02*
X72543500Y-120396500I0J-250000D01*
G01*
X72543500Y-121071500D01*
G75*
G02*
X72293500Y-121321500I-250000J0D01*
G01*
X71343500Y-121321500D01*
G75*
G02*
X71093500Y-121071500I0J250000D01*
G01*
X71093500Y-120396500D01*
G75*
G02*
X71343500Y-120146500I250000J0D01*
G01*
G37*
%TD*%
%TO.C,C12*%
G36*
G01*
X55021500Y-118422000D02*
X54071500Y-118422000D01*
G75*
G02*
X53821500Y-118172000I0J250000D01*
G01*
X53821500Y-117497000D01*
G75*
G02*
X54071500Y-117247000I250000J0D01*
G01*
X55021500Y-117247000D01*
G75*
G02*
X55271500Y-117497000I0J-250000D01*
G01*
X55271500Y-118172000D01*
G75*
G02*
X55021500Y-118422000I-250000J0D01*
G01*
G37*
G36*
G01*
X55021500Y-120497000D02*
X54071500Y-120497000D01*
G75*
G02*
X53821500Y-120247000I0J250000D01*
G01*
X53821500Y-119572000D01*
G75*
G02*
X54071500Y-119322000I250000J0D01*
G01*
X55021500Y-119322000D01*
G75*
G02*
X55271500Y-119572000I0J-250000D01*
G01*
X55271500Y-120247000D01*
G75*
G02*
X55021500Y-120497000I-250000J0D01*
G01*
G37*
%TD*%
%TO.C,C13*%
G36*
G01*
X96082700Y-100299500D02*
X96082700Y-101249500D01*
G75*
G02*
X95832700Y-101499500I-250000J0D01*
G01*
X95157700Y-101499500D01*
G75*
G02*
X94907700Y-101249500I0J250000D01*
G01*
X94907700Y-100299500D01*
G75*
G02*
X95157700Y-100049500I250000J0D01*
G01*
X95832700Y-100049500D01*
G75*
G02*
X96082700Y-100299500I0J-250000D01*
G01*
G37*
G36*
G01*
X98157700Y-100299500D02*
X98157700Y-101249500D01*
G75*
G02*
X97907700Y-101499500I-250000J0D01*
G01*
X97232700Y-101499500D01*
G75*
G02*
X96982700Y-101249500I0J250000D01*
G01*
X96982700Y-100299500D01*
G75*
G02*
X97232700Y-100049500I250000J0D01*
G01*
X97907700Y-100049500D01*
G75*
G02*
X98157700Y-100299500I0J-250000D01*
G01*
G37*
%TD*%
%TO.C,C14*%
G36*
G01*
X72613500Y-109987500D02*
X73563500Y-109987500D01*
G75*
G02*
X73813500Y-110237500I0J-250000D01*
G01*
X73813500Y-110912500D01*
G75*
G02*
X73563500Y-111162500I-250000J0D01*
G01*
X72613500Y-111162500D01*
G75*
G02*
X72363500Y-110912500I0J250000D01*
G01*
X72363500Y-110237500D01*
G75*
G02*
X72613500Y-109987500I250000J0D01*
G01*
G37*
G36*
G01*
X72613500Y-107912500D02*
X73563500Y-107912500D01*
G75*
G02*
X73813500Y-108162500I0J-250000D01*
G01*
X73813500Y-108837500D01*
G75*
G02*
X73563500Y-109087500I-250000J0D01*
G01*
X72613500Y-109087500D01*
G75*
G02*
X72363500Y-108837500I0J250000D01*
G01*
X72363500Y-108162500D01*
G75*
G02*
X72613500Y-107912500I250000J0D01*
G01*
G37*
%TD*%
%TO.C,C15*%
G36*
G01*
X74709000Y-109987500D02*
X75659000Y-109987500D01*
G75*
G02*
X75909000Y-110237500I0J-250000D01*
G01*
X75909000Y-110912500D01*
G75*
G02*
X75659000Y-111162500I-250000J0D01*
G01*
X74709000Y-111162500D01*
G75*
G02*
X74459000Y-110912500I0J250000D01*
G01*
X74459000Y-110237500D01*
G75*
G02*
X74709000Y-109987500I250000J0D01*
G01*
G37*
G36*
G01*
X74709000Y-107912500D02*
X75659000Y-107912500D01*
G75*
G02*
X75909000Y-108162500I0J-250000D01*
G01*
X75909000Y-108837500D01*
G75*
G02*
X75659000Y-109087500I-250000J0D01*
G01*
X74709000Y-109087500D01*
G75*
G02*
X74459000Y-108837500I0J250000D01*
G01*
X74459000Y-108162500D01*
G75*
G02*
X74709000Y-107912500I250000J0D01*
G01*
G37*
%TD*%
%TO.C,C16*%
G36*
G01*
X56457000Y-130840500D02*
X56457000Y-129890500D01*
G75*
G02*
X56707000Y-129640500I250000J0D01*
G01*
X57382000Y-129640500D01*
G75*
G02*
X57632000Y-129890500I0J-250000D01*
G01*
X57632000Y-130840500D01*
G75*
G02*
X57382000Y-131090500I-250000J0D01*
G01*
X56707000Y-131090500D01*
G75*
G02*
X56457000Y-130840500I0J250000D01*
G01*
G37*
G36*
G01*
X54382000Y-130840500D02*
X54382000Y-129890500D01*
G75*
G02*
X54632000Y-129640500I250000J0D01*
G01*
X55307000Y-129640500D01*
G75*
G02*
X55557000Y-129890500I0J-250000D01*
G01*
X55557000Y-130840500D01*
G75*
G02*
X55307000Y-131090500I-250000J0D01*
G01*
X54632000Y-131090500D01*
G75*
G02*
X54382000Y-130840500I0J250000D01*
G01*
G37*
%TD*%
%TO.C,C3*%
G36*
G01*
X57117000Y-118422000D02*
X56167000Y-118422000D01*
G75*
G02*
X55917000Y-118172000I0J250000D01*
G01*
X55917000Y-117497000D01*
G75*
G02*
X56167000Y-117247000I250000J0D01*
G01*
X57117000Y-117247000D01*
G75*
G02*
X57367000Y-117497000I0J-250000D01*
G01*
X57367000Y-118172000D01*
G75*
G02*
X57117000Y-118422000I-250000J0D01*
G01*
G37*
G36*
G01*
X57117000Y-120497000D02*
X56167000Y-120497000D01*
G75*
G02*
X55917000Y-120247000I0J250000D01*
G01*
X55917000Y-119572000D01*
G75*
G02*
X56167000Y-119322000I250000J0D01*
G01*
X57117000Y-119322000D01*
G75*
G02*
X57367000Y-119572000I0J-250000D01*
G01*
X57367000Y-120247000D01*
G75*
G02*
X57117000Y-120497000I-250000J0D01*
G01*
G37*
%TD*%
%TO.C,U4*%
G36*
G01*
X70826300Y-118114700D02*
X70826300Y-118264700D01*
G75*
G02*
X70751300Y-118339700I-75000J0D01*
G01*
X69351300Y-118339700D01*
G75*
G02*
X69276300Y-118264700I0J75000D01*
G01*
X69276300Y-118114700D01*
G75*
G02*
X69351300Y-118039700I75000J0D01*
G01*
X70751300Y-118039700D01*
G75*
G02*
X70826300Y-118114700I0J-75000D01*
G01*
G37*
G36*
G01*
X70826300Y-117614700D02*
X70826300Y-117764700D01*
G75*
G02*
X70751300Y-117839700I-75000J0D01*
G01*
X69351300Y-117839700D01*
G75*
G02*
X69276300Y-117764700I0J75000D01*
G01*
X69276300Y-117614700D01*
G75*
G02*
X69351300Y-117539700I75000J0D01*
G01*
X70751300Y-117539700D01*
G75*
G02*
X70826300Y-117614700I0J-75000D01*
G01*
G37*
G36*
G01*
X70826300Y-117114700D02*
X70826300Y-117264700D01*
G75*
G02*
X70751300Y-117339700I-75000J0D01*
G01*
X69351300Y-117339700D01*
G75*
G02*
X69276300Y-117264700I0J75000D01*
G01*
X69276300Y-117114700D01*
G75*
G02*
X69351300Y-117039700I75000J0D01*
G01*
X70751300Y-117039700D01*
G75*
G02*
X70826300Y-117114700I0J-75000D01*
G01*
G37*
G36*
G01*
X70826300Y-116614700D02*
X70826300Y-116764700D01*
G75*
G02*
X70751300Y-116839700I-75000J0D01*
G01*
X69351300Y-116839700D01*
G75*
G02*
X69276300Y-116764700I0J75000D01*
G01*
X69276300Y-116614700D01*
G75*
G02*
X69351300Y-116539700I75000J0D01*
G01*
X70751300Y-116539700D01*
G75*
G02*
X70826300Y-116614700I0J-75000D01*
G01*
G37*
G36*
G01*
X70826300Y-116114700D02*
X70826300Y-116264700D01*
G75*
G02*
X70751300Y-116339700I-75000J0D01*
G01*
X69351300Y-116339700D01*
G75*
G02*
X69276300Y-116264700I0J75000D01*
G01*
X69276300Y-116114700D01*
G75*
G02*
X69351300Y-116039700I75000J0D01*
G01*
X70751300Y-116039700D01*
G75*
G02*
X70826300Y-116114700I0J-75000D01*
G01*
G37*
G36*
G01*
X70826300Y-115614700D02*
X70826300Y-115764700D01*
G75*
G02*
X70751300Y-115839700I-75000J0D01*
G01*
X69351300Y-115839700D01*
G75*
G02*
X69276300Y-115764700I0J75000D01*
G01*
X69276300Y-115614700D01*
G75*
G02*
X69351300Y-115539700I75000J0D01*
G01*
X70751300Y-115539700D01*
G75*
G02*
X70826300Y-115614700I0J-75000D01*
G01*
G37*
G36*
G01*
X70826300Y-115114700D02*
X70826300Y-115264700D01*
G75*
G02*
X70751300Y-115339700I-75000J0D01*
G01*
X69351300Y-115339700D01*
G75*
G02*
X69276300Y-115264700I0J75000D01*
G01*
X69276300Y-115114700D01*
G75*
G02*
X69351300Y-115039700I75000J0D01*
G01*
X70751300Y-115039700D01*
G75*
G02*
X70826300Y-115114700I0J-75000D01*
G01*
G37*
G36*
G01*
X70826300Y-114614700D02*
X70826300Y-114764700D01*
G75*
G02*
X70751300Y-114839700I-75000J0D01*
G01*
X69351300Y-114839700D01*
G75*
G02*
X69276300Y-114764700I0J75000D01*
G01*
X69276300Y-114614700D01*
G75*
G02*
X69351300Y-114539700I75000J0D01*
G01*
X70751300Y-114539700D01*
G75*
G02*
X70826300Y-114614700I0J-75000D01*
G01*
G37*
G36*
G01*
X70826300Y-114114700D02*
X70826300Y-114264700D01*
G75*
G02*
X70751300Y-114339700I-75000J0D01*
G01*
X69351300Y-114339700D01*
G75*
G02*
X69276300Y-114264700I0J75000D01*
G01*
X69276300Y-114114700D01*
G75*
G02*
X69351300Y-114039700I75000J0D01*
G01*
X70751300Y-114039700D01*
G75*
G02*
X70826300Y-114114700I0J-75000D01*
G01*
G37*
G36*
G01*
X70826300Y-113614700D02*
X70826300Y-113764700D01*
G75*
G02*
X70751300Y-113839700I-75000J0D01*
G01*
X69351300Y-113839700D01*
G75*
G02*
X69276300Y-113764700I0J75000D01*
G01*
X69276300Y-113614700D01*
G75*
G02*
X69351300Y-113539700I75000J0D01*
G01*
X70751300Y-113539700D01*
G75*
G02*
X70826300Y-113614700I0J-75000D01*
G01*
G37*
G36*
G01*
X70826300Y-113114700D02*
X70826300Y-113264700D01*
G75*
G02*
X70751300Y-113339700I-75000J0D01*
G01*
X69351300Y-113339700D01*
G75*
G02*
X69276300Y-113264700I0J75000D01*
G01*
X69276300Y-113114700D01*
G75*
G02*
X69351300Y-113039700I75000J0D01*
G01*
X70751300Y-113039700D01*
G75*
G02*
X70826300Y-113114700I0J-75000D01*
G01*
G37*
G36*
G01*
X70826300Y-112614700D02*
X70826300Y-112764700D01*
G75*
G02*
X70751300Y-112839700I-75000J0D01*
G01*
X69351300Y-112839700D01*
G75*
G02*
X69276300Y-112764700I0J75000D01*
G01*
X69276300Y-112614700D01*
G75*
G02*
X69351300Y-112539700I75000J0D01*
G01*
X70751300Y-112539700D01*
G75*
G02*
X70826300Y-112614700I0J-75000D01*
G01*
G37*
G36*
G01*
X70826300Y-112114700D02*
X70826300Y-112264700D01*
G75*
G02*
X70751300Y-112339700I-75000J0D01*
G01*
X69351300Y-112339700D01*
G75*
G02*
X69276300Y-112264700I0J75000D01*
G01*
X69276300Y-112114700D01*
G75*
G02*
X69351300Y-112039700I75000J0D01*
G01*
X70751300Y-112039700D01*
G75*
G02*
X70826300Y-112114700I0J-75000D01*
G01*
G37*
G36*
G01*
X70826300Y-111614700D02*
X70826300Y-111764700D01*
G75*
G02*
X70751300Y-111839700I-75000J0D01*
G01*
X69351300Y-111839700D01*
G75*
G02*
X69276300Y-111764700I0J75000D01*
G01*
X69276300Y-111614700D01*
G75*
G02*
X69351300Y-111539700I75000J0D01*
G01*
X70751300Y-111539700D01*
G75*
G02*
X70826300Y-111614700I0J-75000D01*
G01*
G37*
G36*
G01*
X70826300Y-111114700D02*
X70826300Y-111264700D01*
G75*
G02*
X70751300Y-111339700I-75000J0D01*
G01*
X69351300Y-111339700D01*
G75*
G02*
X69276300Y-111264700I0J75000D01*
G01*
X69276300Y-111114700D01*
G75*
G02*
X69351300Y-111039700I75000J0D01*
G01*
X70751300Y-111039700D01*
G75*
G02*
X70826300Y-111114700I0J-75000D01*
G01*
G37*
G36*
G01*
X70826300Y-110614700D02*
X70826300Y-110764700D01*
G75*
G02*
X70751300Y-110839700I-75000J0D01*
G01*
X69351300Y-110839700D01*
G75*
G02*
X69276300Y-110764700I0J75000D01*
G01*
X69276300Y-110614700D01*
G75*
G02*
X69351300Y-110539700I75000J0D01*
G01*
X70751300Y-110539700D01*
G75*
G02*
X70826300Y-110614700I0J-75000D01*
G01*
G37*
G36*
G01*
X68276300Y-108064700D02*
X68276300Y-109464700D01*
G75*
G02*
X68201300Y-109539700I-75000J0D01*
G01*
X68051300Y-109539700D01*
G75*
G02*
X67976300Y-109464700I0J75000D01*
G01*
X67976300Y-108064700D01*
G75*
G02*
X68051300Y-107989700I75000J0D01*
G01*
X68201300Y-107989700D01*
G75*
G02*
X68276300Y-108064700I0J-75000D01*
G01*
G37*
G36*
G01*
X67776300Y-108064700D02*
X67776300Y-109464700D01*
G75*
G02*
X67701300Y-109539700I-75000J0D01*
G01*
X67551300Y-109539700D01*
G75*
G02*
X67476300Y-109464700I0J75000D01*
G01*
X67476300Y-108064700D01*
G75*
G02*
X67551300Y-107989700I75000J0D01*
G01*
X67701300Y-107989700D01*
G75*
G02*
X67776300Y-108064700I0J-75000D01*
G01*
G37*
G36*
G01*
X67276300Y-108064700D02*
X67276300Y-109464700D01*
G75*
G02*
X67201300Y-109539700I-75000J0D01*
G01*
X67051300Y-109539700D01*
G75*
G02*
X66976300Y-109464700I0J75000D01*
G01*
X66976300Y-108064700D01*
G75*
G02*
X67051300Y-107989700I75000J0D01*
G01*
X67201300Y-107989700D01*
G75*
G02*
X67276300Y-108064700I0J-75000D01*
G01*
G37*
G36*
G01*
X66776300Y-108064700D02*
X66776300Y-109464700D01*
G75*
G02*
X66701300Y-109539700I-75000J0D01*
G01*
X66551300Y-109539700D01*
G75*
G02*
X66476300Y-109464700I0J75000D01*
G01*
X66476300Y-108064700D01*
G75*
G02*
X66551300Y-107989700I75000J0D01*
G01*
X66701300Y-107989700D01*
G75*
G02*
X66776300Y-108064700I0J-75000D01*
G01*
G37*
G36*
G01*
X66276300Y-108064700D02*
X66276300Y-109464700D01*
G75*
G02*
X66201300Y-109539700I-75000J0D01*
G01*
X66051300Y-109539700D01*
G75*
G02*
X65976300Y-109464700I0J75000D01*
G01*
X65976300Y-108064700D01*
G75*
G02*
X66051300Y-107989700I75000J0D01*
G01*
X66201300Y-107989700D01*
G75*
G02*
X66276300Y-108064700I0J-75000D01*
G01*
G37*
G36*
G01*
X65776300Y-108064700D02*
X65776300Y-109464700D01*
G75*
G02*
X65701300Y-109539700I-75000J0D01*
G01*
X65551300Y-109539700D01*
G75*
G02*
X65476300Y-109464700I0J75000D01*
G01*
X65476300Y-108064700D01*
G75*
G02*
X65551300Y-107989700I75000J0D01*
G01*
X65701300Y-107989700D01*
G75*
G02*
X65776300Y-108064700I0J-75000D01*
G01*
G37*
G36*
G01*
X65276300Y-108064700D02*
X65276300Y-109464700D01*
G75*
G02*
X65201300Y-109539700I-75000J0D01*
G01*
X65051300Y-109539700D01*
G75*
G02*
X64976300Y-109464700I0J75000D01*
G01*
X64976300Y-108064700D01*
G75*
G02*
X65051300Y-107989700I75000J0D01*
G01*
X65201300Y-107989700D01*
G75*
G02*
X65276300Y-108064700I0J-75000D01*
G01*
G37*
G36*
G01*
X64776300Y-108064700D02*
X64776300Y-109464700D01*
G75*
G02*
X64701300Y-109539700I-75000J0D01*
G01*
X64551300Y-109539700D01*
G75*
G02*
X64476300Y-109464700I0J75000D01*
G01*
X64476300Y-108064700D01*
G75*
G02*
X64551300Y-107989700I75000J0D01*
G01*
X64701300Y-107989700D01*
G75*
G02*
X64776300Y-108064700I0J-75000D01*
G01*
G37*
G36*
G01*
X64276300Y-108064700D02*
X64276300Y-109464700D01*
G75*
G02*
X64201300Y-109539700I-75000J0D01*
G01*
X64051300Y-109539700D01*
G75*
G02*
X63976300Y-109464700I0J75000D01*
G01*
X63976300Y-108064700D01*
G75*
G02*
X64051300Y-107989700I75000J0D01*
G01*
X64201300Y-107989700D01*
G75*
G02*
X64276300Y-108064700I0J-75000D01*
G01*
G37*
G36*
G01*
X63776300Y-108064700D02*
X63776300Y-109464700D01*
G75*
G02*
X63701300Y-109539700I-75000J0D01*
G01*
X63551300Y-109539700D01*
G75*
G02*
X63476300Y-109464700I0J75000D01*
G01*
X63476300Y-108064700D01*
G75*
G02*
X63551300Y-107989700I75000J0D01*
G01*
X63701300Y-107989700D01*
G75*
G02*
X63776300Y-108064700I0J-75000D01*
G01*
G37*
G36*
G01*
X63276300Y-108064700D02*
X63276300Y-109464700D01*
G75*
G02*
X63201300Y-109539700I-75000J0D01*
G01*
X63051300Y-109539700D01*
G75*
G02*
X62976300Y-109464700I0J75000D01*
G01*
X62976300Y-108064700D01*
G75*
G02*
X63051300Y-107989700I75000J0D01*
G01*
X63201300Y-107989700D01*
G75*
G02*
X63276300Y-108064700I0J-75000D01*
G01*
G37*
G36*
G01*
X62776300Y-108064700D02*
X62776300Y-109464700D01*
G75*
G02*
X62701300Y-109539700I-75000J0D01*
G01*
X62551300Y-109539700D01*
G75*
G02*
X62476300Y-109464700I0J75000D01*
G01*
X62476300Y-108064700D01*
G75*
G02*
X62551300Y-107989700I75000J0D01*
G01*
X62701300Y-107989700D01*
G75*
G02*
X62776300Y-108064700I0J-75000D01*
G01*
G37*
G36*
G01*
X62276300Y-108064700D02*
X62276300Y-109464700D01*
G75*
G02*
X62201300Y-109539700I-75000J0D01*
G01*
X62051300Y-109539700D01*
G75*
G02*
X61976300Y-109464700I0J75000D01*
G01*
X61976300Y-108064700D01*
G75*
G02*
X62051300Y-107989700I75000J0D01*
G01*
X62201300Y-107989700D01*
G75*
G02*
X62276300Y-108064700I0J-75000D01*
G01*
G37*
G36*
G01*
X61776300Y-108064700D02*
X61776300Y-109464700D01*
G75*
G02*
X61701300Y-109539700I-75000J0D01*
G01*
X61551300Y-109539700D01*
G75*
G02*
X61476300Y-109464700I0J75000D01*
G01*
X61476300Y-108064700D01*
G75*
G02*
X61551300Y-107989700I75000J0D01*
G01*
X61701300Y-107989700D01*
G75*
G02*
X61776300Y-108064700I0J-75000D01*
G01*
G37*
G36*
G01*
X61276300Y-108064700D02*
X61276300Y-109464700D01*
G75*
G02*
X61201300Y-109539700I-75000J0D01*
G01*
X61051300Y-109539700D01*
G75*
G02*
X60976300Y-109464700I0J75000D01*
G01*
X60976300Y-108064700D01*
G75*
G02*
X61051300Y-107989700I75000J0D01*
G01*
X61201300Y-107989700D01*
G75*
G02*
X61276300Y-108064700I0J-75000D01*
G01*
G37*
G36*
G01*
X60776300Y-108064700D02*
X60776300Y-109464700D01*
G75*
G02*
X60701300Y-109539700I-75000J0D01*
G01*
X60551300Y-109539700D01*
G75*
G02*
X60476300Y-109464700I0J75000D01*
G01*
X60476300Y-108064700D01*
G75*
G02*
X60551300Y-107989700I75000J0D01*
G01*
X60701300Y-107989700D01*
G75*
G02*
X60776300Y-108064700I0J-75000D01*
G01*
G37*
G36*
G01*
X59476300Y-110614700D02*
X59476300Y-110764700D01*
G75*
G02*
X59401300Y-110839700I-75000J0D01*
G01*
X58001300Y-110839700D01*
G75*
G02*
X57926300Y-110764700I0J75000D01*
G01*
X57926300Y-110614700D01*
G75*
G02*
X58001300Y-110539700I75000J0D01*
G01*
X59401300Y-110539700D01*
G75*
G02*
X59476300Y-110614700I0J-75000D01*
G01*
G37*
G36*
G01*
X59476300Y-111114700D02*
X59476300Y-111264700D01*
G75*
G02*
X59401300Y-111339700I-75000J0D01*
G01*
X58001300Y-111339700D01*
G75*
G02*
X57926300Y-111264700I0J75000D01*
G01*
X57926300Y-111114700D01*
G75*
G02*
X58001300Y-111039700I75000J0D01*
G01*
X59401300Y-111039700D01*
G75*
G02*
X59476300Y-111114700I0J-75000D01*
G01*
G37*
G36*
G01*
X59476300Y-111614700D02*
X59476300Y-111764700D01*
G75*
G02*
X59401300Y-111839700I-75000J0D01*
G01*
X58001300Y-111839700D01*
G75*
G02*
X57926300Y-111764700I0J75000D01*
G01*
X57926300Y-111614700D01*
G75*
G02*
X58001300Y-111539700I75000J0D01*
G01*
X59401300Y-111539700D01*
G75*
G02*
X59476300Y-111614700I0J-75000D01*
G01*
G37*
G36*
G01*
X59476300Y-112114700D02*
X59476300Y-112264700D01*
G75*
G02*
X59401300Y-112339700I-75000J0D01*
G01*
X58001300Y-112339700D01*
G75*
G02*
X57926300Y-112264700I0J75000D01*
G01*
X57926300Y-112114700D01*
G75*
G02*
X58001300Y-112039700I75000J0D01*
G01*
X59401300Y-112039700D01*
G75*
G02*
X59476300Y-112114700I0J-75000D01*
G01*
G37*
G36*
G01*
X59476300Y-112614700D02*
X59476300Y-112764700D01*
G75*
G02*
X59401300Y-112839700I-75000J0D01*
G01*
X58001300Y-112839700D01*
G75*
G02*
X57926300Y-112764700I0J75000D01*
G01*
X57926300Y-112614700D01*
G75*
G02*
X58001300Y-112539700I75000J0D01*
G01*
X59401300Y-112539700D01*
G75*
G02*
X59476300Y-112614700I0J-75000D01*
G01*
G37*
G36*
G01*
X59476300Y-113114700D02*
X59476300Y-113264700D01*
G75*
G02*
X59401300Y-113339700I-75000J0D01*
G01*
X58001300Y-113339700D01*
G75*
G02*
X57926300Y-113264700I0J75000D01*
G01*
X57926300Y-113114700D01*
G75*
G02*
X58001300Y-113039700I75000J0D01*
G01*
X59401300Y-113039700D01*
G75*
G02*
X59476300Y-113114700I0J-75000D01*
G01*
G37*
G36*
G01*
X59476300Y-113614700D02*
X59476300Y-113764700D01*
G75*
G02*
X59401300Y-113839700I-75000J0D01*
G01*
X58001300Y-113839700D01*
G75*
G02*
X57926300Y-113764700I0J75000D01*
G01*
X57926300Y-113614700D01*
G75*
G02*
X58001300Y-113539700I75000J0D01*
G01*
X59401300Y-113539700D01*
G75*
G02*
X59476300Y-113614700I0J-75000D01*
G01*
G37*
G36*
G01*
X59476300Y-114114700D02*
X59476300Y-114264700D01*
G75*
G02*
X59401300Y-114339700I-75000J0D01*
G01*
X58001300Y-114339700D01*
G75*
G02*
X57926300Y-114264700I0J75000D01*
G01*
X57926300Y-114114700D01*
G75*
G02*
X58001300Y-114039700I75000J0D01*
G01*
X59401300Y-114039700D01*
G75*
G02*
X59476300Y-114114700I0J-75000D01*
G01*
G37*
G36*
G01*
X59476300Y-114614700D02*
X59476300Y-114764700D01*
G75*
G02*
X59401300Y-114839700I-75000J0D01*
G01*
X58001300Y-114839700D01*
G75*
G02*
X57926300Y-114764700I0J75000D01*
G01*
X57926300Y-114614700D01*
G75*
G02*
X58001300Y-114539700I75000J0D01*
G01*
X59401300Y-114539700D01*
G75*
G02*
X59476300Y-114614700I0J-75000D01*
G01*
G37*
G36*
G01*
X59476300Y-115114700D02*
X59476300Y-115264700D01*
G75*
G02*
X59401300Y-115339700I-75000J0D01*
G01*
X58001300Y-115339700D01*
G75*
G02*
X57926300Y-115264700I0J75000D01*
G01*
X57926300Y-115114700D01*
G75*
G02*
X58001300Y-115039700I75000J0D01*
G01*
X59401300Y-115039700D01*
G75*
G02*
X59476300Y-115114700I0J-75000D01*
G01*
G37*
G36*
G01*
X59476300Y-115614700D02*
X59476300Y-115764700D01*
G75*
G02*
X59401300Y-115839700I-75000J0D01*
G01*
X58001300Y-115839700D01*
G75*
G02*
X57926300Y-115764700I0J75000D01*
G01*
X57926300Y-115614700D01*
G75*
G02*
X58001300Y-115539700I75000J0D01*
G01*
X59401300Y-115539700D01*
G75*
G02*
X59476300Y-115614700I0J-75000D01*
G01*
G37*
G36*
G01*
X59476300Y-116114700D02*
X59476300Y-116264700D01*
G75*
G02*
X59401300Y-116339700I-75000J0D01*
G01*
X58001300Y-116339700D01*
G75*
G02*
X57926300Y-116264700I0J75000D01*
G01*
X57926300Y-116114700D01*
G75*
G02*
X58001300Y-116039700I75000J0D01*
G01*
X59401300Y-116039700D01*
G75*
G02*
X59476300Y-116114700I0J-75000D01*
G01*
G37*
G36*
G01*
X59476300Y-116614700D02*
X59476300Y-116764700D01*
G75*
G02*
X59401300Y-116839700I-75000J0D01*
G01*
X58001300Y-116839700D01*
G75*
G02*
X57926300Y-116764700I0J75000D01*
G01*
X57926300Y-116614700D01*
G75*
G02*
X58001300Y-116539700I75000J0D01*
G01*
X59401300Y-116539700D01*
G75*
G02*
X59476300Y-116614700I0J-75000D01*
G01*
G37*
G36*
G01*
X59476300Y-117114700D02*
X59476300Y-117264700D01*
G75*
G02*
X59401300Y-117339700I-75000J0D01*
G01*
X58001300Y-117339700D01*
G75*
G02*
X57926300Y-117264700I0J75000D01*
G01*
X57926300Y-117114700D01*
G75*
G02*
X58001300Y-117039700I75000J0D01*
G01*
X59401300Y-117039700D01*
G75*
G02*
X59476300Y-117114700I0J-75000D01*
G01*
G37*
G36*
G01*
X59476300Y-117614700D02*
X59476300Y-117764700D01*
G75*
G02*
X59401300Y-117839700I-75000J0D01*
G01*
X58001300Y-117839700D01*
G75*
G02*
X57926300Y-117764700I0J75000D01*
G01*
X57926300Y-117614700D01*
G75*
G02*
X58001300Y-117539700I75000J0D01*
G01*
X59401300Y-117539700D01*
G75*
G02*
X59476300Y-117614700I0J-75000D01*
G01*
G37*
G36*
G01*
X59476300Y-118114700D02*
X59476300Y-118264700D01*
G75*
G02*
X59401300Y-118339700I-75000J0D01*
G01*
X58001300Y-118339700D01*
G75*
G02*
X57926300Y-118264700I0J75000D01*
G01*
X57926300Y-118114700D01*
G75*
G02*
X58001300Y-118039700I75000J0D01*
G01*
X59401300Y-118039700D01*
G75*
G02*
X59476300Y-118114700I0J-75000D01*
G01*
G37*
G36*
G01*
X60776300Y-119414700D02*
X60776300Y-120814700D01*
G75*
G02*
X60701300Y-120889700I-75000J0D01*
G01*
X60551300Y-120889700D01*
G75*
G02*
X60476300Y-120814700I0J75000D01*
G01*
X60476300Y-119414700D01*
G75*
G02*
X60551300Y-119339700I75000J0D01*
G01*
X60701300Y-119339700D01*
G75*
G02*
X60776300Y-119414700I0J-75000D01*
G01*
G37*
G36*
G01*
X61276300Y-119414700D02*
X61276300Y-120814700D01*
G75*
G02*
X61201300Y-120889700I-75000J0D01*
G01*
X61051300Y-120889700D01*
G75*
G02*
X60976300Y-120814700I0J75000D01*
G01*
X60976300Y-119414700D01*
G75*
G02*
X61051300Y-119339700I75000J0D01*
G01*
X61201300Y-119339700D01*
G75*
G02*
X61276300Y-119414700I0J-75000D01*
G01*
G37*
G36*
G01*
X61776300Y-119414700D02*
X61776300Y-120814700D01*
G75*
G02*
X61701300Y-120889700I-75000J0D01*
G01*
X61551300Y-120889700D01*
G75*
G02*
X61476300Y-120814700I0J75000D01*
G01*
X61476300Y-119414700D01*
G75*
G02*
X61551300Y-119339700I75000J0D01*
G01*
X61701300Y-119339700D01*
G75*
G02*
X61776300Y-119414700I0J-75000D01*
G01*
G37*
G36*
G01*
X62276300Y-119414700D02*
X62276300Y-120814700D01*
G75*
G02*
X62201300Y-120889700I-75000J0D01*
G01*
X62051300Y-120889700D01*
G75*
G02*
X61976300Y-120814700I0J75000D01*
G01*
X61976300Y-119414700D01*
G75*
G02*
X62051300Y-119339700I75000J0D01*
G01*
X62201300Y-119339700D01*
G75*
G02*
X62276300Y-119414700I0J-75000D01*
G01*
G37*
G36*
G01*
X62776300Y-119414700D02*
X62776300Y-120814700D01*
G75*
G02*
X62701300Y-120889700I-75000J0D01*
G01*
X62551300Y-120889700D01*
G75*
G02*
X62476300Y-120814700I0J75000D01*
G01*
X62476300Y-119414700D01*
G75*
G02*
X62551300Y-119339700I75000J0D01*
G01*
X62701300Y-119339700D01*
G75*
G02*
X62776300Y-119414700I0J-75000D01*
G01*
G37*
G36*
G01*
X63276300Y-119414700D02*
X63276300Y-120814700D01*
G75*
G02*
X63201300Y-120889700I-75000J0D01*
G01*
X63051300Y-120889700D01*
G75*
G02*
X62976300Y-120814700I0J75000D01*
G01*
X62976300Y-119414700D01*
G75*
G02*
X63051300Y-119339700I75000J0D01*
G01*
X63201300Y-119339700D01*
G75*
G02*
X63276300Y-119414700I0J-75000D01*
G01*
G37*
G36*
G01*
X63776300Y-119414700D02*
X63776300Y-120814700D01*
G75*
G02*
X63701300Y-120889700I-75000J0D01*
G01*
X63551300Y-120889700D01*
G75*
G02*
X63476300Y-120814700I0J75000D01*
G01*
X63476300Y-119414700D01*
G75*
G02*
X63551300Y-119339700I75000J0D01*
G01*
X63701300Y-119339700D01*
G75*
G02*
X63776300Y-119414700I0J-75000D01*
G01*
G37*
G36*
G01*
X64276300Y-119414700D02*
X64276300Y-120814700D01*
G75*
G02*
X64201300Y-120889700I-75000J0D01*
G01*
X64051300Y-120889700D01*
G75*
G02*
X63976300Y-120814700I0J75000D01*
G01*
X63976300Y-119414700D01*
G75*
G02*
X64051300Y-119339700I75000J0D01*
G01*
X64201300Y-119339700D01*
G75*
G02*
X64276300Y-119414700I0J-75000D01*
G01*
G37*
G36*
G01*
X64776300Y-119414700D02*
X64776300Y-120814700D01*
G75*
G02*
X64701300Y-120889700I-75000J0D01*
G01*
X64551300Y-120889700D01*
G75*
G02*
X64476300Y-120814700I0J75000D01*
G01*
X64476300Y-119414700D01*
G75*
G02*
X64551300Y-119339700I75000J0D01*
G01*
X64701300Y-119339700D01*
G75*
G02*
X64776300Y-119414700I0J-75000D01*
G01*
G37*
G36*
G01*
X65276300Y-119414700D02*
X65276300Y-120814700D01*
G75*
G02*
X65201300Y-120889700I-75000J0D01*
G01*
X65051300Y-120889700D01*
G75*
G02*
X64976300Y-120814700I0J75000D01*
G01*
X64976300Y-119414700D01*
G75*
G02*
X65051300Y-119339700I75000J0D01*
G01*
X65201300Y-119339700D01*
G75*
G02*
X65276300Y-119414700I0J-75000D01*
G01*
G37*
G36*
G01*
X65776300Y-119414700D02*
X65776300Y-120814700D01*
G75*
G02*
X65701300Y-120889700I-75000J0D01*
G01*
X65551300Y-120889700D01*
G75*
G02*
X65476300Y-120814700I0J75000D01*
G01*
X65476300Y-119414700D01*
G75*
G02*
X65551300Y-119339700I75000J0D01*
G01*
X65701300Y-119339700D01*
G75*
G02*
X65776300Y-119414700I0J-75000D01*
G01*
G37*
G36*
G01*
X66276300Y-119414700D02*
X66276300Y-120814700D01*
G75*
G02*
X66201300Y-120889700I-75000J0D01*
G01*
X66051300Y-120889700D01*
G75*
G02*
X65976300Y-120814700I0J75000D01*
G01*
X65976300Y-119414700D01*
G75*
G02*
X66051300Y-119339700I75000J0D01*
G01*
X66201300Y-119339700D01*
G75*
G02*
X66276300Y-119414700I0J-75000D01*
G01*
G37*
G36*
G01*
X66776300Y-119414700D02*
X66776300Y-120814700D01*
G75*
G02*
X66701300Y-120889700I-75000J0D01*
G01*
X66551300Y-120889700D01*
G75*
G02*
X66476300Y-120814700I0J75000D01*
G01*
X66476300Y-119414700D01*
G75*
G02*
X66551300Y-119339700I75000J0D01*
G01*
X66701300Y-119339700D01*
G75*
G02*
X66776300Y-119414700I0J-75000D01*
G01*
G37*
G36*
G01*
X67276300Y-119414700D02*
X67276300Y-120814700D01*
G75*
G02*
X67201300Y-120889700I-75000J0D01*
G01*
X67051300Y-120889700D01*
G75*
G02*
X66976300Y-120814700I0J75000D01*
G01*
X66976300Y-119414700D01*
G75*
G02*
X67051300Y-119339700I75000J0D01*
G01*
X67201300Y-119339700D01*
G75*
G02*
X67276300Y-119414700I0J-75000D01*
G01*
G37*
G36*
G01*
X67776300Y-119414700D02*
X67776300Y-120814700D01*
G75*
G02*
X67701300Y-120889700I-75000J0D01*
G01*
X67551300Y-120889700D01*
G75*
G02*
X67476300Y-120814700I0J75000D01*
G01*
X67476300Y-119414700D01*
G75*
G02*
X67551300Y-119339700I75000J0D01*
G01*
X67701300Y-119339700D01*
G75*
G02*
X67776300Y-119414700I0J-75000D01*
G01*
G37*
G36*
G01*
X68276300Y-119414700D02*
X68276300Y-120814700D01*
G75*
G02*
X68201300Y-120889700I-75000J0D01*
G01*
X68051300Y-120889700D01*
G75*
G02*
X67976300Y-120814700I0J75000D01*
G01*
X67976300Y-119414700D01*
G75*
G02*
X68051300Y-119339700I75000J0D01*
G01*
X68201300Y-119339700D01*
G75*
G02*
X68276300Y-119414700I0J-75000D01*
G01*
G37*
%TD*%
%TO.C,U2*%
G36*
G01*
X54423900Y-124749700D02*
X54423900Y-124449700D01*
G75*
G02*
X54573900Y-124299700I150000J0D01*
G01*
X56223900Y-124299700D01*
G75*
G02*
X56373900Y-124449700I0J-150000D01*
G01*
X56373900Y-124749700D01*
G75*
G02*
X56223900Y-124899700I-150000J0D01*
G01*
X54573900Y-124899700D01*
G75*
G02*
X54423900Y-124749700I0J150000D01*
G01*
G37*
G36*
G01*
X54423900Y-126019700D02*
X54423900Y-125719700D01*
G75*
G02*
X54573900Y-125569700I150000J0D01*
G01*
X56223900Y-125569700D01*
G75*
G02*
X56373900Y-125719700I0J-150000D01*
G01*
X56373900Y-126019700D01*
G75*
G02*
X56223900Y-126169700I-150000J0D01*
G01*
X54573900Y-126169700D01*
G75*
G02*
X54423900Y-126019700I0J150000D01*
G01*
G37*
G36*
G01*
X54423900Y-127289700D02*
X54423900Y-126989700D01*
G75*
G02*
X54573900Y-126839700I150000J0D01*
G01*
X56223900Y-126839700D01*
G75*
G02*
X56373900Y-126989700I0J-150000D01*
G01*
X56373900Y-127289700D01*
G75*
G02*
X56223900Y-127439700I-150000J0D01*
G01*
X54573900Y-127439700D01*
G75*
G02*
X54423900Y-127289700I0J150000D01*
G01*
G37*
G36*
G01*
X54423900Y-128559700D02*
X54423900Y-128259700D01*
G75*
G02*
X54573900Y-128109700I150000J0D01*
G01*
X56223900Y-128109700D01*
G75*
G02*
X56373900Y-128259700I0J-150000D01*
G01*
X56373900Y-128559700D01*
G75*
G02*
X56223900Y-128709700I-150000J0D01*
G01*
X54573900Y-128709700D01*
G75*
G02*
X54423900Y-128559700I0J150000D01*
G01*
G37*
G36*
G01*
X59373900Y-128559700D02*
X59373900Y-128259700D01*
G75*
G02*
X59523900Y-128109700I150000J0D01*
G01*
X61173900Y-128109700D01*
G75*
G02*
X61323900Y-128259700I0J-150000D01*
G01*
X61323900Y-128559700D01*
G75*
G02*
X61173900Y-128709700I-150000J0D01*
G01*
X59523900Y-128709700D01*
G75*
G02*
X59373900Y-128559700I0J150000D01*
G01*
G37*
G36*
G01*
X59373900Y-127289700D02*
X59373900Y-126989700D01*
G75*
G02*
X59523900Y-126839700I150000J0D01*
G01*
X61173900Y-126839700D01*
G75*
G02*
X61323900Y-126989700I0J-150000D01*
G01*
X61323900Y-127289700D01*
G75*
G02*
X61173900Y-127439700I-150000J0D01*
G01*
X59523900Y-127439700D01*
G75*
G02*
X59373900Y-127289700I0J150000D01*
G01*
G37*
G36*
G01*
X59373900Y-126019700D02*
X59373900Y-125719700D01*
G75*
G02*
X59523900Y-125569700I150000J0D01*
G01*
X61173900Y-125569700D01*
G75*
G02*
X61323900Y-125719700I0J-150000D01*
G01*
X61323900Y-126019700D01*
G75*
G02*
X61173900Y-126169700I-150000J0D01*
G01*
X59523900Y-126169700D01*
G75*
G02*
X59373900Y-126019700I0J150000D01*
G01*
G37*
G36*
G01*
X59373900Y-124749700D02*
X59373900Y-124449700D01*
G75*
G02*
X59523900Y-124299700I150000J0D01*
G01*
X61173900Y-124299700D01*
G75*
G02*
X61323900Y-124449700I0J-150000D01*
G01*
X61323900Y-124749700D01*
G75*
G02*
X61173900Y-124899700I-150000J0D01*
G01*
X59523900Y-124899700D01*
G75*
G02*
X59373900Y-124749700I0J150000D01*
G01*
G37*
%TD*%
D15*
%TO.C,J7*%
X88325500Y-123728000D03*
X88325500Y-108428000D03*
D16*
X91575500Y-110328000D03*
X91575500Y-110828000D03*
X91575500Y-111328000D03*
X91575500Y-111828000D03*
X91575500Y-112328000D03*
X91575500Y-112828000D03*
X91575500Y-113328000D03*
X91575500Y-113828000D03*
X91575500Y-114328000D03*
X91575500Y-114828000D03*
X91575500Y-115328000D03*
X91575500Y-115828000D03*
X91575500Y-116328000D03*
X91575500Y-116828000D03*
X91575500Y-117328000D03*
X91575500Y-117828000D03*
X91575500Y-118328000D03*
X91575500Y-118828000D03*
X91575500Y-119328000D03*
X91575500Y-119828000D03*
X91575500Y-120328000D03*
X91575500Y-120828000D03*
X91575500Y-121328000D03*
X91575500Y-121828000D03*
%TD*%
D17*
%TO.C,SW1*%
X83530000Y-112560000D03*
X79030000Y-112560000D03*
X79030000Y-104610000D03*
X83530000Y-104610000D03*
%TD*%
D18*
%TO.C,J1*%
X98933000Y-126762500D03*
D19*
X98933000Y-131762500D03*
%TD*%
%TO.C,J3*%
X44577000Y-126784100D03*
D18*
X44577000Y-131784100D03*
%TD*%
D20*
%TO.C,Q1*%
X78477000Y-128149000D03*
X78477000Y-130429000D03*
X78477000Y-132709000D03*
D21*
X84777000Y-130429000D03*
%TD*%
D22*
%TO.C,U3*%
X50144500Y-114493000D03*
X50144500Y-115443000D03*
X50144500Y-116393000D03*
X52344500Y-116393000D03*
X52344500Y-114493000D03*
X52344500Y-115443000D03*
%TD*%
D23*
%TO.C,U5*%
X100522100Y-77673200D03*
X100522100Y-75133200D03*
X94372100Y-75133200D03*
X94372100Y-77673200D03*
%TD*%
D24*
%TO.C,Y1*%
X79128000Y-121020500D03*
X79128000Y-118120500D03*
X76828000Y-118120500D03*
X76828000Y-121020500D03*
%TD*%
D25*
%TO.C,U1*%
X102159200Y-95808800D03*
D26*
X95859200Y-95808800D03*
X95859200Y-98108800D03*
X95859200Y-93508800D03*
%TD*%
D19*
%TO.C,J6*%
X44538900Y-76720700D03*
D18*
X44538900Y-81720700D03*
%TD*%
D27*
%TO.C,U6*%
X56654700Y-78460600D03*
D28*
X56654700Y-97510600D03*
X87134700Y-78460600D03*
X87134700Y-84810600D03*
X87134700Y-91160600D03*
X87134700Y-97510600D03*
%TD*%
D29*
%TO.C,U7*%
X63944500Y-132842000D03*
X66484500Y-132842000D03*
X68961000Y-132842000D03*
%TD*%
D10*
%TO.C,J4*%
X44145200Y-99288600D03*
D11*
X41605200Y-99288600D03*
X44145200Y-96748600D03*
X41605200Y-96748600D03*
X44145200Y-94208600D03*
X41605200Y-94208600D03*
%TD*%
%TO.C,D1*%
G36*
G01*
X90672499Y-102006600D02*
X91572501Y-102006600D01*
G75*
G02*
X91822500Y-102256599I0J-249999D01*
G01*
X91822500Y-102906601D01*
G75*
G02*
X91572501Y-103156600I-249999J0D01*
G01*
X90672499Y-103156600D01*
G75*
G02*
X90422500Y-102906601I0J249999D01*
G01*
X90422500Y-102256599D01*
G75*
G02*
X90672499Y-102006600I249999J0D01*
G01*
G37*
G36*
G01*
X90672499Y-104056600D02*
X91572501Y-104056600D01*
G75*
G02*
X91822500Y-104306599I0J-249999D01*
G01*
X91822500Y-104956601D01*
G75*
G02*
X91572501Y-105206600I-249999J0D01*
G01*
X90672499Y-105206600D01*
G75*
G02*
X90422500Y-104956601I0J249999D01*
G01*
X90422500Y-104306599D01*
G75*
G02*
X90672499Y-104056600I249999J0D01*
G01*
G37*
%TD*%
%TO.C,D2*%
G36*
G01*
X68333200Y-128823299D02*
X68333200Y-129723301D01*
G75*
G02*
X68083201Y-129973300I-249999J0D01*
G01*
X67433199Y-129973300D01*
G75*
G02*
X67183200Y-129723301I0J249999D01*
G01*
X67183200Y-128823299D01*
G75*
G02*
X67433199Y-128573300I249999J0D01*
G01*
X68083201Y-128573300D01*
G75*
G02*
X68333200Y-128823299I0J-249999D01*
G01*
G37*
G36*
G01*
X70383200Y-128823299D02*
X70383200Y-129723301D01*
G75*
G02*
X70133201Y-129973300I-249999J0D01*
G01*
X69483199Y-129973300D01*
G75*
G02*
X69233200Y-129723301I0J249999D01*
G01*
X69233200Y-128823299D01*
G75*
G02*
X69483199Y-128573300I249999J0D01*
G01*
X70133201Y-128573300D01*
G75*
G02*
X70383200Y-128823299I0J-249999D01*
G01*
G37*
%TD*%
%TO.C,FB1*%
G36*
G01*
X75831500Y-106166499D02*
X75831500Y-107066501D01*
G75*
G02*
X75581501Y-107316500I-249999J0D01*
G01*
X74931499Y-107316500D01*
G75*
G02*
X74681500Y-107066501I0J249999D01*
G01*
X74681500Y-106166499D01*
G75*
G02*
X74931499Y-105916500I249999J0D01*
G01*
X75581501Y-105916500D01*
G75*
G02*
X75831500Y-106166499I0J-249999D01*
G01*
G37*
G36*
G01*
X73781500Y-106166499D02*
X73781500Y-107066501D01*
G75*
G02*
X73531501Y-107316500I-249999J0D01*
G01*
X72881499Y-107316500D01*
G75*
G02*
X72631500Y-107066501I0J249999D01*
G01*
X72631500Y-106166499D01*
G75*
G02*
X72881499Y-105916500I249999J0D01*
G01*
X73531501Y-105916500D01*
G75*
G02*
X73781500Y-106166499I0J-249999D01*
G01*
G37*
%TD*%
%TO.C,R1*%
G36*
G01*
X76466500Y-127692999D02*
X76466500Y-128593001D01*
G75*
G02*
X76216501Y-128843000I-249999J0D01*
G01*
X75516499Y-128843000D01*
G75*
G02*
X75266500Y-128593001I0J249999D01*
G01*
X75266500Y-127692999D01*
G75*
G02*
X75516499Y-127443000I249999J0D01*
G01*
X76216501Y-127443000D01*
G75*
G02*
X76466500Y-127692999I0J-249999D01*
G01*
G37*
G36*
G01*
X74466500Y-127692999D02*
X74466500Y-128593001D01*
G75*
G02*
X74216501Y-128843000I-249999J0D01*
G01*
X73516499Y-128843000D01*
G75*
G02*
X73266500Y-128593001I0J249999D01*
G01*
X73266500Y-127692999D01*
G75*
G02*
X73516499Y-127443000I249999J0D01*
G01*
X74216501Y-127443000D01*
G75*
G02*
X74466500Y-127692999I0J-249999D01*
G01*
G37*
%TD*%
%TO.C,R2*%
G36*
G01*
X92468500Y-131502999D02*
X92468500Y-132403001D01*
G75*
G02*
X92218501Y-132653000I-249999J0D01*
G01*
X91518499Y-132653000D01*
G75*
G02*
X91268500Y-132403001I0J249999D01*
G01*
X91268500Y-131502999D01*
G75*
G02*
X91518499Y-131253000I249999J0D01*
G01*
X92218501Y-131253000D01*
G75*
G02*
X92468500Y-131502999I0J-249999D01*
G01*
G37*
G36*
G01*
X90468500Y-131502999D02*
X90468500Y-132403001D01*
G75*
G02*
X90218501Y-132653000I-249999J0D01*
G01*
X89518499Y-132653000D01*
G75*
G02*
X89268500Y-132403001I0J249999D01*
G01*
X89268500Y-131502999D01*
G75*
G02*
X89518499Y-131253000I249999J0D01*
G01*
X90218501Y-131253000D01*
G75*
G02*
X90468500Y-131502999I0J-249999D01*
G01*
G37*
%TD*%
%TO.C,R3*%
G36*
G01*
X47541601Y-98825100D02*
X46641599Y-98825100D01*
G75*
G02*
X46391600Y-98575101I0J249999D01*
G01*
X46391600Y-97875099D01*
G75*
G02*
X46641599Y-97625100I249999J0D01*
G01*
X47541601Y-97625100D01*
G75*
G02*
X47791600Y-97875099I0J-249999D01*
G01*
X47791600Y-98575101D01*
G75*
G02*
X47541601Y-98825100I-249999J0D01*
G01*
G37*
G36*
G01*
X47541601Y-100825100D02*
X46641599Y-100825100D01*
G75*
G02*
X46391600Y-100575101I0J249999D01*
G01*
X46391600Y-99875099D01*
G75*
G02*
X46641599Y-99625100I249999J0D01*
G01*
X47541601Y-99625100D01*
G75*
G02*
X47791600Y-99875099I0J-249999D01*
G01*
X47791600Y-100575101D01*
G75*
G02*
X47541601Y-100825100I-249999J0D01*
G01*
G37*
%TD*%
%TO.C,R6*%
G36*
G01*
X63454701Y-126955600D02*
X62554699Y-126955600D01*
G75*
G02*
X62304700Y-126705601I0J249999D01*
G01*
X62304700Y-126005599D01*
G75*
G02*
X62554699Y-125755600I249999J0D01*
G01*
X63454701Y-125755600D01*
G75*
G02*
X63704700Y-126005599I0J-249999D01*
G01*
X63704700Y-126705601D01*
G75*
G02*
X63454701Y-126955600I-249999J0D01*
G01*
G37*
G36*
G01*
X63454701Y-128955600D02*
X62554699Y-128955600D01*
G75*
G02*
X62304700Y-128705601I0J249999D01*
G01*
X62304700Y-128005599D01*
G75*
G02*
X62554699Y-127755600I249999J0D01*
G01*
X63454701Y-127755600D01*
G75*
G02*
X63704700Y-128005599I0J-249999D01*
G01*
X63704700Y-128705601D01*
G75*
G02*
X63454701Y-128955600I-249999J0D01*
G01*
G37*
%TD*%
%TO.C,R7*%
G36*
G01*
X89070601Y-105181200D02*
X88170599Y-105181200D01*
G75*
G02*
X87920600Y-104931201I0J249999D01*
G01*
X87920600Y-104231199D01*
G75*
G02*
X88170599Y-103981200I249999J0D01*
G01*
X89070601Y-103981200D01*
G75*
G02*
X89320600Y-104231199I0J-249999D01*
G01*
X89320600Y-104931201D01*
G75*
G02*
X89070601Y-105181200I-249999J0D01*
G01*
G37*
G36*
G01*
X89070601Y-103181200D02*
X88170599Y-103181200D01*
G75*
G02*
X87920600Y-102931201I0J249999D01*
G01*
X87920600Y-102231199D01*
G75*
G02*
X88170599Y-101981200I249999J0D01*
G01*
X89070601Y-101981200D01*
G75*
G02*
X89320600Y-102231199I0J-249999D01*
G01*
X89320600Y-102931201D01*
G75*
G02*
X89070601Y-103181200I-249999J0D01*
G01*
G37*
%TD*%
%TO.C,R8*%
G36*
G01*
X66350301Y-129971600D02*
X65450299Y-129971600D01*
G75*
G02*
X65200300Y-129721601I0J249999D01*
G01*
X65200300Y-129021599D01*
G75*
G02*
X65450299Y-128771600I249999J0D01*
G01*
X66350301Y-128771600D01*
G75*
G02*
X66600300Y-129021599I0J-249999D01*
G01*
X66600300Y-129721601D01*
G75*
G02*
X66350301Y-129971600I-249999J0D01*
G01*
G37*
G36*
G01*
X66350301Y-127971600D02*
X65450299Y-127971600D01*
G75*
G02*
X65200300Y-127721601I0J249999D01*
G01*
X65200300Y-127021599D01*
G75*
G02*
X65450299Y-126771600I249999J0D01*
G01*
X66350301Y-126771600D01*
G75*
G02*
X66600300Y-127021599I0J-249999D01*
G01*
X66600300Y-127721601D01*
G75*
G02*
X66350301Y-127971600I-249999J0D01*
G01*
G37*
%TD*%
%TO.C,R9*%
G36*
G01*
X71304999Y-128797000D02*
X72205001Y-128797000D01*
G75*
G02*
X72455000Y-129046999I0J-249999D01*
G01*
X72455000Y-129747001D01*
G75*
G02*
X72205001Y-129997000I-249999J0D01*
G01*
X71304999Y-129997000D01*
G75*
G02*
X71055000Y-129747001I0J249999D01*
G01*
X71055000Y-129046999D01*
G75*
G02*
X71304999Y-128797000I249999J0D01*
G01*
G37*
G36*
G01*
X71304999Y-126797000D02*
X72205001Y-126797000D01*
G75*
G02*
X72455000Y-127046999I0J-249999D01*
G01*
X72455000Y-127747001D01*
G75*
G02*
X72205001Y-127997000I-249999J0D01*
G01*
X71304999Y-127997000D01*
G75*
G02*
X71055000Y-127747001I0J249999D01*
G01*
X71055000Y-127046999D01*
G75*
G02*
X71304999Y-126797000I249999J0D01*
G01*
G37*
%TD*%
D25*
%TO.C,U8*%
X96392600Y-105930700D03*
D26*
X102692600Y-105930700D03*
X102692600Y-103630700D03*
X102692600Y-108230700D03*
%TD*%
D27*
%TO.C,C10*%
X94691200Y-85140800D03*
D28*
X102191200Y-85140800D03*
%TD*%
D10*
%TO.C,J5*%
X41630600Y-90385900D03*
D11*
X44170600Y-90385900D03*
%TD*%
M02*
