%TF.GenerationSoftware,KiCad,Pcbnew,5.1.12-84ad8e8a86~92~ubuntu20.04.1*%
%TF.CreationDate,2021-12-14T21:30:58-06:00*%
%TF.ProjectId,Solder_Reflow_Oven_2.0,536f6c64-6572-45f5-9265-666c6f775f4f,rev?*%
%TF.SameCoordinates,Original*%
%TF.FileFunction,Legend,Top*%
%TF.FilePolarity,Positive*%
%FSLAX46Y46*%
G04 Gerber Fmt 4.6, Leading zero omitted, Abs format (unit mm)*
G04 Created by KiCad (PCBNEW 5.1.12-84ad8e8a86~92~ubuntu20.04.1) date 2021-12-14 21:30:58*
%MOMM*%
%LPD*%
G01*
G04 APERTURE LIST*
%ADD10C,0.150000*%
%ADD11C,0.120000*%
G04 APERTURE END LIST*
D10*
X92743280Y-74500052D02*
X92790900Y-74547671D01*
X92838519Y-74642909D01*
X92838519Y-74881004D01*
X92790900Y-74976242D01*
X92743280Y-75023861D01*
X92648042Y-75071480D01*
X92552804Y-75071480D01*
X92409947Y-75023861D01*
X91838519Y-74452433D01*
X91838519Y-75071480D01*
X92505185Y-75928623D02*
X91838519Y-75928623D01*
X92886138Y-75690528D02*
X92171852Y-75452433D01*
X92171852Y-76071480D01*
X92838519Y-76309576D02*
X91838519Y-76642909D01*
X92838519Y-76976242D01*
X92124233Y-77261957D02*
X92124233Y-77738147D01*
X91838519Y-77166719D02*
X92838519Y-77500052D01*
X91838519Y-77833385D01*
X91933757Y-78738147D02*
X91886138Y-78690528D01*
X91838519Y-78547671D01*
X91838519Y-78452433D01*
X91886138Y-78309576D01*
X91981376Y-78214338D01*
X92076614Y-78166719D01*
X92267090Y-78119100D01*
X92409947Y-78119100D01*
X92600423Y-78166719D01*
X92695661Y-78214338D01*
X92790900Y-78309576D01*
X92838519Y-78452433D01*
X92838519Y-78547671D01*
X92790900Y-78690528D01*
X92743280Y-78738147D01*
X94805666Y-105354380D02*
X94805666Y-104354380D01*
X95186619Y-104354380D01*
X95281857Y-104402000D01*
X95329476Y-104449619D01*
X95377095Y-104544857D01*
X95377095Y-104687714D01*
X95329476Y-104782952D01*
X95281857Y-104830571D01*
X95186619Y-104878190D01*
X94805666Y-104878190D01*
X95710428Y-104354380D02*
X95948523Y-105354380D01*
X96139000Y-104640095D01*
X96329476Y-105354380D01*
X96567571Y-104354380D01*
X97519952Y-105354380D02*
X97186619Y-104878190D01*
X96948523Y-105354380D02*
X96948523Y-104354380D01*
X97329476Y-104354380D01*
X97424714Y-104402000D01*
X97472333Y-104449619D01*
X97519952Y-104544857D01*
X97519952Y-104687714D01*
X97472333Y-104782952D01*
X97424714Y-104830571D01*
X97329476Y-104878190D01*
X96948523Y-104878190D01*
X71532928Y-132897571D02*
X71199595Y-132897571D01*
X71199595Y-133421380D02*
X71199595Y-132421380D01*
X71675785Y-132421380D01*
X72199595Y-133421380D02*
X72104357Y-133373761D01*
X72056738Y-133278523D01*
X72056738Y-132421380D01*
X73009119Y-133421380D02*
X73009119Y-132897571D01*
X72961500Y-132802333D01*
X72866261Y-132754714D01*
X72675785Y-132754714D01*
X72580547Y-132802333D01*
X73009119Y-133373761D02*
X72913880Y-133421380D01*
X72675785Y-133421380D01*
X72580547Y-133373761D01*
X72532928Y-133278523D01*
X72532928Y-133183285D01*
X72580547Y-133088047D01*
X72675785Y-133040428D01*
X72913880Y-133040428D01*
X73009119Y-132992809D01*
X73437690Y-133373761D02*
X73532928Y-133421380D01*
X73723404Y-133421380D01*
X73818642Y-133373761D01*
X73866261Y-133278523D01*
X73866261Y-133230904D01*
X73818642Y-133135666D01*
X73723404Y-133088047D01*
X73580547Y-133088047D01*
X73485309Y-133040428D01*
X73437690Y-132945190D01*
X73437690Y-132897571D01*
X73485309Y-132802333D01*
X73580547Y-132754714D01*
X73723404Y-132754714D01*
X73818642Y-132802333D01*
X74294833Y-133421380D02*
X74294833Y-132421380D01*
X74723404Y-133421380D02*
X74723404Y-132897571D01*
X74675785Y-132802333D01*
X74580547Y-132754714D01*
X74437690Y-132754714D01*
X74342452Y-132802333D01*
X74294833Y-132849952D01*
X59761571Y-133183261D02*
X59904428Y-133230880D01*
X60142523Y-133230880D01*
X60237761Y-133183261D01*
X60285380Y-133135642D01*
X60333000Y-133040404D01*
X60333000Y-132945166D01*
X60285380Y-132849928D01*
X60237761Y-132802309D01*
X60142523Y-132754690D01*
X59952047Y-132707071D01*
X59856809Y-132659452D01*
X59809190Y-132611833D01*
X59761571Y-132516595D01*
X59761571Y-132421357D01*
X59809190Y-132326119D01*
X59856809Y-132278500D01*
X59952047Y-132230880D01*
X60190142Y-132230880D01*
X60333000Y-132278500D01*
X60666333Y-132564214D02*
X60904428Y-133230880D01*
X61142523Y-132564214D02*
X60904428Y-133230880D01*
X60809190Y-133468976D01*
X60761571Y-133516595D01*
X60666333Y-133564214D01*
X61475857Y-133183261D02*
X61571095Y-133230880D01*
X61761571Y-133230880D01*
X61856809Y-133183261D01*
X61904428Y-133088023D01*
X61904428Y-133040404D01*
X61856809Y-132945166D01*
X61761571Y-132897547D01*
X61618714Y-132897547D01*
X61523476Y-132849928D01*
X61475857Y-132754690D01*
X61475857Y-132707071D01*
X61523476Y-132611833D01*
X61618714Y-132564214D01*
X61761571Y-132564214D01*
X61856809Y-132611833D01*
X50657238Y-126071380D02*
X51228666Y-126071380D01*
X50942952Y-127071380D02*
X50942952Y-126071380D01*
X51562000Y-126690428D02*
X52323904Y-126690428D01*
X50720738Y-131341880D02*
X51292166Y-131341880D01*
X51006452Y-132341880D02*
X51006452Y-131341880D01*
X51625500Y-131960928D02*
X52387404Y-131960928D01*
X52006452Y-132341880D02*
X52006452Y-131579976D01*
X44775738Y-86050880D02*
X44204309Y-86050880D01*
X44490023Y-86050880D02*
X44490023Y-85050880D01*
X44394785Y-85193738D01*
X44299547Y-85288976D01*
X44204309Y-85336595D01*
X45728119Y-86050880D02*
X45156690Y-86050880D01*
X45442404Y-86050880D02*
X45442404Y-85050880D01*
X45347166Y-85193738D01*
X45251928Y-85288976D01*
X45156690Y-85336595D01*
X46632880Y-85050880D02*
X46156690Y-85050880D01*
X46109071Y-85527071D01*
X46156690Y-85479452D01*
X46251928Y-85431833D01*
X46490023Y-85431833D01*
X46585261Y-85479452D01*
X46632880Y-85527071D01*
X46680500Y-85622309D01*
X46680500Y-85860404D01*
X46632880Y-85955642D01*
X46585261Y-86003261D01*
X46490023Y-86050880D01*
X46251928Y-86050880D01*
X46156690Y-86003261D01*
X46109071Y-85955642D01*
X46966214Y-85050880D02*
X47299547Y-86050880D01*
X47632880Y-85050880D01*
X47918595Y-85765166D02*
X48394785Y-85765166D01*
X47823357Y-86050880D02*
X48156690Y-85050880D01*
X48490023Y-86050880D01*
X49394785Y-85955642D02*
X49347166Y-86003261D01*
X49204309Y-86050880D01*
X49109071Y-86050880D01*
X48966214Y-86003261D01*
X48870976Y-85908023D01*
X48823357Y-85812785D01*
X48775738Y-85622309D01*
X48775738Y-85479452D01*
X48823357Y-85288976D01*
X48870976Y-85193738D01*
X48966214Y-85098500D01*
X49109071Y-85050880D01*
X49204309Y-85050880D01*
X49347166Y-85098500D01*
X49394785Y-85146119D01*
X43466214Y-86700880D02*
X43275738Y-86700880D01*
X43180500Y-86748500D01*
X43132880Y-86796119D01*
X43037642Y-86938976D01*
X42990023Y-87129452D01*
X42990023Y-87510404D01*
X43037642Y-87605642D01*
X43085261Y-87653261D01*
X43180500Y-87700880D01*
X43370976Y-87700880D01*
X43466214Y-87653261D01*
X43513833Y-87605642D01*
X43561452Y-87510404D01*
X43561452Y-87272309D01*
X43513833Y-87177071D01*
X43466214Y-87129452D01*
X43370976Y-87081833D01*
X43180500Y-87081833D01*
X43085261Y-87129452D01*
X43037642Y-87177071D01*
X42990023Y-87272309D01*
X44180500Y-86700880D02*
X44275738Y-86700880D01*
X44370976Y-86748500D01*
X44418595Y-86796119D01*
X44466214Y-86891357D01*
X44513833Y-87081833D01*
X44513833Y-87319928D01*
X44466214Y-87510404D01*
X44418595Y-87605642D01*
X44370976Y-87653261D01*
X44275738Y-87700880D01*
X44180500Y-87700880D01*
X44085261Y-87653261D01*
X44037642Y-87605642D01*
X43990023Y-87510404D01*
X43942404Y-87319928D01*
X43942404Y-87081833D01*
X43990023Y-86891357D01*
X44037642Y-86796119D01*
X44085261Y-86748500D01*
X44180500Y-86700880D01*
X44942404Y-87700880D02*
X44942404Y-86700880D01*
X44942404Y-87177071D02*
X45513833Y-87177071D01*
X45513833Y-87700880D02*
X45513833Y-86700880D01*
X45894785Y-87034214D02*
X46418595Y-87034214D01*
X45894785Y-87700880D01*
X46418595Y-87700880D01*
X47561452Y-87700880D02*
X47561452Y-86700880D01*
X47894785Y-87415166D01*
X48228119Y-86700880D01*
X48228119Y-87700880D01*
X49132880Y-87700880D02*
X49132880Y-87177071D01*
X49085261Y-87081833D01*
X48990023Y-87034214D01*
X48799547Y-87034214D01*
X48704309Y-87081833D01*
X49132880Y-87653261D02*
X49037642Y-87700880D01*
X48799547Y-87700880D01*
X48704309Y-87653261D01*
X48656690Y-87558023D01*
X48656690Y-87462785D01*
X48704309Y-87367547D01*
X48799547Y-87319928D01*
X49037642Y-87319928D01*
X49132880Y-87272309D01*
X49609071Y-87700880D02*
X49609071Y-87034214D01*
X49609071Y-86700880D02*
X49561452Y-86748500D01*
X49609071Y-86796119D01*
X49656690Y-86748500D01*
X49609071Y-86700880D01*
X49609071Y-86796119D01*
X50085261Y-87034214D02*
X50085261Y-87700880D01*
X50085261Y-87129452D02*
X50132880Y-87081833D01*
X50228119Y-87034214D01*
X50370976Y-87034214D01*
X50466214Y-87081833D01*
X50513833Y-87177071D01*
X50513833Y-87700880D01*
X50942404Y-87653261D02*
X51037642Y-87700880D01*
X51228119Y-87700880D01*
X51323357Y-87653261D01*
X51370976Y-87558023D01*
X51370976Y-87510404D01*
X51323357Y-87415166D01*
X51228119Y-87367547D01*
X51085261Y-87367547D01*
X50990023Y-87319928D01*
X50942404Y-87224690D01*
X50942404Y-87177071D01*
X50990023Y-87081833D01*
X51085261Y-87034214D01*
X51228119Y-87034214D01*
X51323357Y-87081833D01*
X43646909Y-91540080D02*
X44265957Y-91540080D01*
X43932623Y-91921033D01*
X44075480Y-91921033D01*
X44170719Y-91968652D01*
X44218338Y-92016271D01*
X44265957Y-92111509D01*
X44265957Y-92349604D01*
X44218338Y-92444842D01*
X44170719Y-92492461D01*
X44075480Y-92540080D01*
X43789766Y-92540080D01*
X43694528Y-92492461D01*
X43646909Y-92444842D01*
X44694528Y-92444842D02*
X44742147Y-92492461D01*
X44694528Y-92540080D01*
X44646909Y-92492461D01*
X44694528Y-92444842D01*
X44694528Y-92540080D01*
X45075480Y-91540080D02*
X45694528Y-91540080D01*
X45361195Y-91921033D01*
X45504052Y-91921033D01*
X45599290Y-91968652D01*
X45646909Y-92016271D01*
X45694528Y-92111509D01*
X45694528Y-92349604D01*
X45646909Y-92444842D01*
X45599290Y-92492461D01*
X45504052Y-92540080D01*
X45218338Y-92540080D01*
X45123100Y-92492461D01*
X45075480Y-92444842D01*
X45980242Y-91540080D02*
X46313576Y-92540080D01*
X46646909Y-91540080D01*
X44145295Y-89035000D02*
X44050057Y-88987380D01*
X43907200Y-88987380D01*
X43764342Y-89035000D01*
X43669104Y-89130238D01*
X43621485Y-89225476D01*
X43573866Y-89415952D01*
X43573866Y-89558809D01*
X43621485Y-89749285D01*
X43669104Y-89844523D01*
X43764342Y-89939761D01*
X43907200Y-89987380D01*
X44002438Y-89987380D01*
X44145295Y-89939761D01*
X44192914Y-89892142D01*
X44192914Y-89558809D01*
X44002438Y-89558809D01*
X44621485Y-89987380D02*
X44621485Y-88987380D01*
X45192914Y-89987380D01*
X45192914Y-88987380D01*
X45669104Y-89987380D02*
X45669104Y-88987380D01*
X45907200Y-88987380D01*
X46050057Y-89035000D01*
X46145295Y-89130238D01*
X46192914Y-89225476D01*
X46240533Y-89415952D01*
X46240533Y-89558809D01*
X46192914Y-89749285D01*
X46145295Y-89844523D01*
X46050057Y-89939761D01*
X45907200Y-89987380D01*
X45669104Y-89987380D01*
X40981380Y-97170690D02*
X40981380Y-96551642D01*
X41362333Y-96884976D01*
X41362333Y-96742119D01*
X41409952Y-96646880D01*
X41457571Y-96599261D01*
X41552809Y-96551642D01*
X41790904Y-96551642D01*
X41886142Y-96599261D01*
X41933761Y-96646880D01*
X41981380Y-96742119D01*
X41981380Y-97027833D01*
X41933761Y-97123071D01*
X41886142Y-97170690D01*
X41886142Y-96123071D02*
X41933761Y-96075452D01*
X41981380Y-96123071D01*
X41933761Y-96170690D01*
X41886142Y-96123071D01*
X41981380Y-96123071D01*
X40981380Y-95742119D02*
X40981380Y-95123071D01*
X41362333Y-95456404D01*
X41362333Y-95313547D01*
X41409952Y-95218309D01*
X41457571Y-95170690D01*
X41552809Y-95123071D01*
X41790904Y-95123071D01*
X41886142Y-95170690D01*
X41933761Y-95218309D01*
X41981380Y-95313547D01*
X41981380Y-95599261D01*
X41933761Y-95694500D01*
X41886142Y-95742119D01*
X40981380Y-94837357D02*
X41981380Y-94504023D01*
X40981380Y-94170690D01*
X43344500Y-97281880D02*
X43344500Y-96329500D01*
X44664261Y-97091404D02*
X44711880Y-96948547D01*
X44711880Y-96710452D01*
X44664261Y-96615214D01*
X44616642Y-96567595D01*
X44521404Y-96519976D01*
X44426166Y-96519976D01*
X44330928Y-96567595D01*
X44283309Y-96615214D01*
X44235690Y-96710452D01*
X44188071Y-96900928D01*
X44140452Y-96996166D01*
X44092833Y-97043785D01*
X43997595Y-97091404D01*
X43902357Y-97091404D01*
X43807119Y-97043785D01*
X43759500Y-96996166D01*
X43711880Y-96900928D01*
X43711880Y-96662833D01*
X43759500Y-96519976D01*
X43344500Y-96329500D02*
X43344500Y-95377119D01*
X44664261Y-96139023D02*
X44711880Y-95996166D01*
X44711880Y-95758071D01*
X44664261Y-95662833D01*
X44616642Y-95615214D01*
X44521404Y-95567595D01*
X44426166Y-95567595D01*
X44330928Y-95615214D01*
X44283309Y-95662833D01*
X44235690Y-95758071D01*
X44188071Y-95948547D01*
X44140452Y-96043785D01*
X44092833Y-96091404D01*
X43997595Y-96139023D01*
X43902357Y-96139023D01*
X43807119Y-96091404D01*
X43759500Y-96043785D01*
X43711880Y-95948547D01*
X43711880Y-95710452D01*
X43759500Y-95567595D01*
X46109000Y-96710404D02*
X46061380Y-96805642D01*
X46061380Y-96948500D01*
X46109000Y-97091357D01*
X46204238Y-97186595D01*
X46299476Y-97234214D01*
X46489952Y-97281833D01*
X46632809Y-97281833D01*
X46823285Y-97234214D01*
X46918523Y-97186595D01*
X47013761Y-97091357D01*
X47061380Y-96948500D01*
X47061380Y-96853261D01*
X47013761Y-96710404D01*
X46966142Y-96662785D01*
X46632809Y-96662785D01*
X46632809Y-96853261D01*
X47061380Y-96234214D02*
X46061380Y-96234214D01*
X47061380Y-95662785D01*
X46061380Y-95662785D01*
X47061380Y-95186595D02*
X46061380Y-95186595D01*
X46061380Y-94948500D01*
X46109000Y-94805642D01*
X46204238Y-94710404D01*
X46299476Y-94662785D01*
X46489952Y-94615166D01*
X46632809Y-94615166D01*
X46823285Y-94662785D01*
X46918523Y-94710404D01*
X47013761Y-94805642D01*
X47061380Y-94948500D01*
X47061380Y-95186595D01*
X46988361Y-106111514D02*
X47035980Y-105968657D01*
X47035980Y-105730561D01*
X46988361Y-105635323D01*
X46940742Y-105587704D01*
X46845504Y-105540085D01*
X46750266Y-105540085D01*
X46655028Y-105587704D01*
X46607409Y-105635323D01*
X46559790Y-105730561D01*
X46512171Y-105921038D01*
X46464552Y-106016276D01*
X46416933Y-106063895D01*
X46321695Y-106111514D01*
X46226457Y-106111514D01*
X46131219Y-106063895D01*
X46083600Y-106016276D01*
X46035980Y-105921038D01*
X46035980Y-105682942D01*
X46083600Y-105540085D01*
X46940742Y-104540085D02*
X46988361Y-104587704D01*
X47035980Y-104730561D01*
X47035980Y-104825800D01*
X46988361Y-104968657D01*
X46893123Y-105063895D01*
X46797885Y-105111514D01*
X46607409Y-105159133D01*
X46464552Y-105159133D01*
X46274076Y-105111514D01*
X46178838Y-105063895D01*
X46083600Y-104968657D01*
X46035980Y-104825800D01*
X46035980Y-104730561D01*
X46083600Y-104587704D01*
X46131219Y-104540085D01*
X47035980Y-104111514D02*
X46035980Y-104111514D01*
X47035980Y-103540085D02*
X46464552Y-103968657D01*
X46035980Y-103540085D02*
X46607409Y-104111514D01*
X44394380Y-106663928D02*
X43394380Y-106663928D01*
X44108666Y-106330595D01*
X43394380Y-105997261D01*
X44394380Y-105997261D01*
X44394380Y-105521071D02*
X43394380Y-105521071D01*
X44346761Y-105092500D02*
X44394380Y-104949642D01*
X44394380Y-104711547D01*
X44346761Y-104616309D01*
X44299142Y-104568690D01*
X44203904Y-104521071D01*
X44108666Y-104521071D01*
X44013428Y-104568690D01*
X43965809Y-104616309D01*
X43918190Y-104711547D01*
X43870571Y-104902023D01*
X43822952Y-104997261D01*
X43775333Y-105044880D01*
X43680095Y-105092500D01*
X43584857Y-105092500D01*
X43489619Y-105044880D01*
X43442000Y-104997261D01*
X43394380Y-104902023D01*
X43394380Y-104663928D01*
X43442000Y-104521071D01*
X43394380Y-103902023D02*
X43394380Y-103711547D01*
X43442000Y-103616309D01*
X43537238Y-103521071D01*
X43727714Y-103473452D01*
X44061047Y-103473452D01*
X44251523Y-103521071D01*
X44346761Y-103616309D01*
X44394380Y-103711547D01*
X44394380Y-103902023D01*
X44346761Y-103997261D01*
X44251523Y-104092500D01*
X44061047Y-104140119D01*
X43727714Y-104140119D01*
X43537238Y-104092500D01*
X43442000Y-103997261D01*
X43394380Y-103902023D01*
X41981380Y-106600428D02*
X40981380Y-106600428D01*
X41695666Y-106267095D01*
X40981380Y-105933761D01*
X41981380Y-105933761D01*
X40981380Y-105267095D02*
X40981380Y-105076619D01*
X41029000Y-104981380D01*
X41124238Y-104886142D01*
X41314714Y-104838523D01*
X41648047Y-104838523D01*
X41838523Y-104886142D01*
X41933761Y-104981380D01*
X41981380Y-105076619D01*
X41981380Y-105267095D01*
X41933761Y-105362333D01*
X41838523Y-105457571D01*
X41648047Y-105505190D01*
X41314714Y-105505190D01*
X41124238Y-105457571D01*
X41029000Y-105362333D01*
X40981380Y-105267095D01*
X41933761Y-104457571D02*
X41981380Y-104314714D01*
X41981380Y-104076619D01*
X41933761Y-103981380D01*
X41886142Y-103933761D01*
X41790904Y-103886142D01*
X41695666Y-103886142D01*
X41600428Y-103933761D01*
X41552809Y-103981380D01*
X41505190Y-104076619D01*
X41457571Y-104267095D01*
X41409952Y-104362333D01*
X41362333Y-104409952D01*
X41267095Y-104457571D01*
X41171857Y-104457571D01*
X41076619Y-104409952D01*
X41029000Y-104362333D01*
X40981380Y-104267095D01*
X40981380Y-104029000D01*
X41029000Y-103886142D01*
X41981380Y-103457571D02*
X40981380Y-103457571D01*
D11*
%TO.C,C1*%
X78683752Y-124242500D02*
X78161248Y-124242500D01*
X78683752Y-122772500D02*
X78161248Y-122772500D01*
%TO.C,C2*%
X73716248Y-112676000D02*
X74238752Y-112676000D01*
X73716248Y-114146000D02*
X74238752Y-114146000D01*
%TO.C,C4*%
X67810748Y-105818000D02*
X68333252Y-105818000D01*
X67810748Y-107288000D02*
X68333252Y-107288000D01*
%TO.C,C5*%
X70394500Y-121531748D02*
X70394500Y-122054252D01*
X68924500Y-121531748D02*
X68924500Y-122054252D01*
%TO.C,C6*%
X61841748Y-105818000D02*
X62364252Y-105818000D01*
X61841748Y-107288000D02*
X62364252Y-107288000D01*
%TO.C,C7*%
X77794752Y-116432000D02*
X77272248Y-116432000D01*
X77794752Y-114962000D02*
X77272248Y-114962000D01*
%TO.C,C8*%
X61841748Y-103659000D02*
X62364252Y-103659000D01*
X61841748Y-105129000D02*
X62364252Y-105129000D01*
%TO.C,C9*%
X67810748Y-103659000D02*
X68333252Y-103659000D01*
X67810748Y-105129000D02*
X68333252Y-105129000D01*
%TO.C,C11*%
X72553500Y-121510248D02*
X72553500Y-122032752D01*
X71083500Y-121510248D02*
X71083500Y-122032752D01*
%TO.C,C12*%
X53811500Y-119133252D02*
X53811500Y-118610748D01*
X55281500Y-119133252D02*
X55281500Y-118610748D01*
%TO.C,C13*%
X96781252Y-101573000D02*
X96258748Y-101573000D01*
X96781252Y-100103000D02*
X96258748Y-100103000D01*
%TO.C,C14*%
X73823500Y-109276248D02*
X73823500Y-109798752D01*
X72353500Y-109276248D02*
X72353500Y-109798752D01*
%TO.C,C15*%
X75919000Y-109276248D02*
X75919000Y-109798752D01*
X74449000Y-109276248D02*
X74449000Y-109798752D01*
%TO.C,C16*%
X55745748Y-129630500D02*
X56268252Y-129630500D01*
X55745748Y-131100500D02*
X56268252Y-131100500D01*
%TO.C,C3*%
X55907000Y-119133252D02*
X55907000Y-118610748D01*
X57377000Y-119133252D02*
X57377000Y-118610748D01*
%TO.C,C10*%
X98555500Y-80962500D02*
X98555500Y-91122500D01*
X98595500Y-80962500D02*
X98595500Y-91122500D01*
X98635500Y-80962500D02*
X98635500Y-91122500D01*
X98675500Y-80963500D02*
X98675500Y-91121500D01*
X98715500Y-80964500D02*
X98715500Y-91120500D01*
X98755500Y-80965500D02*
X98755500Y-91119500D01*
X98795500Y-80967500D02*
X98795500Y-91117500D01*
X98835500Y-80969500D02*
X98835500Y-91115500D01*
X98875500Y-80972500D02*
X98875500Y-91112500D01*
X98915500Y-80974500D02*
X98915500Y-91110500D01*
X98955500Y-80977500D02*
X98955500Y-91107500D01*
X98995500Y-80980500D02*
X98995500Y-91104500D01*
X99035500Y-80984500D02*
X99035500Y-91100500D01*
X99075500Y-80988500D02*
X99075500Y-91096500D01*
X99115500Y-80992500D02*
X99115500Y-91092500D01*
X99155500Y-80997500D02*
X99155500Y-91087500D01*
X99195500Y-81002500D02*
X99195500Y-91082500D01*
X99235500Y-81007500D02*
X99235500Y-91077500D01*
X99276500Y-81012500D02*
X99276500Y-91072500D01*
X99316500Y-81018500D02*
X99316500Y-91066500D01*
X99356500Y-81024500D02*
X99356500Y-91060500D01*
X99396500Y-81031500D02*
X99396500Y-91053500D01*
X99436500Y-81038500D02*
X99436500Y-91046500D01*
X99476500Y-81045500D02*
X99476500Y-91039500D01*
X99516500Y-81052500D02*
X99516500Y-91032500D01*
X99556500Y-81060500D02*
X99556500Y-91024500D01*
X99596500Y-81068500D02*
X99596500Y-91016500D01*
X99636500Y-81077500D02*
X99636500Y-91007500D01*
X99676500Y-81086500D02*
X99676500Y-90998500D01*
X99716500Y-81095500D02*
X99716500Y-90989500D01*
X99756500Y-81104500D02*
X99756500Y-90980500D01*
X99796500Y-81114500D02*
X99796500Y-90970500D01*
X99836500Y-81124500D02*
X99836500Y-90960500D01*
X99876500Y-81135500D02*
X99876500Y-90949500D01*
X99916500Y-81145500D02*
X99916500Y-90939500D01*
X99956500Y-81157500D02*
X99956500Y-90927500D01*
X99996500Y-81168500D02*
X99996500Y-90916500D01*
X100036500Y-81180500D02*
X100036500Y-90904500D01*
X100076500Y-81192500D02*
X100076500Y-90892500D01*
X100116500Y-81205500D02*
X100116500Y-90879500D01*
X100156500Y-81218500D02*
X100156500Y-90866500D01*
X100196500Y-81231500D02*
X100196500Y-90853500D01*
X100236500Y-81245500D02*
X100236500Y-90839500D01*
X100276500Y-81259500D02*
X100276500Y-90825500D01*
X100316500Y-81274500D02*
X100316500Y-90810500D01*
X100356500Y-81288500D02*
X100356500Y-90796500D01*
X100396500Y-81304500D02*
X100396500Y-90780500D01*
X100436500Y-81319500D02*
X100436500Y-90765500D01*
X100476500Y-81335500D02*
X100476500Y-90749500D01*
X100516500Y-81352500D02*
X100516500Y-90732500D01*
X100556500Y-81368500D02*
X100556500Y-90716500D01*
X100596500Y-81385500D02*
X100596500Y-90699500D01*
X100636500Y-81403500D02*
X100636500Y-90681500D01*
X100676500Y-81421500D02*
X100676500Y-90663500D01*
X100716500Y-81439500D02*
X100716500Y-90645500D01*
X100756500Y-81458500D02*
X100756500Y-90626500D01*
X100796500Y-81478500D02*
X100796500Y-90606500D01*
X100836500Y-81497500D02*
X100836500Y-90587500D01*
X100876500Y-81517500D02*
X100876500Y-90567500D01*
X100916500Y-81538500D02*
X100916500Y-90546500D01*
X100956500Y-81559500D02*
X100956500Y-90525500D01*
X100996500Y-81580500D02*
X100996500Y-90504500D01*
X101036500Y-81602500D02*
X101036500Y-90482500D01*
X101076500Y-81625500D02*
X101076500Y-84801500D01*
X101076500Y-87283500D02*
X101076500Y-90459500D01*
X101116500Y-81647500D02*
X101116500Y-84801500D01*
X101116500Y-87283500D02*
X101116500Y-90437500D01*
X101156500Y-81671500D02*
X101156500Y-84801500D01*
X101156500Y-87283500D02*
X101156500Y-90413500D01*
X101196500Y-81695500D02*
X101196500Y-84801500D01*
X101196500Y-87283500D02*
X101196500Y-90389500D01*
X101236500Y-81719500D02*
X101236500Y-84801500D01*
X101236500Y-87283500D02*
X101236500Y-90365500D01*
X101276500Y-81744500D02*
X101276500Y-84801500D01*
X101276500Y-87283500D02*
X101276500Y-90340500D01*
X101316500Y-81769500D02*
X101316500Y-84801500D01*
X101316500Y-87283500D02*
X101316500Y-90315500D01*
X101356500Y-81795500D02*
X101356500Y-84801500D01*
X101356500Y-87283500D02*
X101356500Y-90289500D01*
X101396500Y-81821500D02*
X101396500Y-84801500D01*
X101396500Y-87283500D02*
X101396500Y-90263500D01*
X101436500Y-81848500D02*
X101436500Y-84801500D01*
X101436500Y-87283500D02*
X101436500Y-90236500D01*
X101476500Y-81876500D02*
X101476500Y-84801500D01*
X101476500Y-87283500D02*
X101476500Y-90208500D01*
X101516500Y-81904500D02*
X101516500Y-84801500D01*
X101516500Y-87283500D02*
X101516500Y-90180500D01*
X101556500Y-81932500D02*
X101556500Y-84801500D01*
X101556500Y-87283500D02*
X101556500Y-90152500D01*
X101596500Y-81962500D02*
X101596500Y-84801500D01*
X101596500Y-87283500D02*
X101596500Y-90122500D01*
X101636500Y-81992500D02*
X101636500Y-84801500D01*
X101636500Y-87283500D02*
X101636500Y-90092500D01*
X101676500Y-82022500D02*
X101676500Y-84801500D01*
X101676500Y-87283500D02*
X101676500Y-90062500D01*
X101716500Y-82053500D02*
X101716500Y-84801500D01*
X101716500Y-87283500D02*
X101716500Y-90031500D01*
X101756500Y-82085500D02*
X101756500Y-84801500D01*
X101756500Y-87283500D02*
X101756500Y-89999500D01*
X101796500Y-82117500D02*
X101796500Y-84801500D01*
X101796500Y-87283500D02*
X101796500Y-89967500D01*
X101836500Y-82150500D02*
X101836500Y-84801500D01*
X101836500Y-87283500D02*
X101836500Y-89934500D01*
X101876500Y-82184500D02*
X101876500Y-84801500D01*
X101876500Y-87283500D02*
X101876500Y-89900500D01*
X101916500Y-82218500D02*
X101916500Y-84801500D01*
X101916500Y-87283500D02*
X101916500Y-89866500D01*
X101956500Y-82253500D02*
X101956500Y-84801500D01*
X101956500Y-87283500D02*
X101956500Y-89831500D01*
X101996500Y-82289500D02*
X101996500Y-84801500D01*
X101996500Y-87283500D02*
X101996500Y-89795500D01*
X102036500Y-82326500D02*
X102036500Y-84801500D01*
X102036500Y-87283500D02*
X102036500Y-89758500D01*
X102076500Y-82363500D02*
X102076500Y-84801500D01*
X102076500Y-87283500D02*
X102076500Y-89721500D01*
X102116500Y-82402500D02*
X102116500Y-84801500D01*
X102116500Y-87283500D02*
X102116500Y-89682500D01*
X102156500Y-82441500D02*
X102156500Y-84801500D01*
X102156500Y-87283500D02*
X102156500Y-89643500D01*
X102196500Y-82481500D02*
X102196500Y-84801500D01*
X102196500Y-87283500D02*
X102196500Y-89603500D01*
X102236500Y-82522500D02*
X102236500Y-84801500D01*
X102236500Y-87283500D02*
X102236500Y-89562500D01*
X102276500Y-82564500D02*
X102276500Y-84801500D01*
X102276500Y-87283500D02*
X102276500Y-89520500D01*
X102316500Y-82606500D02*
X102316500Y-84801500D01*
X102316500Y-87283500D02*
X102316500Y-89478500D01*
X102356500Y-82650500D02*
X102356500Y-84801500D01*
X102356500Y-87283500D02*
X102356500Y-89434500D01*
X102396500Y-82695500D02*
X102396500Y-84801500D01*
X102396500Y-87283500D02*
X102396500Y-89389500D01*
X102436500Y-82741500D02*
X102436500Y-84801500D01*
X102436500Y-87283500D02*
X102436500Y-89343500D01*
X102476500Y-82788500D02*
X102476500Y-84801500D01*
X102476500Y-87283500D02*
X102476500Y-89296500D01*
X102516500Y-82836500D02*
X102516500Y-84801500D01*
X102516500Y-87283500D02*
X102516500Y-89248500D01*
X102556500Y-82886500D02*
X102556500Y-84801500D01*
X102556500Y-87283500D02*
X102556500Y-89198500D01*
X102596500Y-82936500D02*
X102596500Y-84801500D01*
X102596500Y-87283500D02*
X102596500Y-89148500D01*
X102636500Y-82988500D02*
X102636500Y-84801500D01*
X102636500Y-87283500D02*
X102636500Y-89096500D01*
X102676500Y-83042500D02*
X102676500Y-84801500D01*
X102676500Y-87283500D02*
X102676500Y-89042500D01*
X102716500Y-83097500D02*
X102716500Y-84801500D01*
X102716500Y-87283500D02*
X102716500Y-88987500D01*
X102756500Y-83153500D02*
X102756500Y-84801500D01*
X102756500Y-87283500D02*
X102756500Y-88931500D01*
X102796500Y-83212500D02*
X102796500Y-84801500D01*
X102796500Y-87283500D02*
X102796500Y-88872500D01*
X102836500Y-83272500D02*
X102836500Y-84801500D01*
X102836500Y-87283500D02*
X102836500Y-88812500D01*
X102876500Y-83333500D02*
X102876500Y-84801500D01*
X102876500Y-87283500D02*
X102876500Y-88751500D01*
X102916500Y-83397500D02*
X102916500Y-84801500D01*
X102916500Y-87283500D02*
X102916500Y-88687500D01*
X102956500Y-83463500D02*
X102956500Y-84801500D01*
X102956500Y-87283500D02*
X102956500Y-88621500D01*
X102996500Y-83532500D02*
X102996500Y-84801500D01*
X102996500Y-87283500D02*
X102996500Y-88552500D01*
X103036500Y-83603500D02*
X103036500Y-84801500D01*
X103036500Y-87283500D02*
X103036500Y-88481500D01*
X103076500Y-83677500D02*
X103076500Y-84801500D01*
X103076500Y-87283500D02*
X103076500Y-88407500D01*
X103116500Y-83753500D02*
X103116500Y-84801500D01*
X103116500Y-87283500D02*
X103116500Y-88331500D01*
X103156500Y-83833500D02*
X103156500Y-84801500D01*
X103156500Y-87283500D02*
X103156500Y-88251500D01*
X103196500Y-83917500D02*
X103196500Y-84801500D01*
X103196500Y-87283500D02*
X103196500Y-88167500D01*
X103236500Y-84005500D02*
X103236500Y-84801500D01*
X103236500Y-87283500D02*
X103236500Y-88079500D01*
X103276500Y-84098500D02*
X103276500Y-84801500D01*
X103276500Y-87283500D02*
X103276500Y-87986500D01*
X103316500Y-84196500D02*
X103316500Y-84801500D01*
X103316500Y-87283500D02*
X103316500Y-87888500D01*
X103356500Y-84300500D02*
X103356500Y-84801500D01*
X103356500Y-87283500D02*
X103356500Y-87784500D01*
X103396500Y-84412500D02*
X103396500Y-84801500D01*
X103396500Y-87283500D02*
X103396500Y-87672500D01*
X103436500Y-84532500D02*
X103436500Y-84801500D01*
X103436500Y-87283500D02*
X103436500Y-87552500D01*
X103476500Y-84664500D02*
X103476500Y-84801500D01*
X103476500Y-87283500D02*
X103476500Y-87420500D01*
X103556500Y-84980500D02*
X103556500Y-87104500D01*
X103596500Y-85180500D02*
X103596500Y-86904500D01*
X103636500Y-85443500D02*
X103636500Y-86641500D01*
X93075854Y-83167500D02*
X94075854Y-83167500D01*
X93575854Y-82667500D02*
X93575854Y-83667500D01*
X93592960Y-87302500D02*
G75*
G03*
X93592960Y-84782500I4962540J1260000D01*
G01*
%TO.C,U4*%
X60216300Y-109329700D02*
X59266300Y-109329700D01*
X59266300Y-109329700D02*
X59266300Y-110279700D01*
X68536300Y-109329700D02*
X69486300Y-109329700D01*
X69486300Y-109329700D02*
X69486300Y-110279700D01*
X60216300Y-119549700D02*
X59266300Y-119549700D01*
X59266300Y-119549700D02*
X59266300Y-118599700D01*
X68536300Y-119549700D02*
X69486300Y-119549700D01*
X69486300Y-119549700D02*
X69486300Y-118599700D01*
X69486300Y-118599700D02*
X70826300Y-118599700D01*
%TO.C,U2*%
X57873900Y-129064700D02*
X59823900Y-129064700D01*
X57873900Y-129064700D02*
X55923900Y-129064700D01*
X57873900Y-123944700D02*
X59823900Y-123944700D01*
X57873900Y-123944700D02*
X54423900Y-123944700D01*
%TO.C,J7*%
X91025500Y-109918000D02*
X91025500Y-108428000D01*
X91025500Y-108428000D02*
X89685500Y-108428000D01*
X91025500Y-122238000D02*
X91025500Y-123728000D01*
X91025500Y-123728000D02*
X89685500Y-123728000D01*
X86965500Y-108428000D02*
X85225500Y-108428000D01*
X85225500Y-108428000D02*
X85225500Y-123728000D01*
X85225500Y-123728000D02*
X86965500Y-123728000D01*
X91025500Y-109918000D02*
X92225500Y-109918000D01*
%TO.C,SW1*%
X78050000Y-105355000D02*
X78080000Y-105355000D01*
X84510000Y-105355000D02*
X84480000Y-105355000D01*
X84510000Y-111815000D02*
X84480000Y-111815000D01*
X78080000Y-111815000D02*
X78050000Y-111815000D01*
X79980000Y-105355000D02*
X82580000Y-105355000D01*
X78050000Y-111815000D02*
X78050000Y-105355000D01*
X79980000Y-111815000D02*
X82580000Y-111815000D01*
X84510000Y-111815000D02*
X84510000Y-105355000D01*
%TO.C,J1*%
X103833000Y-134562500D02*
X103833000Y-134062500D01*
X103093000Y-134562500D02*
X103833000Y-134562500D01*
X99956000Y-127989500D02*
X100002000Y-128036500D01*
X97658000Y-125692500D02*
X97694000Y-125727500D01*
X100172000Y-127796500D02*
X100207000Y-127831500D01*
X97864000Y-125487500D02*
X97910000Y-125534500D01*
X93672000Y-124202500D02*
X103593000Y-124202500D01*
X93672000Y-134322500D02*
X103593000Y-134322500D01*
X103593000Y-134322500D02*
X103593000Y-124202500D01*
X93672000Y-134322500D02*
X93672000Y-124202500D01*
X96632000Y-134322500D02*
X96632000Y-124202500D01*
X101533000Y-134322500D02*
X101533000Y-124202500D01*
X103033000Y-134322500D02*
X103033000Y-124202500D01*
X100613000Y-126762500D02*
G75*
G03*
X100613000Y-126762500I-1680000J0D01*
G01*
X100613253Y-131733695D02*
G75*
G02*
X100468000Y-132446500I-1680253J-28805D01*
G01*
X99616042Y-133297926D02*
G75*
G02*
X98249000Y-133297500I-683042J1535426D01*
G01*
X97397574Y-132445542D02*
G75*
G02*
X97398000Y-131078500I1535426J683042D01*
G01*
X98249958Y-130227074D02*
G75*
G02*
X99617000Y-130227500I683042J-1535426D01*
G01*
X100467756Y-131079182D02*
G75*
G02*
X100613000Y-131762500I-1534756J-683318D01*
G01*
%TO.C,J3*%
X46257000Y-131784100D02*
G75*
G03*
X46257000Y-131784100I-1680000J0D01*
G01*
X40477000Y-124224100D02*
X40477000Y-134344100D01*
X41977000Y-124224100D02*
X41977000Y-134344100D01*
X46878000Y-124224100D02*
X46878000Y-134344100D01*
X49838000Y-124224100D02*
X49838000Y-134344100D01*
X39917000Y-124224100D02*
X39917000Y-134344100D01*
X49838000Y-124224100D02*
X39917000Y-124224100D01*
X49838000Y-134344100D02*
X39917000Y-134344100D01*
X45646000Y-133059100D02*
X45600000Y-133012100D01*
X43338000Y-130750100D02*
X43303000Y-130715100D01*
X45852000Y-132854100D02*
X45816000Y-132819100D01*
X43554000Y-130557100D02*
X43508000Y-130510100D01*
X40417000Y-123984100D02*
X39677000Y-123984100D01*
X39677000Y-123984100D02*
X39677000Y-124484100D01*
X43042244Y-127467418D02*
G75*
G02*
X42897000Y-126784100I1534756J683318D01*
G01*
X45260042Y-128319526D02*
G75*
G02*
X43893000Y-128319100I-683042J1535426D01*
G01*
X46112426Y-126101058D02*
G75*
G02*
X46112000Y-127468100I-1535426J-683042D01*
G01*
X43893958Y-125248674D02*
G75*
G02*
X45261000Y-125249100I683042J-1535426D01*
G01*
X42896747Y-126812905D02*
G75*
G02*
X43042000Y-126100100I1680253J28805D01*
G01*
%TO.C,Q1*%
X81707000Y-126979000D02*
X80207000Y-126979000D01*
X80207000Y-126979000D02*
X80207000Y-127249000D01*
X80207000Y-127249000D02*
X77377000Y-127249000D01*
X81707000Y-133879000D02*
X80207000Y-133879000D01*
X80207000Y-133879000D02*
X80207000Y-133609000D01*
X80207000Y-133609000D02*
X79107000Y-133609000D01*
%TO.C,U3*%
X50344500Y-117053000D02*
X52144500Y-117053000D01*
X52144500Y-113833000D02*
X49694500Y-113833000D01*
%TO.C,U5*%
X99647100Y-78903200D02*
X99647100Y-78403200D01*
X99647100Y-78403200D02*
X101047100Y-78403200D01*
X95247100Y-77203200D02*
X95247100Y-75603200D01*
X99647100Y-77203200D02*
X99647100Y-75603200D01*
X95247100Y-78103200D02*
X95247100Y-78903200D01*
X95247100Y-78903200D02*
X99647100Y-78903200D01*
X95247100Y-74703200D02*
X95247100Y-73903200D01*
X95247100Y-73903200D02*
X99647100Y-73903200D01*
X99647100Y-73903200D02*
X99647100Y-74703200D01*
%TO.C,Y1*%
X75728000Y-122270500D02*
X80228000Y-122270500D01*
X80228000Y-122270500D02*
X80228000Y-116870500D01*
%TO.C,U1*%
X100970000Y-99231500D02*
X100970000Y-97971500D01*
X100970000Y-92411500D02*
X100970000Y-93671500D01*
X97210000Y-99231500D02*
X100970000Y-99231500D01*
X94960000Y-92411500D02*
X100970000Y-92411500D01*
%TO.C,J6*%
X46218900Y-81720700D02*
G75*
G03*
X46218900Y-81720700I-1680000J0D01*
G01*
X40438900Y-74160700D02*
X40438900Y-84280700D01*
X41938900Y-74160700D02*
X41938900Y-84280700D01*
X46839900Y-74160700D02*
X46839900Y-84280700D01*
X49799900Y-74160700D02*
X49799900Y-84280700D01*
X39878900Y-74160700D02*
X39878900Y-84280700D01*
X49799900Y-74160700D02*
X39878900Y-74160700D01*
X49799900Y-84280700D02*
X39878900Y-84280700D01*
X45607900Y-82995700D02*
X45561900Y-82948700D01*
X43299900Y-80686700D02*
X43264900Y-80651700D01*
X45813900Y-82790700D02*
X45777900Y-82755700D01*
X43515900Y-80493700D02*
X43469900Y-80446700D01*
X40378900Y-73920700D02*
X39638900Y-73920700D01*
X39638900Y-73920700D02*
X39638900Y-74420700D01*
X43004144Y-77404018D02*
G75*
G02*
X42858900Y-76720700I1534756J683318D01*
G01*
X45221942Y-78256126D02*
G75*
G02*
X43854900Y-78255700I-683042J1535426D01*
G01*
X46074326Y-76037658D02*
G75*
G02*
X46073900Y-77404700I-1535426J-683042D01*
G01*
X43855858Y-75185274D02*
G75*
G02*
X45222900Y-75185700I683042J-1535426D01*
G01*
X42858647Y-76749505D02*
G75*
G02*
X43003900Y-76036700I1680253J28805D01*
G01*
%TO.C,U6*%
X53034700Y-101130100D02*
X53034700Y-73840600D01*
X53034700Y-101130100D02*
X90627200Y-101066600D01*
X90754200Y-73840600D02*
X53034700Y-73840600D01*
X90754200Y-73840600D02*
X90690700Y-101066600D01*
X55654700Y-76960600D02*
X55654700Y-98780600D01*
X55654700Y-98780600D02*
X88404700Y-98780600D01*
X55654700Y-94460600D02*
X55654700Y-94960600D01*
X55654700Y-76960600D02*
X88404700Y-76960600D01*
X55654700Y-82460600D02*
X55654700Y-79960600D01*
%TO.C,U7*%
X62230000Y-131572000D02*
X70929500Y-131572000D01*
X70929500Y-131572000D02*
X70929500Y-134429500D01*
X70929500Y-134429500D02*
X62166500Y-134429500D01*
X62166500Y-134429500D02*
X62166500Y-131572000D01*
%TO.C,J4*%
X40135500Y-103057000D02*
X40135500Y-101727000D01*
X41465500Y-103057000D02*
X40135500Y-103057000D01*
X40135500Y-100457000D02*
X40135500Y-97857000D01*
X42735500Y-100457000D02*
X40135500Y-100457000D01*
X42735500Y-103057000D02*
X42735500Y-100457000D01*
X40135500Y-97857000D02*
X47875500Y-97857000D01*
X42735500Y-103057000D02*
X47875500Y-103057000D01*
X47875500Y-103057000D02*
X47875500Y-97857000D01*
%TO.C,J5*%
X42719300Y-93366900D02*
X41389300Y-93366900D01*
X42719300Y-92036900D02*
X42719300Y-93366900D01*
X42719300Y-90766900D02*
X40059300Y-90766900D01*
X40059300Y-90766900D02*
X40059300Y-88166900D01*
X42719300Y-90766900D02*
X42719300Y-88166900D01*
X42719300Y-88166900D02*
X40059300Y-88166900D01*
%TO.C,D1*%
X90850000Y-105544500D02*
X93710000Y-105544500D01*
X90850000Y-103624500D02*
X90850000Y-105544500D01*
X93710000Y-103624500D02*
X90850000Y-103624500D01*
%TO.C,D2*%
X67783200Y-130233300D02*
X70643200Y-130233300D01*
X70643200Y-130233300D02*
X70643200Y-128313300D01*
X70643200Y-128313300D02*
X67783200Y-128313300D01*
%TO.C,FB1*%
X74492752Y-105906500D02*
X73970248Y-105906500D01*
X74492752Y-107326500D02*
X73970248Y-107326500D01*
%TO.C,J2*%
X48595500Y-115959000D02*
X48095500Y-116459000D01*
X48595500Y-116959000D02*
X48595500Y-115959000D01*
X48095500Y-116459000D02*
X48595500Y-116959000D01*
X31275500Y-109099000D02*
X39245500Y-109099000D01*
X31275500Y-121319000D02*
X39245500Y-121319000D01*
X31275500Y-109099000D02*
X31275500Y-121319000D01*
X47895500Y-121319000D02*
X44145500Y-121319000D01*
X47895500Y-109099000D02*
X44145500Y-109099000D01*
X47895500Y-109099000D02*
X47895500Y-121319000D01*
%TO.C,R1*%
X75093564Y-127408000D02*
X74639436Y-127408000D01*
X75093564Y-128878000D02*
X74639436Y-128878000D01*
%TO.C,R2*%
X91095564Y-131218000D02*
X90641436Y-131218000D01*
X91095564Y-132688000D02*
X90641436Y-132688000D01*
%TO.C,R3*%
X50099900Y-102846136D02*
X50099900Y-103300264D01*
X48629900Y-102846136D02*
X48629900Y-103300264D01*
%TO.C,R4*%
X96747064Y-103668500D02*
X96292936Y-103668500D01*
X96747064Y-102198500D02*
X96292936Y-102198500D01*
%TO.C,R5*%
X92937064Y-101754000D02*
X92482936Y-101754000D01*
X92937064Y-103224000D02*
X92482936Y-103224000D01*
%TO.C,R6*%
X62269700Y-127582664D02*
X62269700Y-127128536D01*
X63739700Y-127582664D02*
X63739700Y-127128536D01*
%TO.C,R7*%
X88482436Y-105319500D02*
X88936564Y-105319500D01*
X88482436Y-103849500D02*
X88936564Y-103849500D01*
%TO.C,R8*%
X66635300Y-128598664D02*
X66635300Y-128144536D01*
X65165300Y-128598664D02*
X65165300Y-128144536D01*
%TO.C,R9*%
X72490000Y-128169936D02*
X72490000Y-128624064D01*
X71020000Y-128169936D02*
X71020000Y-128624064D01*
%TO.C,R10*%
X48668000Y-122020064D02*
X48668000Y-121565936D01*
X50138000Y-122020064D02*
X50138000Y-121565936D01*
%TO.C,C1*%
D10*
X81176833Y-123928142D02*
X81129214Y-123975761D01*
X80986357Y-124023380D01*
X80891119Y-124023380D01*
X80748261Y-123975761D01*
X80653023Y-123880523D01*
X80605404Y-123785285D01*
X80557785Y-123594809D01*
X80557785Y-123451952D01*
X80605404Y-123261476D01*
X80653023Y-123166238D01*
X80748261Y-123071000D01*
X80891119Y-123023380D01*
X80986357Y-123023380D01*
X81129214Y-123071000D01*
X81176833Y-123118619D01*
X82129214Y-124023380D02*
X81557785Y-124023380D01*
X81843500Y-124023380D02*
X81843500Y-123023380D01*
X81748261Y-123166238D01*
X81653023Y-123261476D01*
X81557785Y-123309095D01*
%TO.C,C2*%
X76693733Y-114047542D02*
X76646114Y-114095161D01*
X76503257Y-114142780D01*
X76408019Y-114142780D01*
X76265161Y-114095161D01*
X76169923Y-113999923D01*
X76122304Y-113904685D01*
X76074685Y-113714209D01*
X76074685Y-113571352D01*
X76122304Y-113380876D01*
X76169923Y-113285638D01*
X76265161Y-113190400D01*
X76408019Y-113142780D01*
X76503257Y-113142780D01*
X76646114Y-113190400D01*
X76693733Y-113238019D01*
X77074685Y-113238019D02*
X77122304Y-113190400D01*
X77217542Y-113142780D01*
X77455638Y-113142780D01*
X77550876Y-113190400D01*
X77598495Y-113238019D01*
X77646114Y-113333257D01*
X77646114Y-113428495D01*
X77598495Y-113571352D01*
X77027066Y-114142780D01*
X77646114Y-114142780D01*
%TO.C,C4*%
X69492833Y-108624642D02*
X69445214Y-108672261D01*
X69302357Y-108719880D01*
X69207119Y-108719880D01*
X69064261Y-108672261D01*
X68969023Y-108577023D01*
X68921404Y-108481785D01*
X68873785Y-108291309D01*
X68873785Y-108148452D01*
X68921404Y-107957976D01*
X68969023Y-107862738D01*
X69064261Y-107767500D01*
X69207119Y-107719880D01*
X69302357Y-107719880D01*
X69445214Y-107767500D01*
X69492833Y-107815119D01*
X70349976Y-108053214D02*
X70349976Y-108719880D01*
X70111880Y-107672261D02*
X69873785Y-108386547D01*
X70492833Y-108386547D01*
%TO.C,C5*%
X67524333Y-123547142D02*
X67476714Y-123594761D01*
X67333857Y-123642380D01*
X67238619Y-123642380D01*
X67095761Y-123594761D01*
X67000523Y-123499523D01*
X66952904Y-123404285D01*
X66905285Y-123213809D01*
X66905285Y-123070952D01*
X66952904Y-122880476D01*
X67000523Y-122785238D01*
X67095761Y-122690000D01*
X67238619Y-122642380D01*
X67333857Y-122642380D01*
X67476714Y-122690000D01*
X67524333Y-122737619D01*
X68429095Y-122642380D02*
X67952904Y-122642380D01*
X67905285Y-123118571D01*
X67952904Y-123070952D01*
X68048142Y-123023333D01*
X68286238Y-123023333D01*
X68381476Y-123070952D01*
X68429095Y-123118571D01*
X68476714Y-123213809D01*
X68476714Y-123451904D01*
X68429095Y-123547142D01*
X68381476Y-123594761D01*
X68286238Y-123642380D01*
X68048142Y-123642380D01*
X67952904Y-123594761D01*
X67905285Y-123547142D01*
%TO.C,C6*%
X59015333Y-106973642D02*
X58967714Y-107021261D01*
X58824857Y-107068880D01*
X58729619Y-107068880D01*
X58586761Y-107021261D01*
X58491523Y-106926023D01*
X58443904Y-106830785D01*
X58396285Y-106640309D01*
X58396285Y-106497452D01*
X58443904Y-106306976D01*
X58491523Y-106211738D01*
X58586761Y-106116500D01*
X58729619Y-106068880D01*
X58824857Y-106068880D01*
X58967714Y-106116500D01*
X59015333Y-106164119D01*
X59872476Y-106068880D02*
X59682000Y-106068880D01*
X59586761Y-106116500D01*
X59539142Y-106164119D01*
X59443904Y-106306976D01*
X59396285Y-106497452D01*
X59396285Y-106878404D01*
X59443904Y-106973642D01*
X59491523Y-107021261D01*
X59586761Y-107068880D01*
X59777238Y-107068880D01*
X59872476Y-107021261D01*
X59920095Y-106973642D01*
X59967714Y-106878404D01*
X59967714Y-106640309D01*
X59920095Y-106545071D01*
X59872476Y-106497452D01*
X59777238Y-106449833D01*
X59586761Y-106449833D01*
X59491523Y-106497452D01*
X59443904Y-106545071D01*
X59396285Y-106640309D01*
%TO.C,C7*%
X74445833Y-116181142D02*
X74398214Y-116228761D01*
X74255357Y-116276380D01*
X74160119Y-116276380D01*
X74017261Y-116228761D01*
X73922023Y-116133523D01*
X73874404Y-116038285D01*
X73826785Y-115847809D01*
X73826785Y-115704952D01*
X73874404Y-115514476D01*
X73922023Y-115419238D01*
X74017261Y-115324000D01*
X74160119Y-115276380D01*
X74255357Y-115276380D01*
X74398214Y-115324000D01*
X74445833Y-115371619D01*
X74779166Y-115276380D02*
X75445833Y-115276380D01*
X75017261Y-116276380D01*
%TO.C,C8*%
X59015333Y-104814642D02*
X58967714Y-104862261D01*
X58824857Y-104909880D01*
X58729619Y-104909880D01*
X58586761Y-104862261D01*
X58491523Y-104767023D01*
X58443904Y-104671785D01*
X58396285Y-104481309D01*
X58396285Y-104338452D01*
X58443904Y-104147976D01*
X58491523Y-104052738D01*
X58586761Y-103957500D01*
X58729619Y-103909880D01*
X58824857Y-103909880D01*
X58967714Y-103957500D01*
X59015333Y-104005119D01*
X59586761Y-104338452D02*
X59491523Y-104290833D01*
X59443904Y-104243214D01*
X59396285Y-104147976D01*
X59396285Y-104100357D01*
X59443904Y-104005119D01*
X59491523Y-103957500D01*
X59586761Y-103909880D01*
X59777238Y-103909880D01*
X59872476Y-103957500D01*
X59920095Y-104005119D01*
X59967714Y-104100357D01*
X59967714Y-104147976D01*
X59920095Y-104243214D01*
X59872476Y-104290833D01*
X59777238Y-104338452D01*
X59586761Y-104338452D01*
X59491523Y-104386071D01*
X59443904Y-104433690D01*
X59396285Y-104528928D01*
X59396285Y-104719404D01*
X59443904Y-104814642D01*
X59491523Y-104862261D01*
X59586761Y-104909880D01*
X59777238Y-104909880D01*
X59872476Y-104862261D01*
X59920095Y-104814642D01*
X59967714Y-104719404D01*
X59967714Y-104528928D01*
X59920095Y-104433690D01*
X59872476Y-104386071D01*
X59777238Y-104338452D01*
%TO.C,C9*%
X67841833Y-103163642D02*
X67794214Y-103211261D01*
X67651357Y-103258880D01*
X67556119Y-103258880D01*
X67413261Y-103211261D01*
X67318023Y-103116023D01*
X67270404Y-103020785D01*
X67222785Y-102830309D01*
X67222785Y-102687452D01*
X67270404Y-102496976D01*
X67318023Y-102401738D01*
X67413261Y-102306500D01*
X67556119Y-102258880D01*
X67651357Y-102258880D01*
X67794214Y-102306500D01*
X67841833Y-102354119D01*
X68318023Y-103258880D02*
X68508500Y-103258880D01*
X68603738Y-103211261D01*
X68651357Y-103163642D01*
X68746595Y-103020785D01*
X68794214Y-102830309D01*
X68794214Y-102449357D01*
X68746595Y-102354119D01*
X68698976Y-102306500D01*
X68603738Y-102258880D01*
X68413261Y-102258880D01*
X68318023Y-102306500D01*
X68270404Y-102354119D01*
X68222785Y-102449357D01*
X68222785Y-102687452D01*
X68270404Y-102782690D01*
X68318023Y-102830309D01*
X68413261Y-102877928D01*
X68603738Y-102877928D01*
X68698976Y-102830309D01*
X68746595Y-102782690D01*
X68794214Y-102687452D01*
%TO.C,C11*%
X73890142Y-123070857D02*
X73937761Y-123118476D01*
X73985380Y-123261333D01*
X73985380Y-123356571D01*
X73937761Y-123499428D01*
X73842523Y-123594666D01*
X73747285Y-123642285D01*
X73556809Y-123689904D01*
X73413952Y-123689904D01*
X73223476Y-123642285D01*
X73128238Y-123594666D01*
X73033000Y-123499428D01*
X72985380Y-123356571D01*
X72985380Y-123261333D01*
X73033000Y-123118476D01*
X73080619Y-123070857D01*
X73985380Y-122118476D02*
X73985380Y-122689904D01*
X73985380Y-122404190D02*
X72985380Y-122404190D01*
X73128238Y-122499428D01*
X73223476Y-122594666D01*
X73271095Y-122689904D01*
X73985380Y-121166095D02*
X73985380Y-121737523D01*
X73985380Y-121451809D02*
X72985380Y-121451809D01*
X73128238Y-121547047D01*
X73223476Y-121642285D01*
X73271095Y-121737523D01*
%TO.C,C12*%
X53205142Y-121832642D02*
X53157523Y-121880261D01*
X53014666Y-121927880D01*
X52919428Y-121927880D01*
X52776571Y-121880261D01*
X52681333Y-121785023D01*
X52633714Y-121689785D01*
X52586095Y-121499309D01*
X52586095Y-121356452D01*
X52633714Y-121165976D01*
X52681333Y-121070738D01*
X52776571Y-120975500D01*
X52919428Y-120927880D01*
X53014666Y-120927880D01*
X53157523Y-120975500D01*
X53205142Y-121023119D01*
X54157523Y-121927880D02*
X53586095Y-121927880D01*
X53871809Y-121927880D02*
X53871809Y-120927880D01*
X53776571Y-121070738D01*
X53681333Y-121165976D01*
X53586095Y-121213595D01*
X54538476Y-121023119D02*
X54586095Y-120975500D01*
X54681333Y-120927880D01*
X54919428Y-120927880D01*
X55014666Y-120975500D01*
X55062285Y-121023119D01*
X55109904Y-121118357D01*
X55109904Y-121213595D01*
X55062285Y-121356452D01*
X54490857Y-121927880D01*
X55109904Y-121927880D01*
%TO.C,C13*%
X99179142Y-101195142D02*
X99131523Y-101242761D01*
X98988666Y-101290380D01*
X98893428Y-101290380D01*
X98750571Y-101242761D01*
X98655333Y-101147523D01*
X98607714Y-101052285D01*
X98560095Y-100861809D01*
X98560095Y-100718952D01*
X98607714Y-100528476D01*
X98655333Y-100433238D01*
X98750571Y-100338000D01*
X98893428Y-100290380D01*
X98988666Y-100290380D01*
X99131523Y-100338000D01*
X99179142Y-100385619D01*
X100131523Y-101290380D02*
X99560095Y-101290380D01*
X99845809Y-101290380D02*
X99845809Y-100290380D01*
X99750571Y-100433238D01*
X99655333Y-100528476D01*
X99560095Y-100576095D01*
X100464857Y-100290380D02*
X101083904Y-100290380D01*
X100750571Y-100671333D01*
X100893428Y-100671333D01*
X100988666Y-100718952D01*
X101036285Y-100766571D01*
X101083904Y-100861809D01*
X101083904Y-101099904D01*
X101036285Y-101195142D01*
X100988666Y-101242761D01*
X100893428Y-101290380D01*
X100607714Y-101290380D01*
X100512476Y-101242761D01*
X100464857Y-101195142D01*
%TO.C,C14*%
X71794642Y-109481857D02*
X71842261Y-109529476D01*
X71889880Y-109672333D01*
X71889880Y-109767571D01*
X71842261Y-109910428D01*
X71747023Y-110005666D01*
X71651785Y-110053285D01*
X71461309Y-110100904D01*
X71318452Y-110100904D01*
X71127976Y-110053285D01*
X71032738Y-110005666D01*
X70937500Y-109910428D01*
X70889880Y-109767571D01*
X70889880Y-109672333D01*
X70937500Y-109529476D01*
X70985119Y-109481857D01*
X71889880Y-108529476D02*
X71889880Y-109100904D01*
X71889880Y-108815190D02*
X70889880Y-108815190D01*
X71032738Y-108910428D01*
X71127976Y-109005666D01*
X71175595Y-109100904D01*
X71223214Y-107672333D02*
X71889880Y-107672333D01*
X70842261Y-107910428D02*
X71556547Y-108148523D01*
X71556547Y-107529476D01*
%TO.C,C15*%
X77319142Y-109354857D02*
X77366761Y-109402476D01*
X77414380Y-109545333D01*
X77414380Y-109640571D01*
X77366761Y-109783428D01*
X77271523Y-109878666D01*
X77176285Y-109926285D01*
X76985809Y-109973904D01*
X76842952Y-109973904D01*
X76652476Y-109926285D01*
X76557238Y-109878666D01*
X76462000Y-109783428D01*
X76414380Y-109640571D01*
X76414380Y-109545333D01*
X76462000Y-109402476D01*
X76509619Y-109354857D01*
X77414380Y-108402476D02*
X77414380Y-108973904D01*
X77414380Y-108688190D02*
X76414380Y-108688190D01*
X76557238Y-108783428D01*
X76652476Y-108878666D01*
X76700095Y-108973904D01*
X76414380Y-107497714D02*
X76414380Y-107973904D01*
X76890571Y-108021523D01*
X76842952Y-107973904D01*
X76795333Y-107878666D01*
X76795333Y-107640571D01*
X76842952Y-107545333D01*
X76890571Y-107497714D01*
X76985809Y-107450095D01*
X77223904Y-107450095D01*
X77319142Y-107497714D01*
X77366761Y-107545333D01*
X77414380Y-107640571D01*
X77414380Y-107878666D01*
X77366761Y-107973904D01*
X77319142Y-108021523D01*
%TO.C,C16*%
X54614842Y-132538742D02*
X54567223Y-132586361D01*
X54424366Y-132633980D01*
X54329128Y-132633980D01*
X54186271Y-132586361D01*
X54091033Y-132491123D01*
X54043414Y-132395885D01*
X53995795Y-132205409D01*
X53995795Y-132062552D01*
X54043414Y-131872076D01*
X54091033Y-131776838D01*
X54186271Y-131681600D01*
X54329128Y-131633980D01*
X54424366Y-131633980D01*
X54567223Y-131681600D01*
X54614842Y-131729219D01*
X55567223Y-132633980D02*
X54995795Y-132633980D01*
X55281509Y-132633980D02*
X55281509Y-131633980D01*
X55186271Y-131776838D01*
X55091033Y-131872076D01*
X54995795Y-131919695D01*
X56424366Y-131633980D02*
X56233890Y-131633980D01*
X56138652Y-131681600D01*
X56091033Y-131729219D01*
X55995795Y-131872076D01*
X55948176Y-132062552D01*
X55948176Y-132443504D01*
X55995795Y-132538742D01*
X56043414Y-132586361D01*
X56138652Y-132633980D01*
X56329128Y-132633980D01*
X56424366Y-132586361D01*
X56471985Y-132538742D01*
X56519604Y-132443504D01*
X56519604Y-132205409D01*
X56471985Y-132110171D01*
X56424366Y-132062552D01*
X56329128Y-132014933D01*
X56138652Y-132014933D01*
X56043414Y-132062552D01*
X55995795Y-132110171D01*
X55948176Y-132205409D01*
%TO.C,C3*%
X56919833Y-121896142D02*
X56872214Y-121943761D01*
X56729357Y-121991380D01*
X56634119Y-121991380D01*
X56491261Y-121943761D01*
X56396023Y-121848523D01*
X56348404Y-121753285D01*
X56300785Y-121562809D01*
X56300785Y-121419952D01*
X56348404Y-121229476D01*
X56396023Y-121134238D01*
X56491261Y-121039000D01*
X56634119Y-120991380D01*
X56729357Y-120991380D01*
X56872214Y-121039000D01*
X56919833Y-121086619D01*
X57253166Y-120991380D02*
X57872214Y-120991380D01*
X57538880Y-121372333D01*
X57681738Y-121372333D01*
X57776976Y-121419952D01*
X57824595Y-121467571D01*
X57872214Y-121562809D01*
X57872214Y-121800904D01*
X57824595Y-121896142D01*
X57776976Y-121943761D01*
X57681738Y-121991380D01*
X57396023Y-121991380D01*
X57300785Y-121943761D01*
X57253166Y-121896142D01*
%TO.C,C10*%
X101846142Y-81205342D02*
X101798523Y-81252961D01*
X101655666Y-81300580D01*
X101560428Y-81300580D01*
X101417571Y-81252961D01*
X101322333Y-81157723D01*
X101274714Y-81062485D01*
X101227095Y-80872009D01*
X101227095Y-80729152D01*
X101274714Y-80538676D01*
X101322333Y-80443438D01*
X101417571Y-80348200D01*
X101560428Y-80300580D01*
X101655666Y-80300580D01*
X101798523Y-80348200D01*
X101846142Y-80395819D01*
X102798523Y-81300580D02*
X102227095Y-81300580D01*
X102512809Y-81300580D02*
X102512809Y-80300580D01*
X102417571Y-80443438D01*
X102322333Y-80538676D01*
X102227095Y-80586295D01*
X103417571Y-80300580D02*
X103512809Y-80300580D01*
X103608047Y-80348200D01*
X103655666Y-80395819D01*
X103703285Y-80491057D01*
X103750904Y-80681533D01*
X103750904Y-80919628D01*
X103703285Y-81110104D01*
X103655666Y-81205342D01*
X103608047Y-81252961D01*
X103512809Y-81300580D01*
X103417571Y-81300580D01*
X103322333Y-81252961D01*
X103274714Y-81205342D01*
X103227095Y-81110104D01*
X103179476Y-80919628D01*
X103179476Y-80681533D01*
X103227095Y-80491057D01*
X103274714Y-80395819D01*
X103322333Y-80348200D01*
X103417571Y-80300580D01*
%TO.C,U4*%
X71310595Y-117752880D02*
X71310595Y-118562404D01*
X71358214Y-118657642D01*
X71405833Y-118705261D01*
X71501071Y-118752880D01*
X71691547Y-118752880D01*
X71786785Y-118705261D01*
X71834404Y-118657642D01*
X71882023Y-118562404D01*
X71882023Y-117752880D01*
X72786785Y-118086214D02*
X72786785Y-118752880D01*
X72548690Y-117705261D02*
X72310595Y-118419547D01*
X72929642Y-118419547D01*
%TO.C,U2*%
X52451095Y-123975880D02*
X52451095Y-124785404D01*
X52498714Y-124880642D01*
X52546333Y-124928261D01*
X52641571Y-124975880D01*
X52832047Y-124975880D01*
X52927285Y-124928261D01*
X52974904Y-124880642D01*
X53022523Y-124785404D01*
X53022523Y-123975880D01*
X53451095Y-124071119D02*
X53498714Y-124023500D01*
X53593952Y-123975880D01*
X53832047Y-123975880D01*
X53927285Y-124023500D01*
X53974904Y-124071119D01*
X54022523Y-124166357D01*
X54022523Y-124261595D01*
X53974904Y-124404452D01*
X53403476Y-124975880D01*
X54022523Y-124975880D01*
%TO.C,J7*%
X91741666Y-108469180D02*
X91741666Y-109183466D01*
X91694047Y-109326323D01*
X91598809Y-109421561D01*
X91455952Y-109469180D01*
X91360714Y-109469180D01*
X92122619Y-108469180D02*
X92789285Y-108469180D01*
X92360714Y-109469180D01*
%TO.C,SW1*%
X79692666Y-103084261D02*
X79835523Y-103131880D01*
X80073619Y-103131880D01*
X80168857Y-103084261D01*
X80216476Y-103036642D01*
X80264095Y-102941404D01*
X80264095Y-102846166D01*
X80216476Y-102750928D01*
X80168857Y-102703309D01*
X80073619Y-102655690D01*
X79883142Y-102608071D01*
X79787904Y-102560452D01*
X79740285Y-102512833D01*
X79692666Y-102417595D01*
X79692666Y-102322357D01*
X79740285Y-102227119D01*
X79787904Y-102179500D01*
X79883142Y-102131880D01*
X80121238Y-102131880D01*
X80264095Y-102179500D01*
X80597428Y-102131880D02*
X80835523Y-103131880D01*
X81026000Y-102417595D01*
X81216476Y-103131880D01*
X81454571Y-102131880D01*
X82359333Y-103131880D02*
X81787904Y-103131880D01*
X82073619Y-103131880D02*
X82073619Y-102131880D01*
X81978380Y-102274738D01*
X81883142Y-102369976D01*
X81787904Y-102417595D01*
%TO.C,J1*%
X102803366Y-122439180D02*
X102803366Y-123153466D01*
X102755747Y-123296323D01*
X102660509Y-123391561D01*
X102517652Y-123439180D01*
X102422414Y-123439180D01*
X103803366Y-123439180D02*
X103231938Y-123439180D01*
X103517652Y-123439180D02*
X103517652Y-122439180D01*
X103422414Y-122582038D01*
X103327176Y-122677276D01*
X103231938Y-122724895D01*
%TO.C,J3*%
X50911166Y-133564380D02*
X50911166Y-134278666D01*
X50863547Y-134421523D01*
X50768309Y-134516761D01*
X50625452Y-134564380D01*
X50530214Y-134564380D01*
X51292119Y-133564380D02*
X51911166Y-133564380D01*
X51577833Y-133945333D01*
X51720690Y-133945333D01*
X51815928Y-133992952D01*
X51863547Y-134040571D01*
X51911166Y-134135809D01*
X51911166Y-134373904D01*
X51863547Y-134469142D01*
X51815928Y-134516761D01*
X51720690Y-134564380D01*
X51434976Y-134564380D01*
X51339738Y-134516761D01*
X51292119Y-134469142D01*
%TO.C,Q1*%
X77882761Y-126785619D02*
X77787523Y-126738000D01*
X77692285Y-126642761D01*
X77549428Y-126499904D01*
X77454190Y-126452285D01*
X77358952Y-126452285D01*
X77406571Y-126690380D02*
X77311333Y-126642761D01*
X77216095Y-126547523D01*
X77168476Y-126357047D01*
X77168476Y-126023714D01*
X77216095Y-125833238D01*
X77311333Y-125738000D01*
X77406571Y-125690380D01*
X77597047Y-125690380D01*
X77692285Y-125738000D01*
X77787523Y-125833238D01*
X77835142Y-126023714D01*
X77835142Y-126357047D01*
X77787523Y-126547523D01*
X77692285Y-126642761D01*
X77597047Y-126690380D01*
X77406571Y-126690380D01*
X78787523Y-126690380D02*
X78216095Y-126690380D01*
X78501809Y-126690380D02*
X78501809Y-125690380D01*
X78406571Y-125833238D01*
X78311333Y-125928476D01*
X78216095Y-125976095D01*
%TO.C,U3*%
X49212595Y-112482380D02*
X49212595Y-113291904D01*
X49260214Y-113387142D01*
X49307833Y-113434761D01*
X49403071Y-113482380D01*
X49593547Y-113482380D01*
X49688785Y-113434761D01*
X49736404Y-113387142D01*
X49784023Y-113291904D01*
X49784023Y-112482380D01*
X50164976Y-112482380D02*
X50784023Y-112482380D01*
X50450690Y-112863333D01*
X50593547Y-112863333D01*
X50688785Y-112910952D01*
X50736404Y-112958571D01*
X50784023Y-113053809D01*
X50784023Y-113291904D01*
X50736404Y-113387142D01*
X50688785Y-113434761D01*
X50593547Y-113482380D01*
X50307833Y-113482380D01*
X50212595Y-113434761D01*
X50164976Y-113387142D01*
%TO.C,U5*%
X101625495Y-77189080D02*
X101625495Y-77998604D01*
X101673114Y-78093842D01*
X101720733Y-78141461D01*
X101815971Y-78189080D01*
X102006447Y-78189080D01*
X102101685Y-78141461D01*
X102149304Y-78093842D01*
X102196923Y-77998604D01*
X102196923Y-77189080D01*
X103149304Y-77189080D02*
X102673114Y-77189080D01*
X102625495Y-77665271D01*
X102673114Y-77617652D01*
X102768352Y-77570033D01*
X103006447Y-77570033D01*
X103101685Y-77617652D01*
X103149304Y-77665271D01*
X103196923Y-77760509D01*
X103196923Y-77998604D01*
X103149304Y-78093842D01*
X103101685Y-78141461D01*
X103006447Y-78189080D01*
X102768352Y-78189080D01*
X102673114Y-78141461D01*
X102625495Y-78093842D01*
%TO.C,Y1*%
X80816509Y-121134190D02*
X80816509Y-121610380D01*
X80483176Y-120610380D02*
X80816509Y-121134190D01*
X81149842Y-120610380D01*
X82006985Y-121610380D02*
X81435557Y-121610380D01*
X81721271Y-121610380D02*
X81721271Y-120610380D01*
X81626033Y-120753238D01*
X81530795Y-120848476D01*
X81435557Y-120896095D01*
%TO.C,U1*%
X92887895Y-92937080D02*
X92887895Y-93746604D01*
X92935514Y-93841842D01*
X92983133Y-93889461D01*
X93078371Y-93937080D01*
X93268847Y-93937080D01*
X93364085Y-93889461D01*
X93411704Y-93841842D01*
X93459323Y-93746604D01*
X93459323Y-92937080D01*
X94459323Y-93937080D02*
X93887895Y-93937080D01*
X94173609Y-93937080D02*
X94173609Y-92937080D01*
X94078371Y-93079938D01*
X93983133Y-93175176D01*
X93887895Y-93222795D01*
%TO.C,J6*%
X51012766Y-73912480D02*
X51012766Y-74626766D01*
X50965147Y-74769623D01*
X50869909Y-74864861D01*
X50727052Y-74912480D01*
X50631814Y-74912480D01*
X51917528Y-73912480D02*
X51727052Y-73912480D01*
X51631814Y-73960100D01*
X51584195Y-74007719D01*
X51488957Y-74150576D01*
X51441338Y-74341052D01*
X51441338Y-74722004D01*
X51488957Y-74817242D01*
X51536576Y-74864861D01*
X51631814Y-74912480D01*
X51822290Y-74912480D01*
X51917528Y-74864861D01*
X51965147Y-74817242D01*
X52012766Y-74722004D01*
X52012766Y-74483909D01*
X51965147Y-74388671D01*
X51917528Y-74341052D01*
X51822290Y-74293433D01*
X51631814Y-74293433D01*
X51536576Y-74341052D01*
X51488957Y-74388671D01*
X51441338Y-74483909D01*
%TO.C,U6*%
X52832095Y-101814380D02*
X52832095Y-102623904D01*
X52879714Y-102719142D01*
X52927333Y-102766761D01*
X53022571Y-102814380D01*
X53213047Y-102814380D01*
X53308285Y-102766761D01*
X53355904Y-102719142D01*
X53403523Y-102623904D01*
X53403523Y-101814380D01*
X54308285Y-101814380D02*
X54117809Y-101814380D01*
X54022571Y-101862000D01*
X53974952Y-101909619D01*
X53879714Y-102052476D01*
X53832095Y-102242952D01*
X53832095Y-102623904D01*
X53879714Y-102719142D01*
X53927333Y-102766761D01*
X54022571Y-102814380D01*
X54213047Y-102814380D01*
X54308285Y-102766761D01*
X54355904Y-102719142D01*
X54403523Y-102623904D01*
X54403523Y-102385809D01*
X54355904Y-102290571D01*
X54308285Y-102242952D01*
X54213047Y-102195333D01*
X54022571Y-102195333D01*
X53927333Y-102242952D01*
X53879714Y-102290571D01*
X53832095Y-102385809D01*
X89555652Y-97605838D02*
X89508033Y-97701076D01*
X89460414Y-97748695D01*
X89365176Y-97796314D01*
X89317557Y-97796314D01*
X89222319Y-97748695D01*
X89174700Y-97701076D01*
X89127080Y-97605838D01*
X89127080Y-97415361D01*
X89174700Y-97320123D01*
X89222319Y-97272504D01*
X89317557Y-97224885D01*
X89365176Y-97224885D01*
X89460414Y-97272504D01*
X89508033Y-97320123D01*
X89555652Y-97415361D01*
X89555652Y-97605838D01*
X89603271Y-97701076D01*
X89650890Y-97748695D01*
X89746128Y-97796314D01*
X89936604Y-97796314D01*
X90031842Y-97748695D01*
X90079461Y-97701076D01*
X90127080Y-97605838D01*
X90127080Y-97415361D01*
X90079461Y-97320123D01*
X90031842Y-97272504D01*
X89936604Y-97224885D01*
X89746128Y-97224885D01*
X89650890Y-97272504D01*
X89603271Y-97320123D01*
X89555652Y-97415361D01*
X89127080Y-91493933D02*
X89127080Y-90827266D01*
X90127080Y-91255838D01*
X89127080Y-84620123D02*
X89127080Y-84810600D01*
X89174700Y-84905838D01*
X89222319Y-84953457D01*
X89365176Y-85048695D01*
X89555652Y-85096314D01*
X89936604Y-85096314D01*
X90031842Y-85048695D01*
X90079461Y-85001076D01*
X90127080Y-84905838D01*
X90127080Y-84715361D01*
X90079461Y-84620123D01*
X90031842Y-84572504D01*
X89936604Y-84524885D01*
X89698509Y-84524885D01*
X89603271Y-84572504D01*
X89555652Y-84620123D01*
X89508033Y-84715361D01*
X89508033Y-84905838D01*
X89555652Y-85001076D01*
X89603271Y-85048695D01*
X89698509Y-85096314D01*
X89127080Y-78222504D02*
X89127080Y-78698695D01*
X89603271Y-78746314D01*
X89555652Y-78698695D01*
X89508033Y-78603457D01*
X89508033Y-78365361D01*
X89555652Y-78270123D01*
X89603271Y-78222504D01*
X89698509Y-78174885D01*
X89936604Y-78174885D01*
X90031842Y-78222504D01*
X90079461Y-78270123D01*
X90127080Y-78365361D01*
X90127080Y-78603457D01*
X90079461Y-78698695D01*
X90031842Y-78746314D01*
X53940414Y-97320123D02*
X54607080Y-97320123D01*
X53559461Y-97558219D02*
X54273747Y-97796314D01*
X54273747Y-97177266D01*
X53607080Y-91493933D02*
X53607080Y-90874885D01*
X53988033Y-91208219D01*
X53988033Y-91065361D01*
X54035652Y-90970123D01*
X54083271Y-90922504D01*
X54178509Y-90874885D01*
X54416604Y-90874885D01*
X54511842Y-90922504D01*
X54559461Y-90970123D01*
X54607080Y-91065361D01*
X54607080Y-91351076D01*
X54559461Y-91446314D01*
X54511842Y-91493933D01*
X53662319Y-85096314D02*
X53614700Y-85048695D01*
X53567080Y-84953457D01*
X53567080Y-84715361D01*
X53614700Y-84620123D01*
X53662319Y-84572504D01*
X53757557Y-84524885D01*
X53852795Y-84524885D01*
X53995652Y-84572504D01*
X54567080Y-85143933D01*
X54567080Y-84524885D01*
X54607080Y-78174885D02*
X54607080Y-78746314D01*
X54607080Y-78460600D02*
X53607080Y-78460600D01*
X53749938Y-78555838D01*
X53845176Y-78651076D01*
X53892795Y-78746314D01*
%TO.C,U7*%
X62166595Y-130325880D02*
X62166595Y-131135404D01*
X62214214Y-131230642D01*
X62261833Y-131278261D01*
X62357071Y-131325880D01*
X62547547Y-131325880D01*
X62642785Y-131278261D01*
X62690404Y-131230642D01*
X62738023Y-131135404D01*
X62738023Y-130325880D01*
X63118976Y-130325880D02*
X63785642Y-130325880D01*
X63357071Y-131325880D01*
%TO.C,J4*%
X48879166Y-97496380D02*
X48879166Y-98210666D01*
X48831547Y-98353523D01*
X48736309Y-98448761D01*
X48593452Y-98496380D01*
X48498214Y-98496380D01*
X49783928Y-97829714D02*
X49783928Y-98496380D01*
X49545833Y-97448761D02*
X49307738Y-98163047D01*
X49926785Y-98163047D01*
%TO.C,J5*%
X40039966Y-86282280D02*
X40039966Y-86996566D01*
X39992347Y-87139423D01*
X39897109Y-87234661D01*
X39754252Y-87282280D01*
X39659014Y-87282280D01*
X40992347Y-86282280D02*
X40516157Y-86282280D01*
X40468538Y-86758471D01*
X40516157Y-86710852D01*
X40611395Y-86663233D01*
X40849490Y-86663233D01*
X40944728Y-86710852D01*
X40992347Y-86758471D01*
X41039966Y-86853709D01*
X41039966Y-87091804D01*
X40992347Y-87187042D01*
X40944728Y-87234661D01*
X40849490Y-87282280D01*
X40611395Y-87282280D01*
X40516157Y-87234661D01*
X40468538Y-87187042D01*
%TO.C,D1*%
X92035404Y-106738680D02*
X92035404Y-105738680D01*
X92273500Y-105738680D01*
X92416357Y-105786300D01*
X92511595Y-105881538D01*
X92559214Y-105976776D01*
X92606833Y-106167252D01*
X92606833Y-106310109D01*
X92559214Y-106500585D01*
X92511595Y-106595823D01*
X92416357Y-106691061D01*
X92273500Y-106738680D01*
X92035404Y-106738680D01*
X93559214Y-106738680D02*
X92987785Y-106738680D01*
X93273500Y-106738680D02*
X93273500Y-105738680D01*
X93178261Y-105881538D01*
X93083023Y-105976776D01*
X92987785Y-106024395D01*
%TO.C,D2*%
X67994304Y-128061980D02*
X67994304Y-127061980D01*
X68232400Y-127061980D01*
X68375257Y-127109600D01*
X68470495Y-127204838D01*
X68518114Y-127300076D01*
X68565733Y-127490552D01*
X68565733Y-127633409D01*
X68518114Y-127823885D01*
X68470495Y-127919123D01*
X68375257Y-128014361D01*
X68232400Y-128061980D01*
X67994304Y-128061980D01*
X68946685Y-127157219D02*
X68994304Y-127109600D01*
X69089542Y-127061980D01*
X69327638Y-127061980D01*
X69422876Y-127109600D01*
X69470495Y-127157219D01*
X69518114Y-127252457D01*
X69518114Y-127347695D01*
X69470495Y-127490552D01*
X68899066Y-128061980D01*
X69518114Y-128061980D01*
%TO.C,FB1*%
X73423566Y-104881371D02*
X73090233Y-104881371D01*
X73090233Y-105405180D02*
X73090233Y-104405180D01*
X73566423Y-104405180D01*
X74280709Y-104881371D02*
X74423566Y-104928990D01*
X74471185Y-104976609D01*
X74518804Y-105071847D01*
X74518804Y-105214704D01*
X74471185Y-105309942D01*
X74423566Y-105357561D01*
X74328328Y-105405180D01*
X73947376Y-105405180D01*
X73947376Y-104405180D01*
X74280709Y-104405180D01*
X74375947Y-104452800D01*
X74423566Y-104500419D01*
X74471185Y-104595657D01*
X74471185Y-104690895D01*
X74423566Y-104786133D01*
X74375947Y-104833752D01*
X74280709Y-104881371D01*
X73947376Y-104881371D01*
X75471185Y-105405180D02*
X74899757Y-105405180D01*
X75185471Y-105405180D02*
X75185471Y-104405180D01*
X75090233Y-104548038D01*
X74994995Y-104643276D01*
X74899757Y-104690895D01*
%TO.C,J2*%
X48872166Y-106924380D02*
X48872166Y-107638666D01*
X48824547Y-107781523D01*
X48729309Y-107876761D01*
X48586452Y-107924380D01*
X48491214Y-107924380D01*
X49300738Y-107019619D02*
X49348357Y-106972000D01*
X49443595Y-106924380D01*
X49681690Y-106924380D01*
X49776928Y-106972000D01*
X49824547Y-107019619D01*
X49872166Y-107114857D01*
X49872166Y-107210095D01*
X49824547Y-107352952D01*
X49253119Y-107924380D01*
X49872166Y-107924380D01*
%TO.C,R1*%
X74699833Y-130245380D02*
X74366500Y-129769190D01*
X74128404Y-130245380D02*
X74128404Y-129245380D01*
X74509357Y-129245380D01*
X74604595Y-129293000D01*
X74652214Y-129340619D01*
X74699833Y-129435857D01*
X74699833Y-129578714D01*
X74652214Y-129673952D01*
X74604595Y-129721571D01*
X74509357Y-129769190D01*
X74128404Y-129769190D01*
X75652214Y-130245380D02*
X75080785Y-130245380D01*
X75366500Y-130245380D02*
X75366500Y-129245380D01*
X75271261Y-129388238D01*
X75176023Y-129483476D01*
X75080785Y-129531095D01*
%TO.C,R2*%
X90701833Y-134055380D02*
X90368500Y-133579190D01*
X90130404Y-134055380D02*
X90130404Y-133055380D01*
X90511357Y-133055380D01*
X90606595Y-133103000D01*
X90654214Y-133150619D01*
X90701833Y-133245857D01*
X90701833Y-133388714D01*
X90654214Y-133483952D01*
X90606595Y-133531571D01*
X90511357Y-133579190D01*
X90130404Y-133579190D01*
X91082785Y-133150619D02*
X91130404Y-133103000D01*
X91225642Y-133055380D01*
X91463738Y-133055380D01*
X91558976Y-133103000D01*
X91606595Y-133150619D01*
X91654214Y-133245857D01*
X91654214Y-133341095D01*
X91606595Y-133483952D01*
X91035166Y-134055380D01*
X91654214Y-134055380D01*
%TO.C,R3*%
X49109333Y-101023680D02*
X48776000Y-100547490D01*
X48537904Y-101023680D02*
X48537904Y-100023680D01*
X48918857Y-100023680D01*
X49014095Y-100071300D01*
X49061714Y-100118919D01*
X49109333Y-100214157D01*
X49109333Y-100357014D01*
X49061714Y-100452252D01*
X49014095Y-100499871D01*
X48918857Y-100547490D01*
X48537904Y-100547490D01*
X49442666Y-100023680D02*
X50061714Y-100023680D01*
X49728380Y-100404633D01*
X49871238Y-100404633D01*
X49966476Y-100452252D01*
X50014095Y-100499871D01*
X50061714Y-100595109D01*
X50061714Y-100833204D01*
X50014095Y-100928442D01*
X49966476Y-100976061D01*
X49871238Y-101023680D01*
X49585523Y-101023680D01*
X49490285Y-100976061D01*
X49442666Y-100928442D01*
%TO.C,R4*%
X99210833Y-103449380D02*
X98877500Y-102973190D01*
X98639404Y-103449380D02*
X98639404Y-102449380D01*
X99020357Y-102449380D01*
X99115595Y-102497000D01*
X99163214Y-102544619D01*
X99210833Y-102639857D01*
X99210833Y-102782714D01*
X99163214Y-102877952D01*
X99115595Y-102925571D01*
X99020357Y-102973190D01*
X98639404Y-102973190D01*
X100067976Y-102782714D02*
X100067976Y-103449380D01*
X99829880Y-102401761D02*
X99591785Y-103116047D01*
X100210833Y-103116047D01*
%TO.C,R5*%
X92352833Y-101226880D02*
X92019500Y-100750690D01*
X91781404Y-101226880D02*
X91781404Y-100226880D01*
X92162357Y-100226880D01*
X92257595Y-100274500D01*
X92305214Y-100322119D01*
X92352833Y-100417357D01*
X92352833Y-100560214D01*
X92305214Y-100655452D01*
X92257595Y-100703071D01*
X92162357Y-100750690D01*
X91781404Y-100750690D01*
X93257595Y-100226880D02*
X92781404Y-100226880D01*
X92733785Y-100703071D01*
X92781404Y-100655452D01*
X92876642Y-100607833D01*
X93114738Y-100607833D01*
X93209976Y-100655452D01*
X93257595Y-100703071D01*
X93305214Y-100798309D01*
X93305214Y-101036404D01*
X93257595Y-101131642D01*
X93209976Y-101179261D01*
X93114738Y-101226880D01*
X92876642Y-101226880D01*
X92781404Y-101179261D01*
X92733785Y-101131642D01*
%TO.C,R6*%
X62799933Y-125306080D02*
X62466600Y-124829890D01*
X62228504Y-125306080D02*
X62228504Y-124306080D01*
X62609457Y-124306080D01*
X62704695Y-124353700D01*
X62752314Y-124401319D01*
X62799933Y-124496557D01*
X62799933Y-124639414D01*
X62752314Y-124734652D01*
X62704695Y-124782271D01*
X62609457Y-124829890D01*
X62228504Y-124829890D01*
X63657076Y-124306080D02*
X63466600Y-124306080D01*
X63371361Y-124353700D01*
X63323742Y-124401319D01*
X63228504Y-124544176D01*
X63180885Y-124734652D01*
X63180885Y-125115604D01*
X63228504Y-125210842D01*
X63276123Y-125258461D01*
X63371361Y-125306080D01*
X63561838Y-125306080D01*
X63657076Y-125258461D01*
X63704695Y-125210842D01*
X63752314Y-125115604D01*
X63752314Y-124877509D01*
X63704695Y-124782271D01*
X63657076Y-124734652D01*
X63561838Y-124687033D01*
X63371361Y-124687033D01*
X63276123Y-124734652D01*
X63228504Y-124782271D01*
X63180885Y-124877509D01*
%TO.C,R7*%
X88784133Y-103436680D02*
X88450800Y-102960490D01*
X88212704Y-103436680D02*
X88212704Y-102436680D01*
X88593657Y-102436680D01*
X88688895Y-102484300D01*
X88736514Y-102531919D01*
X88784133Y-102627157D01*
X88784133Y-102770014D01*
X88736514Y-102865252D01*
X88688895Y-102912871D01*
X88593657Y-102960490D01*
X88212704Y-102960490D01*
X89117466Y-102436680D02*
X89784133Y-102436680D01*
X89355561Y-103436680D01*
%TO.C,R8*%
X65644733Y-126296680D02*
X65311400Y-125820490D01*
X65073304Y-126296680D02*
X65073304Y-125296680D01*
X65454257Y-125296680D01*
X65549495Y-125344300D01*
X65597114Y-125391919D01*
X65644733Y-125487157D01*
X65644733Y-125630014D01*
X65597114Y-125725252D01*
X65549495Y-125772871D01*
X65454257Y-125820490D01*
X65073304Y-125820490D01*
X66216161Y-125725252D02*
X66120923Y-125677633D01*
X66073304Y-125630014D01*
X66025685Y-125534776D01*
X66025685Y-125487157D01*
X66073304Y-125391919D01*
X66120923Y-125344300D01*
X66216161Y-125296680D01*
X66406638Y-125296680D01*
X66501876Y-125344300D01*
X66549495Y-125391919D01*
X66597114Y-125487157D01*
X66597114Y-125534776D01*
X66549495Y-125630014D01*
X66501876Y-125677633D01*
X66406638Y-125725252D01*
X66216161Y-125725252D01*
X66120923Y-125772871D01*
X66073304Y-125820490D01*
X66025685Y-125915728D01*
X66025685Y-126106204D01*
X66073304Y-126201442D01*
X66120923Y-126249061D01*
X66216161Y-126296680D01*
X66406638Y-126296680D01*
X66501876Y-126249061D01*
X66549495Y-126201442D01*
X66597114Y-126106204D01*
X66597114Y-125915728D01*
X66549495Y-125820490D01*
X66501876Y-125772871D01*
X66406638Y-125725252D01*
%TO.C,R9*%
X71588333Y-131376680D02*
X71255000Y-130900490D01*
X71016904Y-131376680D02*
X71016904Y-130376680D01*
X71397857Y-130376680D01*
X71493095Y-130424300D01*
X71540714Y-130471919D01*
X71588333Y-130567157D01*
X71588333Y-130710014D01*
X71540714Y-130805252D01*
X71493095Y-130852871D01*
X71397857Y-130900490D01*
X71016904Y-130900490D01*
X72064523Y-131376680D02*
X72255000Y-131376680D01*
X72350238Y-131329061D01*
X72397857Y-131281442D01*
X72493095Y-131138585D01*
X72540714Y-130948109D01*
X72540714Y-130567157D01*
X72493095Y-130471919D01*
X72445476Y-130424300D01*
X72350238Y-130376680D01*
X72159761Y-130376680D01*
X72064523Y-130424300D01*
X72016904Y-130471919D01*
X71969285Y-130567157D01*
X71969285Y-130805252D01*
X72016904Y-130900490D01*
X72064523Y-130948109D01*
X72159761Y-130995728D01*
X72350238Y-130995728D01*
X72445476Y-130948109D01*
X72493095Y-130900490D01*
X72540714Y-130805252D01*
%TO.C,R10*%
X51569880Y-123007357D02*
X51093690Y-123340690D01*
X51569880Y-123578785D02*
X50569880Y-123578785D01*
X50569880Y-123197833D01*
X50617500Y-123102595D01*
X50665119Y-123054976D01*
X50760357Y-123007357D01*
X50903214Y-123007357D01*
X50998452Y-123054976D01*
X51046071Y-123102595D01*
X51093690Y-123197833D01*
X51093690Y-123578785D01*
X51569880Y-122054976D02*
X51569880Y-122626404D01*
X51569880Y-122340690D02*
X50569880Y-122340690D01*
X50712738Y-122435928D01*
X50807976Y-122531166D01*
X50855595Y-122626404D01*
X50569880Y-121435928D02*
X50569880Y-121340690D01*
X50617500Y-121245452D01*
X50665119Y-121197833D01*
X50760357Y-121150214D01*
X50950833Y-121102595D01*
X51188928Y-121102595D01*
X51379404Y-121150214D01*
X51474642Y-121197833D01*
X51522261Y-121245452D01*
X51569880Y-121340690D01*
X51569880Y-121435928D01*
X51522261Y-121531166D01*
X51474642Y-121578785D01*
X51379404Y-121626404D01*
X51188928Y-121674023D01*
X50950833Y-121674023D01*
X50760357Y-121626404D01*
X50665119Y-121578785D01*
X50617500Y-121531166D01*
X50569880Y-121435928D01*
%TD*%
M02*
