M48
; DRILL file {KiCad 5.1.12-84ad8e8a86~92~ubuntu20.04.1} date Sat 25 Dec 2021 01:33:57 AM CST
; FORMAT={-:-/ absolute / inch / decimal}
; #@! TF.CreationDate,2021-12-25T01:33:57-06:00
; #@! TF.GenerationSoftware,Kicad,Pcbnew,5.1.12-84ad8e8a86~92~ubuntu20.04.1
; #@! TF.FileFunction,Plated,1,2,PTH
FMAT,2
INCH
T1C0.0157
T2C0.0300
T3C0.0354
T4C0.0374
T5C0.0394
T6C0.0512
T7C0.0906
%
G90
G05
T1
X1.9435Y-4.149
X1.945Y-4.7
X2.0375Y-4.4575
X2.1475Y-4.5875
X2.2025Y-4.5875
X2.2975Y-5.1325
X2.405Y-4.3525
X2.445Y-4.355
X2.4829Y-4.3658
X2.51Y-4.395
X2.535Y-4.4275
X2.5355Y-4.993
X2.5375Y-4.11
X2.5375Y-4.195
X2.5597Y-4.4597
X2.5875Y-4.4875
X2.6225Y-4.52
X2.7425Y-4.8875
X2.7725Y-4.11
X2.7725Y-4.1925
X2.8255Y-4.964
X2.8275Y-4.8875
X2.8775Y-4.405
X2.995Y-4.8625
X3.0075Y-4.4525
X3.017Y-5.224
X3.0175Y-4.355
X3.145Y-4.555
X3.2875Y-4.175
X3.2875Y-4.375
X3.415Y-4.3425
X3.42Y-4.39
X3.426Y-4.118
X3.4413Y-4.5013
X3.46Y-4.4539
X3.4725Y-4.575
X3.475Y-4.77
X3.495Y-4.515
X3.5325Y-4.6175
X3.6655Y-4.4515
X3.6685Y-4.7465
X3.6695Y-4.3741
X3.67Y-4.6525
X3.67Y-4.7075
X3.6705Y-4.7785
X3.6725Y-4.54
X3.6725Y-4.595
X3.7065Y-3.967
X3.8485Y-3.772
X3.88Y-2.96
X4.046Y-4.3375
T2
X2.5175Y-5.23
X2.6175Y-5.23
X2.715Y-5.23
T3
X2.2305Y-3.089
X2.2305Y-3.839
X3.4305Y-3.089
X3.4305Y-3.339
X3.4305Y-3.589
X3.4305Y-3.839
T4
X1.7518Y-4.4836
X1.7518Y-4.582
X1.8305Y-4.4836
X1.8305Y-4.582
T5
X1.6325Y-3.5475
X1.6325Y-3.6475
X1.6325Y-3.905
X1.6325Y-4.005
X1.7325Y-3.905
X1.7325Y-4.005
X1.8325Y-3.905
X1.8325Y-4.005
X3.728Y-3.352
X4.0233Y-3.352
T6
X1.7535Y-3.0205
X1.7535Y-3.2174
X1.755Y-4.9915
X1.755Y-5.1884
X3.895Y-4.9906
X3.895Y-5.1875
T7
X1.6392Y-4.2966
X1.6392Y-4.769
T0
M30
