%TF.GenerationSoftware,KiCad,Pcbnew,5.1.12-84ad8e8a86~92~ubuntu20.04.1*%
%TF.CreationDate,2021-12-25T01:33:58-06:00*%
%TF.ProjectId,Solder_Reflow_Oven_2.0,536f6c64-6572-45f5-9265-666c6f775f4f,rev?*%
%TF.SameCoordinates,Original*%
%TF.FileFunction,Legend,Top*%
%TF.FilePolarity,Positive*%
%FSLAX46Y46*%
G04 Gerber Fmt 4.6, Leading zero omitted, Abs format (unit mm)*
G04 Created by KiCad (PCBNEW 5.1.12-84ad8e8a86~92~ubuntu20.04.1) date 2021-12-25 01:33:58*
%MOMM*%
%LPD*%
G01*
G04 APERTURE LIST*
%ADD10C,0.150000*%
%ADD11C,0.120000*%
G04 APERTURE END LIST*
D10*
X89928866Y-106687880D02*
X89928866Y-105687880D01*
X90309819Y-105687880D01*
X90405057Y-105735500D01*
X90452676Y-105783119D01*
X90500295Y-105878357D01*
X90500295Y-106021214D01*
X90452676Y-106116452D01*
X90405057Y-106164071D01*
X90309819Y-106211690D01*
X89928866Y-106211690D01*
X90833628Y-105687880D02*
X91071723Y-106687880D01*
X91262200Y-105973595D01*
X91452676Y-106687880D01*
X91690771Y-105687880D01*
X92643152Y-106687880D02*
X92309819Y-106211690D01*
X92071723Y-106687880D02*
X92071723Y-105687880D01*
X92452676Y-105687880D01*
X92547914Y-105735500D01*
X92595533Y-105783119D01*
X92643152Y-105878357D01*
X92643152Y-106021214D01*
X92595533Y-106116452D01*
X92547914Y-106164071D01*
X92452676Y-106211690D01*
X92071723Y-106211690D01*
X71532928Y-132897571D02*
X71199595Y-132897571D01*
X71199595Y-133421380D02*
X71199595Y-132421380D01*
X71675785Y-132421380D01*
X72199595Y-133421380D02*
X72104357Y-133373761D01*
X72056738Y-133278523D01*
X72056738Y-132421380D01*
X73009119Y-133421380D02*
X73009119Y-132897571D01*
X72961500Y-132802333D01*
X72866261Y-132754714D01*
X72675785Y-132754714D01*
X72580547Y-132802333D01*
X73009119Y-133373761D02*
X72913880Y-133421380D01*
X72675785Y-133421380D01*
X72580547Y-133373761D01*
X72532928Y-133278523D01*
X72532928Y-133183285D01*
X72580547Y-133088047D01*
X72675785Y-133040428D01*
X72913880Y-133040428D01*
X73009119Y-132992809D01*
X73437690Y-133373761D02*
X73532928Y-133421380D01*
X73723404Y-133421380D01*
X73818642Y-133373761D01*
X73866261Y-133278523D01*
X73866261Y-133230904D01*
X73818642Y-133135666D01*
X73723404Y-133088047D01*
X73580547Y-133088047D01*
X73485309Y-133040428D01*
X73437690Y-132945190D01*
X73437690Y-132897571D01*
X73485309Y-132802333D01*
X73580547Y-132754714D01*
X73723404Y-132754714D01*
X73818642Y-132802333D01*
X74294833Y-133421380D02*
X74294833Y-132421380D01*
X74723404Y-133421380D02*
X74723404Y-132897571D01*
X74675785Y-132802333D01*
X74580547Y-132754714D01*
X74437690Y-132754714D01*
X74342452Y-132802333D01*
X74294833Y-132849952D01*
X59761571Y-133183261D02*
X59904428Y-133230880D01*
X60142523Y-133230880D01*
X60237761Y-133183261D01*
X60285380Y-133135642D01*
X60333000Y-133040404D01*
X60333000Y-132945166D01*
X60285380Y-132849928D01*
X60237761Y-132802309D01*
X60142523Y-132754690D01*
X59952047Y-132707071D01*
X59856809Y-132659452D01*
X59809190Y-132611833D01*
X59761571Y-132516595D01*
X59761571Y-132421357D01*
X59809190Y-132326119D01*
X59856809Y-132278500D01*
X59952047Y-132230880D01*
X60190142Y-132230880D01*
X60333000Y-132278500D01*
X60666333Y-132564214D02*
X60904428Y-133230880D01*
X61142523Y-132564214D02*
X60904428Y-133230880D01*
X60809190Y-133468976D01*
X60761571Y-133516595D01*
X60666333Y-133564214D01*
X61475857Y-133183261D02*
X61571095Y-133230880D01*
X61761571Y-133230880D01*
X61856809Y-133183261D01*
X61904428Y-133088023D01*
X61904428Y-133040404D01*
X61856809Y-132945166D01*
X61761571Y-132897547D01*
X61618714Y-132897547D01*
X61523476Y-132849928D01*
X61475857Y-132754690D01*
X61475857Y-132707071D01*
X61523476Y-132611833D01*
X61618714Y-132564214D01*
X61761571Y-132564214D01*
X61856809Y-132611833D01*
X50657238Y-126071380D02*
X51228666Y-126071380D01*
X50942952Y-127071380D02*
X50942952Y-126071380D01*
X51562000Y-126690428D02*
X52323904Y-126690428D01*
X50720738Y-131341880D02*
X51292166Y-131341880D01*
X51006452Y-132341880D02*
X51006452Y-131341880D01*
X51625500Y-131960928D02*
X52387404Y-131960928D01*
X52006452Y-132341880D02*
X52006452Y-131579976D01*
X44775738Y-86050880D02*
X44204309Y-86050880D01*
X44490023Y-86050880D02*
X44490023Y-85050880D01*
X44394785Y-85193738D01*
X44299547Y-85288976D01*
X44204309Y-85336595D01*
X45728119Y-86050880D02*
X45156690Y-86050880D01*
X45442404Y-86050880D02*
X45442404Y-85050880D01*
X45347166Y-85193738D01*
X45251928Y-85288976D01*
X45156690Y-85336595D01*
X46632880Y-85050880D02*
X46156690Y-85050880D01*
X46109071Y-85527071D01*
X46156690Y-85479452D01*
X46251928Y-85431833D01*
X46490023Y-85431833D01*
X46585261Y-85479452D01*
X46632880Y-85527071D01*
X46680500Y-85622309D01*
X46680500Y-85860404D01*
X46632880Y-85955642D01*
X46585261Y-86003261D01*
X46490023Y-86050880D01*
X46251928Y-86050880D01*
X46156690Y-86003261D01*
X46109071Y-85955642D01*
X46966214Y-85050880D02*
X47299547Y-86050880D01*
X47632880Y-85050880D01*
X47918595Y-85765166D02*
X48394785Y-85765166D01*
X47823357Y-86050880D02*
X48156690Y-85050880D01*
X48490023Y-86050880D01*
X49394785Y-85955642D02*
X49347166Y-86003261D01*
X49204309Y-86050880D01*
X49109071Y-86050880D01*
X48966214Y-86003261D01*
X48870976Y-85908023D01*
X48823357Y-85812785D01*
X48775738Y-85622309D01*
X48775738Y-85479452D01*
X48823357Y-85288976D01*
X48870976Y-85193738D01*
X48966214Y-85098500D01*
X49109071Y-85050880D01*
X49204309Y-85050880D01*
X49347166Y-85098500D01*
X49394785Y-85146119D01*
X43466214Y-86700880D02*
X43275738Y-86700880D01*
X43180500Y-86748500D01*
X43132880Y-86796119D01*
X43037642Y-86938976D01*
X42990023Y-87129452D01*
X42990023Y-87510404D01*
X43037642Y-87605642D01*
X43085261Y-87653261D01*
X43180500Y-87700880D01*
X43370976Y-87700880D01*
X43466214Y-87653261D01*
X43513833Y-87605642D01*
X43561452Y-87510404D01*
X43561452Y-87272309D01*
X43513833Y-87177071D01*
X43466214Y-87129452D01*
X43370976Y-87081833D01*
X43180500Y-87081833D01*
X43085261Y-87129452D01*
X43037642Y-87177071D01*
X42990023Y-87272309D01*
X44180500Y-86700880D02*
X44275738Y-86700880D01*
X44370976Y-86748500D01*
X44418595Y-86796119D01*
X44466214Y-86891357D01*
X44513833Y-87081833D01*
X44513833Y-87319928D01*
X44466214Y-87510404D01*
X44418595Y-87605642D01*
X44370976Y-87653261D01*
X44275738Y-87700880D01*
X44180500Y-87700880D01*
X44085261Y-87653261D01*
X44037642Y-87605642D01*
X43990023Y-87510404D01*
X43942404Y-87319928D01*
X43942404Y-87081833D01*
X43990023Y-86891357D01*
X44037642Y-86796119D01*
X44085261Y-86748500D01*
X44180500Y-86700880D01*
X44942404Y-87700880D02*
X44942404Y-86700880D01*
X44942404Y-87177071D02*
X45513833Y-87177071D01*
X45513833Y-87700880D02*
X45513833Y-86700880D01*
X45894785Y-87034214D02*
X46418595Y-87034214D01*
X45894785Y-87700880D01*
X46418595Y-87700880D01*
X47561452Y-87700880D02*
X47561452Y-86700880D01*
X47894785Y-87415166D01*
X48228119Y-86700880D01*
X48228119Y-87700880D01*
X49132880Y-87700880D02*
X49132880Y-87177071D01*
X49085261Y-87081833D01*
X48990023Y-87034214D01*
X48799547Y-87034214D01*
X48704309Y-87081833D01*
X49132880Y-87653261D02*
X49037642Y-87700880D01*
X48799547Y-87700880D01*
X48704309Y-87653261D01*
X48656690Y-87558023D01*
X48656690Y-87462785D01*
X48704309Y-87367547D01*
X48799547Y-87319928D01*
X49037642Y-87319928D01*
X49132880Y-87272309D01*
X49609071Y-87700880D02*
X49609071Y-87034214D01*
X49609071Y-86700880D02*
X49561452Y-86748500D01*
X49609071Y-86796119D01*
X49656690Y-86748500D01*
X49609071Y-86700880D01*
X49609071Y-86796119D01*
X50085261Y-87034214D02*
X50085261Y-87700880D01*
X50085261Y-87129452D02*
X50132880Y-87081833D01*
X50228119Y-87034214D01*
X50370976Y-87034214D01*
X50466214Y-87081833D01*
X50513833Y-87177071D01*
X50513833Y-87700880D01*
X50942404Y-87653261D02*
X51037642Y-87700880D01*
X51228119Y-87700880D01*
X51323357Y-87653261D01*
X51370976Y-87558023D01*
X51370976Y-87510404D01*
X51323357Y-87415166D01*
X51228119Y-87367547D01*
X51085261Y-87367547D01*
X50990023Y-87319928D01*
X50942404Y-87224690D01*
X50942404Y-87177071D01*
X50990023Y-87081833D01*
X51085261Y-87034214D01*
X51228119Y-87034214D01*
X51323357Y-87081833D01*
X43735809Y-92987880D02*
X44354857Y-92987880D01*
X44021523Y-93368833D01*
X44164380Y-93368833D01*
X44259619Y-93416452D01*
X44307238Y-93464071D01*
X44354857Y-93559309D01*
X44354857Y-93797404D01*
X44307238Y-93892642D01*
X44259619Y-93940261D01*
X44164380Y-93987880D01*
X43878666Y-93987880D01*
X43783428Y-93940261D01*
X43735809Y-93892642D01*
X44783428Y-93892642D02*
X44831047Y-93940261D01*
X44783428Y-93987880D01*
X44735809Y-93940261D01*
X44783428Y-93892642D01*
X44783428Y-93987880D01*
X45164380Y-92987880D02*
X45783428Y-92987880D01*
X45450095Y-93368833D01*
X45592952Y-93368833D01*
X45688190Y-93416452D01*
X45735809Y-93464071D01*
X45783428Y-93559309D01*
X45783428Y-93797404D01*
X45735809Y-93892642D01*
X45688190Y-93940261D01*
X45592952Y-93987880D01*
X45307238Y-93987880D01*
X45212000Y-93940261D01*
X45164380Y-93892642D01*
X46069142Y-92987880D02*
X46402476Y-93987880D01*
X46735809Y-92987880D01*
X44323095Y-90241500D02*
X44227857Y-90193880D01*
X44085000Y-90193880D01*
X43942142Y-90241500D01*
X43846904Y-90336738D01*
X43799285Y-90431976D01*
X43751666Y-90622452D01*
X43751666Y-90765309D01*
X43799285Y-90955785D01*
X43846904Y-91051023D01*
X43942142Y-91146261D01*
X44085000Y-91193880D01*
X44180238Y-91193880D01*
X44323095Y-91146261D01*
X44370714Y-91098642D01*
X44370714Y-90765309D01*
X44180238Y-90765309D01*
X44799285Y-91193880D02*
X44799285Y-90193880D01*
X45370714Y-91193880D01*
X45370714Y-90193880D01*
X45846904Y-91193880D02*
X45846904Y-90193880D01*
X46085000Y-90193880D01*
X46227857Y-90241500D01*
X46323095Y-90336738D01*
X46370714Y-90431976D01*
X46418333Y-90622452D01*
X46418333Y-90765309D01*
X46370714Y-90955785D01*
X46323095Y-91051023D01*
X46227857Y-91146261D01*
X46085000Y-91193880D01*
X45846904Y-91193880D01*
X40981380Y-97170690D02*
X40981380Y-96551642D01*
X41362333Y-96884976D01*
X41362333Y-96742119D01*
X41409952Y-96646880D01*
X41457571Y-96599261D01*
X41552809Y-96551642D01*
X41790904Y-96551642D01*
X41886142Y-96599261D01*
X41933761Y-96646880D01*
X41981380Y-96742119D01*
X41981380Y-97027833D01*
X41933761Y-97123071D01*
X41886142Y-97170690D01*
X41886142Y-96123071D02*
X41933761Y-96075452D01*
X41981380Y-96123071D01*
X41933761Y-96170690D01*
X41886142Y-96123071D01*
X41981380Y-96123071D01*
X40981380Y-95742119D02*
X40981380Y-95123071D01*
X41362333Y-95456404D01*
X41362333Y-95313547D01*
X41409952Y-95218309D01*
X41457571Y-95170690D01*
X41552809Y-95123071D01*
X41790904Y-95123071D01*
X41886142Y-95170690D01*
X41933761Y-95218309D01*
X41981380Y-95313547D01*
X41981380Y-95599261D01*
X41933761Y-95694500D01*
X41886142Y-95742119D01*
X40981380Y-94837357D02*
X41981380Y-94504023D01*
X40981380Y-94170690D01*
X43344500Y-97281880D02*
X43344500Y-96329500D01*
X44664261Y-97091404D02*
X44711880Y-96948547D01*
X44711880Y-96710452D01*
X44664261Y-96615214D01*
X44616642Y-96567595D01*
X44521404Y-96519976D01*
X44426166Y-96519976D01*
X44330928Y-96567595D01*
X44283309Y-96615214D01*
X44235690Y-96710452D01*
X44188071Y-96900928D01*
X44140452Y-96996166D01*
X44092833Y-97043785D01*
X43997595Y-97091404D01*
X43902357Y-97091404D01*
X43807119Y-97043785D01*
X43759500Y-96996166D01*
X43711880Y-96900928D01*
X43711880Y-96662833D01*
X43759500Y-96519976D01*
X43344500Y-96329500D02*
X43344500Y-95377119D01*
X44664261Y-96139023D02*
X44711880Y-95996166D01*
X44711880Y-95758071D01*
X44664261Y-95662833D01*
X44616642Y-95615214D01*
X44521404Y-95567595D01*
X44426166Y-95567595D01*
X44330928Y-95615214D01*
X44283309Y-95662833D01*
X44235690Y-95758071D01*
X44188071Y-95948547D01*
X44140452Y-96043785D01*
X44092833Y-96091404D01*
X43997595Y-96139023D01*
X43902357Y-96139023D01*
X43807119Y-96091404D01*
X43759500Y-96043785D01*
X43711880Y-95948547D01*
X43711880Y-95710452D01*
X43759500Y-95567595D01*
X46109000Y-96710404D02*
X46061380Y-96805642D01*
X46061380Y-96948500D01*
X46109000Y-97091357D01*
X46204238Y-97186595D01*
X46299476Y-97234214D01*
X46489952Y-97281833D01*
X46632809Y-97281833D01*
X46823285Y-97234214D01*
X46918523Y-97186595D01*
X47013761Y-97091357D01*
X47061380Y-96948500D01*
X47061380Y-96853261D01*
X47013761Y-96710404D01*
X46966142Y-96662785D01*
X46632809Y-96662785D01*
X46632809Y-96853261D01*
X47061380Y-96234214D02*
X46061380Y-96234214D01*
X47061380Y-95662785D01*
X46061380Y-95662785D01*
X47061380Y-95186595D02*
X46061380Y-95186595D01*
X46061380Y-94948500D01*
X46109000Y-94805642D01*
X46204238Y-94710404D01*
X46299476Y-94662785D01*
X46489952Y-94615166D01*
X46632809Y-94615166D01*
X46823285Y-94662785D01*
X46918523Y-94710404D01*
X47013761Y-94805642D01*
X47061380Y-94948500D01*
X47061380Y-95186595D01*
X46950261Y-106695714D02*
X46997880Y-106552857D01*
X46997880Y-106314761D01*
X46950261Y-106219523D01*
X46902642Y-106171904D01*
X46807404Y-106124285D01*
X46712166Y-106124285D01*
X46616928Y-106171904D01*
X46569309Y-106219523D01*
X46521690Y-106314761D01*
X46474071Y-106505238D01*
X46426452Y-106600476D01*
X46378833Y-106648095D01*
X46283595Y-106695714D01*
X46188357Y-106695714D01*
X46093119Y-106648095D01*
X46045500Y-106600476D01*
X45997880Y-106505238D01*
X45997880Y-106267142D01*
X46045500Y-106124285D01*
X46902642Y-105124285D02*
X46950261Y-105171904D01*
X46997880Y-105314761D01*
X46997880Y-105410000D01*
X46950261Y-105552857D01*
X46855023Y-105648095D01*
X46759785Y-105695714D01*
X46569309Y-105743333D01*
X46426452Y-105743333D01*
X46235976Y-105695714D01*
X46140738Y-105648095D01*
X46045500Y-105552857D01*
X45997880Y-105410000D01*
X45997880Y-105314761D01*
X46045500Y-105171904D01*
X46093119Y-105124285D01*
X46997880Y-104695714D02*
X45997880Y-104695714D01*
X46997880Y-104124285D02*
X46426452Y-104552857D01*
X45997880Y-104124285D02*
X46569309Y-104695714D01*
X44394380Y-106663928D02*
X43394380Y-106663928D01*
X44108666Y-106330595D01*
X43394380Y-105997261D01*
X44394380Y-105997261D01*
X44394380Y-105521071D02*
X43394380Y-105521071D01*
X44346761Y-105092500D02*
X44394380Y-104949642D01*
X44394380Y-104711547D01*
X44346761Y-104616309D01*
X44299142Y-104568690D01*
X44203904Y-104521071D01*
X44108666Y-104521071D01*
X44013428Y-104568690D01*
X43965809Y-104616309D01*
X43918190Y-104711547D01*
X43870571Y-104902023D01*
X43822952Y-104997261D01*
X43775333Y-105044880D01*
X43680095Y-105092500D01*
X43584857Y-105092500D01*
X43489619Y-105044880D01*
X43442000Y-104997261D01*
X43394380Y-104902023D01*
X43394380Y-104663928D01*
X43442000Y-104521071D01*
X43394380Y-103902023D02*
X43394380Y-103711547D01*
X43442000Y-103616309D01*
X43537238Y-103521071D01*
X43727714Y-103473452D01*
X44061047Y-103473452D01*
X44251523Y-103521071D01*
X44346761Y-103616309D01*
X44394380Y-103711547D01*
X44394380Y-103902023D01*
X44346761Y-103997261D01*
X44251523Y-104092500D01*
X44061047Y-104140119D01*
X43727714Y-104140119D01*
X43537238Y-104092500D01*
X43442000Y-103997261D01*
X43394380Y-103902023D01*
X41981380Y-106600428D02*
X40981380Y-106600428D01*
X41695666Y-106267095D01*
X40981380Y-105933761D01*
X41981380Y-105933761D01*
X40981380Y-105267095D02*
X40981380Y-105076619D01*
X41029000Y-104981380D01*
X41124238Y-104886142D01*
X41314714Y-104838523D01*
X41648047Y-104838523D01*
X41838523Y-104886142D01*
X41933761Y-104981380D01*
X41981380Y-105076619D01*
X41981380Y-105267095D01*
X41933761Y-105362333D01*
X41838523Y-105457571D01*
X41648047Y-105505190D01*
X41314714Y-105505190D01*
X41124238Y-105457571D01*
X41029000Y-105362333D01*
X40981380Y-105267095D01*
X41933761Y-104457571D02*
X41981380Y-104314714D01*
X41981380Y-104076619D01*
X41933761Y-103981380D01*
X41886142Y-103933761D01*
X41790904Y-103886142D01*
X41695666Y-103886142D01*
X41600428Y-103933761D01*
X41552809Y-103981380D01*
X41505190Y-104076619D01*
X41457571Y-104267095D01*
X41409952Y-104362333D01*
X41362333Y-104409952D01*
X41267095Y-104457571D01*
X41171857Y-104457571D01*
X41076619Y-104409952D01*
X41029000Y-104362333D01*
X40981380Y-104267095D01*
X40981380Y-104029000D01*
X41029000Y-103886142D01*
X41981380Y-103457571D02*
X40981380Y-103457571D01*
D11*
%TO.C,J2*%
X48544700Y-115882800D02*
X48044700Y-116382800D01*
X48544700Y-116882800D02*
X48544700Y-115882800D01*
X48044700Y-116382800D02*
X48544700Y-116882800D01*
X31224700Y-109022800D02*
X39194700Y-109022800D01*
X31224700Y-121242800D02*
X39194700Y-121242800D01*
X31224700Y-109022800D02*
X31224700Y-121242800D01*
X47844700Y-121242800D02*
X44094700Y-121242800D01*
X47844700Y-109022800D02*
X44094700Y-109022800D01*
X47844700Y-109022800D02*
X47844700Y-121242800D01*
%TO.C,R4*%
X48617200Y-121527836D02*
X48617200Y-121981964D01*
X50087200Y-121527836D02*
X50087200Y-121981964D01*
%TO.C,C1*%
X78683752Y-124242500D02*
X78161248Y-124242500D01*
X78683752Y-122772500D02*
X78161248Y-122772500D01*
%TO.C,C2*%
X73716248Y-112676000D02*
X74238752Y-112676000D01*
X73716248Y-114146000D02*
X74238752Y-114146000D01*
%TO.C,C4*%
X67810748Y-105818000D02*
X68333252Y-105818000D01*
X67810748Y-107288000D02*
X68333252Y-107288000D01*
%TO.C,C5*%
X70394500Y-121531748D02*
X70394500Y-122054252D01*
X68924500Y-121531748D02*
X68924500Y-122054252D01*
%TO.C,C6*%
X61841748Y-105818000D02*
X62364252Y-105818000D01*
X61841748Y-107288000D02*
X62364252Y-107288000D01*
%TO.C,C7*%
X77794752Y-116432000D02*
X77272248Y-116432000D01*
X77794752Y-114962000D02*
X77272248Y-114962000D01*
%TO.C,C8*%
X61841748Y-103659000D02*
X62364252Y-103659000D01*
X61841748Y-105129000D02*
X62364252Y-105129000D01*
%TO.C,C9*%
X67810748Y-103659000D02*
X68333252Y-103659000D01*
X67810748Y-105129000D02*
X68333252Y-105129000D01*
%TO.C,C11*%
X72553500Y-121510248D02*
X72553500Y-122032752D01*
X71083500Y-121510248D02*
X71083500Y-122032752D01*
%TO.C,C12*%
X53811500Y-119133252D02*
X53811500Y-118610748D01*
X55281500Y-119133252D02*
X55281500Y-118610748D01*
%TO.C,C13*%
X96793952Y-101509500D02*
X96271448Y-101509500D01*
X96793952Y-100039500D02*
X96271448Y-100039500D01*
%TO.C,C14*%
X73823500Y-109276248D02*
X73823500Y-109798752D01*
X72353500Y-109276248D02*
X72353500Y-109798752D01*
%TO.C,C15*%
X75919000Y-109276248D02*
X75919000Y-109798752D01*
X74449000Y-109276248D02*
X74449000Y-109798752D01*
%TO.C,C16*%
X55745748Y-129630500D02*
X56268252Y-129630500D01*
X55745748Y-131100500D02*
X56268252Y-131100500D01*
%TO.C,C3*%
X55907000Y-119133252D02*
X55907000Y-118610748D01*
X57377000Y-119133252D02*
X57377000Y-118610748D01*
%TO.C,U4*%
X60216300Y-109329700D02*
X59266300Y-109329700D01*
X59266300Y-109329700D02*
X59266300Y-110279700D01*
X68536300Y-109329700D02*
X69486300Y-109329700D01*
X69486300Y-109329700D02*
X69486300Y-110279700D01*
X60216300Y-119549700D02*
X59266300Y-119549700D01*
X59266300Y-119549700D02*
X59266300Y-118599700D01*
X68536300Y-119549700D02*
X69486300Y-119549700D01*
X69486300Y-119549700D02*
X69486300Y-118599700D01*
X69486300Y-118599700D02*
X70826300Y-118599700D01*
%TO.C,U2*%
X57873900Y-129064700D02*
X59823900Y-129064700D01*
X57873900Y-129064700D02*
X55923900Y-129064700D01*
X57873900Y-123944700D02*
X59823900Y-123944700D01*
X57873900Y-123944700D02*
X54423900Y-123944700D01*
%TO.C,J7*%
X91025500Y-109918000D02*
X91025500Y-108428000D01*
X91025500Y-108428000D02*
X89685500Y-108428000D01*
X91025500Y-122238000D02*
X91025500Y-123728000D01*
X91025500Y-123728000D02*
X89685500Y-123728000D01*
X86965500Y-108428000D02*
X85225500Y-108428000D01*
X85225500Y-108428000D02*
X85225500Y-123728000D01*
X85225500Y-123728000D02*
X86965500Y-123728000D01*
X91025500Y-109918000D02*
X92225500Y-109918000D01*
%TO.C,SW1*%
X78050000Y-105355000D02*
X78080000Y-105355000D01*
X84510000Y-105355000D02*
X84480000Y-105355000D01*
X84510000Y-111815000D02*
X84480000Y-111815000D01*
X78080000Y-111815000D02*
X78050000Y-111815000D01*
X79980000Y-105355000D02*
X82580000Y-105355000D01*
X78050000Y-111815000D02*
X78050000Y-105355000D01*
X79980000Y-111815000D02*
X82580000Y-111815000D01*
X84510000Y-111815000D02*
X84510000Y-105355000D01*
%TO.C,J1*%
X103833000Y-134562500D02*
X103833000Y-134062500D01*
X103093000Y-134562500D02*
X103833000Y-134562500D01*
X99956000Y-127989500D02*
X100002000Y-128036500D01*
X97658000Y-125692500D02*
X97694000Y-125727500D01*
X100172000Y-127796500D02*
X100207000Y-127831500D01*
X97864000Y-125487500D02*
X97910000Y-125534500D01*
X93672000Y-124202500D02*
X103593000Y-124202500D01*
X93672000Y-134322500D02*
X103593000Y-134322500D01*
X103593000Y-134322500D02*
X103593000Y-124202500D01*
X93672000Y-134322500D02*
X93672000Y-124202500D01*
X96632000Y-134322500D02*
X96632000Y-124202500D01*
X101533000Y-134322500D02*
X101533000Y-124202500D01*
X103033000Y-134322500D02*
X103033000Y-124202500D01*
X100613000Y-126762500D02*
G75*
G03*
X100613000Y-126762500I-1680000J0D01*
G01*
X100613253Y-131733695D02*
G75*
G02*
X100468000Y-132446500I-1680253J-28805D01*
G01*
X99616042Y-133297926D02*
G75*
G02*
X98249000Y-133297500I-683042J1535426D01*
G01*
X97397574Y-132445542D02*
G75*
G02*
X97398000Y-131078500I1535426J683042D01*
G01*
X98249958Y-130227074D02*
G75*
G02*
X99617000Y-130227500I683042J-1535426D01*
G01*
X100467756Y-131079182D02*
G75*
G02*
X100613000Y-131762500I-1534756J-683318D01*
G01*
%TO.C,J3*%
X46257000Y-131784100D02*
G75*
G03*
X46257000Y-131784100I-1680000J0D01*
G01*
X40477000Y-124224100D02*
X40477000Y-134344100D01*
X41977000Y-124224100D02*
X41977000Y-134344100D01*
X46878000Y-124224100D02*
X46878000Y-134344100D01*
X49838000Y-124224100D02*
X49838000Y-134344100D01*
X39917000Y-124224100D02*
X39917000Y-134344100D01*
X49838000Y-124224100D02*
X39917000Y-124224100D01*
X49838000Y-134344100D02*
X39917000Y-134344100D01*
X45646000Y-133059100D02*
X45600000Y-133012100D01*
X43338000Y-130750100D02*
X43303000Y-130715100D01*
X45852000Y-132854100D02*
X45816000Y-132819100D01*
X43554000Y-130557100D02*
X43508000Y-130510100D01*
X40417000Y-123984100D02*
X39677000Y-123984100D01*
X39677000Y-123984100D02*
X39677000Y-124484100D01*
X43042244Y-127467418D02*
G75*
G02*
X42897000Y-126784100I1534756J683318D01*
G01*
X45260042Y-128319526D02*
G75*
G02*
X43893000Y-128319100I-683042J1535426D01*
G01*
X46112426Y-126101058D02*
G75*
G02*
X46112000Y-127468100I-1535426J-683042D01*
G01*
X43893958Y-125248674D02*
G75*
G02*
X45261000Y-125249100I683042J-1535426D01*
G01*
X42896747Y-126812905D02*
G75*
G02*
X43042000Y-126100100I1680253J28805D01*
G01*
%TO.C,Q1*%
X81707000Y-126979000D02*
X80207000Y-126979000D01*
X80207000Y-126979000D02*
X80207000Y-127249000D01*
X80207000Y-127249000D02*
X77377000Y-127249000D01*
X81707000Y-133879000D02*
X80207000Y-133879000D01*
X80207000Y-133879000D02*
X80207000Y-133609000D01*
X80207000Y-133609000D02*
X79107000Y-133609000D01*
%TO.C,U3*%
X50344500Y-117053000D02*
X52144500Y-117053000D01*
X52144500Y-113833000D02*
X49694500Y-113833000D01*
%TO.C,U5*%
X99647100Y-78903200D02*
X99647100Y-78403200D01*
X99647100Y-78403200D02*
X101047100Y-78403200D01*
X95247100Y-77203200D02*
X95247100Y-75603200D01*
X99647100Y-77203200D02*
X99647100Y-75603200D01*
X95247100Y-78103200D02*
X95247100Y-78903200D01*
X95247100Y-78903200D02*
X99647100Y-78903200D01*
X95247100Y-74703200D02*
X95247100Y-73903200D01*
X95247100Y-73903200D02*
X99647100Y-73903200D01*
X99647100Y-73903200D02*
X99647100Y-74703200D01*
%TO.C,Y1*%
X75728000Y-122270500D02*
X80228000Y-122270500D01*
X80228000Y-122270500D02*
X80228000Y-116870500D01*
%TO.C,U1*%
X100919200Y-99218800D02*
X100919200Y-97958800D01*
X100919200Y-92398800D02*
X100919200Y-93658800D01*
X97159200Y-99218800D02*
X100919200Y-99218800D01*
X94909200Y-92398800D02*
X100919200Y-92398800D01*
%TO.C,J6*%
X46218900Y-81720700D02*
G75*
G03*
X46218900Y-81720700I-1680000J0D01*
G01*
X40438900Y-74160700D02*
X40438900Y-84280700D01*
X41938900Y-74160700D02*
X41938900Y-84280700D01*
X46839900Y-74160700D02*
X46839900Y-84280700D01*
X49799900Y-74160700D02*
X49799900Y-84280700D01*
X39878900Y-74160700D02*
X39878900Y-84280700D01*
X49799900Y-74160700D02*
X39878900Y-74160700D01*
X49799900Y-84280700D02*
X39878900Y-84280700D01*
X45607900Y-82995700D02*
X45561900Y-82948700D01*
X43299900Y-80686700D02*
X43264900Y-80651700D01*
X45813900Y-82790700D02*
X45777900Y-82755700D01*
X43515900Y-80493700D02*
X43469900Y-80446700D01*
X40378900Y-73920700D02*
X39638900Y-73920700D01*
X39638900Y-73920700D02*
X39638900Y-74420700D01*
X43004144Y-77404018D02*
G75*
G02*
X42858900Y-76720700I1534756J683318D01*
G01*
X45221942Y-78256126D02*
G75*
G02*
X43854900Y-78255700I-683042J1535426D01*
G01*
X46074326Y-76037658D02*
G75*
G02*
X46073900Y-77404700I-1535426J-683042D01*
G01*
X43855858Y-75185274D02*
G75*
G02*
X45222900Y-75185700I683042J-1535426D01*
G01*
X42858647Y-76749505D02*
G75*
G02*
X43003900Y-76036700I1680253J28805D01*
G01*
%TO.C,U6*%
X53034700Y-101130100D02*
X53034700Y-73840600D01*
X53034700Y-101130100D02*
X90627200Y-101066600D01*
X90754200Y-73840600D02*
X53034700Y-73840600D01*
X90754200Y-73840600D02*
X90690700Y-101066600D01*
X55654700Y-76960600D02*
X55654700Y-98780600D01*
X55654700Y-98780600D02*
X88404700Y-98780600D01*
X55654700Y-94460600D02*
X55654700Y-94960600D01*
X55654700Y-76960600D02*
X88404700Y-76960600D01*
X55654700Y-82460600D02*
X55654700Y-79960600D01*
%TO.C,U7*%
X62230000Y-131572000D02*
X70929500Y-131572000D01*
X70929500Y-131572000D02*
X70929500Y-134429500D01*
X70929500Y-134429500D02*
X62166500Y-134429500D01*
X62166500Y-134429500D02*
X62166500Y-131572000D01*
%TO.C,J4*%
X40135500Y-103057000D02*
X40135500Y-101727000D01*
X41465500Y-103057000D02*
X40135500Y-103057000D01*
X40135500Y-100457000D02*
X40135500Y-97857000D01*
X42735500Y-100457000D02*
X40135500Y-100457000D01*
X42735500Y-103057000D02*
X42735500Y-100457000D01*
X40135500Y-97857000D02*
X47875500Y-97857000D01*
X42735500Y-103057000D02*
X47875500Y-103057000D01*
X47875500Y-103057000D02*
X47875500Y-97857000D01*
%TO.C,J5*%
X42795500Y-93976500D02*
X41465500Y-93976500D01*
X42795500Y-92646500D02*
X42795500Y-93976500D01*
X42795500Y-91376500D02*
X40135500Y-91376500D01*
X40135500Y-91376500D02*
X40135500Y-88776500D01*
X42795500Y-91376500D02*
X42795500Y-88776500D01*
X42795500Y-88776500D02*
X40135500Y-88776500D01*
%TO.C,D1*%
X90162500Y-101746600D02*
X90162500Y-104606600D01*
X92082500Y-101746600D02*
X90162500Y-101746600D01*
X92082500Y-104606600D02*
X92082500Y-101746600D01*
%TO.C,D2*%
X67783200Y-130233300D02*
X70643200Y-130233300D01*
X70643200Y-130233300D02*
X70643200Y-128313300D01*
X70643200Y-128313300D02*
X67783200Y-128313300D01*
%TO.C,FB1*%
X74492752Y-105906500D02*
X73970248Y-105906500D01*
X74492752Y-107326500D02*
X73970248Y-107326500D01*
%TO.C,R1*%
X75093564Y-127408000D02*
X74639436Y-127408000D01*
X75093564Y-128878000D02*
X74639436Y-128878000D01*
%TO.C,R2*%
X91095564Y-131218000D02*
X90641436Y-131218000D01*
X91095564Y-132688000D02*
X90641436Y-132688000D01*
%TO.C,R3*%
X50099900Y-102846136D02*
X50099900Y-103300264D01*
X48629900Y-102846136D02*
X48629900Y-103300264D01*
%TO.C,R6*%
X62269700Y-127582664D02*
X62269700Y-127128536D01*
X63739700Y-127582664D02*
X63739700Y-127128536D01*
%TO.C,R7*%
X89355600Y-103808264D02*
X89355600Y-103354136D01*
X87885600Y-103808264D02*
X87885600Y-103354136D01*
%TO.C,R8*%
X66635300Y-128598664D02*
X66635300Y-128144536D01*
X65165300Y-128598664D02*
X65165300Y-128144536D01*
%TO.C,R9*%
X72490000Y-128169936D02*
X72490000Y-128624064D01*
X71020000Y-128169936D02*
X71020000Y-128624064D01*
%TO.C,U8*%
X103642600Y-109340700D02*
X97632600Y-109340700D01*
X101392600Y-102520700D02*
X97632600Y-102520700D01*
X97632600Y-109340700D02*
X97632600Y-108080700D01*
X97632600Y-102520700D02*
X97632600Y-103780700D01*
%TO.C,C10*%
X93461554Y-81765800D02*
X93461554Y-82765800D01*
X92961554Y-82265800D02*
X93961554Y-82265800D01*
X103522200Y-84541800D02*
X103522200Y-85739800D01*
X103482200Y-84278800D02*
X103482200Y-86002800D01*
X103442200Y-84078800D02*
X103442200Y-86202800D01*
X103362200Y-86381800D02*
X103362200Y-86518800D01*
X103362200Y-83762800D02*
X103362200Y-83899800D01*
X103322200Y-86381800D02*
X103322200Y-86650800D01*
X103322200Y-83630800D02*
X103322200Y-83899800D01*
X103282200Y-86381800D02*
X103282200Y-86770800D01*
X103282200Y-83510800D02*
X103282200Y-83899800D01*
X103242200Y-86381800D02*
X103242200Y-86882800D01*
X103242200Y-83398800D02*
X103242200Y-83899800D01*
X103202200Y-86381800D02*
X103202200Y-86986800D01*
X103202200Y-83294800D02*
X103202200Y-83899800D01*
X103162200Y-86381800D02*
X103162200Y-87084800D01*
X103162200Y-83196800D02*
X103162200Y-83899800D01*
X103122200Y-86381800D02*
X103122200Y-87177800D01*
X103122200Y-83103800D02*
X103122200Y-83899800D01*
X103082200Y-86381800D02*
X103082200Y-87265800D01*
X103082200Y-83015800D02*
X103082200Y-83899800D01*
X103042200Y-86381800D02*
X103042200Y-87349800D01*
X103042200Y-82931800D02*
X103042200Y-83899800D01*
X103002200Y-86381800D02*
X103002200Y-87429800D01*
X103002200Y-82851800D02*
X103002200Y-83899800D01*
X102962200Y-86381800D02*
X102962200Y-87505800D01*
X102962200Y-82775800D02*
X102962200Y-83899800D01*
X102922200Y-86381800D02*
X102922200Y-87579800D01*
X102922200Y-82701800D02*
X102922200Y-83899800D01*
X102882200Y-86381800D02*
X102882200Y-87650800D01*
X102882200Y-82630800D02*
X102882200Y-83899800D01*
X102842200Y-86381800D02*
X102842200Y-87719800D01*
X102842200Y-82561800D02*
X102842200Y-83899800D01*
X102802200Y-86381800D02*
X102802200Y-87785800D01*
X102802200Y-82495800D02*
X102802200Y-83899800D01*
X102762200Y-86381800D02*
X102762200Y-87849800D01*
X102762200Y-82431800D02*
X102762200Y-83899800D01*
X102722200Y-86381800D02*
X102722200Y-87910800D01*
X102722200Y-82370800D02*
X102722200Y-83899800D01*
X102682200Y-86381800D02*
X102682200Y-87970800D01*
X102682200Y-82310800D02*
X102682200Y-83899800D01*
X102642200Y-86381800D02*
X102642200Y-88029800D01*
X102642200Y-82251800D02*
X102642200Y-83899800D01*
X102602200Y-86381800D02*
X102602200Y-88085800D01*
X102602200Y-82195800D02*
X102602200Y-83899800D01*
X102562200Y-86381800D02*
X102562200Y-88140800D01*
X102562200Y-82140800D02*
X102562200Y-83899800D01*
X102522200Y-86381800D02*
X102522200Y-88194800D01*
X102522200Y-82086800D02*
X102522200Y-83899800D01*
X102482200Y-86381800D02*
X102482200Y-88246800D01*
X102482200Y-82034800D02*
X102482200Y-83899800D01*
X102442200Y-86381800D02*
X102442200Y-88296800D01*
X102442200Y-81984800D02*
X102442200Y-83899800D01*
X102402200Y-86381800D02*
X102402200Y-88346800D01*
X102402200Y-81934800D02*
X102402200Y-83899800D01*
X102362200Y-86381800D02*
X102362200Y-88394800D01*
X102362200Y-81886800D02*
X102362200Y-83899800D01*
X102322200Y-86381800D02*
X102322200Y-88441800D01*
X102322200Y-81839800D02*
X102322200Y-83899800D01*
X102282200Y-86381800D02*
X102282200Y-88487800D01*
X102282200Y-81793800D02*
X102282200Y-83899800D01*
X102242200Y-86381800D02*
X102242200Y-88532800D01*
X102242200Y-81748800D02*
X102242200Y-83899800D01*
X102202200Y-86381800D02*
X102202200Y-88576800D01*
X102202200Y-81704800D02*
X102202200Y-83899800D01*
X102162200Y-86381800D02*
X102162200Y-88618800D01*
X102162200Y-81662800D02*
X102162200Y-83899800D01*
X102122200Y-86381800D02*
X102122200Y-88660800D01*
X102122200Y-81620800D02*
X102122200Y-83899800D01*
X102082200Y-86381800D02*
X102082200Y-88701800D01*
X102082200Y-81579800D02*
X102082200Y-83899800D01*
X102042200Y-86381800D02*
X102042200Y-88741800D01*
X102042200Y-81539800D02*
X102042200Y-83899800D01*
X102002200Y-86381800D02*
X102002200Y-88780800D01*
X102002200Y-81500800D02*
X102002200Y-83899800D01*
X101962200Y-86381800D02*
X101962200Y-88819800D01*
X101962200Y-81461800D02*
X101962200Y-83899800D01*
X101922200Y-86381800D02*
X101922200Y-88856800D01*
X101922200Y-81424800D02*
X101922200Y-83899800D01*
X101882200Y-86381800D02*
X101882200Y-88893800D01*
X101882200Y-81387800D02*
X101882200Y-83899800D01*
X101842200Y-86381800D02*
X101842200Y-88929800D01*
X101842200Y-81351800D02*
X101842200Y-83899800D01*
X101802200Y-86381800D02*
X101802200Y-88964800D01*
X101802200Y-81316800D02*
X101802200Y-83899800D01*
X101762200Y-86381800D02*
X101762200Y-88998800D01*
X101762200Y-81282800D02*
X101762200Y-83899800D01*
X101722200Y-86381800D02*
X101722200Y-89032800D01*
X101722200Y-81248800D02*
X101722200Y-83899800D01*
X101682200Y-86381800D02*
X101682200Y-89065800D01*
X101682200Y-81215800D02*
X101682200Y-83899800D01*
X101642200Y-86381800D02*
X101642200Y-89097800D01*
X101642200Y-81183800D02*
X101642200Y-83899800D01*
X101602200Y-86381800D02*
X101602200Y-89129800D01*
X101602200Y-81151800D02*
X101602200Y-83899800D01*
X101562200Y-86381800D02*
X101562200Y-89160800D01*
X101562200Y-81120800D02*
X101562200Y-83899800D01*
X101522200Y-86381800D02*
X101522200Y-89190800D01*
X101522200Y-81090800D02*
X101522200Y-83899800D01*
X101482200Y-86381800D02*
X101482200Y-89220800D01*
X101482200Y-81060800D02*
X101482200Y-83899800D01*
X101442200Y-86381800D02*
X101442200Y-89250800D01*
X101442200Y-81030800D02*
X101442200Y-83899800D01*
X101402200Y-86381800D02*
X101402200Y-89278800D01*
X101402200Y-81002800D02*
X101402200Y-83899800D01*
X101362200Y-86381800D02*
X101362200Y-89306800D01*
X101362200Y-80974800D02*
X101362200Y-83899800D01*
X101322200Y-86381800D02*
X101322200Y-89334800D01*
X101322200Y-80946800D02*
X101322200Y-83899800D01*
X101282200Y-86381800D02*
X101282200Y-89361800D01*
X101282200Y-80919800D02*
X101282200Y-83899800D01*
X101242200Y-86381800D02*
X101242200Y-89387800D01*
X101242200Y-80893800D02*
X101242200Y-83899800D01*
X101202200Y-86381800D02*
X101202200Y-89413800D01*
X101202200Y-80867800D02*
X101202200Y-83899800D01*
X101162200Y-86381800D02*
X101162200Y-89438800D01*
X101162200Y-80842800D02*
X101162200Y-83899800D01*
X101122200Y-86381800D02*
X101122200Y-89463800D01*
X101122200Y-80817800D02*
X101122200Y-83899800D01*
X101082200Y-86381800D02*
X101082200Y-89487800D01*
X101082200Y-80793800D02*
X101082200Y-83899800D01*
X101042200Y-86381800D02*
X101042200Y-89511800D01*
X101042200Y-80769800D02*
X101042200Y-83899800D01*
X101002200Y-86381800D02*
X101002200Y-89535800D01*
X101002200Y-80745800D02*
X101002200Y-83899800D01*
X100962200Y-86381800D02*
X100962200Y-89557800D01*
X100962200Y-80723800D02*
X100962200Y-83899800D01*
X100922200Y-80700800D02*
X100922200Y-89580800D01*
X100882200Y-80678800D02*
X100882200Y-89602800D01*
X100842200Y-80657800D02*
X100842200Y-89623800D01*
X100802200Y-80636800D02*
X100802200Y-89644800D01*
X100762200Y-80615800D02*
X100762200Y-89665800D01*
X100722200Y-80595800D02*
X100722200Y-89685800D01*
X100682200Y-80576800D02*
X100682200Y-89704800D01*
X100642200Y-80556800D02*
X100642200Y-89724800D01*
X100602200Y-80537800D02*
X100602200Y-89743800D01*
X100562200Y-80519800D02*
X100562200Y-89761800D01*
X100522200Y-80501800D02*
X100522200Y-89779800D01*
X100482200Y-80483800D02*
X100482200Y-89797800D01*
X100442200Y-80466800D02*
X100442200Y-89814800D01*
X100402200Y-80450800D02*
X100402200Y-89830800D01*
X100362200Y-80433800D02*
X100362200Y-89847800D01*
X100322200Y-80417800D02*
X100322200Y-89863800D01*
X100282200Y-80402800D02*
X100282200Y-89878800D01*
X100242200Y-80386800D02*
X100242200Y-89894800D01*
X100202200Y-80372800D02*
X100202200Y-89908800D01*
X100162200Y-80357800D02*
X100162200Y-89923800D01*
X100122200Y-80343800D02*
X100122200Y-89937800D01*
X100082200Y-80329800D02*
X100082200Y-89951800D01*
X100042200Y-80316800D02*
X100042200Y-89964800D01*
X100002200Y-80303800D02*
X100002200Y-89977800D01*
X99962200Y-80290800D02*
X99962200Y-89990800D01*
X99922200Y-80278800D02*
X99922200Y-90002800D01*
X99882200Y-80266800D02*
X99882200Y-90014800D01*
X99842200Y-80255800D02*
X99842200Y-90025800D01*
X99802200Y-80243800D02*
X99802200Y-90037800D01*
X99762200Y-80233800D02*
X99762200Y-90047800D01*
X99722200Y-80222800D02*
X99722200Y-90058800D01*
X99682200Y-80212800D02*
X99682200Y-90068800D01*
X99642200Y-80202800D02*
X99642200Y-90078800D01*
X99602200Y-80193800D02*
X99602200Y-90087800D01*
X99562200Y-80184800D02*
X99562200Y-90096800D01*
X99522200Y-80175800D02*
X99522200Y-90105800D01*
X99482200Y-80166800D02*
X99482200Y-90114800D01*
X99442200Y-80158800D02*
X99442200Y-90122800D01*
X99402200Y-80150800D02*
X99402200Y-90130800D01*
X99362200Y-80143800D02*
X99362200Y-90137800D01*
X99322200Y-80136800D02*
X99322200Y-90144800D01*
X99282200Y-80129800D02*
X99282200Y-90151800D01*
X99242200Y-80122800D02*
X99242200Y-90158800D01*
X99202200Y-80116800D02*
X99202200Y-90164800D01*
X99162200Y-80110800D02*
X99162200Y-90170800D01*
X99121200Y-80105800D02*
X99121200Y-90175800D01*
X99081200Y-80100800D02*
X99081200Y-90180800D01*
X99041200Y-80095800D02*
X99041200Y-90185800D01*
X99001200Y-80090800D02*
X99001200Y-90190800D01*
X98961200Y-80086800D02*
X98961200Y-90194800D01*
X98921200Y-80082800D02*
X98921200Y-90198800D01*
X98881200Y-80078800D02*
X98881200Y-90202800D01*
X98841200Y-80075800D02*
X98841200Y-90205800D01*
X98801200Y-80072800D02*
X98801200Y-90208800D01*
X98761200Y-80070800D02*
X98761200Y-90210800D01*
X98721200Y-80067800D02*
X98721200Y-90213800D01*
X98681200Y-80065800D02*
X98681200Y-90215800D01*
X98641200Y-80063800D02*
X98641200Y-90217800D01*
X98601200Y-80062800D02*
X98601200Y-90218800D01*
X98561200Y-80061800D02*
X98561200Y-90219800D01*
X98521200Y-80060800D02*
X98521200Y-90220800D01*
X98481200Y-80060800D02*
X98481200Y-90220800D01*
X98441200Y-80060800D02*
X98441200Y-90220800D01*
X93478660Y-86400800D02*
G75*
G03*
X93478660Y-83880800I4962540J1260000D01*
G01*
%TO.C,J2*%
D10*
X48802966Y-106703880D02*
X48802966Y-107418166D01*
X48755347Y-107561023D01*
X48660109Y-107656261D01*
X48517252Y-107703880D01*
X48422014Y-107703880D01*
X49231538Y-106799119D02*
X49279157Y-106751500D01*
X49374395Y-106703880D01*
X49612490Y-106703880D01*
X49707728Y-106751500D01*
X49755347Y-106799119D01*
X49802966Y-106894357D01*
X49802966Y-106989595D01*
X49755347Y-107132452D01*
X49183919Y-107703880D01*
X49802966Y-107703880D01*
%TO.C,R4*%
X51454580Y-121921566D02*
X50978390Y-122254900D01*
X51454580Y-122492995D02*
X50454580Y-122492995D01*
X50454580Y-122112042D01*
X50502200Y-122016804D01*
X50549819Y-121969185D01*
X50645057Y-121921566D01*
X50787914Y-121921566D01*
X50883152Y-121969185D01*
X50930771Y-122016804D01*
X50978390Y-122112042D01*
X50978390Y-122492995D01*
X50787914Y-121064423D02*
X51454580Y-121064423D01*
X50406961Y-121302519D02*
X51121247Y-121540614D01*
X51121247Y-120921566D01*
%TO.C,C1*%
X81176833Y-123928142D02*
X81129214Y-123975761D01*
X80986357Y-124023380D01*
X80891119Y-124023380D01*
X80748261Y-123975761D01*
X80653023Y-123880523D01*
X80605404Y-123785285D01*
X80557785Y-123594809D01*
X80557785Y-123451952D01*
X80605404Y-123261476D01*
X80653023Y-123166238D01*
X80748261Y-123071000D01*
X80891119Y-123023380D01*
X80986357Y-123023380D01*
X81129214Y-123071000D01*
X81176833Y-123118619D01*
X82129214Y-124023380D02*
X81557785Y-124023380D01*
X81843500Y-124023380D02*
X81843500Y-123023380D01*
X81748261Y-123166238D01*
X81653023Y-123261476D01*
X81557785Y-123309095D01*
%TO.C,C2*%
X76604833Y-112434642D02*
X76557214Y-112482261D01*
X76414357Y-112529880D01*
X76319119Y-112529880D01*
X76176261Y-112482261D01*
X76081023Y-112387023D01*
X76033404Y-112291785D01*
X75985785Y-112101309D01*
X75985785Y-111958452D01*
X76033404Y-111767976D01*
X76081023Y-111672738D01*
X76176261Y-111577500D01*
X76319119Y-111529880D01*
X76414357Y-111529880D01*
X76557214Y-111577500D01*
X76604833Y-111625119D01*
X76985785Y-111625119D02*
X77033404Y-111577500D01*
X77128642Y-111529880D01*
X77366738Y-111529880D01*
X77461976Y-111577500D01*
X77509595Y-111625119D01*
X77557214Y-111720357D01*
X77557214Y-111815595D01*
X77509595Y-111958452D01*
X76938166Y-112529880D01*
X77557214Y-112529880D01*
%TO.C,C4*%
X69492833Y-108624642D02*
X69445214Y-108672261D01*
X69302357Y-108719880D01*
X69207119Y-108719880D01*
X69064261Y-108672261D01*
X68969023Y-108577023D01*
X68921404Y-108481785D01*
X68873785Y-108291309D01*
X68873785Y-108148452D01*
X68921404Y-107957976D01*
X68969023Y-107862738D01*
X69064261Y-107767500D01*
X69207119Y-107719880D01*
X69302357Y-107719880D01*
X69445214Y-107767500D01*
X69492833Y-107815119D01*
X70349976Y-108053214D02*
X70349976Y-108719880D01*
X70111880Y-107672261D02*
X69873785Y-108386547D01*
X70492833Y-108386547D01*
%TO.C,C5*%
X67524333Y-123547142D02*
X67476714Y-123594761D01*
X67333857Y-123642380D01*
X67238619Y-123642380D01*
X67095761Y-123594761D01*
X67000523Y-123499523D01*
X66952904Y-123404285D01*
X66905285Y-123213809D01*
X66905285Y-123070952D01*
X66952904Y-122880476D01*
X67000523Y-122785238D01*
X67095761Y-122690000D01*
X67238619Y-122642380D01*
X67333857Y-122642380D01*
X67476714Y-122690000D01*
X67524333Y-122737619D01*
X68429095Y-122642380D02*
X67952904Y-122642380D01*
X67905285Y-123118571D01*
X67952904Y-123070952D01*
X68048142Y-123023333D01*
X68286238Y-123023333D01*
X68381476Y-123070952D01*
X68429095Y-123118571D01*
X68476714Y-123213809D01*
X68476714Y-123451904D01*
X68429095Y-123547142D01*
X68381476Y-123594761D01*
X68286238Y-123642380D01*
X68048142Y-123642380D01*
X67952904Y-123594761D01*
X67905285Y-123547142D01*
%TO.C,C6*%
X59015333Y-106973642D02*
X58967714Y-107021261D01*
X58824857Y-107068880D01*
X58729619Y-107068880D01*
X58586761Y-107021261D01*
X58491523Y-106926023D01*
X58443904Y-106830785D01*
X58396285Y-106640309D01*
X58396285Y-106497452D01*
X58443904Y-106306976D01*
X58491523Y-106211738D01*
X58586761Y-106116500D01*
X58729619Y-106068880D01*
X58824857Y-106068880D01*
X58967714Y-106116500D01*
X59015333Y-106164119D01*
X59872476Y-106068880D02*
X59682000Y-106068880D01*
X59586761Y-106116500D01*
X59539142Y-106164119D01*
X59443904Y-106306976D01*
X59396285Y-106497452D01*
X59396285Y-106878404D01*
X59443904Y-106973642D01*
X59491523Y-107021261D01*
X59586761Y-107068880D01*
X59777238Y-107068880D01*
X59872476Y-107021261D01*
X59920095Y-106973642D01*
X59967714Y-106878404D01*
X59967714Y-106640309D01*
X59920095Y-106545071D01*
X59872476Y-106497452D01*
X59777238Y-106449833D01*
X59586761Y-106449833D01*
X59491523Y-106497452D01*
X59443904Y-106545071D01*
X59396285Y-106640309D01*
%TO.C,C7*%
X74445833Y-116181142D02*
X74398214Y-116228761D01*
X74255357Y-116276380D01*
X74160119Y-116276380D01*
X74017261Y-116228761D01*
X73922023Y-116133523D01*
X73874404Y-116038285D01*
X73826785Y-115847809D01*
X73826785Y-115704952D01*
X73874404Y-115514476D01*
X73922023Y-115419238D01*
X74017261Y-115324000D01*
X74160119Y-115276380D01*
X74255357Y-115276380D01*
X74398214Y-115324000D01*
X74445833Y-115371619D01*
X74779166Y-115276380D02*
X75445833Y-115276380D01*
X75017261Y-116276380D01*
%TO.C,C8*%
X59015333Y-104814642D02*
X58967714Y-104862261D01*
X58824857Y-104909880D01*
X58729619Y-104909880D01*
X58586761Y-104862261D01*
X58491523Y-104767023D01*
X58443904Y-104671785D01*
X58396285Y-104481309D01*
X58396285Y-104338452D01*
X58443904Y-104147976D01*
X58491523Y-104052738D01*
X58586761Y-103957500D01*
X58729619Y-103909880D01*
X58824857Y-103909880D01*
X58967714Y-103957500D01*
X59015333Y-104005119D01*
X59586761Y-104338452D02*
X59491523Y-104290833D01*
X59443904Y-104243214D01*
X59396285Y-104147976D01*
X59396285Y-104100357D01*
X59443904Y-104005119D01*
X59491523Y-103957500D01*
X59586761Y-103909880D01*
X59777238Y-103909880D01*
X59872476Y-103957500D01*
X59920095Y-104005119D01*
X59967714Y-104100357D01*
X59967714Y-104147976D01*
X59920095Y-104243214D01*
X59872476Y-104290833D01*
X59777238Y-104338452D01*
X59586761Y-104338452D01*
X59491523Y-104386071D01*
X59443904Y-104433690D01*
X59396285Y-104528928D01*
X59396285Y-104719404D01*
X59443904Y-104814642D01*
X59491523Y-104862261D01*
X59586761Y-104909880D01*
X59777238Y-104909880D01*
X59872476Y-104862261D01*
X59920095Y-104814642D01*
X59967714Y-104719404D01*
X59967714Y-104528928D01*
X59920095Y-104433690D01*
X59872476Y-104386071D01*
X59777238Y-104338452D01*
%TO.C,C9*%
X67841833Y-103163642D02*
X67794214Y-103211261D01*
X67651357Y-103258880D01*
X67556119Y-103258880D01*
X67413261Y-103211261D01*
X67318023Y-103116023D01*
X67270404Y-103020785D01*
X67222785Y-102830309D01*
X67222785Y-102687452D01*
X67270404Y-102496976D01*
X67318023Y-102401738D01*
X67413261Y-102306500D01*
X67556119Y-102258880D01*
X67651357Y-102258880D01*
X67794214Y-102306500D01*
X67841833Y-102354119D01*
X68318023Y-103258880D02*
X68508500Y-103258880D01*
X68603738Y-103211261D01*
X68651357Y-103163642D01*
X68746595Y-103020785D01*
X68794214Y-102830309D01*
X68794214Y-102449357D01*
X68746595Y-102354119D01*
X68698976Y-102306500D01*
X68603738Y-102258880D01*
X68413261Y-102258880D01*
X68318023Y-102306500D01*
X68270404Y-102354119D01*
X68222785Y-102449357D01*
X68222785Y-102687452D01*
X68270404Y-102782690D01*
X68318023Y-102830309D01*
X68413261Y-102877928D01*
X68603738Y-102877928D01*
X68698976Y-102830309D01*
X68746595Y-102782690D01*
X68794214Y-102687452D01*
%TO.C,C11*%
X73890142Y-123070857D02*
X73937761Y-123118476D01*
X73985380Y-123261333D01*
X73985380Y-123356571D01*
X73937761Y-123499428D01*
X73842523Y-123594666D01*
X73747285Y-123642285D01*
X73556809Y-123689904D01*
X73413952Y-123689904D01*
X73223476Y-123642285D01*
X73128238Y-123594666D01*
X73033000Y-123499428D01*
X72985380Y-123356571D01*
X72985380Y-123261333D01*
X73033000Y-123118476D01*
X73080619Y-123070857D01*
X73985380Y-122118476D02*
X73985380Y-122689904D01*
X73985380Y-122404190D02*
X72985380Y-122404190D01*
X73128238Y-122499428D01*
X73223476Y-122594666D01*
X73271095Y-122689904D01*
X73985380Y-121166095D02*
X73985380Y-121737523D01*
X73985380Y-121451809D02*
X72985380Y-121451809D01*
X73128238Y-121547047D01*
X73223476Y-121642285D01*
X73271095Y-121737523D01*
%TO.C,C12*%
X53205142Y-121832642D02*
X53157523Y-121880261D01*
X53014666Y-121927880D01*
X52919428Y-121927880D01*
X52776571Y-121880261D01*
X52681333Y-121785023D01*
X52633714Y-121689785D01*
X52586095Y-121499309D01*
X52586095Y-121356452D01*
X52633714Y-121165976D01*
X52681333Y-121070738D01*
X52776571Y-120975500D01*
X52919428Y-120927880D01*
X53014666Y-120927880D01*
X53157523Y-120975500D01*
X53205142Y-121023119D01*
X54157523Y-121927880D02*
X53586095Y-121927880D01*
X53871809Y-121927880D02*
X53871809Y-120927880D01*
X53776571Y-121070738D01*
X53681333Y-121165976D01*
X53586095Y-121213595D01*
X54538476Y-121023119D02*
X54586095Y-120975500D01*
X54681333Y-120927880D01*
X54919428Y-120927880D01*
X55014666Y-120975500D01*
X55062285Y-121023119D01*
X55109904Y-121118357D01*
X55109904Y-121213595D01*
X55062285Y-121356452D01*
X54490857Y-121927880D01*
X55109904Y-121927880D01*
%TO.C,C13*%
X92397342Y-100090242D02*
X92349723Y-100137861D01*
X92206866Y-100185480D01*
X92111628Y-100185480D01*
X91968771Y-100137861D01*
X91873533Y-100042623D01*
X91825914Y-99947385D01*
X91778295Y-99756909D01*
X91778295Y-99614052D01*
X91825914Y-99423576D01*
X91873533Y-99328338D01*
X91968771Y-99233100D01*
X92111628Y-99185480D01*
X92206866Y-99185480D01*
X92349723Y-99233100D01*
X92397342Y-99280719D01*
X93349723Y-100185480D02*
X92778295Y-100185480D01*
X93064009Y-100185480D02*
X93064009Y-99185480D01*
X92968771Y-99328338D01*
X92873533Y-99423576D01*
X92778295Y-99471195D01*
X93683057Y-99185480D02*
X94302104Y-99185480D01*
X93968771Y-99566433D01*
X94111628Y-99566433D01*
X94206866Y-99614052D01*
X94254485Y-99661671D01*
X94302104Y-99756909D01*
X94302104Y-99995004D01*
X94254485Y-100090242D01*
X94206866Y-100137861D01*
X94111628Y-100185480D01*
X93825914Y-100185480D01*
X93730676Y-100137861D01*
X93683057Y-100090242D01*
%TO.C,C14*%
X71794642Y-109481857D02*
X71842261Y-109529476D01*
X71889880Y-109672333D01*
X71889880Y-109767571D01*
X71842261Y-109910428D01*
X71747023Y-110005666D01*
X71651785Y-110053285D01*
X71461309Y-110100904D01*
X71318452Y-110100904D01*
X71127976Y-110053285D01*
X71032738Y-110005666D01*
X70937500Y-109910428D01*
X70889880Y-109767571D01*
X70889880Y-109672333D01*
X70937500Y-109529476D01*
X70985119Y-109481857D01*
X71889880Y-108529476D02*
X71889880Y-109100904D01*
X71889880Y-108815190D02*
X70889880Y-108815190D01*
X71032738Y-108910428D01*
X71127976Y-109005666D01*
X71175595Y-109100904D01*
X71223214Y-107672333D02*
X71889880Y-107672333D01*
X70842261Y-107910428D02*
X71556547Y-108148523D01*
X71556547Y-107529476D01*
%TO.C,C15*%
X77319142Y-109354857D02*
X77366761Y-109402476D01*
X77414380Y-109545333D01*
X77414380Y-109640571D01*
X77366761Y-109783428D01*
X77271523Y-109878666D01*
X77176285Y-109926285D01*
X76985809Y-109973904D01*
X76842952Y-109973904D01*
X76652476Y-109926285D01*
X76557238Y-109878666D01*
X76462000Y-109783428D01*
X76414380Y-109640571D01*
X76414380Y-109545333D01*
X76462000Y-109402476D01*
X76509619Y-109354857D01*
X77414380Y-108402476D02*
X77414380Y-108973904D01*
X77414380Y-108688190D02*
X76414380Y-108688190D01*
X76557238Y-108783428D01*
X76652476Y-108878666D01*
X76700095Y-108973904D01*
X76414380Y-107497714D02*
X76414380Y-107973904D01*
X76890571Y-108021523D01*
X76842952Y-107973904D01*
X76795333Y-107878666D01*
X76795333Y-107640571D01*
X76842952Y-107545333D01*
X76890571Y-107497714D01*
X76985809Y-107450095D01*
X77223904Y-107450095D01*
X77319142Y-107497714D01*
X77366761Y-107545333D01*
X77414380Y-107640571D01*
X77414380Y-107878666D01*
X77366761Y-107973904D01*
X77319142Y-108021523D01*
%TO.C,C16*%
X54538642Y-133262642D02*
X54491023Y-133310261D01*
X54348166Y-133357880D01*
X54252928Y-133357880D01*
X54110071Y-133310261D01*
X54014833Y-133215023D01*
X53967214Y-133119785D01*
X53919595Y-132929309D01*
X53919595Y-132786452D01*
X53967214Y-132595976D01*
X54014833Y-132500738D01*
X54110071Y-132405500D01*
X54252928Y-132357880D01*
X54348166Y-132357880D01*
X54491023Y-132405500D01*
X54538642Y-132453119D01*
X55491023Y-133357880D02*
X54919595Y-133357880D01*
X55205309Y-133357880D02*
X55205309Y-132357880D01*
X55110071Y-132500738D01*
X55014833Y-132595976D01*
X54919595Y-132643595D01*
X56348166Y-132357880D02*
X56157690Y-132357880D01*
X56062452Y-132405500D01*
X56014833Y-132453119D01*
X55919595Y-132595976D01*
X55871976Y-132786452D01*
X55871976Y-133167404D01*
X55919595Y-133262642D01*
X55967214Y-133310261D01*
X56062452Y-133357880D01*
X56252928Y-133357880D01*
X56348166Y-133310261D01*
X56395785Y-133262642D01*
X56443404Y-133167404D01*
X56443404Y-132929309D01*
X56395785Y-132834071D01*
X56348166Y-132786452D01*
X56252928Y-132738833D01*
X56062452Y-132738833D01*
X55967214Y-132786452D01*
X55919595Y-132834071D01*
X55871976Y-132929309D01*
%TO.C,C3*%
X56919833Y-121896142D02*
X56872214Y-121943761D01*
X56729357Y-121991380D01*
X56634119Y-121991380D01*
X56491261Y-121943761D01*
X56396023Y-121848523D01*
X56348404Y-121753285D01*
X56300785Y-121562809D01*
X56300785Y-121419952D01*
X56348404Y-121229476D01*
X56396023Y-121134238D01*
X56491261Y-121039000D01*
X56634119Y-120991380D01*
X56729357Y-120991380D01*
X56872214Y-121039000D01*
X56919833Y-121086619D01*
X57253166Y-120991380D02*
X57872214Y-120991380D01*
X57538880Y-121372333D01*
X57681738Y-121372333D01*
X57776976Y-121419952D01*
X57824595Y-121467571D01*
X57872214Y-121562809D01*
X57872214Y-121800904D01*
X57824595Y-121896142D01*
X57776976Y-121943761D01*
X57681738Y-121991380D01*
X57396023Y-121991380D01*
X57300785Y-121943761D01*
X57253166Y-121896142D01*
%TO.C,U4*%
X71310595Y-117752880D02*
X71310595Y-118562404D01*
X71358214Y-118657642D01*
X71405833Y-118705261D01*
X71501071Y-118752880D01*
X71691547Y-118752880D01*
X71786785Y-118705261D01*
X71834404Y-118657642D01*
X71882023Y-118562404D01*
X71882023Y-117752880D01*
X72786785Y-118086214D02*
X72786785Y-118752880D01*
X72548690Y-117705261D02*
X72310595Y-118419547D01*
X72929642Y-118419547D01*
%TO.C,U2*%
X52451095Y-123975880D02*
X52451095Y-124785404D01*
X52498714Y-124880642D01*
X52546333Y-124928261D01*
X52641571Y-124975880D01*
X52832047Y-124975880D01*
X52927285Y-124928261D01*
X52974904Y-124880642D01*
X53022523Y-124785404D01*
X53022523Y-123975880D01*
X53451095Y-124071119D02*
X53498714Y-124023500D01*
X53593952Y-123975880D01*
X53832047Y-123975880D01*
X53927285Y-124023500D01*
X53974904Y-124071119D01*
X54022523Y-124166357D01*
X54022523Y-124261595D01*
X53974904Y-124404452D01*
X53403476Y-124975880D01*
X54022523Y-124975880D01*
%TO.C,J7*%
X92877880Y-116411333D02*
X93592166Y-116411333D01*
X93735023Y-116458952D01*
X93830261Y-116554190D01*
X93877880Y-116697047D01*
X93877880Y-116792285D01*
X92877880Y-116030380D02*
X92877880Y-115363714D01*
X93877880Y-115792285D01*
%TO.C,SW1*%
X79692666Y-103084261D02*
X79835523Y-103131880D01*
X80073619Y-103131880D01*
X80168857Y-103084261D01*
X80216476Y-103036642D01*
X80264095Y-102941404D01*
X80264095Y-102846166D01*
X80216476Y-102750928D01*
X80168857Y-102703309D01*
X80073619Y-102655690D01*
X79883142Y-102608071D01*
X79787904Y-102560452D01*
X79740285Y-102512833D01*
X79692666Y-102417595D01*
X79692666Y-102322357D01*
X79740285Y-102227119D01*
X79787904Y-102179500D01*
X79883142Y-102131880D01*
X80121238Y-102131880D01*
X80264095Y-102179500D01*
X80597428Y-102131880D02*
X80835523Y-103131880D01*
X81026000Y-102417595D01*
X81216476Y-103131880D01*
X81454571Y-102131880D01*
X82359333Y-103131880D02*
X81787904Y-103131880D01*
X82073619Y-103131880D02*
X82073619Y-102131880D01*
X81978380Y-102274738D01*
X81883142Y-102369976D01*
X81787904Y-102417595D01*
%TO.C,J1*%
X93710166Y-122388380D02*
X93710166Y-123102666D01*
X93662547Y-123245523D01*
X93567309Y-123340761D01*
X93424452Y-123388380D01*
X93329214Y-123388380D01*
X94710166Y-123388380D02*
X94138738Y-123388380D01*
X94424452Y-123388380D02*
X94424452Y-122388380D01*
X94329214Y-122531238D01*
X94233976Y-122626476D01*
X94138738Y-122674095D01*
%TO.C,J3*%
X50911166Y-133564380D02*
X50911166Y-134278666D01*
X50863547Y-134421523D01*
X50768309Y-134516761D01*
X50625452Y-134564380D01*
X50530214Y-134564380D01*
X51292119Y-133564380D02*
X51911166Y-133564380D01*
X51577833Y-133945333D01*
X51720690Y-133945333D01*
X51815928Y-133992952D01*
X51863547Y-134040571D01*
X51911166Y-134135809D01*
X51911166Y-134373904D01*
X51863547Y-134469142D01*
X51815928Y-134516761D01*
X51720690Y-134564380D01*
X51434976Y-134564380D01*
X51339738Y-134516761D01*
X51292119Y-134469142D01*
%TO.C,Q1*%
X77882761Y-126785619D02*
X77787523Y-126738000D01*
X77692285Y-126642761D01*
X77549428Y-126499904D01*
X77454190Y-126452285D01*
X77358952Y-126452285D01*
X77406571Y-126690380D02*
X77311333Y-126642761D01*
X77216095Y-126547523D01*
X77168476Y-126357047D01*
X77168476Y-126023714D01*
X77216095Y-125833238D01*
X77311333Y-125738000D01*
X77406571Y-125690380D01*
X77597047Y-125690380D01*
X77692285Y-125738000D01*
X77787523Y-125833238D01*
X77835142Y-126023714D01*
X77835142Y-126357047D01*
X77787523Y-126547523D01*
X77692285Y-126642761D01*
X77597047Y-126690380D01*
X77406571Y-126690380D01*
X78787523Y-126690380D02*
X78216095Y-126690380D01*
X78501809Y-126690380D02*
X78501809Y-125690380D01*
X78406571Y-125833238D01*
X78311333Y-125928476D01*
X78216095Y-125976095D01*
%TO.C,U3*%
X49212595Y-112482380D02*
X49212595Y-113291904D01*
X49260214Y-113387142D01*
X49307833Y-113434761D01*
X49403071Y-113482380D01*
X49593547Y-113482380D01*
X49688785Y-113434761D01*
X49736404Y-113387142D01*
X49784023Y-113291904D01*
X49784023Y-112482380D01*
X50164976Y-112482380D02*
X50784023Y-112482380D01*
X50450690Y-112863333D01*
X50593547Y-112863333D01*
X50688785Y-112910952D01*
X50736404Y-112958571D01*
X50784023Y-113053809D01*
X50784023Y-113291904D01*
X50736404Y-113387142D01*
X50688785Y-113434761D01*
X50593547Y-113482380D01*
X50307833Y-113482380D01*
X50212595Y-113434761D01*
X50164976Y-113387142D01*
%TO.C,U5*%
X101600095Y-74128380D02*
X101600095Y-74937904D01*
X101647714Y-75033142D01*
X101695333Y-75080761D01*
X101790571Y-75128380D01*
X101981047Y-75128380D01*
X102076285Y-75080761D01*
X102123904Y-75033142D01*
X102171523Y-74937904D01*
X102171523Y-74128380D01*
X103123904Y-74128380D02*
X102647714Y-74128380D01*
X102600095Y-74604571D01*
X102647714Y-74556952D01*
X102742952Y-74509333D01*
X102981047Y-74509333D01*
X103076285Y-74556952D01*
X103123904Y-74604571D01*
X103171523Y-74699809D01*
X103171523Y-74937904D01*
X103123904Y-75033142D01*
X103076285Y-75080761D01*
X102981047Y-75128380D01*
X102742952Y-75128380D01*
X102647714Y-75080761D01*
X102600095Y-75033142D01*
%TO.C,Y1*%
X80829209Y-121604090D02*
X80829209Y-122080280D01*
X80495876Y-121080280D02*
X80829209Y-121604090D01*
X81162542Y-121080280D01*
X82019685Y-122080280D02*
X81448257Y-122080280D01*
X81733971Y-122080280D02*
X81733971Y-121080280D01*
X81638733Y-121223138D01*
X81543495Y-121318376D01*
X81448257Y-121365995D01*
%TO.C,U1*%
X95034195Y-90905080D02*
X95034195Y-91714604D01*
X95081814Y-91809842D01*
X95129433Y-91857461D01*
X95224671Y-91905080D01*
X95415147Y-91905080D01*
X95510385Y-91857461D01*
X95558004Y-91809842D01*
X95605623Y-91714604D01*
X95605623Y-90905080D01*
X96605623Y-91905080D02*
X96034195Y-91905080D01*
X96319909Y-91905080D02*
X96319909Y-90905080D01*
X96224671Y-91047938D01*
X96129433Y-91143176D01*
X96034195Y-91190795D01*
%TO.C,J6*%
X51012766Y-73912480D02*
X51012766Y-74626766D01*
X50965147Y-74769623D01*
X50869909Y-74864861D01*
X50727052Y-74912480D01*
X50631814Y-74912480D01*
X51917528Y-73912480D02*
X51727052Y-73912480D01*
X51631814Y-73960100D01*
X51584195Y-74007719D01*
X51488957Y-74150576D01*
X51441338Y-74341052D01*
X51441338Y-74722004D01*
X51488957Y-74817242D01*
X51536576Y-74864861D01*
X51631814Y-74912480D01*
X51822290Y-74912480D01*
X51917528Y-74864861D01*
X51965147Y-74817242D01*
X52012766Y-74722004D01*
X52012766Y-74483909D01*
X51965147Y-74388671D01*
X51917528Y-74341052D01*
X51822290Y-74293433D01*
X51631814Y-74293433D01*
X51536576Y-74341052D01*
X51488957Y-74388671D01*
X51441338Y-74483909D01*
%TO.C,U6*%
X52832095Y-101814380D02*
X52832095Y-102623904D01*
X52879714Y-102719142D01*
X52927333Y-102766761D01*
X53022571Y-102814380D01*
X53213047Y-102814380D01*
X53308285Y-102766761D01*
X53355904Y-102719142D01*
X53403523Y-102623904D01*
X53403523Y-101814380D01*
X54308285Y-101814380D02*
X54117809Y-101814380D01*
X54022571Y-101862000D01*
X53974952Y-101909619D01*
X53879714Y-102052476D01*
X53832095Y-102242952D01*
X53832095Y-102623904D01*
X53879714Y-102719142D01*
X53927333Y-102766761D01*
X54022571Y-102814380D01*
X54213047Y-102814380D01*
X54308285Y-102766761D01*
X54355904Y-102719142D01*
X54403523Y-102623904D01*
X54403523Y-102385809D01*
X54355904Y-102290571D01*
X54308285Y-102242952D01*
X54213047Y-102195333D01*
X54022571Y-102195333D01*
X53927333Y-102242952D01*
X53879714Y-102290571D01*
X53832095Y-102385809D01*
X89555652Y-97605838D02*
X89508033Y-97701076D01*
X89460414Y-97748695D01*
X89365176Y-97796314D01*
X89317557Y-97796314D01*
X89222319Y-97748695D01*
X89174700Y-97701076D01*
X89127080Y-97605838D01*
X89127080Y-97415361D01*
X89174700Y-97320123D01*
X89222319Y-97272504D01*
X89317557Y-97224885D01*
X89365176Y-97224885D01*
X89460414Y-97272504D01*
X89508033Y-97320123D01*
X89555652Y-97415361D01*
X89555652Y-97605838D01*
X89603271Y-97701076D01*
X89650890Y-97748695D01*
X89746128Y-97796314D01*
X89936604Y-97796314D01*
X90031842Y-97748695D01*
X90079461Y-97701076D01*
X90127080Y-97605838D01*
X90127080Y-97415361D01*
X90079461Y-97320123D01*
X90031842Y-97272504D01*
X89936604Y-97224885D01*
X89746128Y-97224885D01*
X89650890Y-97272504D01*
X89603271Y-97320123D01*
X89555652Y-97415361D01*
X89127080Y-91493933D02*
X89127080Y-90827266D01*
X90127080Y-91255838D01*
X89127080Y-84620123D02*
X89127080Y-84810600D01*
X89174700Y-84905838D01*
X89222319Y-84953457D01*
X89365176Y-85048695D01*
X89555652Y-85096314D01*
X89936604Y-85096314D01*
X90031842Y-85048695D01*
X90079461Y-85001076D01*
X90127080Y-84905838D01*
X90127080Y-84715361D01*
X90079461Y-84620123D01*
X90031842Y-84572504D01*
X89936604Y-84524885D01*
X89698509Y-84524885D01*
X89603271Y-84572504D01*
X89555652Y-84620123D01*
X89508033Y-84715361D01*
X89508033Y-84905838D01*
X89555652Y-85001076D01*
X89603271Y-85048695D01*
X89698509Y-85096314D01*
X89127080Y-78222504D02*
X89127080Y-78698695D01*
X89603271Y-78746314D01*
X89555652Y-78698695D01*
X89508033Y-78603457D01*
X89508033Y-78365361D01*
X89555652Y-78270123D01*
X89603271Y-78222504D01*
X89698509Y-78174885D01*
X89936604Y-78174885D01*
X90031842Y-78222504D01*
X90079461Y-78270123D01*
X90127080Y-78365361D01*
X90127080Y-78603457D01*
X90079461Y-78698695D01*
X90031842Y-78746314D01*
X53940414Y-97320123D02*
X54607080Y-97320123D01*
X53559461Y-97558219D02*
X54273747Y-97796314D01*
X54273747Y-97177266D01*
X53607080Y-91493933D02*
X53607080Y-90874885D01*
X53988033Y-91208219D01*
X53988033Y-91065361D01*
X54035652Y-90970123D01*
X54083271Y-90922504D01*
X54178509Y-90874885D01*
X54416604Y-90874885D01*
X54511842Y-90922504D01*
X54559461Y-90970123D01*
X54607080Y-91065361D01*
X54607080Y-91351076D01*
X54559461Y-91446314D01*
X54511842Y-91493933D01*
X53662319Y-85096314D02*
X53614700Y-85048695D01*
X53567080Y-84953457D01*
X53567080Y-84715361D01*
X53614700Y-84620123D01*
X53662319Y-84572504D01*
X53757557Y-84524885D01*
X53852795Y-84524885D01*
X53995652Y-84572504D01*
X54567080Y-85143933D01*
X54567080Y-84524885D01*
X54607080Y-78174885D02*
X54607080Y-78746314D01*
X54607080Y-78460600D02*
X53607080Y-78460600D01*
X53749938Y-78555838D01*
X53845176Y-78651076D01*
X53892795Y-78746314D01*
%TO.C,U7*%
X62166595Y-130325880D02*
X62166595Y-131135404D01*
X62214214Y-131230642D01*
X62261833Y-131278261D01*
X62357071Y-131325880D01*
X62547547Y-131325880D01*
X62642785Y-131278261D01*
X62690404Y-131230642D01*
X62738023Y-131135404D01*
X62738023Y-130325880D01*
X63118976Y-130325880D02*
X63785642Y-130325880D01*
X63357071Y-131325880D01*
%TO.C,J4*%
X48879166Y-97496380D02*
X48879166Y-98210666D01*
X48831547Y-98353523D01*
X48736309Y-98448761D01*
X48593452Y-98496380D01*
X48498214Y-98496380D01*
X49783928Y-97829714D02*
X49783928Y-98496380D01*
X49545833Y-97448761D02*
X49307738Y-98163047D01*
X49926785Y-98163047D01*
%TO.C,J5*%
X40116166Y-86891880D02*
X40116166Y-87606166D01*
X40068547Y-87749023D01*
X39973309Y-87844261D01*
X39830452Y-87891880D01*
X39735214Y-87891880D01*
X41068547Y-86891880D02*
X40592357Y-86891880D01*
X40544738Y-87368071D01*
X40592357Y-87320452D01*
X40687595Y-87272833D01*
X40925690Y-87272833D01*
X41020928Y-87320452D01*
X41068547Y-87368071D01*
X41116166Y-87463309D01*
X41116166Y-87701404D01*
X41068547Y-87796642D01*
X41020928Y-87844261D01*
X40925690Y-87891880D01*
X40687595Y-87891880D01*
X40592357Y-87844261D01*
X40544738Y-87796642D01*
%TO.C,D1*%
X93314780Y-104370095D02*
X92314780Y-104370095D01*
X92314780Y-104132000D01*
X92362400Y-103989142D01*
X92457638Y-103893904D01*
X92552876Y-103846285D01*
X92743352Y-103798666D01*
X92886209Y-103798666D01*
X93076685Y-103846285D01*
X93171923Y-103893904D01*
X93267161Y-103989142D01*
X93314780Y-104132000D01*
X93314780Y-104370095D01*
X93314780Y-102846285D02*
X93314780Y-103417714D01*
X93314780Y-103132000D02*
X92314780Y-103132000D01*
X92457638Y-103227238D01*
X92552876Y-103322476D01*
X92600495Y-103417714D01*
%TO.C,D2*%
X67994304Y-128061980D02*
X67994304Y-127061980D01*
X68232400Y-127061980D01*
X68375257Y-127109600D01*
X68470495Y-127204838D01*
X68518114Y-127300076D01*
X68565733Y-127490552D01*
X68565733Y-127633409D01*
X68518114Y-127823885D01*
X68470495Y-127919123D01*
X68375257Y-128014361D01*
X68232400Y-128061980D01*
X67994304Y-128061980D01*
X68946685Y-127157219D02*
X68994304Y-127109600D01*
X69089542Y-127061980D01*
X69327638Y-127061980D01*
X69422876Y-127109600D01*
X69470495Y-127157219D01*
X69518114Y-127252457D01*
X69518114Y-127347695D01*
X69470495Y-127490552D01*
X68899066Y-128061980D01*
X69518114Y-128061980D01*
%TO.C,FB1*%
X73398166Y-108195071D02*
X73064833Y-108195071D01*
X73064833Y-108718880D02*
X73064833Y-107718880D01*
X73541023Y-107718880D01*
X74255309Y-108195071D02*
X74398166Y-108242690D01*
X74445785Y-108290309D01*
X74493404Y-108385547D01*
X74493404Y-108528404D01*
X74445785Y-108623642D01*
X74398166Y-108671261D01*
X74302928Y-108718880D01*
X73921976Y-108718880D01*
X73921976Y-107718880D01*
X74255309Y-107718880D01*
X74350547Y-107766500D01*
X74398166Y-107814119D01*
X74445785Y-107909357D01*
X74445785Y-108004595D01*
X74398166Y-108099833D01*
X74350547Y-108147452D01*
X74255309Y-108195071D01*
X73921976Y-108195071D01*
X75445785Y-108718880D02*
X74874357Y-108718880D01*
X75160071Y-108718880D02*
X75160071Y-107718880D01*
X75064833Y-107861738D01*
X74969595Y-107956976D01*
X74874357Y-108004595D01*
%TO.C,R1*%
X74699833Y-130245380D02*
X74366500Y-129769190D01*
X74128404Y-130245380D02*
X74128404Y-129245380D01*
X74509357Y-129245380D01*
X74604595Y-129293000D01*
X74652214Y-129340619D01*
X74699833Y-129435857D01*
X74699833Y-129578714D01*
X74652214Y-129673952D01*
X74604595Y-129721571D01*
X74509357Y-129769190D01*
X74128404Y-129769190D01*
X75652214Y-130245380D02*
X75080785Y-130245380D01*
X75366500Y-130245380D02*
X75366500Y-129245380D01*
X75271261Y-129388238D01*
X75176023Y-129483476D01*
X75080785Y-129531095D01*
%TO.C,R2*%
X90701833Y-134055380D02*
X90368500Y-133579190D01*
X90130404Y-134055380D02*
X90130404Y-133055380D01*
X90511357Y-133055380D01*
X90606595Y-133103000D01*
X90654214Y-133150619D01*
X90701833Y-133245857D01*
X90701833Y-133388714D01*
X90654214Y-133483952D01*
X90606595Y-133531571D01*
X90511357Y-133579190D01*
X90130404Y-133579190D01*
X91082785Y-133150619D02*
X91130404Y-133103000D01*
X91225642Y-133055380D01*
X91463738Y-133055380D01*
X91558976Y-133103000D01*
X91606595Y-133150619D01*
X91654214Y-133245857D01*
X91654214Y-133341095D01*
X91606595Y-133483952D01*
X91035166Y-134055380D01*
X91654214Y-134055380D01*
%TO.C,R3*%
X51467280Y-103239866D02*
X50991090Y-103573200D01*
X51467280Y-103811295D02*
X50467280Y-103811295D01*
X50467280Y-103430342D01*
X50514900Y-103335104D01*
X50562519Y-103287485D01*
X50657757Y-103239866D01*
X50800614Y-103239866D01*
X50895852Y-103287485D01*
X50943471Y-103335104D01*
X50991090Y-103430342D01*
X50991090Y-103811295D01*
X50467280Y-102906533D02*
X50467280Y-102287485D01*
X50848233Y-102620819D01*
X50848233Y-102477961D01*
X50895852Y-102382723D01*
X50943471Y-102335104D01*
X51038709Y-102287485D01*
X51276804Y-102287485D01*
X51372042Y-102335104D01*
X51419661Y-102382723D01*
X51467280Y-102477961D01*
X51467280Y-102763676D01*
X51419661Y-102858914D01*
X51372042Y-102906533D01*
%TO.C,R6*%
X63495180Y-124702866D02*
X63018990Y-125036200D01*
X63495180Y-125274295D02*
X62495180Y-125274295D01*
X62495180Y-124893342D01*
X62542800Y-124798104D01*
X62590419Y-124750485D01*
X62685657Y-124702866D01*
X62828514Y-124702866D01*
X62923752Y-124750485D01*
X62971371Y-124798104D01*
X63018990Y-124893342D01*
X63018990Y-125274295D01*
X62495180Y-123845723D02*
X62495180Y-124036200D01*
X62542800Y-124131438D01*
X62590419Y-124179057D01*
X62733276Y-124274295D01*
X62923752Y-124321914D01*
X63304704Y-124321914D01*
X63399942Y-124274295D01*
X63447561Y-124226676D01*
X63495180Y-124131438D01*
X63495180Y-123940961D01*
X63447561Y-123845723D01*
X63399942Y-123798104D01*
X63304704Y-123750485D01*
X63066609Y-123750485D01*
X62971371Y-123798104D01*
X62923752Y-123845723D01*
X62876133Y-123940961D01*
X62876133Y-124131438D01*
X62923752Y-124226676D01*
X62971371Y-124274295D01*
X63066609Y-124321914D01*
%TO.C,R7*%
X87396580Y-103189066D02*
X86920390Y-103522400D01*
X87396580Y-103760495D02*
X86396580Y-103760495D01*
X86396580Y-103379542D01*
X86444200Y-103284304D01*
X86491819Y-103236685D01*
X86587057Y-103189066D01*
X86729914Y-103189066D01*
X86825152Y-103236685D01*
X86872771Y-103284304D01*
X86920390Y-103379542D01*
X86920390Y-103760495D01*
X86396580Y-102855733D02*
X86396580Y-102189066D01*
X87396580Y-102617638D01*
%TO.C,R8*%
X66263780Y-125693466D02*
X65787590Y-126026800D01*
X66263780Y-126264895D02*
X65263780Y-126264895D01*
X65263780Y-125883942D01*
X65311400Y-125788704D01*
X65359019Y-125741085D01*
X65454257Y-125693466D01*
X65597114Y-125693466D01*
X65692352Y-125741085D01*
X65739971Y-125788704D01*
X65787590Y-125883942D01*
X65787590Y-126264895D01*
X65692352Y-125122038D02*
X65644733Y-125217276D01*
X65597114Y-125264895D01*
X65501876Y-125312514D01*
X65454257Y-125312514D01*
X65359019Y-125264895D01*
X65311400Y-125217276D01*
X65263780Y-125122038D01*
X65263780Y-124931561D01*
X65311400Y-124836323D01*
X65359019Y-124788704D01*
X65454257Y-124741085D01*
X65501876Y-124741085D01*
X65597114Y-124788704D01*
X65644733Y-124836323D01*
X65692352Y-124931561D01*
X65692352Y-125122038D01*
X65739971Y-125217276D01*
X65787590Y-125264895D01*
X65882828Y-125312514D01*
X66073304Y-125312514D01*
X66168542Y-125264895D01*
X66216161Y-125217276D01*
X66263780Y-125122038D01*
X66263780Y-124931561D01*
X66216161Y-124836323D01*
X66168542Y-124788704D01*
X66073304Y-124741085D01*
X65882828Y-124741085D01*
X65787590Y-124788704D01*
X65739971Y-124836323D01*
X65692352Y-124931561D01*
%TO.C,R9*%
X71588333Y-131376680D02*
X71255000Y-130900490D01*
X71016904Y-131376680D02*
X71016904Y-130376680D01*
X71397857Y-130376680D01*
X71493095Y-130424300D01*
X71540714Y-130471919D01*
X71588333Y-130567157D01*
X71588333Y-130710014D01*
X71540714Y-130805252D01*
X71493095Y-130852871D01*
X71397857Y-130900490D01*
X71016904Y-130900490D01*
X72064523Y-131376680D02*
X72255000Y-131376680D01*
X72350238Y-131329061D01*
X72397857Y-131281442D01*
X72493095Y-131138585D01*
X72540714Y-130948109D01*
X72540714Y-130567157D01*
X72493095Y-130471919D01*
X72445476Y-130424300D01*
X72350238Y-130376680D01*
X72159761Y-130376680D01*
X72064523Y-130424300D01*
X72016904Y-130471919D01*
X71969285Y-130567157D01*
X71969285Y-130805252D01*
X72016904Y-130900490D01*
X72064523Y-130948109D01*
X72159761Y-130995728D01*
X72350238Y-130995728D01*
X72445476Y-130948109D01*
X72493095Y-130900490D01*
X72540714Y-130805252D01*
%TO.C,U8*%
X100406295Y-109739180D02*
X100406295Y-110548704D01*
X100453914Y-110643942D01*
X100501533Y-110691561D01*
X100596771Y-110739180D01*
X100787247Y-110739180D01*
X100882485Y-110691561D01*
X100930104Y-110643942D01*
X100977723Y-110548704D01*
X100977723Y-109739180D01*
X101596771Y-110167752D02*
X101501533Y-110120133D01*
X101453914Y-110072514D01*
X101406295Y-109977276D01*
X101406295Y-109929657D01*
X101453914Y-109834419D01*
X101501533Y-109786800D01*
X101596771Y-109739180D01*
X101787247Y-109739180D01*
X101882485Y-109786800D01*
X101930104Y-109834419D01*
X101977723Y-109929657D01*
X101977723Y-109977276D01*
X101930104Y-110072514D01*
X101882485Y-110120133D01*
X101787247Y-110167752D01*
X101596771Y-110167752D01*
X101501533Y-110215371D01*
X101453914Y-110262990D01*
X101406295Y-110358228D01*
X101406295Y-110548704D01*
X101453914Y-110643942D01*
X101501533Y-110691561D01*
X101596771Y-110739180D01*
X101787247Y-110739180D01*
X101882485Y-110691561D01*
X101930104Y-110643942D01*
X101977723Y-110548704D01*
X101977723Y-110358228D01*
X101930104Y-110262990D01*
X101882485Y-110215371D01*
X101787247Y-110167752D01*
%TO.C,C10*%
X92994242Y-80748142D02*
X92946623Y-80795761D01*
X92803766Y-80843380D01*
X92708528Y-80843380D01*
X92565671Y-80795761D01*
X92470433Y-80700523D01*
X92422814Y-80605285D01*
X92375195Y-80414809D01*
X92375195Y-80271952D01*
X92422814Y-80081476D01*
X92470433Y-79986238D01*
X92565671Y-79891000D01*
X92708528Y-79843380D01*
X92803766Y-79843380D01*
X92946623Y-79891000D01*
X92994242Y-79938619D01*
X93946623Y-80843380D02*
X93375195Y-80843380D01*
X93660909Y-80843380D02*
X93660909Y-79843380D01*
X93565671Y-79986238D01*
X93470433Y-80081476D01*
X93375195Y-80129095D01*
X94565671Y-79843380D02*
X94660909Y-79843380D01*
X94756147Y-79891000D01*
X94803766Y-79938619D01*
X94851385Y-80033857D01*
X94899004Y-80224333D01*
X94899004Y-80462428D01*
X94851385Y-80652904D01*
X94803766Y-80748142D01*
X94756147Y-80795761D01*
X94660909Y-80843380D01*
X94565671Y-80843380D01*
X94470433Y-80795761D01*
X94422814Y-80748142D01*
X94375195Y-80652904D01*
X94327576Y-80462428D01*
X94327576Y-80224333D01*
X94375195Y-80033857D01*
X94422814Y-79938619D01*
X94470433Y-79891000D01*
X94565671Y-79843380D01*
%TD*%
M02*
