%TF.GenerationSoftware,KiCad,Pcbnew,5.1.12-84ad8e8a86~92~ubuntu20.04.1*%
%TF.CreationDate,2021-12-25T01:33:58-06:00*%
%TF.ProjectId,Solder_Reflow_Oven_2.0,536f6c64-6572-45f5-9265-666c6f775f4f,rev?*%
%TF.SameCoordinates,Original*%
%TF.FileFunction,Copper,L2,Bot*%
%TF.FilePolarity,Positive*%
%FSLAX46Y46*%
G04 Gerber Fmt 4.6, Leading zero omitted, Abs format (unit mm)*
G04 Created by KiCad (PCBNEW 5.1.12-84ad8e8a86~92~ubuntu20.04.1) date 2021-12-25 01:33:58*
%MOMM*%
%LPD*%
G01*
G04 APERTURE LIST*
%TA.AperFunction,ComponentPad*%
%ADD10R,1.600000X1.600000*%
%TD*%
%TA.AperFunction,ComponentPad*%
%ADD11C,1.600000*%
%TD*%
%TA.AperFunction,ComponentPad*%
%ADD12C,4.000000*%
%TD*%
%TA.AperFunction,ComponentPad*%
%ADD13C,2.600000*%
%TD*%
%TA.AperFunction,ComponentPad*%
%ADD14R,2.600000X2.600000*%
%TD*%
%TA.AperFunction,ComponentPad*%
%ADD15R,2.000000X2.000000*%
%TD*%
%TA.AperFunction,ComponentPad*%
%ADD16C,2.000000*%
%TD*%
%TA.AperFunction,ComponentPad*%
%ADD17C,1.524000*%
%TD*%
%TA.AperFunction,ComponentPad*%
%ADD18R,1.700000X1.700000*%
%TD*%
%TA.AperFunction,ComponentPad*%
%ADD19O,1.700000X1.700000*%
%TD*%
%TA.AperFunction,ViaPad*%
%ADD20C,0.800000*%
%TD*%
%TA.AperFunction,Conductor*%
%ADD21C,0.250000*%
%TD*%
%TA.AperFunction,Conductor*%
%ADD22C,0.254000*%
%TD*%
%TA.AperFunction,Conductor*%
%ADD23C,0.100000*%
%TD*%
G04 APERTURE END LIST*
D10*
%TO.P,J2,1*%
%TO.N,VDD_5*%
X46494700Y-116382800D03*
D11*
%TO.P,J2,2*%
%TO.N,USB_CONN-*%
X46494700Y-113882800D03*
%TO.P,J2,3*%
%TO.N,USB_CONN+*%
X44494700Y-113882800D03*
%TO.P,J2,4*%
%TO.N,VSS*%
X44494700Y-116382800D03*
D12*
%TO.P,J2,5*%
%TO.N,Net-(J2-Pad5)*%
X41634700Y-109132800D03*
X41634700Y-121132800D03*
%TD*%
D13*
%TO.P,J1,2*%
%TO.N,VDD_10*%
X98933000Y-126762500D03*
D14*
%TO.P,J1,1*%
%TO.N,Net-(J1-Pad1)*%
X98933000Y-131762500D03*
%TD*%
%TO.P,J3,1*%
%TO.N,/T-*%
X44577000Y-126784100D03*
D13*
%TO.P,J3,2*%
%TO.N,/T+*%
X44577000Y-131784100D03*
%TD*%
D14*
%TO.P,J6,1*%
%TO.N,Net-(J6-Pad1)*%
X44538900Y-76720700D03*
D13*
%TO.P,J6,2*%
%TO.N,Net-(J6-Pad2)*%
X44538900Y-81720700D03*
%TD*%
D15*
%TO.P,U6,1*%
%TO.N,Net-(J6-Pad1)*%
X56654700Y-78460600D03*
D16*
%TO.P,U6,4*%
%TO.N,Net-(J6-Pad2)*%
X56654700Y-97510600D03*
%TO.P,U6,5*%
%TO.N,Net-(U5-Pad3)*%
X87134700Y-78460600D03*
%TO.P,U6,6*%
%TO.N,Net-(U5-Pad4)*%
X87134700Y-84810600D03*
%TO.P,U6,7*%
%TO.N,Net-(U6-Pad7)*%
X87134700Y-91160600D03*
%TO.P,U6,8*%
%TO.N,Net-(U6-Pad8)*%
X87134700Y-97510600D03*
%TD*%
D17*
%TO.P,U7,1*%
%TO.N,VDD_3.3*%
X63944500Y-132842000D03*
%TO.P,U7,2*%
%TO.N,Net-(D2-Pad2)*%
X66484500Y-132842000D03*
%TO.P,U7,3*%
%TO.N,VSS*%
X68961000Y-132842000D03*
%TD*%
D18*
%TO.P,J4,1*%
%TO.N,SPI1_MOSI*%
X41465500Y-101727000D03*
D19*
%TO.P,J4,2*%
%TO.N,VDD_3.3*%
X41465500Y-99187000D03*
%TO.P,J4,3*%
%TO.N,SPI1_MISO*%
X44005500Y-101727000D03*
%TO.P,J4,4*%
%TO.N,SPI_NSS*%
X44005500Y-99187000D03*
%TO.P,J4,5*%
%TO.N,SPI1_SCK*%
X46545500Y-101727000D03*
%TO.P,J4,6*%
%TO.N,VSS*%
X46545500Y-99187000D03*
%TD*%
D18*
%TO.P,J5,1*%
%TO.N,VDD_3.3*%
X41465500Y-92646500D03*
D19*
%TO.P,J5,2*%
%TO.N,VSS*%
X41465500Y-90106500D03*
%TD*%
D15*
%TO.P,C10,1*%
%TO.N,Net-(C10-Pad1)*%
X94691200Y-85140800D03*
D16*
%TO.P,C10,2*%
%TO.N,VSS*%
X102191200Y-85140800D03*
%TD*%
D20*
%TO.N,VSS*%
X98552000Y-75184000D03*
X93218000Y-119570500D03*
X93218000Y-118173500D03*
X93281500Y-116713000D03*
X93281500Y-115316000D03*
X54546500Y-116522500D03*
X55943500Y-116522500D03*
X58356500Y-130365500D03*
X64452500Y-106553000D03*
X64452500Y-104394000D03*
X73088500Y-111887000D03*
X79883000Y-115697000D03*
X76073000Y-123507500D03*
X76390500Y-113093500D03*
X76644500Y-110617000D03*
X83502500Y-106045000D03*
X83502500Y-111125000D03*
X70421500Y-104394000D03*
X70421500Y-106489500D03*
X69659500Y-124142500D03*
X71818500Y-124142500D03*
X51752500Y-113220500D03*
X49403000Y-119380000D03*
X64401700Y-126822200D03*
X71767700Y-126085600D03*
X49364900Y-105384600D03*
X76631800Y-132689600D03*
X97751900Y-95808800D03*
X94145100Y-100761800D03*
X87020400Y-104597200D03*
X93205300Y-111101000D03*
X93103700Y-113068100D03*
X93179900Y-120561100D03*
X93230700Y-121373900D03*
X102768400Y-110172500D03*
%TO.N,LEDA*%
X66611500Y-114808000D03*
X86741000Y-110299500D03*
%TO.N,LEDK*%
X65722500Y-113982500D03*
X86868000Y-111506000D03*
%TO.N,DC*%
X62103000Y-110617000D03*
X88773000Y-114681000D03*
%TO.N,TE*%
X63064526Y-110891721D03*
X88265000Y-121158000D03*
%TO.N,~RES*%
X65015392Y-113275392D03*
X87883290Y-113128006D03*
%TO.N,~CS*%
X64389000Y-112458500D03*
X87407795Y-114331795D03*
%TO.N,RS*%
X63754000Y-111633000D03*
X88201500Y-116205000D03*
%TO.N,SDA*%
X61087000Y-110553500D03*
X89725500Y-117284500D03*
%TD*%
D21*
%TO.N,LEDA*%
X71592802Y-127977430D02*
X84238160Y-127977430D01*
X63119000Y-119503628D02*
X71592802Y-127977430D01*
X63119000Y-117602000D02*
X63119000Y-119503628D01*
X65913000Y-114808000D02*
X63119000Y-117602000D01*
X66611500Y-114808000D02*
X65913000Y-114808000D01*
X84238160Y-127977430D02*
X84676545Y-127539045D01*
X85575960Y-111464540D02*
X86741000Y-110299500D01*
X85575960Y-126639630D02*
X85575960Y-111464540D01*
X84676545Y-127539045D02*
X85575960Y-126639630D01*
%TO.N,LEDK*%
X71406402Y-128427440D02*
X84424560Y-128427440D01*
X62580560Y-119601598D02*
X71406402Y-128427440D01*
X62580560Y-117124440D02*
X62580560Y-119601598D01*
X65722500Y-113982500D02*
X62580560Y-117124440D01*
X84899500Y-127952500D02*
X85725000Y-127127000D01*
X84424560Y-128427440D02*
X84899500Y-127952500D01*
X85725000Y-127127000D02*
X86025970Y-126826030D01*
X86868000Y-113070294D02*
X86868000Y-111506000D01*
X86025970Y-113912324D02*
X86868000Y-113070294D01*
X86025970Y-126826030D02*
X86025970Y-113912324D01*
%TO.N,DC*%
X70474402Y-130677490D02*
X85411600Y-130677490D01*
X61400400Y-121723990D02*
X61520903Y-121723991D01*
X61520903Y-121723991D02*
X70474402Y-130677490D01*
X60330510Y-120654100D02*
X61400400Y-121723990D01*
X60330510Y-112389490D02*
X60330510Y-120654100D01*
X62103000Y-110617000D02*
X60330510Y-112389490D01*
X88101002Y-127988088D02*
X88518295Y-127570795D01*
X87946795Y-128142295D02*
X88101002Y-127988088D01*
X85411600Y-130677490D02*
X87946795Y-128142295D01*
X88772295Y-127316795D02*
X87946795Y-128142295D01*
X89000499Y-127088591D02*
X88772295Y-127316795D01*
X89000499Y-114908499D02*
X89000499Y-127088591D01*
X88773000Y-114681000D02*
X89000499Y-114908499D01*
%TO.N,TE*%
X63064526Y-110891721D02*
X60780520Y-113175727D01*
X60780520Y-113175727D02*
X60780520Y-120347198D01*
X60780520Y-120347198D02*
X70660802Y-130227480D01*
X70660802Y-130227480D02*
X85225200Y-130227480D01*
X86644340Y-128808340D02*
X87947500Y-127505180D01*
X85225200Y-130227480D02*
X86644340Y-128808340D01*
X87947500Y-121475500D02*
X88265000Y-121158000D01*
X87947500Y-127505180D02*
X87947500Y-121475500D01*
%TO.N,~RES*%
X71220002Y-128877450D02*
X84666000Y-128877450D01*
X62130550Y-119787998D02*
X71220002Y-128877450D01*
X62130550Y-116160234D02*
X62130550Y-119787998D01*
X65015392Y-113275392D02*
X62130550Y-116160234D01*
X84666000Y-128877450D02*
X85530975Y-128012475D01*
X86475980Y-127067470D02*
X86475980Y-114190608D01*
X87355500Y-113311088D02*
X87404970Y-113311088D01*
X85530975Y-128012475D02*
X86475980Y-127067470D01*
X86475980Y-114190608D02*
X87355500Y-113311088D01*
X87700208Y-113311088D02*
X87883290Y-113128006D01*
X87355500Y-113311088D02*
X87700208Y-113311088D01*
%TO.N,~CS*%
X71033602Y-129327460D02*
X84852400Y-129327460D01*
X61680540Y-119974398D02*
X71033602Y-129327460D01*
X61680540Y-115166960D02*
X61680540Y-119974398D01*
X64389000Y-112458500D02*
X61680540Y-115166960D01*
X85944430Y-128235430D02*
X86925990Y-127253870D01*
X84852400Y-129327460D02*
X85944430Y-128235430D01*
X86925990Y-127253870D02*
X86925990Y-114813600D01*
X86925990Y-114813600D02*
X87407795Y-114331795D01*
%TO.N,RS*%
X63754000Y-111633000D02*
X61230530Y-114156470D01*
X61230530Y-114156470D02*
X61230530Y-120160798D01*
X61230530Y-120160798D02*
X70847202Y-129777470D01*
X70847202Y-129777470D02*
X85038800Y-129777470D01*
X86453135Y-128363135D02*
X87376000Y-127440270D01*
X85038800Y-129777470D02*
X86453135Y-128363135D01*
X87376000Y-117030500D02*
X88201500Y-116205000D01*
X87376000Y-127440270D02*
X87376000Y-117030500D01*
%TO.N,SDA*%
X61334502Y-122174000D02*
X70288002Y-131127500D01*
X70288002Y-131127500D02*
X85598000Y-131127500D01*
X61214000Y-122174000D02*
X61334502Y-122174000D01*
X59880500Y-120840500D02*
X61214000Y-122174000D01*
X59880500Y-111760000D02*
X59880500Y-120840500D01*
X61087000Y-110553500D02*
X59880500Y-111760000D01*
X85598000Y-131127500D02*
X87757000Y-128968500D01*
X87757000Y-128968500D02*
X88296750Y-128428750D01*
X88296750Y-128428750D02*
X88551011Y-128174489D01*
X88551011Y-128174489D02*
X89725500Y-127000000D01*
X89725500Y-127000000D02*
X89725500Y-117284500D01*
%TD*%
D22*
%TO.N,VSS*%
X103543500Y-84263547D02*
X103326613Y-84184992D01*
X102370805Y-85140800D01*
X103326613Y-86096608D01*
X103543500Y-86018053D01*
X103543501Y-134201300D01*
X69309634Y-134201300D01*
X69564023Y-134109636D01*
X69679980Y-134047656D01*
X69746960Y-133807565D01*
X68961000Y-133021605D01*
X68175040Y-133807565D01*
X68242020Y-134047656D01*
X68491048Y-134164756D01*
X68638337Y-134201300D01*
X66811623Y-134201300D01*
X66891990Y-134185314D01*
X67146227Y-134080005D01*
X67375035Y-133927120D01*
X67569620Y-133732535D01*
X67722505Y-133503727D01*
X67723482Y-133501369D01*
X67755344Y-133560980D01*
X67995435Y-133627960D01*
X68781395Y-132842000D01*
X69140605Y-132842000D01*
X69926565Y-133627960D01*
X70166656Y-133560980D01*
X70283756Y-133311952D01*
X70350023Y-133044865D01*
X70362910Y-132769983D01*
X70321922Y-132497867D01*
X70228636Y-132238977D01*
X70166656Y-132123020D01*
X69926565Y-132056040D01*
X69140605Y-132842000D01*
X68781395Y-132842000D01*
X67995435Y-132056040D01*
X67755344Y-132123020D01*
X67725276Y-132186963D01*
X67722505Y-132180273D01*
X67569620Y-131951465D01*
X67494590Y-131876435D01*
X68175040Y-131876435D01*
X68961000Y-132662395D01*
X69746960Y-131876435D01*
X69679980Y-131636344D01*
X69430952Y-131519244D01*
X69163865Y-131452977D01*
X68888983Y-131440090D01*
X68616867Y-131481078D01*
X68357977Y-131574364D01*
X68242020Y-131636344D01*
X68175040Y-131876435D01*
X67494590Y-131876435D01*
X67375035Y-131756880D01*
X67146227Y-131603995D01*
X66891990Y-131498686D01*
X66622092Y-131445000D01*
X66346908Y-131445000D01*
X66077010Y-131498686D01*
X65822773Y-131603995D01*
X65593965Y-131756880D01*
X65399380Y-131951465D01*
X65246495Y-132180273D01*
X65214500Y-132257515D01*
X65182505Y-132180273D01*
X65029620Y-131951465D01*
X64835035Y-131756880D01*
X64606227Y-131603995D01*
X64351990Y-131498686D01*
X64082092Y-131445000D01*
X63806908Y-131445000D01*
X63537010Y-131498686D01*
X63282773Y-131603995D01*
X63053965Y-131756880D01*
X62859380Y-131951465D01*
X62706495Y-132180273D01*
X62601186Y-132434510D01*
X62547500Y-132704408D01*
X62547500Y-132979592D01*
X62601186Y-133249490D01*
X62706495Y-133503727D01*
X62859380Y-133732535D01*
X63053965Y-133927120D01*
X63282773Y-134080005D01*
X63537010Y-134185314D01*
X63617377Y-134201300D01*
X40042700Y-134201300D01*
X40042700Y-131593519D01*
X42642000Y-131593519D01*
X42642000Y-131974681D01*
X42716361Y-132348519D01*
X42862225Y-132700666D01*
X43073987Y-133017591D01*
X43343509Y-133287113D01*
X43660434Y-133498875D01*
X44012581Y-133644739D01*
X44386419Y-133719100D01*
X44767581Y-133719100D01*
X45141419Y-133644739D01*
X45493566Y-133498875D01*
X45810491Y-133287113D01*
X46080013Y-133017591D01*
X46291775Y-132700666D01*
X46437639Y-132348519D01*
X46512000Y-131974681D01*
X46512000Y-131593519D01*
X46437639Y-131219681D01*
X46291775Y-130867534D01*
X46080013Y-130550609D01*
X45810491Y-130281087D01*
X45493566Y-130069325D01*
X45141419Y-129923461D01*
X44767581Y-129849100D01*
X44386419Y-129849100D01*
X44012581Y-129923461D01*
X43660434Y-130069325D01*
X43343509Y-130281087D01*
X43073987Y-130550609D01*
X42862225Y-130867534D01*
X42716361Y-131219681D01*
X42642000Y-131593519D01*
X40042700Y-131593519D01*
X40042700Y-125484100D01*
X42638928Y-125484100D01*
X42638928Y-128084100D01*
X42651188Y-128208582D01*
X42687498Y-128328280D01*
X42746463Y-128438594D01*
X42825815Y-128535285D01*
X42922506Y-128614637D01*
X43032820Y-128673602D01*
X43152518Y-128709912D01*
X43277000Y-128722172D01*
X45877000Y-128722172D01*
X46001482Y-128709912D01*
X46121180Y-128673602D01*
X46231494Y-128614637D01*
X46328185Y-128535285D01*
X46407537Y-128438594D01*
X46466502Y-128328280D01*
X46502812Y-128208582D01*
X46515072Y-128084100D01*
X46515072Y-125484100D01*
X46502812Y-125359618D01*
X46466502Y-125239920D01*
X46407537Y-125129606D01*
X46328185Y-125032915D01*
X46231494Y-124953563D01*
X46121180Y-124894598D01*
X46001482Y-124858288D01*
X45877000Y-124846028D01*
X43277000Y-124846028D01*
X43152518Y-124858288D01*
X43032820Y-124894598D01*
X42922506Y-124953563D01*
X42825815Y-125032915D01*
X42746463Y-125129606D01*
X42687498Y-125239920D01*
X42651188Y-125359618D01*
X42638928Y-125484100D01*
X40042700Y-125484100D01*
X40042700Y-123238147D01*
X40386559Y-123467907D01*
X40866099Y-123666539D01*
X41375175Y-123767800D01*
X41894225Y-123767800D01*
X42403301Y-123666539D01*
X42882841Y-123467907D01*
X43314415Y-123179538D01*
X43681438Y-122812515D01*
X43969807Y-122380941D01*
X44168439Y-121901401D01*
X44269700Y-121392325D01*
X44269700Y-120873275D01*
X44168439Y-120364199D01*
X43969807Y-119884659D01*
X43681438Y-119453085D01*
X43314415Y-119086062D01*
X42882841Y-118797693D01*
X42403301Y-118599061D01*
X41894225Y-118497800D01*
X41375175Y-118497800D01*
X40866099Y-118599061D01*
X40386559Y-118797693D01*
X40042700Y-119027453D01*
X40042700Y-116453312D01*
X43054483Y-116453312D01*
X43095913Y-116732930D01*
X43191097Y-116999092D01*
X43258029Y-117124314D01*
X43501998Y-117195897D01*
X44315095Y-116382800D01*
X43501998Y-115569703D01*
X43258029Y-115641286D01*
X43137129Y-115896796D01*
X43068400Y-116170984D01*
X43054483Y-116453312D01*
X40042700Y-116453312D01*
X40042700Y-113741465D01*
X43059700Y-113741465D01*
X43059700Y-114024135D01*
X43114847Y-114301374D01*
X43223020Y-114562527D01*
X43380063Y-114797559D01*
X43579941Y-114997437D01*
X43780569Y-115131492D01*
X43753186Y-115146129D01*
X43681603Y-115390098D01*
X44494700Y-116203195D01*
X44508843Y-116189053D01*
X44688448Y-116368658D01*
X44674305Y-116382800D01*
X44688448Y-116396943D01*
X44508843Y-116576548D01*
X44494700Y-116562405D01*
X43681603Y-117375502D01*
X43753186Y-117619471D01*
X44008696Y-117740371D01*
X44282884Y-117809100D01*
X44565212Y-117823017D01*
X44844830Y-117781587D01*
X45110992Y-117686403D01*
X45233009Y-117621184D01*
X45243515Y-117633985D01*
X45340206Y-117713337D01*
X45450520Y-117772302D01*
X45570218Y-117808612D01*
X45694700Y-117820872D01*
X47294700Y-117820872D01*
X47419182Y-117808612D01*
X47538880Y-117772302D01*
X47649194Y-117713337D01*
X47745885Y-117633985D01*
X47825237Y-117537294D01*
X47884202Y-117426980D01*
X47920512Y-117307282D01*
X47932772Y-117182800D01*
X47932772Y-115582800D01*
X47920512Y-115458318D01*
X47884202Y-115338620D01*
X47825237Y-115228306D01*
X47745885Y-115131615D01*
X47649194Y-115052263D01*
X47538880Y-114993298D01*
X47442757Y-114964139D01*
X47609337Y-114797559D01*
X47766380Y-114562527D01*
X47874553Y-114301374D01*
X47929700Y-114024135D01*
X47929700Y-113741465D01*
X47874553Y-113464226D01*
X47766380Y-113203073D01*
X47609337Y-112968041D01*
X47409459Y-112768163D01*
X47174427Y-112611120D01*
X46913274Y-112502947D01*
X46636035Y-112447800D01*
X46353365Y-112447800D01*
X46076126Y-112502947D01*
X45814973Y-112611120D01*
X45579941Y-112768163D01*
X45494700Y-112853404D01*
X45409459Y-112768163D01*
X45174427Y-112611120D01*
X44913274Y-112502947D01*
X44636035Y-112447800D01*
X44353365Y-112447800D01*
X44076126Y-112502947D01*
X43814973Y-112611120D01*
X43579941Y-112768163D01*
X43380063Y-112968041D01*
X43223020Y-113203073D01*
X43114847Y-113464226D01*
X43059700Y-113741465D01*
X40042700Y-113741465D01*
X40042700Y-111238147D01*
X40386559Y-111467907D01*
X40866099Y-111666539D01*
X41375175Y-111767800D01*
X41894225Y-111767800D01*
X41933438Y-111760000D01*
X59116824Y-111760000D01*
X59120500Y-111797322D01*
X59120501Y-120803168D01*
X59116824Y-120840500D01*
X59120501Y-120877833D01*
X59131498Y-120989486D01*
X59140283Y-121018448D01*
X59174954Y-121132746D01*
X59245526Y-121264776D01*
X59316701Y-121351502D01*
X59340500Y-121380501D01*
X59369498Y-121404299D01*
X60650200Y-122685002D01*
X60673999Y-122714001D01*
X60789724Y-122808974D01*
X60921753Y-122879546D01*
X60984185Y-122898484D01*
X69724203Y-131638503D01*
X69748001Y-131667501D01*
X69776999Y-131691299D01*
X69863725Y-131762474D01*
X69995755Y-131833046D01*
X70139016Y-131876503D01*
X70250669Y-131887500D01*
X70250678Y-131887500D01*
X70288001Y-131891176D01*
X70325324Y-131887500D01*
X85560678Y-131887500D01*
X85598000Y-131891176D01*
X85635322Y-131887500D01*
X85635333Y-131887500D01*
X85746986Y-131876503D01*
X85890247Y-131833046D01*
X86022276Y-131762474D01*
X86138001Y-131667501D01*
X86161804Y-131638497D01*
X87337801Y-130462500D01*
X96994928Y-130462500D01*
X96994928Y-133062500D01*
X97007188Y-133186982D01*
X97043498Y-133306680D01*
X97102463Y-133416994D01*
X97181815Y-133513685D01*
X97278506Y-133593037D01*
X97388820Y-133652002D01*
X97508518Y-133688312D01*
X97633000Y-133700572D01*
X100233000Y-133700572D01*
X100357482Y-133688312D01*
X100477180Y-133652002D01*
X100587494Y-133593037D01*
X100684185Y-133513685D01*
X100763537Y-133416994D01*
X100822502Y-133306680D01*
X100858812Y-133186982D01*
X100871072Y-133062500D01*
X100871072Y-130462500D01*
X100858812Y-130338018D01*
X100822502Y-130218320D01*
X100763537Y-130108006D01*
X100684185Y-130011315D01*
X100587494Y-129931963D01*
X100477180Y-129872998D01*
X100357482Y-129836688D01*
X100233000Y-129824428D01*
X97633000Y-129824428D01*
X97508518Y-129836688D01*
X97388820Y-129872998D01*
X97278506Y-129931963D01*
X97181815Y-130011315D01*
X97102463Y-130108006D01*
X97043498Y-130218320D01*
X97007188Y-130338018D01*
X96994928Y-130462500D01*
X87337801Y-130462500D01*
X88320799Y-129479503D01*
X88320803Y-129479498D01*
X88860549Y-128939753D01*
X88860554Y-128939747D01*
X89114810Y-128685491D01*
X90236504Y-127563798D01*
X90265501Y-127540001D01*
X90360474Y-127424276D01*
X90431046Y-127292247D01*
X90474503Y-127148986D01*
X90485500Y-127037333D01*
X90485500Y-127037324D01*
X90489176Y-127000001D01*
X90485500Y-126962678D01*
X90485500Y-126571919D01*
X96998000Y-126571919D01*
X96998000Y-126953081D01*
X97072361Y-127326919D01*
X97218225Y-127679066D01*
X97429987Y-127995991D01*
X97699509Y-128265513D01*
X98016434Y-128477275D01*
X98368581Y-128623139D01*
X98742419Y-128697500D01*
X99123581Y-128697500D01*
X99497419Y-128623139D01*
X99849566Y-128477275D01*
X100166491Y-128265513D01*
X100436013Y-127995991D01*
X100647775Y-127679066D01*
X100793639Y-127326919D01*
X100868000Y-126953081D01*
X100868000Y-126571919D01*
X100793639Y-126198081D01*
X100647775Y-125845934D01*
X100436013Y-125529009D01*
X100166491Y-125259487D01*
X99849566Y-125047725D01*
X99497419Y-124901861D01*
X99123581Y-124827500D01*
X98742419Y-124827500D01*
X98368581Y-124901861D01*
X98016434Y-125047725D01*
X97699509Y-125259487D01*
X97429987Y-125529009D01*
X97218225Y-125845934D01*
X97072361Y-126198081D01*
X96998000Y-126571919D01*
X90485500Y-126571919D01*
X90485500Y-117988211D01*
X90529437Y-117944274D01*
X90642705Y-117774756D01*
X90720726Y-117586398D01*
X90760500Y-117386439D01*
X90760500Y-117182561D01*
X90720726Y-116982602D01*
X90642705Y-116794244D01*
X90529437Y-116624726D01*
X90385274Y-116480563D01*
X90215756Y-116367295D01*
X90027398Y-116289274D01*
X89827439Y-116249500D01*
X89760499Y-116249500D01*
X89760499Y-115001552D01*
X89768226Y-114982898D01*
X89808000Y-114782939D01*
X89808000Y-114579061D01*
X89768226Y-114379102D01*
X89690205Y-114190744D01*
X89576937Y-114021226D01*
X89432774Y-113877063D01*
X89263256Y-113763795D01*
X89074898Y-113685774D01*
X88874939Y-113646000D01*
X88781961Y-113646000D01*
X88800495Y-113618262D01*
X88878516Y-113429904D01*
X88918290Y-113229945D01*
X88918290Y-113026067D01*
X88878516Y-112826108D01*
X88800495Y-112637750D01*
X88687227Y-112468232D01*
X88543064Y-112324069D01*
X88373546Y-112210801D01*
X88185188Y-112132780D01*
X87985229Y-112093006D01*
X87781351Y-112093006D01*
X87711241Y-112106952D01*
X87785205Y-111996256D01*
X87863226Y-111807898D01*
X87903000Y-111607939D01*
X87903000Y-111404061D01*
X87863226Y-111204102D01*
X87785205Y-111015744D01*
X87671937Y-110846226D01*
X87641087Y-110815376D01*
X87658205Y-110789756D01*
X87736226Y-110601398D01*
X87776000Y-110401439D01*
X87776000Y-110197561D01*
X87736226Y-109997602D01*
X87658205Y-109809244D01*
X87544937Y-109639726D01*
X87400774Y-109495563D01*
X87231256Y-109382295D01*
X87042898Y-109304274D01*
X86842939Y-109264500D01*
X86639061Y-109264500D01*
X86439102Y-109304274D01*
X86250744Y-109382295D01*
X86081226Y-109495563D01*
X85937063Y-109639726D01*
X85823795Y-109809244D01*
X85745774Y-109997602D01*
X85706000Y-110197561D01*
X85706000Y-110259698D01*
X85064958Y-110900741D01*
X85035960Y-110924539D01*
X85012162Y-110953537D01*
X85012161Y-110953538D01*
X84940986Y-111040264D01*
X84870414Y-111172294D01*
X84847147Y-111248998D01*
X84826958Y-111315554D01*
X84822833Y-111357437D01*
X84812284Y-111464540D01*
X84815961Y-111501873D01*
X84815960Y-126324828D01*
X84165543Y-126975246D01*
X83923359Y-127217430D01*
X71907604Y-127217430D01*
X63879000Y-119188827D01*
X63879000Y-117916801D01*
X66090883Y-115704919D01*
X66121244Y-115725205D01*
X66309602Y-115803226D01*
X66509561Y-115843000D01*
X66713439Y-115843000D01*
X66913398Y-115803226D01*
X67101756Y-115725205D01*
X67271274Y-115611937D01*
X67415437Y-115467774D01*
X67528705Y-115298256D01*
X67606726Y-115109898D01*
X67646500Y-114909939D01*
X67646500Y-114706061D01*
X67606726Y-114506102D01*
X67547658Y-114363500D01*
X67945000Y-114363500D01*
X67945000Y-117538500D01*
X67947440Y-117563276D01*
X67954667Y-117587101D01*
X67966403Y-117609057D01*
X67982197Y-117628303D01*
X68001443Y-117644097D01*
X68023399Y-117655833D01*
X68047224Y-117663060D01*
X68072000Y-117665500D01*
X71892894Y-117665500D01*
X74231500Y-120004106D01*
X74231500Y-125476000D01*
X74233940Y-125500776D01*
X74241167Y-125524601D01*
X74252903Y-125546557D01*
X74268697Y-125565803D01*
X74287943Y-125581597D01*
X74309899Y-125593333D01*
X74333724Y-125600560D01*
X74358500Y-125603000D01*
X81470500Y-125603000D01*
X81495276Y-125600560D01*
X81519101Y-125593333D01*
X81541057Y-125581597D01*
X81560303Y-125565803D01*
X81576097Y-125546557D01*
X81587833Y-125524601D01*
X81595060Y-125500776D01*
X81597500Y-125476000D01*
X81597500Y-113792000D01*
X81595060Y-113767224D01*
X81587833Y-113743399D01*
X81576097Y-113721443D01*
X81560303Y-113702197D01*
X81541057Y-113686403D01*
X81519101Y-113674667D01*
X81495276Y-113667440D01*
X81470500Y-113665000D01*
X79057500Y-113665000D01*
X79032724Y-113667440D01*
X79008899Y-113674667D01*
X78986943Y-113686403D01*
X78967697Y-113702197D01*
X78951903Y-113721443D01*
X78940167Y-113743399D01*
X78932940Y-113767224D01*
X78930500Y-113792000D01*
X78930500Y-114490500D01*
X78932940Y-114515276D01*
X78940167Y-114539101D01*
X78951903Y-114561057D01*
X78967697Y-114580303D01*
X78986943Y-114596097D01*
X79008899Y-114607833D01*
X79032724Y-114615060D01*
X79057500Y-114617500D01*
X80708500Y-114617500D01*
X80708500Y-124587000D01*
X75374500Y-124587000D01*
X75374500Y-119951500D01*
X75372060Y-119926724D01*
X75364833Y-119902899D01*
X75353097Y-119880943D01*
X75337303Y-119861697D01*
X72289303Y-116813697D01*
X72270057Y-116797903D01*
X72248101Y-116786167D01*
X72224276Y-116778940D01*
X72199500Y-116776500D01*
X68770500Y-116776500D01*
X68770500Y-115062000D01*
X72072500Y-115062000D01*
X72097276Y-115059560D01*
X72121101Y-115052333D01*
X72143057Y-115040597D01*
X72162303Y-115024803D01*
X72178097Y-115005557D01*
X72189833Y-114983601D01*
X72197060Y-114959776D01*
X72199500Y-114935000D01*
X72199500Y-114617500D01*
X78359000Y-114617500D01*
X78383776Y-114615060D01*
X78407601Y-114607833D01*
X78429557Y-114596097D01*
X78448803Y-114580303D01*
X78464597Y-114561057D01*
X78476333Y-114539101D01*
X78483560Y-114515276D01*
X78486000Y-114490500D01*
X78486000Y-113792000D01*
X78483560Y-113767224D01*
X78476333Y-113743399D01*
X78464597Y-113721443D01*
X78448803Y-113702197D01*
X78429557Y-113686403D01*
X78407601Y-113674667D01*
X78383776Y-113667440D01*
X78359000Y-113665000D01*
X71183500Y-113665000D01*
X71158724Y-113667440D01*
X71134899Y-113674667D01*
X71112943Y-113686403D01*
X71093697Y-113702197D01*
X71077903Y-113721443D01*
X71066167Y-113743399D01*
X71058940Y-113767224D01*
X71056500Y-113792000D01*
X71056500Y-114236500D01*
X68072000Y-114236500D01*
X68047224Y-114238940D01*
X68023399Y-114246167D01*
X68001443Y-114257903D01*
X67982197Y-114273697D01*
X67966403Y-114292943D01*
X67954667Y-114314899D01*
X67947440Y-114338724D01*
X67945000Y-114363500D01*
X67547658Y-114363500D01*
X67528705Y-114317744D01*
X67415437Y-114148226D01*
X67271274Y-114004063D01*
X67101756Y-113890795D01*
X66913398Y-113812774D01*
X66737039Y-113777694D01*
X66717726Y-113680602D01*
X66639705Y-113492244D01*
X66526437Y-113322726D01*
X66382274Y-113178563D01*
X66212756Y-113065295D01*
X66024398Y-112987274D01*
X66012904Y-112984988D01*
X66010618Y-112973494D01*
X65932597Y-112785136D01*
X65819329Y-112615618D01*
X65675166Y-112471455D01*
X65505648Y-112358187D01*
X65417021Y-112321476D01*
X65384226Y-112156602D01*
X65306205Y-111968244D01*
X65192937Y-111798726D01*
X65048774Y-111654563D01*
X64879256Y-111541295D01*
X64783114Y-111501472D01*
X64749226Y-111331102D01*
X64671205Y-111142744D01*
X64557937Y-110973226D01*
X64413774Y-110829063D01*
X64244256Y-110715795D01*
X64070492Y-110643819D01*
X64059752Y-110589823D01*
X63981731Y-110401465D01*
X63868463Y-110231947D01*
X63724300Y-110087784D01*
X63554782Y-109974516D01*
X63366424Y-109896495D01*
X63166465Y-109856721D01*
X62962587Y-109856721D01*
X62832340Y-109882629D01*
X62762774Y-109813063D01*
X62593256Y-109699795D01*
X62404898Y-109621774D01*
X62204939Y-109582000D01*
X62001061Y-109582000D01*
X61801102Y-109621774D01*
X61649503Y-109684569D01*
X61577256Y-109636295D01*
X61388898Y-109558274D01*
X61188939Y-109518500D01*
X60985061Y-109518500D01*
X60785102Y-109558274D01*
X60596744Y-109636295D01*
X60427226Y-109749563D01*
X60283063Y-109893726D01*
X60169795Y-110063244D01*
X60091774Y-110251602D01*
X60052000Y-110451561D01*
X60052000Y-110513698D01*
X59369503Y-111196196D01*
X59340499Y-111219999D01*
X59285371Y-111287174D01*
X59245526Y-111335724D01*
X59196627Y-111427207D01*
X59174954Y-111467754D01*
X59131497Y-111611015D01*
X59120500Y-111722668D01*
X59120500Y-111722678D01*
X59116824Y-111760000D01*
X41933438Y-111760000D01*
X42403301Y-111666539D01*
X42882841Y-111467907D01*
X43314415Y-111179538D01*
X43681438Y-110812515D01*
X43969807Y-110380941D01*
X44168439Y-109901401D01*
X44269700Y-109392325D01*
X44269700Y-108873275D01*
X44168439Y-108364199D01*
X43969807Y-107884659D01*
X43681438Y-107453085D01*
X43314415Y-107086062D01*
X42882841Y-106797693D01*
X42403301Y-106599061D01*
X41894225Y-106497800D01*
X41375175Y-106497800D01*
X40866099Y-106599061D01*
X40386559Y-106797693D01*
X40042700Y-107027453D01*
X40042700Y-102852427D01*
X40084963Y-102931494D01*
X40164315Y-103028185D01*
X40261006Y-103107537D01*
X40371320Y-103166502D01*
X40491018Y-103202812D01*
X40615500Y-103215072D01*
X42315500Y-103215072D01*
X42439982Y-103202812D01*
X42559680Y-103166502D01*
X42669994Y-103107537D01*
X42766685Y-103028185D01*
X42846037Y-102931494D01*
X42905002Y-102821180D01*
X42927013Y-102748620D01*
X43058868Y-102880475D01*
X43302089Y-103042990D01*
X43572342Y-103154932D01*
X43859240Y-103212000D01*
X44151760Y-103212000D01*
X44438658Y-103154932D01*
X44708911Y-103042990D01*
X44952132Y-102880475D01*
X45158975Y-102673632D01*
X45275500Y-102499240D01*
X45392025Y-102673632D01*
X45598868Y-102880475D01*
X45842089Y-103042990D01*
X46112342Y-103154932D01*
X46399240Y-103212000D01*
X46691760Y-103212000D01*
X46978658Y-103154932D01*
X47248911Y-103042990D01*
X47492132Y-102880475D01*
X47698975Y-102673632D01*
X47861490Y-102430411D01*
X47973432Y-102160158D01*
X48030500Y-101873260D01*
X48030500Y-101580740D01*
X47973432Y-101293842D01*
X47861490Y-101023589D01*
X47698975Y-100780368D01*
X47492132Y-100573525D01*
X47316094Y-100455900D01*
X47545769Y-100284588D01*
X47740678Y-100068355D01*
X47889657Y-99818252D01*
X47986981Y-99543891D01*
X47866314Y-99314000D01*
X46672500Y-99314000D01*
X46672500Y-99334000D01*
X46418500Y-99334000D01*
X46418500Y-99314000D01*
X46398500Y-99314000D01*
X46398500Y-99060000D01*
X46418500Y-99060000D01*
X46418500Y-97866845D01*
X46672500Y-97866845D01*
X46672500Y-99060000D01*
X47866314Y-99060000D01*
X47986981Y-98830109D01*
X47889657Y-98555748D01*
X47740678Y-98305645D01*
X47545769Y-98089412D01*
X47312420Y-97915359D01*
X47049599Y-97790175D01*
X46902390Y-97745524D01*
X46672500Y-97866845D01*
X46418500Y-97866845D01*
X46188610Y-97745524D01*
X46041401Y-97790175D01*
X45778580Y-97915359D01*
X45545231Y-98089412D01*
X45350322Y-98305645D01*
X45280695Y-98422534D01*
X45158975Y-98240368D01*
X44952132Y-98033525D01*
X44708911Y-97871010D01*
X44438658Y-97759068D01*
X44151760Y-97702000D01*
X43859240Y-97702000D01*
X43572342Y-97759068D01*
X43302089Y-97871010D01*
X43058868Y-98033525D01*
X42852025Y-98240368D01*
X42735500Y-98414760D01*
X42618975Y-98240368D01*
X42412132Y-98033525D01*
X42168911Y-97871010D01*
X41898658Y-97759068D01*
X41611760Y-97702000D01*
X41319240Y-97702000D01*
X41032342Y-97759068D01*
X40762089Y-97871010D01*
X40518868Y-98033525D01*
X40312025Y-98240368D01*
X40149510Y-98483589D01*
X40042700Y-98741452D01*
X40042700Y-93771927D01*
X40084963Y-93850994D01*
X40164315Y-93947685D01*
X40261006Y-94027037D01*
X40371320Y-94086002D01*
X40491018Y-94122312D01*
X40615500Y-94134572D01*
X42315500Y-94134572D01*
X42439982Y-94122312D01*
X42559680Y-94086002D01*
X42669994Y-94027037D01*
X42766685Y-93947685D01*
X42846037Y-93850994D01*
X42905002Y-93740680D01*
X42941312Y-93620982D01*
X42953572Y-93496500D01*
X42953572Y-91796500D01*
X42941312Y-91672018D01*
X42905002Y-91552320D01*
X42846037Y-91442006D01*
X42766685Y-91345315D01*
X42669994Y-91265963D01*
X42559680Y-91206998D01*
X42479034Y-91182534D01*
X42563088Y-91106769D01*
X42737141Y-90873420D01*
X42862325Y-90610599D01*
X42906976Y-90463390D01*
X42785655Y-90233500D01*
X41592500Y-90233500D01*
X41592500Y-90253500D01*
X41338500Y-90253500D01*
X41338500Y-90233500D01*
X41318500Y-90233500D01*
X41318500Y-89979500D01*
X41338500Y-89979500D01*
X41338500Y-88785686D01*
X41592500Y-88785686D01*
X41592500Y-89979500D01*
X42785655Y-89979500D01*
X42906976Y-89749610D01*
X42862325Y-89602401D01*
X42737141Y-89339580D01*
X42563088Y-89106231D01*
X42346855Y-88911322D01*
X42096752Y-88762343D01*
X41822391Y-88665019D01*
X41592500Y-88785686D01*
X41338500Y-88785686D01*
X41108609Y-88665019D01*
X40834248Y-88762343D01*
X40584145Y-88911322D01*
X40367912Y-89106231D01*
X40193859Y-89339580D01*
X40068675Y-89602401D01*
X40042700Y-89688037D01*
X40042700Y-84950300D01*
X52594304Y-84950300D01*
X52594304Y-101422200D01*
X52596744Y-101446976D01*
X52603971Y-101470801D01*
X52615707Y-101492757D01*
X52631501Y-101512003D01*
X52650747Y-101527797D01*
X52672703Y-101539533D01*
X52696528Y-101546760D01*
X52721304Y-101549200D01*
X92456000Y-101549200D01*
X92480776Y-101546760D01*
X92504601Y-101539533D01*
X92526557Y-101527797D01*
X92545803Y-101512003D01*
X92561597Y-101492757D01*
X92573333Y-101470801D01*
X92580560Y-101446976D01*
X92583000Y-101422200D01*
X92583000Y-84140800D01*
X93053128Y-84140800D01*
X93053128Y-86140800D01*
X93065388Y-86265282D01*
X93101698Y-86384980D01*
X93160663Y-86495294D01*
X93240015Y-86591985D01*
X93336706Y-86671337D01*
X93447020Y-86730302D01*
X93566718Y-86766612D01*
X93691200Y-86778872D01*
X95691200Y-86778872D01*
X95815682Y-86766612D01*
X95935380Y-86730302D01*
X96045694Y-86671337D01*
X96142385Y-86591985D01*
X96221737Y-86495294D01*
X96280702Y-86384980D01*
X96313696Y-86276213D01*
X101235392Y-86276213D01*
X101331156Y-86540614D01*
X101620771Y-86681504D01*
X101932308Y-86763184D01*
X102253795Y-86782518D01*
X102572875Y-86738761D01*
X102877288Y-86633595D01*
X103051244Y-86540614D01*
X103147008Y-86276213D01*
X102191200Y-85320405D01*
X101235392Y-86276213D01*
X96313696Y-86276213D01*
X96317012Y-86265282D01*
X96329272Y-86140800D01*
X96329272Y-85203395D01*
X100549482Y-85203395D01*
X100593239Y-85522475D01*
X100698405Y-85826888D01*
X100791386Y-86000844D01*
X101055787Y-86096608D01*
X102011595Y-85140800D01*
X101055787Y-84184992D01*
X100791386Y-84280756D01*
X100650496Y-84570371D01*
X100568816Y-84881908D01*
X100549482Y-85203395D01*
X96329272Y-85203395D01*
X96329272Y-84140800D01*
X96317012Y-84016318D01*
X96313697Y-84005387D01*
X101235392Y-84005387D01*
X102191200Y-84961195D01*
X103147008Y-84005387D01*
X103051244Y-83740986D01*
X102761629Y-83600096D01*
X102450092Y-83518416D01*
X102128605Y-83499082D01*
X101809525Y-83542839D01*
X101505112Y-83648005D01*
X101331156Y-83740986D01*
X101235392Y-84005387D01*
X96313697Y-84005387D01*
X96280702Y-83896620D01*
X96221737Y-83786306D01*
X96142385Y-83689615D01*
X96045694Y-83610263D01*
X95935380Y-83551298D01*
X95815682Y-83514988D01*
X95691200Y-83502728D01*
X93691200Y-83502728D01*
X93566718Y-83514988D01*
X93447020Y-83551298D01*
X93336706Y-83610263D01*
X93240015Y-83689615D01*
X93160663Y-83786306D01*
X93101698Y-83896620D01*
X93065388Y-84016318D01*
X93053128Y-84140800D01*
X92583000Y-84140800D01*
X92583000Y-79808606D01*
X93524606Y-78867000D01*
X96520000Y-78867000D01*
X96544776Y-78864560D01*
X96568601Y-78857333D01*
X96590557Y-78845597D01*
X96609803Y-78829803D01*
X96625597Y-78810557D01*
X96637333Y-78788601D01*
X96644560Y-78764776D01*
X96647000Y-78740000D01*
X96647000Y-74320000D01*
X103543500Y-74320000D01*
X103543500Y-84263547D01*
%TA.AperFunction,Conductor*%
D23*
G36*
X103543500Y-84263547D02*
G01*
X103326613Y-84184992D01*
X102370805Y-85140800D01*
X103326613Y-86096608D01*
X103543500Y-86018053D01*
X103543501Y-134201300D01*
X69309634Y-134201300D01*
X69564023Y-134109636D01*
X69679980Y-134047656D01*
X69746960Y-133807565D01*
X68961000Y-133021605D01*
X68175040Y-133807565D01*
X68242020Y-134047656D01*
X68491048Y-134164756D01*
X68638337Y-134201300D01*
X66811623Y-134201300D01*
X66891990Y-134185314D01*
X67146227Y-134080005D01*
X67375035Y-133927120D01*
X67569620Y-133732535D01*
X67722505Y-133503727D01*
X67723482Y-133501369D01*
X67755344Y-133560980D01*
X67995435Y-133627960D01*
X68781395Y-132842000D01*
X69140605Y-132842000D01*
X69926565Y-133627960D01*
X70166656Y-133560980D01*
X70283756Y-133311952D01*
X70350023Y-133044865D01*
X70362910Y-132769983D01*
X70321922Y-132497867D01*
X70228636Y-132238977D01*
X70166656Y-132123020D01*
X69926565Y-132056040D01*
X69140605Y-132842000D01*
X68781395Y-132842000D01*
X67995435Y-132056040D01*
X67755344Y-132123020D01*
X67725276Y-132186963D01*
X67722505Y-132180273D01*
X67569620Y-131951465D01*
X67494590Y-131876435D01*
X68175040Y-131876435D01*
X68961000Y-132662395D01*
X69746960Y-131876435D01*
X69679980Y-131636344D01*
X69430952Y-131519244D01*
X69163865Y-131452977D01*
X68888983Y-131440090D01*
X68616867Y-131481078D01*
X68357977Y-131574364D01*
X68242020Y-131636344D01*
X68175040Y-131876435D01*
X67494590Y-131876435D01*
X67375035Y-131756880D01*
X67146227Y-131603995D01*
X66891990Y-131498686D01*
X66622092Y-131445000D01*
X66346908Y-131445000D01*
X66077010Y-131498686D01*
X65822773Y-131603995D01*
X65593965Y-131756880D01*
X65399380Y-131951465D01*
X65246495Y-132180273D01*
X65214500Y-132257515D01*
X65182505Y-132180273D01*
X65029620Y-131951465D01*
X64835035Y-131756880D01*
X64606227Y-131603995D01*
X64351990Y-131498686D01*
X64082092Y-131445000D01*
X63806908Y-131445000D01*
X63537010Y-131498686D01*
X63282773Y-131603995D01*
X63053965Y-131756880D01*
X62859380Y-131951465D01*
X62706495Y-132180273D01*
X62601186Y-132434510D01*
X62547500Y-132704408D01*
X62547500Y-132979592D01*
X62601186Y-133249490D01*
X62706495Y-133503727D01*
X62859380Y-133732535D01*
X63053965Y-133927120D01*
X63282773Y-134080005D01*
X63537010Y-134185314D01*
X63617377Y-134201300D01*
X40042700Y-134201300D01*
X40042700Y-131593519D01*
X42642000Y-131593519D01*
X42642000Y-131974681D01*
X42716361Y-132348519D01*
X42862225Y-132700666D01*
X43073987Y-133017591D01*
X43343509Y-133287113D01*
X43660434Y-133498875D01*
X44012581Y-133644739D01*
X44386419Y-133719100D01*
X44767581Y-133719100D01*
X45141419Y-133644739D01*
X45493566Y-133498875D01*
X45810491Y-133287113D01*
X46080013Y-133017591D01*
X46291775Y-132700666D01*
X46437639Y-132348519D01*
X46512000Y-131974681D01*
X46512000Y-131593519D01*
X46437639Y-131219681D01*
X46291775Y-130867534D01*
X46080013Y-130550609D01*
X45810491Y-130281087D01*
X45493566Y-130069325D01*
X45141419Y-129923461D01*
X44767581Y-129849100D01*
X44386419Y-129849100D01*
X44012581Y-129923461D01*
X43660434Y-130069325D01*
X43343509Y-130281087D01*
X43073987Y-130550609D01*
X42862225Y-130867534D01*
X42716361Y-131219681D01*
X42642000Y-131593519D01*
X40042700Y-131593519D01*
X40042700Y-125484100D01*
X42638928Y-125484100D01*
X42638928Y-128084100D01*
X42651188Y-128208582D01*
X42687498Y-128328280D01*
X42746463Y-128438594D01*
X42825815Y-128535285D01*
X42922506Y-128614637D01*
X43032820Y-128673602D01*
X43152518Y-128709912D01*
X43277000Y-128722172D01*
X45877000Y-128722172D01*
X46001482Y-128709912D01*
X46121180Y-128673602D01*
X46231494Y-128614637D01*
X46328185Y-128535285D01*
X46407537Y-128438594D01*
X46466502Y-128328280D01*
X46502812Y-128208582D01*
X46515072Y-128084100D01*
X46515072Y-125484100D01*
X46502812Y-125359618D01*
X46466502Y-125239920D01*
X46407537Y-125129606D01*
X46328185Y-125032915D01*
X46231494Y-124953563D01*
X46121180Y-124894598D01*
X46001482Y-124858288D01*
X45877000Y-124846028D01*
X43277000Y-124846028D01*
X43152518Y-124858288D01*
X43032820Y-124894598D01*
X42922506Y-124953563D01*
X42825815Y-125032915D01*
X42746463Y-125129606D01*
X42687498Y-125239920D01*
X42651188Y-125359618D01*
X42638928Y-125484100D01*
X40042700Y-125484100D01*
X40042700Y-123238147D01*
X40386559Y-123467907D01*
X40866099Y-123666539D01*
X41375175Y-123767800D01*
X41894225Y-123767800D01*
X42403301Y-123666539D01*
X42882841Y-123467907D01*
X43314415Y-123179538D01*
X43681438Y-122812515D01*
X43969807Y-122380941D01*
X44168439Y-121901401D01*
X44269700Y-121392325D01*
X44269700Y-120873275D01*
X44168439Y-120364199D01*
X43969807Y-119884659D01*
X43681438Y-119453085D01*
X43314415Y-119086062D01*
X42882841Y-118797693D01*
X42403301Y-118599061D01*
X41894225Y-118497800D01*
X41375175Y-118497800D01*
X40866099Y-118599061D01*
X40386559Y-118797693D01*
X40042700Y-119027453D01*
X40042700Y-116453312D01*
X43054483Y-116453312D01*
X43095913Y-116732930D01*
X43191097Y-116999092D01*
X43258029Y-117124314D01*
X43501998Y-117195897D01*
X44315095Y-116382800D01*
X43501998Y-115569703D01*
X43258029Y-115641286D01*
X43137129Y-115896796D01*
X43068400Y-116170984D01*
X43054483Y-116453312D01*
X40042700Y-116453312D01*
X40042700Y-113741465D01*
X43059700Y-113741465D01*
X43059700Y-114024135D01*
X43114847Y-114301374D01*
X43223020Y-114562527D01*
X43380063Y-114797559D01*
X43579941Y-114997437D01*
X43780569Y-115131492D01*
X43753186Y-115146129D01*
X43681603Y-115390098D01*
X44494700Y-116203195D01*
X44508843Y-116189053D01*
X44688448Y-116368658D01*
X44674305Y-116382800D01*
X44688448Y-116396943D01*
X44508843Y-116576548D01*
X44494700Y-116562405D01*
X43681603Y-117375502D01*
X43753186Y-117619471D01*
X44008696Y-117740371D01*
X44282884Y-117809100D01*
X44565212Y-117823017D01*
X44844830Y-117781587D01*
X45110992Y-117686403D01*
X45233009Y-117621184D01*
X45243515Y-117633985D01*
X45340206Y-117713337D01*
X45450520Y-117772302D01*
X45570218Y-117808612D01*
X45694700Y-117820872D01*
X47294700Y-117820872D01*
X47419182Y-117808612D01*
X47538880Y-117772302D01*
X47649194Y-117713337D01*
X47745885Y-117633985D01*
X47825237Y-117537294D01*
X47884202Y-117426980D01*
X47920512Y-117307282D01*
X47932772Y-117182800D01*
X47932772Y-115582800D01*
X47920512Y-115458318D01*
X47884202Y-115338620D01*
X47825237Y-115228306D01*
X47745885Y-115131615D01*
X47649194Y-115052263D01*
X47538880Y-114993298D01*
X47442757Y-114964139D01*
X47609337Y-114797559D01*
X47766380Y-114562527D01*
X47874553Y-114301374D01*
X47929700Y-114024135D01*
X47929700Y-113741465D01*
X47874553Y-113464226D01*
X47766380Y-113203073D01*
X47609337Y-112968041D01*
X47409459Y-112768163D01*
X47174427Y-112611120D01*
X46913274Y-112502947D01*
X46636035Y-112447800D01*
X46353365Y-112447800D01*
X46076126Y-112502947D01*
X45814973Y-112611120D01*
X45579941Y-112768163D01*
X45494700Y-112853404D01*
X45409459Y-112768163D01*
X45174427Y-112611120D01*
X44913274Y-112502947D01*
X44636035Y-112447800D01*
X44353365Y-112447800D01*
X44076126Y-112502947D01*
X43814973Y-112611120D01*
X43579941Y-112768163D01*
X43380063Y-112968041D01*
X43223020Y-113203073D01*
X43114847Y-113464226D01*
X43059700Y-113741465D01*
X40042700Y-113741465D01*
X40042700Y-111238147D01*
X40386559Y-111467907D01*
X40866099Y-111666539D01*
X41375175Y-111767800D01*
X41894225Y-111767800D01*
X41933438Y-111760000D01*
X59116824Y-111760000D01*
X59120500Y-111797322D01*
X59120501Y-120803168D01*
X59116824Y-120840500D01*
X59120501Y-120877833D01*
X59131498Y-120989486D01*
X59140283Y-121018448D01*
X59174954Y-121132746D01*
X59245526Y-121264776D01*
X59316701Y-121351502D01*
X59340500Y-121380501D01*
X59369498Y-121404299D01*
X60650200Y-122685002D01*
X60673999Y-122714001D01*
X60789724Y-122808974D01*
X60921753Y-122879546D01*
X60984185Y-122898484D01*
X69724203Y-131638503D01*
X69748001Y-131667501D01*
X69776999Y-131691299D01*
X69863725Y-131762474D01*
X69995755Y-131833046D01*
X70139016Y-131876503D01*
X70250669Y-131887500D01*
X70250678Y-131887500D01*
X70288001Y-131891176D01*
X70325324Y-131887500D01*
X85560678Y-131887500D01*
X85598000Y-131891176D01*
X85635322Y-131887500D01*
X85635333Y-131887500D01*
X85746986Y-131876503D01*
X85890247Y-131833046D01*
X86022276Y-131762474D01*
X86138001Y-131667501D01*
X86161804Y-131638497D01*
X87337801Y-130462500D01*
X96994928Y-130462500D01*
X96994928Y-133062500D01*
X97007188Y-133186982D01*
X97043498Y-133306680D01*
X97102463Y-133416994D01*
X97181815Y-133513685D01*
X97278506Y-133593037D01*
X97388820Y-133652002D01*
X97508518Y-133688312D01*
X97633000Y-133700572D01*
X100233000Y-133700572D01*
X100357482Y-133688312D01*
X100477180Y-133652002D01*
X100587494Y-133593037D01*
X100684185Y-133513685D01*
X100763537Y-133416994D01*
X100822502Y-133306680D01*
X100858812Y-133186982D01*
X100871072Y-133062500D01*
X100871072Y-130462500D01*
X100858812Y-130338018D01*
X100822502Y-130218320D01*
X100763537Y-130108006D01*
X100684185Y-130011315D01*
X100587494Y-129931963D01*
X100477180Y-129872998D01*
X100357482Y-129836688D01*
X100233000Y-129824428D01*
X97633000Y-129824428D01*
X97508518Y-129836688D01*
X97388820Y-129872998D01*
X97278506Y-129931963D01*
X97181815Y-130011315D01*
X97102463Y-130108006D01*
X97043498Y-130218320D01*
X97007188Y-130338018D01*
X96994928Y-130462500D01*
X87337801Y-130462500D01*
X88320799Y-129479503D01*
X88320803Y-129479498D01*
X88860549Y-128939753D01*
X88860554Y-128939747D01*
X89114810Y-128685491D01*
X90236504Y-127563798D01*
X90265501Y-127540001D01*
X90360474Y-127424276D01*
X90431046Y-127292247D01*
X90474503Y-127148986D01*
X90485500Y-127037333D01*
X90485500Y-127037324D01*
X90489176Y-127000001D01*
X90485500Y-126962678D01*
X90485500Y-126571919D01*
X96998000Y-126571919D01*
X96998000Y-126953081D01*
X97072361Y-127326919D01*
X97218225Y-127679066D01*
X97429987Y-127995991D01*
X97699509Y-128265513D01*
X98016434Y-128477275D01*
X98368581Y-128623139D01*
X98742419Y-128697500D01*
X99123581Y-128697500D01*
X99497419Y-128623139D01*
X99849566Y-128477275D01*
X100166491Y-128265513D01*
X100436013Y-127995991D01*
X100647775Y-127679066D01*
X100793639Y-127326919D01*
X100868000Y-126953081D01*
X100868000Y-126571919D01*
X100793639Y-126198081D01*
X100647775Y-125845934D01*
X100436013Y-125529009D01*
X100166491Y-125259487D01*
X99849566Y-125047725D01*
X99497419Y-124901861D01*
X99123581Y-124827500D01*
X98742419Y-124827500D01*
X98368581Y-124901861D01*
X98016434Y-125047725D01*
X97699509Y-125259487D01*
X97429987Y-125529009D01*
X97218225Y-125845934D01*
X97072361Y-126198081D01*
X96998000Y-126571919D01*
X90485500Y-126571919D01*
X90485500Y-117988211D01*
X90529437Y-117944274D01*
X90642705Y-117774756D01*
X90720726Y-117586398D01*
X90760500Y-117386439D01*
X90760500Y-117182561D01*
X90720726Y-116982602D01*
X90642705Y-116794244D01*
X90529437Y-116624726D01*
X90385274Y-116480563D01*
X90215756Y-116367295D01*
X90027398Y-116289274D01*
X89827439Y-116249500D01*
X89760499Y-116249500D01*
X89760499Y-115001552D01*
X89768226Y-114982898D01*
X89808000Y-114782939D01*
X89808000Y-114579061D01*
X89768226Y-114379102D01*
X89690205Y-114190744D01*
X89576937Y-114021226D01*
X89432774Y-113877063D01*
X89263256Y-113763795D01*
X89074898Y-113685774D01*
X88874939Y-113646000D01*
X88781961Y-113646000D01*
X88800495Y-113618262D01*
X88878516Y-113429904D01*
X88918290Y-113229945D01*
X88918290Y-113026067D01*
X88878516Y-112826108D01*
X88800495Y-112637750D01*
X88687227Y-112468232D01*
X88543064Y-112324069D01*
X88373546Y-112210801D01*
X88185188Y-112132780D01*
X87985229Y-112093006D01*
X87781351Y-112093006D01*
X87711241Y-112106952D01*
X87785205Y-111996256D01*
X87863226Y-111807898D01*
X87903000Y-111607939D01*
X87903000Y-111404061D01*
X87863226Y-111204102D01*
X87785205Y-111015744D01*
X87671937Y-110846226D01*
X87641087Y-110815376D01*
X87658205Y-110789756D01*
X87736226Y-110601398D01*
X87776000Y-110401439D01*
X87776000Y-110197561D01*
X87736226Y-109997602D01*
X87658205Y-109809244D01*
X87544937Y-109639726D01*
X87400774Y-109495563D01*
X87231256Y-109382295D01*
X87042898Y-109304274D01*
X86842939Y-109264500D01*
X86639061Y-109264500D01*
X86439102Y-109304274D01*
X86250744Y-109382295D01*
X86081226Y-109495563D01*
X85937063Y-109639726D01*
X85823795Y-109809244D01*
X85745774Y-109997602D01*
X85706000Y-110197561D01*
X85706000Y-110259698D01*
X85064958Y-110900741D01*
X85035960Y-110924539D01*
X85012162Y-110953537D01*
X85012161Y-110953538D01*
X84940986Y-111040264D01*
X84870414Y-111172294D01*
X84847147Y-111248998D01*
X84826958Y-111315554D01*
X84822833Y-111357437D01*
X84812284Y-111464540D01*
X84815961Y-111501873D01*
X84815960Y-126324828D01*
X84165543Y-126975246D01*
X83923359Y-127217430D01*
X71907604Y-127217430D01*
X63879000Y-119188827D01*
X63879000Y-117916801D01*
X66090883Y-115704919D01*
X66121244Y-115725205D01*
X66309602Y-115803226D01*
X66509561Y-115843000D01*
X66713439Y-115843000D01*
X66913398Y-115803226D01*
X67101756Y-115725205D01*
X67271274Y-115611937D01*
X67415437Y-115467774D01*
X67528705Y-115298256D01*
X67606726Y-115109898D01*
X67646500Y-114909939D01*
X67646500Y-114706061D01*
X67606726Y-114506102D01*
X67547658Y-114363500D01*
X67945000Y-114363500D01*
X67945000Y-117538500D01*
X67947440Y-117563276D01*
X67954667Y-117587101D01*
X67966403Y-117609057D01*
X67982197Y-117628303D01*
X68001443Y-117644097D01*
X68023399Y-117655833D01*
X68047224Y-117663060D01*
X68072000Y-117665500D01*
X71892894Y-117665500D01*
X74231500Y-120004106D01*
X74231500Y-125476000D01*
X74233940Y-125500776D01*
X74241167Y-125524601D01*
X74252903Y-125546557D01*
X74268697Y-125565803D01*
X74287943Y-125581597D01*
X74309899Y-125593333D01*
X74333724Y-125600560D01*
X74358500Y-125603000D01*
X81470500Y-125603000D01*
X81495276Y-125600560D01*
X81519101Y-125593333D01*
X81541057Y-125581597D01*
X81560303Y-125565803D01*
X81576097Y-125546557D01*
X81587833Y-125524601D01*
X81595060Y-125500776D01*
X81597500Y-125476000D01*
X81597500Y-113792000D01*
X81595060Y-113767224D01*
X81587833Y-113743399D01*
X81576097Y-113721443D01*
X81560303Y-113702197D01*
X81541057Y-113686403D01*
X81519101Y-113674667D01*
X81495276Y-113667440D01*
X81470500Y-113665000D01*
X79057500Y-113665000D01*
X79032724Y-113667440D01*
X79008899Y-113674667D01*
X78986943Y-113686403D01*
X78967697Y-113702197D01*
X78951903Y-113721443D01*
X78940167Y-113743399D01*
X78932940Y-113767224D01*
X78930500Y-113792000D01*
X78930500Y-114490500D01*
X78932940Y-114515276D01*
X78940167Y-114539101D01*
X78951903Y-114561057D01*
X78967697Y-114580303D01*
X78986943Y-114596097D01*
X79008899Y-114607833D01*
X79032724Y-114615060D01*
X79057500Y-114617500D01*
X80708500Y-114617500D01*
X80708500Y-124587000D01*
X75374500Y-124587000D01*
X75374500Y-119951500D01*
X75372060Y-119926724D01*
X75364833Y-119902899D01*
X75353097Y-119880943D01*
X75337303Y-119861697D01*
X72289303Y-116813697D01*
X72270057Y-116797903D01*
X72248101Y-116786167D01*
X72224276Y-116778940D01*
X72199500Y-116776500D01*
X68770500Y-116776500D01*
X68770500Y-115062000D01*
X72072500Y-115062000D01*
X72097276Y-115059560D01*
X72121101Y-115052333D01*
X72143057Y-115040597D01*
X72162303Y-115024803D01*
X72178097Y-115005557D01*
X72189833Y-114983601D01*
X72197060Y-114959776D01*
X72199500Y-114935000D01*
X72199500Y-114617500D01*
X78359000Y-114617500D01*
X78383776Y-114615060D01*
X78407601Y-114607833D01*
X78429557Y-114596097D01*
X78448803Y-114580303D01*
X78464597Y-114561057D01*
X78476333Y-114539101D01*
X78483560Y-114515276D01*
X78486000Y-114490500D01*
X78486000Y-113792000D01*
X78483560Y-113767224D01*
X78476333Y-113743399D01*
X78464597Y-113721443D01*
X78448803Y-113702197D01*
X78429557Y-113686403D01*
X78407601Y-113674667D01*
X78383776Y-113667440D01*
X78359000Y-113665000D01*
X71183500Y-113665000D01*
X71158724Y-113667440D01*
X71134899Y-113674667D01*
X71112943Y-113686403D01*
X71093697Y-113702197D01*
X71077903Y-113721443D01*
X71066167Y-113743399D01*
X71058940Y-113767224D01*
X71056500Y-113792000D01*
X71056500Y-114236500D01*
X68072000Y-114236500D01*
X68047224Y-114238940D01*
X68023399Y-114246167D01*
X68001443Y-114257903D01*
X67982197Y-114273697D01*
X67966403Y-114292943D01*
X67954667Y-114314899D01*
X67947440Y-114338724D01*
X67945000Y-114363500D01*
X67547658Y-114363500D01*
X67528705Y-114317744D01*
X67415437Y-114148226D01*
X67271274Y-114004063D01*
X67101756Y-113890795D01*
X66913398Y-113812774D01*
X66737039Y-113777694D01*
X66717726Y-113680602D01*
X66639705Y-113492244D01*
X66526437Y-113322726D01*
X66382274Y-113178563D01*
X66212756Y-113065295D01*
X66024398Y-112987274D01*
X66012904Y-112984988D01*
X66010618Y-112973494D01*
X65932597Y-112785136D01*
X65819329Y-112615618D01*
X65675166Y-112471455D01*
X65505648Y-112358187D01*
X65417021Y-112321476D01*
X65384226Y-112156602D01*
X65306205Y-111968244D01*
X65192937Y-111798726D01*
X65048774Y-111654563D01*
X64879256Y-111541295D01*
X64783114Y-111501472D01*
X64749226Y-111331102D01*
X64671205Y-111142744D01*
X64557937Y-110973226D01*
X64413774Y-110829063D01*
X64244256Y-110715795D01*
X64070492Y-110643819D01*
X64059752Y-110589823D01*
X63981731Y-110401465D01*
X63868463Y-110231947D01*
X63724300Y-110087784D01*
X63554782Y-109974516D01*
X63366424Y-109896495D01*
X63166465Y-109856721D01*
X62962587Y-109856721D01*
X62832340Y-109882629D01*
X62762774Y-109813063D01*
X62593256Y-109699795D01*
X62404898Y-109621774D01*
X62204939Y-109582000D01*
X62001061Y-109582000D01*
X61801102Y-109621774D01*
X61649503Y-109684569D01*
X61577256Y-109636295D01*
X61388898Y-109558274D01*
X61188939Y-109518500D01*
X60985061Y-109518500D01*
X60785102Y-109558274D01*
X60596744Y-109636295D01*
X60427226Y-109749563D01*
X60283063Y-109893726D01*
X60169795Y-110063244D01*
X60091774Y-110251602D01*
X60052000Y-110451561D01*
X60052000Y-110513698D01*
X59369503Y-111196196D01*
X59340499Y-111219999D01*
X59285371Y-111287174D01*
X59245526Y-111335724D01*
X59196627Y-111427207D01*
X59174954Y-111467754D01*
X59131497Y-111611015D01*
X59120500Y-111722668D01*
X59120500Y-111722678D01*
X59116824Y-111760000D01*
X41933438Y-111760000D01*
X42403301Y-111666539D01*
X42882841Y-111467907D01*
X43314415Y-111179538D01*
X43681438Y-110812515D01*
X43969807Y-110380941D01*
X44168439Y-109901401D01*
X44269700Y-109392325D01*
X44269700Y-108873275D01*
X44168439Y-108364199D01*
X43969807Y-107884659D01*
X43681438Y-107453085D01*
X43314415Y-107086062D01*
X42882841Y-106797693D01*
X42403301Y-106599061D01*
X41894225Y-106497800D01*
X41375175Y-106497800D01*
X40866099Y-106599061D01*
X40386559Y-106797693D01*
X40042700Y-107027453D01*
X40042700Y-102852427D01*
X40084963Y-102931494D01*
X40164315Y-103028185D01*
X40261006Y-103107537D01*
X40371320Y-103166502D01*
X40491018Y-103202812D01*
X40615500Y-103215072D01*
X42315500Y-103215072D01*
X42439982Y-103202812D01*
X42559680Y-103166502D01*
X42669994Y-103107537D01*
X42766685Y-103028185D01*
X42846037Y-102931494D01*
X42905002Y-102821180D01*
X42927013Y-102748620D01*
X43058868Y-102880475D01*
X43302089Y-103042990D01*
X43572342Y-103154932D01*
X43859240Y-103212000D01*
X44151760Y-103212000D01*
X44438658Y-103154932D01*
X44708911Y-103042990D01*
X44952132Y-102880475D01*
X45158975Y-102673632D01*
X45275500Y-102499240D01*
X45392025Y-102673632D01*
X45598868Y-102880475D01*
X45842089Y-103042990D01*
X46112342Y-103154932D01*
X46399240Y-103212000D01*
X46691760Y-103212000D01*
X46978658Y-103154932D01*
X47248911Y-103042990D01*
X47492132Y-102880475D01*
X47698975Y-102673632D01*
X47861490Y-102430411D01*
X47973432Y-102160158D01*
X48030500Y-101873260D01*
X48030500Y-101580740D01*
X47973432Y-101293842D01*
X47861490Y-101023589D01*
X47698975Y-100780368D01*
X47492132Y-100573525D01*
X47316094Y-100455900D01*
X47545769Y-100284588D01*
X47740678Y-100068355D01*
X47889657Y-99818252D01*
X47986981Y-99543891D01*
X47866314Y-99314000D01*
X46672500Y-99314000D01*
X46672500Y-99334000D01*
X46418500Y-99334000D01*
X46418500Y-99314000D01*
X46398500Y-99314000D01*
X46398500Y-99060000D01*
X46418500Y-99060000D01*
X46418500Y-97866845D01*
X46672500Y-97866845D01*
X46672500Y-99060000D01*
X47866314Y-99060000D01*
X47986981Y-98830109D01*
X47889657Y-98555748D01*
X47740678Y-98305645D01*
X47545769Y-98089412D01*
X47312420Y-97915359D01*
X47049599Y-97790175D01*
X46902390Y-97745524D01*
X46672500Y-97866845D01*
X46418500Y-97866845D01*
X46188610Y-97745524D01*
X46041401Y-97790175D01*
X45778580Y-97915359D01*
X45545231Y-98089412D01*
X45350322Y-98305645D01*
X45280695Y-98422534D01*
X45158975Y-98240368D01*
X44952132Y-98033525D01*
X44708911Y-97871010D01*
X44438658Y-97759068D01*
X44151760Y-97702000D01*
X43859240Y-97702000D01*
X43572342Y-97759068D01*
X43302089Y-97871010D01*
X43058868Y-98033525D01*
X42852025Y-98240368D01*
X42735500Y-98414760D01*
X42618975Y-98240368D01*
X42412132Y-98033525D01*
X42168911Y-97871010D01*
X41898658Y-97759068D01*
X41611760Y-97702000D01*
X41319240Y-97702000D01*
X41032342Y-97759068D01*
X40762089Y-97871010D01*
X40518868Y-98033525D01*
X40312025Y-98240368D01*
X40149510Y-98483589D01*
X40042700Y-98741452D01*
X40042700Y-93771927D01*
X40084963Y-93850994D01*
X40164315Y-93947685D01*
X40261006Y-94027037D01*
X40371320Y-94086002D01*
X40491018Y-94122312D01*
X40615500Y-94134572D01*
X42315500Y-94134572D01*
X42439982Y-94122312D01*
X42559680Y-94086002D01*
X42669994Y-94027037D01*
X42766685Y-93947685D01*
X42846037Y-93850994D01*
X42905002Y-93740680D01*
X42941312Y-93620982D01*
X42953572Y-93496500D01*
X42953572Y-91796500D01*
X42941312Y-91672018D01*
X42905002Y-91552320D01*
X42846037Y-91442006D01*
X42766685Y-91345315D01*
X42669994Y-91265963D01*
X42559680Y-91206998D01*
X42479034Y-91182534D01*
X42563088Y-91106769D01*
X42737141Y-90873420D01*
X42862325Y-90610599D01*
X42906976Y-90463390D01*
X42785655Y-90233500D01*
X41592500Y-90233500D01*
X41592500Y-90253500D01*
X41338500Y-90253500D01*
X41338500Y-90233500D01*
X41318500Y-90233500D01*
X41318500Y-89979500D01*
X41338500Y-89979500D01*
X41338500Y-88785686D01*
X41592500Y-88785686D01*
X41592500Y-89979500D01*
X42785655Y-89979500D01*
X42906976Y-89749610D01*
X42862325Y-89602401D01*
X42737141Y-89339580D01*
X42563088Y-89106231D01*
X42346855Y-88911322D01*
X42096752Y-88762343D01*
X41822391Y-88665019D01*
X41592500Y-88785686D01*
X41338500Y-88785686D01*
X41108609Y-88665019D01*
X40834248Y-88762343D01*
X40584145Y-88911322D01*
X40367912Y-89106231D01*
X40193859Y-89339580D01*
X40068675Y-89602401D01*
X40042700Y-89688037D01*
X40042700Y-84950300D01*
X52594304Y-84950300D01*
X52594304Y-101422200D01*
X52596744Y-101446976D01*
X52603971Y-101470801D01*
X52615707Y-101492757D01*
X52631501Y-101512003D01*
X52650747Y-101527797D01*
X52672703Y-101539533D01*
X52696528Y-101546760D01*
X52721304Y-101549200D01*
X92456000Y-101549200D01*
X92480776Y-101546760D01*
X92504601Y-101539533D01*
X92526557Y-101527797D01*
X92545803Y-101512003D01*
X92561597Y-101492757D01*
X92573333Y-101470801D01*
X92580560Y-101446976D01*
X92583000Y-101422200D01*
X92583000Y-84140800D01*
X93053128Y-84140800D01*
X93053128Y-86140800D01*
X93065388Y-86265282D01*
X93101698Y-86384980D01*
X93160663Y-86495294D01*
X93240015Y-86591985D01*
X93336706Y-86671337D01*
X93447020Y-86730302D01*
X93566718Y-86766612D01*
X93691200Y-86778872D01*
X95691200Y-86778872D01*
X95815682Y-86766612D01*
X95935380Y-86730302D01*
X96045694Y-86671337D01*
X96142385Y-86591985D01*
X96221737Y-86495294D01*
X96280702Y-86384980D01*
X96313696Y-86276213D01*
X101235392Y-86276213D01*
X101331156Y-86540614D01*
X101620771Y-86681504D01*
X101932308Y-86763184D01*
X102253795Y-86782518D01*
X102572875Y-86738761D01*
X102877288Y-86633595D01*
X103051244Y-86540614D01*
X103147008Y-86276213D01*
X102191200Y-85320405D01*
X101235392Y-86276213D01*
X96313696Y-86276213D01*
X96317012Y-86265282D01*
X96329272Y-86140800D01*
X96329272Y-85203395D01*
X100549482Y-85203395D01*
X100593239Y-85522475D01*
X100698405Y-85826888D01*
X100791386Y-86000844D01*
X101055787Y-86096608D01*
X102011595Y-85140800D01*
X101055787Y-84184992D01*
X100791386Y-84280756D01*
X100650496Y-84570371D01*
X100568816Y-84881908D01*
X100549482Y-85203395D01*
X96329272Y-85203395D01*
X96329272Y-84140800D01*
X96317012Y-84016318D01*
X96313697Y-84005387D01*
X101235392Y-84005387D01*
X102191200Y-84961195D01*
X103147008Y-84005387D01*
X103051244Y-83740986D01*
X102761629Y-83600096D01*
X102450092Y-83518416D01*
X102128605Y-83499082D01*
X101809525Y-83542839D01*
X101505112Y-83648005D01*
X101331156Y-83740986D01*
X101235392Y-84005387D01*
X96313697Y-84005387D01*
X96280702Y-83896620D01*
X96221737Y-83786306D01*
X96142385Y-83689615D01*
X96045694Y-83610263D01*
X95935380Y-83551298D01*
X95815682Y-83514988D01*
X95691200Y-83502728D01*
X93691200Y-83502728D01*
X93566718Y-83514988D01*
X93447020Y-83551298D01*
X93336706Y-83610263D01*
X93240015Y-83689615D01*
X93160663Y-83786306D01*
X93101698Y-83896620D01*
X93065388Y-84016318D01*
X93053128Y-84140800D01*
X92583000Y-84140800D01*
X92583000Y-79808606D01*
X93524606Y-78867000D01*
X96520000Y-78867000D01*
X96544776Y-78864560D01*
X96568601Y-78857333D01*
X96590557Y-78845597D01*
X96609803Y-78829803D01*
X96625597Y-78810557D01*
X96637333Y-78788601D01*
X96644560Y-78764776D01*
X96647000Y-78740000D01*
X96647000Y-74320000D01*
X103543500Y-74320000D01*
X103543500Y-84263547D01*
G37*
%TD.AperFunction*%
%TD*%
M02*
