%TF.GenerationSoftware,KiCad,Pcbnew,5.1.12-84ad8e8a86~92~ubuntu20.04.1*%
%TF.CreationDate,2021-12-14T21:30:58-06:00*%
%TF.ProjectId,Solder_Reflow_Oven_2.0,536f6c64-6572-45f5-9265-666c6f775f4f,rev?*%
%TF.SameCoordinates,Original*%
%TF.FileFunction,Copper,L1,Top*%
%TF.FilePolarity,Positive*%
%FSLAX46Y46*%
G04 Gerber Fmt 4.6, Leading zero omitted, Abs format (unit mm)*
G04 Created by KiCad (PCBNEW 5.1.12-84ad8e8a86~92~ubuntu20.04.1) date 2021-12-14 21:30:58*
%MOMM*%
%LPD*%
G01*
G04 APERTURE LIST*
%TA.AperFunction,ComponentPad*%
%ADD10C,2.000000*%
%TD*%
%TA.AperFunction,ComponentPad*%
%ADD11R,2.000000X2.000000*%
%TD*%
%TA.AperFunction,SMDPad,CuDef*%
%ADD12R,2.200000X1.800000*%
%TD*%
%TA.AperFunction,SMDPad,CuDef*%
%ADD13R,1.300000X0.300000*%
%TD*%
%TA.AperFunction,SMDPad,CuDef*%
%ADD14R,1.300000X1.550000*%
%TD*%
%TA.AperFunction,ComponentPad*%
%ADD15C,2.600000*%
%TD*%
%TA.AperFunction,ComponentPad*%
%ADD16R,2.600000X2.600000*%
%TD*%
%TA.AperFunction,SMDPad,CuDef*%
%ADD17R,2.200000X1.200000*%
%TD*%
%TA.AperFunction,SMDPad,CuDef*%
%ADD18R,6.400000X5.800000*%
%TD*%
%TA.AperFunction,SMDPad,CuDef*%
%ADD19R,1.060000X0.650000*%
%TD*%
%TA.AperFunction,SMDPad,CuDef*%
%ADD20R,1.000000X0.800000*%
%TD*%
%TA.AperFunction,SMDPad,CuDef*%
%ADD21R,1.800000X2.100000*%
%TD*%
%TA.AperFunction,SMDPad,CuDef*%
%ADD22R,2.000000X3.800000*%
%TD*%
%TA.AperFunction,SMDPad,CuDef*%
%ADD23R,2.000000X1.500000*%
%TD*%
%TA.AperFunction,ComponentPad*%
%ADD24C,1.524000*%
%TD*%
%TA.AperFunction,ComponentPad*%
%ADD25R,1.700000X1.700000*%
%TD*%
%TA.AperFunction,ComponentPad*%
%ADD26O,1.700000X1.700000*%
%TD*%
%TA.AperFunction,ComponentPad*%
%ADD27R,1.600000X1.600000*%
%TD*%
%TA.AperFunction,ComponentPad*%
%ADD28C,1.600000*%
%TD*%
%TA.AperFunction,ComponentPad*%
%ADD29C,4.000000*%
%TD*%
%TA.AperFunction,ViaPad*%
%ADD30C,0.800000*%
%TD*%
%TA.AperFunction,Conductor*%
%ADD31C,0.250000*%
%TD*%
%TA.AperFunction,Conductor*%
%ADD32C,0.711200*%
%TD*%
%TA.AperFunction,Conductor*%
%ADD33C,0.254000*%
%TD*%
%TA.AperFunction,Conductor*%
%ADD34C,0.700000*%
%TD*%
%TA.AperFunction,Conductor*%
%ADD35C,0.457200*%
%TD*%
%TA.AperFunction,Conductor*%
%ADD36C,0.200000*%
%TD*%
%TA.AperFunction,Conductor*%
%ADD37C,0.450000*%
%TD*%
%TA.AperFunction,Conductor*%
%ADD38C,0.914400*%
%TD*%
%TA.AperFunction,Conductor*%
%ADD39C,0.177800*%
%TD*%
%TA.AperFunction,Conductor*%
%ADD40C,0.100000*%
%TD*%
G04 APERTURE END LIST*
%TO.P,C1,2*%
%TO.N,VSS*%
%TA.AperFunction,SMDPad,CuDef*%
G36*
G01*
X77972500Y-123032500D02*
X77972500Y-123982500D01*
G75*
G02*
X77722500Y-124232500I-250000J0D01*
G01*
X77047500Y-124232500D01*
G75*
G02*
X76797500Y-123982500I0J250000D01*
G01*
X76797500Y-123032500D01*
G75*
G02*
X77047500Y-122782500I250000J0D01*
G01*
X77722500Y-122782500D01*
G75*
G02*
X77972500Y-123032500I0J-250000D01*
G01*
G37*
%TD.AperFunction*%
%TO.P,C1,1*%
%TO.N,OSC_IN*%
%TA.AperFunction,SMDPad,CuDef*%
G36*
G01*
X80047500Y-123032500D02*
X80047500Y-123982500D01*
G75*
G02*
X79797500Y-124232500I-250000J0D01*
G01*
X79122500Y-124232500D01*
G75*
G02*
X78872500Y-123982500I0J250000D01*
G01*
X78872500Y-123032500D01*
G75*
G02*
X79122500Y-122782500I250000J0D01*
G01*
X79797500Y-122782500D01*
G75*
G02*
X80047500Y-123032500I0J-250000D01*
G01*
G37*
%TD.AperFunction*%
%TD*%
%TO.P,C2,2*%
%TO.N,VSS*%
%TA.AperFunction,SMDPad,CuDef*%
G36*
G01*
X74427500Y-113886000D02*
X74427500Y-112936000D01*
G75*
G02*
X74677500Y-112686000I250000J0D01*
G01*
X75352500Y-112686000D01*
G75*
G02*
X75602500Y-112936000I0J-250000D01*
G01*
X75602500Y-113886000D01*
G75*
G02*
X75352500Y-114136000I-250000J0D01*
G01*
X74677500Y-114136000D01*
G75*
G02*
X74427500Y-113886000I0J250000D01*
G01*
G37*
%TD.AperFunction*%
%TO.P,C2,1*%
%TO.N,NRST*%
%TA.AperFunction,SMDPad,CuDef*%
G36*
G01*
X72352500Y-113886000D02*
X72352500Y-112936000D01*
G75*
G02*
X72602500Y-112686000I250000J0D01*
G01*
X73277500Y-112686000D01*
G75*
G02*
X73527500Y-112936000I0J-250000D01*
G01*
X73527500Y-113886000D01*
G75*
G02*
X73277500Y-114136000I-250000J0D01*
G01*
X72602500Y-114136000D01*
G75*
G02*
X72352500Y-113886000I0J250000D01*
G01*
G37*
%TD.AperFunction*%
%TD*%
%TO.P,C4,2*%
%TO.N,VSS*%
%TA.AperFunction,SMDPad,CuDef*%
G36*
G01*
X68522000Y-107028000D02*
X68522000Y-106078000D01*
G75*
G02*
X68772000Y-105828000I250000J0D01*
G01*
X69447000Y-105828000D01*
G75*
G02*
X69697000Y-106078000I0J-250000D01*
G01*
X69697000Y-107028000D01*
G75*
G02*
X69447000Y-107278000I-250000J0D01*
G01*
X68772000Y-107278000D01*
G75*
G02*
X68522000Y-107028000I0J250000D01*
G01*
G37*
%TD.AperFunction*%
%TO.P,C4,1*%
%TO.N,VDD_3.3*%
%TA.AperFunction,SMDPad,CuDef*%
G36*
G01*
X66447000Y-107028000D02*
X66447000Y-106078000D01*
G75*
G02*
X66697000Y-105828000I250000J0D01*
G01*
X67372000Y-105828000D01*
G75*
G02*
X67622000Y-106078000I0J-250000D01*
G01*
X67622000Y-107028000D01*
G75*
G02*
X67372000Y-107278000I-250000J0D01*
G01*
X66697000Y-107278000D01*
G75*
G02*
X66447000Y-107028000I0J250000D01*
G01*
G37*
%TD.AperFunction*%
%TD*%
%TO.P,C5,2*%
%TO.N,VSS*%
%TA.AperFunction,SMDPad,CuDef*%
G36*
G01*
X69184500Y-122243000D02*
X70134500Y-122243000D01*
G75*
G02*
X70384500Y-122493000I0J-250000D01*
G01*
X70384500Y-123168000D01*
G75*
G02*
X70134500Y-123418000I-250000J0D01*
G01*
X69184500Y-123418000D01*
G75*
G02*
X68934500Y-123168000I0J250000D01*
G01*
X68934500Y-122493000D01*
G75*
G02*
X69184500Y-122243000I250000J0D01*
G01*
G37*
%TD.AperFunction*%
%TO.P,C5,1*%
%TO.N,VDD_3.3*%
%TA.AperFunction,SMDPad,CuDef*%
G36*
G01*
X69184500Y-120168000D02*
X70134500Y-120168000D01*
G75*
G02*
X70384500Y-120418000I0J-250000D01*
G01*
X70384500Y-121093000D01*
G75*
G02*
X70134500Y-121343000I-250000J0D01*
G01*
X69184500Y-121343000D01*
G75*
G02*
X68934500Y-121093000I0J250000D01*
G01*
X68934500Y-120418000D01*
G75*
G02*
X69184500Y-120168000I250000J0D01*
G01*
G37*
%TD.AperFunction*%
%TD*%
%TO.P,C6,2*%
%TO.N,VSS*%
%TA.AperFunction,SMDPad,CuDef*%
G36*
G01*
X62553000Y-107028000D02*
X62553000Y-106078000D01*
G75*
G02*
X62803000Y-105828000I250000J0D01*
G01*
X63478000Y-105828000D01*
G75*
G02*
X63728000Y-106078000I0J-250000D01*
G01*
X63728000Y-107028000D01*
G75*
G02*
X63478000Y-107278000I-250000J0D01*
G01*
X62803000Y-107278000D01*
G75*
G02*
X62553000Y-107028000I0J250000D01*
G01*
G37*
%TD.AperFunction*%
%TO.P,C6,1*%
%TO.N,VDD_3.3*%
%TA.AperFunction,SMDPad,CuDef*%
G36*
G01*
X60478000Y-107028000D02*
X60478000Y-106078000D01*
G75*
G02*
X60728000Y-105828000I250000J0D01*
G01*
X61403000Y-105828000D01*
G75*
G02*
X61653000Y-106078000I0J-250000D01*
G01*
X61653000Y-107028000D01*
G75*
G02*
X61403000Y-107278000I-250000J0D01*
G01*
X60728000Y-107278000D01*
G75*
G02*
X60478000Y-107028000I0J250000D01*
G01*
G37*
%TD.AperFunction*%
%TD*%
%TO.P,C7,2*%
%TO.N,OSC_OUT*%
%TA.AperFunction,SMDPad,CuDef*%
G36*
G01*
X77083500Y-115222000D02*
X77083500Y-116172000D01*
G75*
G02*
X76833500Y-116422000I-250000J0D01*
G01*
X76158500Y-116422000D01*
G75*
G02*
X75908500Y-116172000I0J250000D01*
G01*
X75908500Y-115222000D01*
G75*
G02*
X76158500Y-114972000I250000J0D01*
G01*
X76833500Y-114972000D01*
G75*
G02*
X77083500Y-115222000I0J-250000D01*
G01*
G37*
%TD.AperFunction*%
%TO.P,C7,1*%
%TO.N,VSS*%
%TA.AperFunction,SMDPad,CuDef*%
G36*
G01*
X79158500Y-115222000D02*
X79158500Y-116172000D01*
G75*
G02*
X78908500Y-116422000I-250000J0D01*
G01*
X78233500Y-116422000D01*
G75*
G02*
X77983500Y-116172000I0J250000D01*
G01*
X77983500Y-115222000D01*
G75*
G02*
X78233500Y-114972000I250000J0D01*
G01*
X78908500Y-114972000D01*
G75*
G02*
X79158500Y-115222000I0J-250000D01*
G01*
G37*
%TD.AperFunction*%
%TD*%
%TO.P,C8,2*%
%TO.N,VSS*%
%TA.AperFunction,SMDPad,CuDef*%
G36*
G01*
X62553000Y-104869000D02*
X62553000Y-103919000D01*
G75*
G02*
X62803000Y-103669000I250000J0D01*
G01*
X63478000Y-103669000D01*
G75*
G02*
X63728000Y-103919000I0J-250000D01*
G01*
X63728000Y-104869000D01*
G75*
G02*
X63478000Y-105119000I-250000J0D01*
G01*
X62803000Y-105119000D01*
G75*
G02*
X62553000Y-104869000I0J250000D01*
G01*
G37*
%TD.AperFunction*%
%TO.P,C8,1*%
%TO.N,VDD_3.3*%
%TA.AperFunction,SMDPad,CuDef*%
G36*
G01*
X60478000Y-104869000D02*
X60478000Y-103919000D01*
G75*
G02*
X60728000Y-103669000I250000J0D01*
G01*
X61403000Y-103669000D01*
G75*
G02*
X61653000Y-103919000I0J-250000D01*
G01*
X61653000Y-104869000D01*
G75*
G02*
X61403000Y-105119000I-250000J0D01*
G01*
X60728000Y-105119000D01*
G75*
G02*
X60478000Y-104869000I0J250000D01*
G01*
G37*
%TD.AperFunction*%
%TD*%
%TO.P,C9,2*%
%TO.N,VSS*%
%TA.AperFunction,SMDPad,CuDef*%
G36*
G01*
X68522000Y-104869000D02*
X68522000Y-103919000D01*
G75*
G02*
X68772000Y-103669000I250000J0D01*
G01*
X69447000Y-103669000D01*
G75*
G02*
X69697000Y-103919000I0J-250000D01*
G01*
X69697000Y-104869000D01*
G75*
G02*
X69447000Y-105119000I-250000J0D01*
G01*
X68772000Y-105119000D01*
G75*
G02*
X68522000Y-104869000I0J250000D01*
G01*
G37*
%TD.AperFunction*%
%TO.P,C9,1*%
%TO.N,VDD_3.3*%
%TA.AperFunction,SMDPad,CuDef*%
G36*
G01*
X66447000Y-104869000D02*
X66447000Y-103919000D01*
G75*
G02*
X66697000Y-103669000I250000J0D01*
G01*
X67372000Y-103669000D01*
G75*
G02*
X67622000Y-103919000I0J-250000D01*
G01*
X67622000Y-104869000D01*
G75*
G02*
X67372000Y-105119000I-250000J0D01*
G01*
X66697000Y-105119000D01*
G75*
G02*
X66447000Y-104869000I0J250000D01*
G01*
G37*
%TD.AperFunction*%
%TD*%
%TO.P,C11,2*%
%TO.N,VSS*%
%TA.AperFunction,SMDPad,CuDef*%
G36*
G01*
X71343500Y-122221500D02*
X72293500Y-122221500D01*
G75*
G02*
X72543500Y-122471500I0J-250000D01*
G01*
X72543500Y-123146500D01*
G75*
G02*
X72293500Y-123396500I-250000J0D01*
G01*
X71343500Y-123396500D01*
G75*
G02*
X71093500Y-123146500I0J250000D01*
G01*
X71093500Y-122471500D01*
G75*
G02*
X71343500Y-122221500I250000J0D01*
G01*
G37*
%TD.AperFunction*%
%TO.P,C11,1*%
%TO.N,VDD_3.3*%
%TA.AperFunction,SMDPad,CuDef*%
G36*
G01*
X71343500Y-120146500D02*
X72293500Y-120146500D01*
G75*
G02*
X72543500Y-120396500I0J-250000D01*
G01*
X72543500Y-121071500D01*
G75*
G02*
X72293500Y-121321500I-250000J0D01*
G01*
X71343500Y-121321500D01*
G75*
G02*
X71093500Y-121071500I0J250000D01*
G01*
X71093500Y-120396500D01*
G75*
G02*
X71343500Y-120146500I250000J0D01*
G01*
G37*
%TD.AperFunction*%
%TD*%
%TO.P,C12,2*%
%TO.N,VSS*%
%TA.AperFunction,SMDPad,CuDef*%
G36*
G01*
X55021500Y-118422000D02*
X54071500Y-118422000D01*
G75*
G02*
X53821500Y-118172000I0J250000D01*
G01*
X53821500Y-117497000D01*
G75*
G02*
X54071500Y-117247000I250000J0D01*
G01*
X55021500Y-117247000D01*
G75*
G02*
X55271500Y-117497000I0J-250000D01*
G01*
X55271500Y-118172000D01*
G75*
G02*
X55021500Y-118422000I-250000J0D01*
G01*
G37*
%TD.AperFunction*%
%TO.P,C12,1*%
%TO.N,VDD_3.3*%
%TA.AperFunction,SMDPad,CuDef*%
G36*
G01*
X55021500Y-120497000D02*
X54071500Y-120497000D01*
G75*
G02*
X53821500Y-120247000I0J250000D01*
G01*
X53821500Y-119572000D01*
G75*
G02*
X54071500Y-119322000I250000J0D01*
G01*
X55021500Y-119322000D01*
G75*
G02*
X55271500Y-119572000I0J-250000D01*
G01*
X55271500Y-120247000D01*
G75*
G02*
X55021500Y-120497000I-250000J0D01*
G01*
G37*
%TD.AperFunction*%
%TD*%
%TO.P,C13,2*%
%TO.N,VSS*%
%TA.AperFunction,SMDPad,CuDef*%
G36*
G01*
X96070000Y-100363000D02*
X96070000Y-101313000D01*
G75*
G02*
X95820000Y-101563000I-250000J0D01*
G01*
X95145000Y-101563000D01*
G75*
G02*
X94895000Y-101313000I0J250000D01*
G01*
X94895000Y-100363000D01*
G75*
G02*
X95145000Y-100113000I250000J0D01*
G01*
X95820000Y-100113000D01*
G75*
G02*
X96070000Y-100363000I0J-250000D01*
G01*
G37*
%TD.AperFunction*%
%TO.P,C13,1*%
%TO.N,VDD_10*%
%TA.AperFunction,SMDPad,CuDef*%
G36*
G01*
X98145000Y-100363000D02*
X98145000Y-101313000D01*
G75*
G02*
X97895000Y-101563000I-250000J0D01*
G01*
X97220000Y-101563000D01*
G75*
G02*
X96970000Y-101313000I0J250000D01*
G01*
X96970000Y-100363000D01*
G75*
G02*
X97220000Y-100113000I250000J0D01*
G01*
X97895000Y-100113000D01*
G75*
G02*
X98145000Y-100363000I0J-250000D01*
G01*
G37*
%TD.AperFunction*%
%TD*%
%TO.P,C14,2*%
%TO.N,VSS*%
%TA.AperFunction,SMDPad,CuDef*%
G36*
G01*
X72613500Y-109987500D02*
X73563500Y-109987500D01*
G75*
G02*
X73813500Y-110237500I0J-250000D01*
G01*
X73813500Y-110912500D01*
G75*
G02*
X73563500Y-111162500I-250000J0D01*
G01*
X72613500Y-111162500D01*
G75*
G02*
X72363500Y-110912500I0J250000D01*
G01*
X72363500Y-110237500D01*
G75*
G02*
X72613500Y-109987500I250000J0D01*
G01*
G37*
%TD.AperFunction*%
%TO.P,C14,1*%
%TO.N,VDDA_3.3*%
%TA.AperFunction,SMDPad,CuDef*%
G36*
G01*
X72613500Y-107912500D02*
X73563500Y-107912500D01*
G75*
G02*
X73813500Y-108162500I0J-250000D01*
G01*
X73813500Y-108837500D01*
G75*
G02*
X73563500Y-109087500I-250000J0D01*
G01*
X72613500Y-109087500D01*
G75*
G02*
X72363500Y-108837500I0J250000D01*
G01*
X72363500Y-108162500D01*
G75*
G02*
X72613500Y-107912500I250000J0D01*
G01*
G37*
%TD.AperFunction*%
%TD*%
%TO.P,C15,2*%
%TO.N,VSS*%
%TA.AperFunction,SMDPad,CuDef*%
G36*
G01*
X74709000Y-109987500D02*
X75659000Y-109987500D01*
G75*
G02*
X75909000Y-110237500I0J-250000D01*
G01*
X75909000Y-110912500D01*
G75*
G02*
X75659000Y-111162500I-250000J0D01*
G01*
X74709000Y-111162500D01*
G75*
G02*
X74459000Y-110912500I0J250000D01*
G01*
X74459000Y-110237500D01*
G75*
G02*
X74709000Y-109987500I250000J0D01*
G01*
G37*
%TD.AperFunction*%
%TO.P,C15,1*%
%TO.N,VDDA_3.3*%
%TA.AperFunction,SMDPad,CuDef*%
G36*
G01*
X74709000Y-107912500D02*
X75659000Y-107912500D01*
G75*
G02*
X75909000Y-108162500I0J-250000D01*
G01*
X75909000Y-108837500D01*
G75*
G02*
X75659000Y-109087500I-250000J0D01*
G01*
X74709000Y-109087500D01*
G75*
G02*
X74459000Y-108837500I0J250000D01*
G01*
X74459000Y-108162500D01*
G75*
G02*
X74709000Y-107912500I250000J0D01*
G01*
G37*
%TD.AperFunction*%
%TD*%
%TO.P,C16,2*%
%TO.N,VSS*%
%TA.AperFunction,SMDPad,CuDef*%
G36*
G01*
X56457000Y-130840500D02*
X56457000Y-129890500D01*
G75*
G02*
X56707000Y-129640500I250000J0D01*
G01*
X57382000Y-129640500D01*
G75*
G02*
X57632000Y-129890500I0J-250000D01*
G01*
X57632000Y-130840500D01*
G75*
G02*
X57382000Y-131090500I-250000J0D01*
G01*
X56707000Y-131090500D01*
G75*
G02*
X56457000Y-130840500I0J250000D01*
G01*
G37*
%TD.AperFunction*%
%TO.P,C16,1*%
%TO.N,VDD_3.3*%
%TA.AperFunction,SMDPad,CuDef*%
G36*
G01*
X54382000Y-130840500D02*
X54382000Y-129890500D01*
G75*
G02*
X54632000Y-129640500I250000J0D01*
G01*
X55307000Y-129640500D01*
G75*
G02*
X55557000Y-129890500I0J-250000D01*
G01*
X55557000Y-130840500D01*
G75*
G02*
X55307000Y-131090500I-250000J0D01*
G01*
X54632000Y-131090500D01*
G75*
G02*
X54382000Y-130840500I0J250000D01*
G01*
G37*
%TD.AperFunction*%
%TD*%
%TO.P,C3,2*%
%TO.N,VSS*%
%TA.AperFunction,SMDPad,CuDef*%
G36*
G01*
X57117000Y-118422000D02*
X56167000Y-118422000D01*
G75*
G02*
X55917000Y-118172000I0J250000D01*
G01*
X55917000Y-117497000D01*
G75*
G02*
X56167000Y-117247000I250000J0D01*
G01*
X57117000Y-117247000D01*
G75*
G02*
X57367000Y-117497000I0J-250000D01*
G01*
X57367000Y-118172000D01*
G75*
G02*
X57117000Y-118422000I-250000J0D01*
G01*
G37*
%TD.AperFunction*%
%TO.P,C3,1*%
%TO.N,VDD_3.3*%
%TA.AperFunction,SMDPad,CuDef*%
G36*
G01*
X57117000Y-120497000D02*
X56167000Y-120497000D01*
G75*
G02*
X55917000Y-120247000I0J250000D01*
G01*
X55917000Y-119572000D01*
G75*
G02*
X56167000Y-119322000I250000J0D01*
G01*
X57117000Y-119322000D01*
G75*
G02*
X57367000Y-119572000I0J-250000D01*
G01*
X57367000Y-120247000D01*
G75*
G02*
X57117000Y-120497000I-250000J0D01*
G01*
G37*
%TD.AperFunction*%
%TD*%
D10*
%TO.P,C10,2*%
%TO.N,VSS*%
X102305500Y-86042500D03*
D11*
%TO.P,C10,1*%
%TO.N,Net-(C10-Pad1)*%
X94805500Y-86042500D03*
%TD*%
%TO.P,U4,1*%
%TO.N,N/C*%
%TA.AperFunction,SMDPad,CuDef*%
G36*
G01*
X70826300Y-118114700D02*
X70826300Y-118264700D01*
G75*
G02*
X70751300Y-118339700I-75000J0D01*
G01*
X69351300Y-118339700D01*
G75*
G02*
X69276300Y-118264700I0J75000D01*
G01*
X69276300Y-118114700D01*
G75*
G02*
X69351300Y-118039700I75000J0D01*
G01*
X70751300Y-118039700D01*
G75*
G02*
X70826300Y-118114700I0J-75000D01*
G01*
G37*
%TD.AperFunction*%
%TO.P,U4,2*%
%TO.N,Net-(U4-Pad2)*%
%TA.AperFunction,SMDPad,CuDef*%
G36*
G01*
X70826300Y-117614700D02*
X70826300Y-117764700D01*
G75*
G02*
X70751300Y-117839700I-75000J0D01*
G01*
X69351300Y-117839700D01*
G75*
G02*
X69276300Y-117764700I0J75000D01*
G01*
X69276300Y-117614700D01*
G75*
G02*
X69351300Y-117539700I75000J0D01*
G01*
X70751300Y-117539700D01*
G75*
G02*
X70826300Y-117614700I0J-75000D01*
G01*
G37*
%TD.AperFunction*%
%TO.P,U4,3*%
%TO.N,Net-(U4-Pad3)*%
%TA.AperFunction,SMDPad,CuDef*%
G36*
G01*
X70826300Y-117114700D02*
X70826300Y-117264700D01*
G75*
G02*
X70751300Y-117339700I-75000J0D01*
G01*
X69351300Y-117339700D01*
G75*
G02*
X69276300Y-117264700I0J75000D01*
G01*
X69276300Y-117114700D01*
G75*
G02*
X69351300Y-117039700I75000J0D01*
G01*
X70751300Y-117039700D01*
G75*
G02*
X70826300Y-117114700I0J-75000D01*
G01*
G37*
%TD.AperFunction*%
%TO.P,U4,4*%
%TO.N,Net-(U4-Pad4)*%
%TA.AperFunction,SMDPad,CuDef*%
G36*
G01*
X70826300Y-116614700D02*
X70826300Y-116764700D01*
G75*
G02*
X70751300Y-116839700I-75000J0D01*
G01*
X69351300Y-116839700D01*
G75*
G02*
X69276300Y-116764700I0J75000D01*
G01*
X69276300Y-116614700D01*
G75*
G02*
X69351300Y-116539700I75000J0D01*
G01*
X70751300Y-116539700D01*
G75*
G02*
X70826300Y-116614700I0J-75000D01*
G01*
G37*
%TD.AperFunction*%
%TO.P,U4,5*%
%TO.N,OSC_IN*%
%TA.AperFunction,SMDPad,CuDef*%
G36*
G01*
X70826300Y-116114700D02*
X70826300Y-116264700D01*
G75*
G02*
X70751300Y-116339700I-75000J0D01*
G01*
X69351300Y-116339700D01*
G75*
G02*
X69276300Y-116264700I0J75000D01*
G01*
X69276300Y-116114700D01*
G75*
G02*
X69351300Y-116039700I75000J0D01*
G01*
X70751300Y-116039700D01*
G75*
G02*
X70826300Y-116114700I0J-75000D01*
G01*
G37*
%TD.AperFunction*%
%TO.P,U4,6*%
%TO.N,OSC_OUT*%
%TA.AperFunction,SMDPad,CuDef*%
G36*
G01*
X70826300Y-115614700D02*
X70826300Y-115764700D01*
G75*
G02*
X70751300Y-115839700I-75000J0D01*
G01*
X69351300Y-115839700D01*
G75*
G02*
X69276300Y-115764700I0J75000D01*
G01*
X69276300Y-115614700D01*
G75*
G02*
X69351300Y-115539700I75000J0D01*
G01*
X70751300Y-115539700D01*
G75*
G02*
X70826300Y-115614700I0J-75000D01*
G01*
G37*
%TD.AperFunction*%
%TO.P,U4,7*%
%TO.N,NRST*%
%TA.AperFunction,SMDPad,CuDef*%
G36*
G01*
X70826300Y-115114700D02*
X70826300Y-115264700D01*
G75*
G02*
X70751300Y-115339700I-75000J0D01*
G01*
X69351300Y-115339700D01*
G75*
G02*
X69276300Y-115264700I0J75000D01*
G01*
X69276300Y-115114700D01*
G75*
G02*
X69351300Y-115039700I75000J0D01*
G01*
X70751300Y-115039700D01*
G75*
G02*
X70826300Y-115114700I0J-75000D01*
G01*
G37*
%TD.AperFunction*%
%TO.P,U4,8*%
%TO.N,Net-(U4-Pad8)*%
%TA.AperFunction,SMDPad,CuDef*%
G36*
G01*
X70826300Y-114614700D02*
X70826300Y-114764700D01*
G75*
G02*
X70751300Y-114839700I-75000J0D01*
G01*
X69351300Y-114839700D01*
G75*
G02*
X69276300Y-114764700I0J75000D01*
G01*
X69276300Y-114614700D01*
G75*
G02*
X69351300Y-114539700I75000J0D01*
G01*
X70751300Y-114539700D01*
G75*
G02*
X70826300Y-114614700I0J-75000D01*
G01*
G37*
%TD.AperFunction*%
%TO.P,U4,9*%
%TO.N,Net-(U4-Pad9)*%
%TA.AperFunction,SMDPad,CuDef*%
G36*
G01*
X70826300Y-114114700D02*
X70826300Y-114264700D01*
G75*
G02*
X70751300Y-114339700I-75000J0D01*
G01*
X69351300Y-114339700D01*
G75*
G02*
X69276300Y-114264700I0J75000D01*
G01*
X69276300Y-114114700D01*
G75*
G02*
X69351300Y-114039700I75000J0D01*
G01*
X70751300Y-114039700D01*
G75*
G02*
X70826300Y-114114700I0J-75000D01*
G01*
G37*
%TD.AperFunction*%
%TO.P,U4,10*%
%TO.N,Net-(U4-Pad10)*%
%TA.AperFunction,SMDPad,CuDef*%
G36*
G01*
X70826300Y-113614700D02*
X70826300Y-113764700D01*
G75*
G02*
X70751300Y-113839700I-75000J0D01*
G01*
X69351300Y-113839700D01*
G75*
G02*
X69276300Y-113764700I0J75000D01*
G01*
X69276300Y-113614700D01*
G75*
G02*
X69351300Y-113539700I75000J0D01*
G01*
X70751300Y-113539700D01*
G75*
G02*
X70826300Y-113614700I0J-75000D01*
G01*
G37*
%TD.AperFunction*%
%TO.P,U4,11*%
%TO.N,N/C*%
%TA.AperFunction,SMDPad,CuDef*%
G36*
G01*
X70826300Y-113114700D02*
X70826300Y-113264700D01*
G75*
G02*
X70751300Y-113339700I-75000J0D01*
G01*
X69351300Y-113339700D01*
G75*
G02*
X69276300Y-113264700I0J75000D01*
G01*
X69276300Y-113114700D01*
G75*
G02*
X69351300Y-113039700I75000J0D01*
G01*
X70751300Y-113039700D01*
G75*
G02*
X70826300Y-113114700I0J-75000D01*
G01*
G37*
%TD.AperFunction*%
%TO.P,U4,12*%
%TO.N,VSS*%
%TA.AperFunction,SMDPad,CuDef*%
G36*
G01*
X70826300Y-112614700D02*
X70826300Y-112764700D01*
G75*
G02*
X70751300Y-112839700I-75000J0D01*
G01*
X69351300Y-112839700D01*
G75*
G02*
X69276300Y-112764700I0J75000D01*
G01*
X69276300Y-112614700D01*
G75*
G02*
X69351300Y-112539700I75000J0D01*
G01*
X70751300Y-112539700D01*
G75*
G02*
X70826300Y-112614700I0J-75000D01*
G01*
G37*
%TD.AperFunction*%
%TO.P,U4,13*%
%TO.N,VDDA_3.3*%
%TA.AperFunction,SMDPad,CuDef*%
G36*
G01*
X70826300Y-112114700D02*
X70826300Y-112264700D01*
G75*
G02*
X70751300Y-112339700I-75000J0D01*
G01*
X69351300Y-112339700D01*
G75*
G02*
X69276300Y-112264700I0J75000D01*
G01*
X69276300Y-112114700D01*
G75*
G02*
X69351300Y-112039700I75000J0D01*
G01*
X70751300Y-112039700D01*
G75*
G02*
X70826300Y-112114700I0J-75000D01*
G01*
G37*
%TD.AperFunction*%
%TO.P,U4,14*%
%TO.N,Net-(U4-Pad14)*%
%TA.AperFunction,SMDPad,CuDef*%
G36*
G01*
X70826300Y-111614700D02*
X70826300Y-111764700D01*
G75*
G02*
X70751300Y-111839700I-75000J0D01*
G01*
X69351300Y-111839700D01*
G75*
G02*
X69276300Y-111764700I0J75000D01*
G01*
X69276300Y-111614700D01*
G75*
G02*
X69351300Y-111539700I75000J0D01*
G01*
X70751300Y-111539700D01*
G75*
G02*
X70826300Y-111614700I0J-75000D01*
G01*
G37*
%TD.AperFunction*%
%TO.P,U4,15*%
%TO.N,Net-(U4-Pad15)*%
%TA.AperFunction,SMDPad,CuDef*%
G36*
G01*
X70826300Y-111114700D02*
X70826300Y-111264700D01*
G75*
G02*
X70751300Y-111339700I-75000J0D01*
G01*
X69351300Y-111339700D01*
G75*
G02*
X69276300Y-111264700I0J75000D01*
G01*
X69276300Y-111114700D01*
G75*
G02*
X69351300Y-111039700I75000J0D01*
G01*
X70751300Y-111039700D01*
G75*
G02*
X70826300Y-111114700I0J-75000D01*
G01*
G37*
%TD.AperFunction*%
%TO.P,U4,16*%
%TO.N,Net-(U4-Pad16)*%
%TA.AperFunction,SMDPad,CuDef*%
G36*
G01*
X70826300Y-110614700D02*
X70826300Y-110764700D01*
G75*
G02*
X70751300Y-110839700I-75000J0D01*
G01*
X69351300Y-110839700D01*
G75*
G02*
X69276300Y-110764700I0J75000D01*
G01*
X69276300Y-110614700D01*
G75*
G02*
X69351300Y-110539700I75000J0D01*
G01*
X70751300Y-110539700D01*
G75*
G02*
X70826300Y-110614700I0J-75000D01*
G01*
G37*
%TD.AperFunction*%
%TO.P,U4,17*%
%TO.N,N/C*%
%TA.AperFunction,SMDPad,CuDef*%
G36*
G01*
X68276300Y-108064700D02*
X68276300Y-109464700D01*
G75*
G02*
X68201300Y-109539700I-75000J0D01*
G01*
X68051300Y-109539700D01*
G75*
G02*
X67976300Y-109464700I0J75000D01*
G01*
X67976300Y-108064700D01*
G75*
G02*
X68051300Y-107989700I75000J0D01*
G01*
X68201300Y-107989700D01*
G75*
G02*
X68276300Y-108064700I0J-75000D01*
G01*
G37*
%TD.AperFunction*%
%TO.P,U4,18*%
%TO.N,VSS*%
%TA.AperFunction,SMDPad,CuDef*%
G36*
G01*
X67776300Y-108064700D02*
X67776300Y-109464700D01*
G75*
G02*
X67701300Y-109539700I-75000J0D01*
G01*
X67551300Y-109539700D01*
G75*
G02*
X67476300Y-109464700I0J75000D01*
G01*
X67476300Y-108064700D01*
G75*
G02*
X67551300Y-107989700I75000J0D01*
G01*
X67701300Y-107989700D01*
G75*
G02*
X67776300Y-108064700I0J-75000D01*
G01*
G37*
%TD.AperFunction*%
%TO.P,U4,19*%
%TO.N,VDD_3.3*%
%TA.AperFunction,SMDPad,CuDef*%
G36*
G01*
X67276300Y-108064700D02*
X67276300Y-109464700D01*
G75*
G02*
X67201300Y-109539700I-75000J0D01*
G01*
X67051300Y-109539700D01*
G75*
G02*
X66976300Y-109464700I0J75000D01*
G01*
X66976300Y-108064700D01*
G75*
G02*
X67051300Y-107989700I75000J0D01*
G01*
X67201300Y-107989700D01*
G75*
G02*
X67276300Y-108064700I0J-75000D01*
G01*
G37*
%TD.AperFunction*%
%TO.P,U4,20*%
%TO.N,LEDA*%
%TA.AperFunction,SMDPad,CuDef*%
G36*
G01*
X66776300Y-108064700D02*
X66776300Y-109464700D01*
G75*
G02*
X66701300Y-109539700I-75000J0D01*
G01*
X66551300Y-109539700D01*
G75*
G02*
X66476300Y-109464700I0J75000D01*
G01*
X66476300Y-108064700D01*
G75*
G02*
X66551300Y-107989700I75000J0D01*
G01*
X66701300Y-107989700D01*
G75*
G02*
X66776300Y-108064700I0J-75000D01*
G01*
G37*
%TD.AperFunction*%
%TO.P,U4,21*%
%TO.N,LEDK*%
%TA.AperFunction,SMDPad,CuDef*%
G36*
G01*
X66276300Y-108064700D02*
X66276300Y-109464700D01*
G75*
G02*
X66201300Y-109539700I-75000J0D01*
G01*
X66051300Y-109539700D01*
G75*
G02*
X65976300Y-109464700I0J75000D01*
G01*
X65976300Y-108064700D01*
G75*
G02*
X66051300Y-107989700I75000J0D01*
G01*
X66201300Y-107989700D01*
G75*
G02*
X66276300Y-108064700I0J-75000D01*
G01*
G37*
%TD.AperFunction*%
%TO.P,U4,22*%
%TO.N,~RES*%
%TA.AperFunction,SMDPad,CuDef*%
G36*
G01*
X65776300Y-108064700D02*
X65776300Y-109464700D01*
G75*
G02*
X65701300Y-109539700I-75000J0D01*
G01*
X65551300Y-109539700D01*
G75*
G02*
X65476300Y-109464700I0J75000D01*
G01*
X65476300Y-108064700D01*
G75*
G02*
X65551300Y-107989700I75000J0D01*
G01*
X65701300Y-107989700D01*
G75*
G02*
X65776300Y-108064700I0J-75000D01*
G01*
G37*
%TD.AperFunction*%
%TO.P,U4,23*%
%TO.N,~CS*%
%TA.AperFunction,SMDPad,CuDef*%
G36*
G01*
X65276300Y-108064700D02*
X65276300Y-109464700D01*
G75*
G02*
X65201300Y-109539700I-75000J0D01*
G01*
X65051300Y-109539700D01*
G75*
G02*
X64976300Y-109464700I0J75000D01*
G01*
X64976300Y-108064700D01*
G75*
G02*
X65051300Y-107989700I75000J0D01*
G01*
X65201300Y-107989700D01*
G75*
G02*
X65276300Y-108064700I0J-75000D01*
G01*
G37*
%TD.AperFunction*%
%TO.P,U4,24*%
%TO.N,RS*%
%TA.AperFunction,SMDPad,CuDef*%
G36*
G01*
X64776300Y-108064700D02*
X64776300Y-109464700D01*
G75*
G02*
X64701300Y-109539700I-75000J0D01*
G01*
X64551300Y-109539700D01*
G75*
G02*
X64476300Y-109464700I0J75000D01*
G01*
X64476300Y-108064700D01*
G75*
G02*
X64551300Y-107989700I75000J0D01*
G01*
X64701300Y-107989700D01*
G75*
G02*
X64776300Y-108064700I0J-75000D01*
G01*
G37*
%TD.AperFunction*%
%TO.P,U4,25*%
%TO.N,TE*%
%TA.AperFunction,SMDPad,CuDef*%
G36*
G01*
X64276300Y-108064700D02*
X64276300Y-109464700D01*
G75*
G02*
X64201300Y-109539700I-75000J0D01*
G01*
X64051300Y-109539700D01*
G75*
G02*
X63976300Y-109464700I0J75000D01*
G01*
X63976300Y-108064700D01*
G75*
G02*
X64051300Y-107989700I75000J0D01*
G01*
X64201300Y-107989700D01*
G75*
G02*
X64276300Y-108064700I0J-75000D01*
G01*
G37*
%TD.AperFunction*%
%TO.P,U4,26*%
%TO.N,Net-(U4-Pad26)*%
%TA.AperFunction,SMDPad,CuDef*%
G36*
G01*
X63776300Y-108064700D02*
X63776300Y-109464700D01*
G75*
G02*
X63701300Y-109539700I-75000J0D01*
G01*
X63551300Y-109539700D01*
G75*
G02*
X63476300Y-109464700I0J75000D01*
G01*
X63476300Y-108064700D01*
G75*
G02*
X63551300Y-107989700I75000J0D01*
G01*
X63701300Y-107989700D01*
G75*
G02*
X63776300Y-108064700I0J-75000D01*
G01*
G37*
%TD.AperFunction*%
%TO.P,U4,27*%
%TO.N,Net-(U4-Pad27)*%
%TA.AperFunction,SMDPad,CuDef*%
G36*
G01*
X63276300Y-108064700D02*
X63276300Y-109464700D01*
G75*
G02*
X63201300Y-109539700I-75000J0D01*
G01*
X63051300Y-109539700D01*
G75*
G02*
X62976300Y-109464700I0J75000D01*
G01*
X62976300Y-108064700D01*
G75*
G02*
X63051300Y-107989700I75000J0D01*
G01*
X63201300Y-107989700D01*
G75*
G02*
X63276300Y-108064700I0J-75000D01*
G01*
G37*
%TD.AperFunction*%
%TO.P,U4,28*%
%TO.N,Net-(U4-Pad28)*%
%TA.AperFunction,SMDPad,CuDef*%
G36*
G01*
X62776300Y-108064700D02*
X62776300Y-109464700D01*
G75*
G02*
X62701300Y-109539700I-75000J0D01*
G01*
X62551300Y-109539700D01*
G75*
G02*
X62476300Y-109464700I0J75000D01*
G01*
X62476300Y-108064700D01*
G75*
G02*
X62551300Y-107989700I75000J0D01*
G01*
X62701300Y-107989700D01*
G75*
G02*
X62776300Y-108064700I0J-75000D01*
G01*
G37*
%TD.AperFunction*%
%TO.P,U4,29*%
%TO.N,DC*%
%TA.AperFunction,SMDPad,CuDef*%
G36*
G01*
X62276300Y-108064700D02*
X62276300Y-109464700D01*
G75*
G02*
X62201300Y-109539700I-75000J0D01*
G01*
X62051300Y-109539700D01*
G75*
G02*
X61976300Y-109464700I0J75000D01*
G01*
X61976300Y-108064700D01*
G75*
G02*
X62051300Y-107989700I75000J0D01*
G01*
X62201300Y-107989700D01*
G75*
G02*
X62276300Y-108064700I0J-75000D01*
G01*
G37*
%TD.AperFunction*%
%TO.P,U4,30*%
%TO.N,SDA*%
%TA.AperFunction,SMDPad,CuDef*%
G36*
G01*
X61776300Y-108064700D02*
X61776300Y-109464700D01*
G75*
G02*
X61701300Y-109539700I-75000J0D01*
G01*
X61551300Y-109539700D01*
G75*
G02*
X61476300Y-109464700I0J75000D01*
G01*
X61476300Y-108064700D01*
G75*
G02*
X61551300Y-107989700I75000J0D01*
G01*
X61701300Y-107989700D01*
G75*
G02*
X61776300Y-108064700I0J-75000D01*
G01*
G37*
%TD.AperFunction*%
%TO.P,U4,31*%
%TO.N,VSS*%
%TA.AperFunction,SMDPad,CuDef*%
G36*
G01*
X61276300Y-108064700D02*
X61276300Y-109464700D01*
G75*
G02*
X61201300Y-109539700I-75000J0D01*
G01*
X61051300Y-109539700D01*
G75*
G02*
X60976300Y-109464700I0J75000D01*
G01*
X60976300Y-108064700D01*
G75*
G02*
X61051300Y-107989700I75000J0D01*
G01*
X61201300Y-107989700D01*
G75*
G02*
X61276300Y-108064700I0J-75000D01*
G01*
G37*
%TD.AperFunction*%
%TO.P,U4,32*%
%TO.N,VDD_3.3*%
%TA.AperFunction,SMDPad,CuDef*%
G36*
G01*
X60776300Y-108064700D02*
X60776300Y-109464700D01*
G75*
G02*
X60701300Y-109539700I-75000J0D01*
G01*
X60551300Y-109539700D01*
G75*
G02*
X60476300Y-109464700I0J75000D01*
G01*
X60476300Y-108064700D01*
G75*
G02*
X60551300Y-107989700I75000J0D01*
G01*
X60701300Y-107989700D01*
G75*
G02*
X60776300Y-108064700I0J-75000D01*
G01*
G37*
%TD.AperFunction*%
%TO.P,U4,33*%
%TO.N,SPI_NSS*%
%TA.AperFunction,SMDPad,CuDef*%
G36*
G01*
X59476300Y-110614700D02*
X59476300Y-110764700D01*
G75*
G02*
X59401300Y-110839700I-75000J0D01*
G01*
X58001300Y-110839700D01*
G75*
G02*
X57926300Y-110764700I0J75000D01*
G01*
X57926300Y-110614700D01*
G75*
G02*
X58001300Y-110539700I75000J0D01*
G01*
X59401300Y-110539700D01*
G75*
G02*
X59476300Y-110614700I0J-75000D01*
G01*
G37*
%TD.AperFunction*%
%TO.P,U4,34*%
%TO.N,SPI1_SCK*%
%TA.AperFunction,SMDPad,CuDef*%
G36*
G01*
X59476300Y-111114700D02*
X59476300Y-111264700D01*
G75*
G02*
X59401300Y-111339700I-75000J0D01*
G01*
X58001300Y-111339700D01*
G75*
G02*
X57926300Y-111264700I0J75000D01*
G01*
X57926300Y-111114700D01*
G75*
G02*
X58001300Y-111039700I75000J0D01*
G01*
X59401300Y-111039700D01*
G75*
G02*
X59476300Y-111114700I0J-75000D01*
G01*
G37*
%TD.AperFunction*%
%TO.P,U4,35*%
%TO.N,SPI1_MISO*%
%TA.AperFunction,SMDPad,CuDef*%
G36*
G01*
X59476300Y-111614700D02*
X59476300Y-111764700D01*
G75*
G02*
X59401300Y-111839700I-75000J0D01*
G01*
X58001300Y-111839700D01*
G75*
G02*
X57926300Y-111764700I0J75000D01*
G01*
X57926300Y-111614700D01*
G75*
G02*
X58001300Y-111539700I75000J0D01*
G01*
X59401300Y-111539700D01*
G75*
G02*
X59476300Y-111614700I0J-75000D01*
G01*
G37*
%TD.AperFunction*%
%TO.P,U4,36*%
%TO.N,SPI1_MOSI*%
%TA.AperFunction,SMDPad,CuDef*%
G36*
G01*
X59476300Y-112114700D02*
X59476300Y-112264700D01*
G75*
G02*
X59401300Y-112339700I-75000J0D01*
G01*
X58001300Y-112339700D01*
G75*
G02*
X57926300Y-112264700I0J75000D01*
G01*
X57926300Y-112114700D01*
G75*
G02*
X58001300Y-112039700I75000J0D01*
G01*
X59401300Y-112039700D01*
G75*
G02*
X59476300Y-112114700I0J-75000D01*
G01*
G37*
%TD.AperFunction*%
%TO.P,U4,37*%
%TO.N,Net-(U4-Pad37)*%
%TA.AperFunction,SMDPad,CuDef*%
G36*
G01*
X59476300Y-112614700D02*
X59476300Y-112764700D01*
G75*
G02*
X59401300Y-112839700I-75000J0D01*
G01*
X58001300Y-112839700D01*
G75*
G02*
X57926300Y-112764700I0J75000D01*
G01*
X57926300Y-112614700D01*
G75*
G02*
X58001300Y-112539700I75000J0D01*
G01*
X59401300Y-112539700D01*
G75*
G02*
X59476300Y-112614700I0J-75000D01*
G01*
G37*
%TD.AperFunction*%
%TO.P,U4,38*%
%TO.N,Net-(U4-Pad38)*%
%TA.AperFunction,SMDPad,CuDef*%
G36*
G01*
X59476300Y-113114700D02*
X59476300Y-113264700D01*
G75*
G02*
X59401300Y-113339700I-75000J0D01*
G01*
X58001300Y-113339700D01*
G75*
G02*
X57926300Y-113264700I0J75000D01*
G01*
X57926300Y-113114700D01*
G75*
G02*
X58001300Y-113039700I75000J0D01*
G01*
X59401300Y-113039700D01*
G75*
G02*
X59476300Y-113114700I0J-75000D01*
G01*
G37*
%TD.AperFunction*%
%TO.P,U4,39*%
%TO.N,Net-(U4-Pad39)*%
%TA.AperFunction,SMDPad,CuDef*%
G36*
G01*
X59476300Y-113614700D02*
X59476300Y-113764700D01*
G75*
G02*
X59401300Y-113839700I-75000J0D01*
G01*
X58001300Y-113839700D01*
G75*
G02*
X57926300Y-113764700I0J75000D01*
G01*
X57926300Y-113614700D01*
G75*
G02*
X58001300Y-113539700I75000J0D01*
G01*
X59401300Y-113539700D01*
G75*
G02*
X59476300Y-113614700I0J-75000D01*
G01*
G37*
%TD.AperFunction*%
%TO.P,U4,40*%
%TO.N,Net-(U4-Pad40)*%
%TA.AperFunction,SMDPad,CuDef*%
G36*
G01*
X59476300Y-114114700D02*
X59476300Y-114264700D01*
G75*
G02*
X59401300Y-114339700I-75000J0D01*
G01*
X58001300Y-114339700D01*
G75*
G02*
X57926300Y-114264700I0J75000D01*
G01*
X57926300Y-114114700D01*
G75*
G02*
X58001300Y-114039700I75000J0D01*
G01*
X59401300Y-114039700D01*
G75*
G02*
X59476300Y-114114700I0J-75000D01*
G01*
G37*
%TD.AperFunction*%
%TO.P,U4,41*%
%TO.N,Net-(U4-Pad41)*%
%TA.AperFunction,SMDPad,CuDef*%
G36*
G01*
X59476300Y-114614700D02*
X59476300Y-114764700D01*
G75*
G02*
X59401300Y-114839700I-75000J0D01*
G01*
X58001300Y-114839700D01*
G75*
G02*
X57926300Y-114764700I0J75000D01*
G01*
X57926300Y-114614700D01*
G75*
G02*
X58001300Y-114539700I75000J0D01*
G01*
X59401300Y-114539700D01*
G75*
G02*
X59476300Y-114614700I0J-75000D01*
G01*
G37*
%TD.AperFunction*%
%TO.P,U4,42*%
%TO.N,Net-(U4-Pad42)*%
%TA.AperFunction,SMDPad,CuDef*%
G36*
G01*
X59476300Y-115114700D02*
X59476300Y-115264700D01*
G75*
G02*
X59401300Y-115339700I-75000J0D01*
G01*
X58001300Y-115339700D01*
G75*
G02*
X57926300Y-115264700I0J75000D01*
G01*
X57926300Y-115114700D01*
G75*
G02*
X58001300Y-115039700I75000J0D01*
G01*
X59401300Y-115039700D01*
G75*
G02*
X59476300Y-115114700I0J-75000D01*
G01*
G37*
%TD.AperFunction*%
%TO.P,U4,43*%
%TO.N,Net-(U4-Pad43)*%
%TA.AperFunction,SMDPad,CuDef*%
G36*
G01*
X59476300Y-115614700D02*
X59476300Y-115764700D01*
G75*
G02*
X59401300Y-115839700I-75000J0D01*
G01*
X58001300Y-115839700D01*
G75*
G02*
X57926300Y-115764700I0J75000D01*
G01*
X57926300Y-115614700D01*
G75*
G02*
X58001300Y-115539700I75000J0D01*
G01*
X59401300Y-115539700D01*
G75*
G02*
X59476300Y-115614700I0J-75000D01*
G01*
G37*
%TD.AperFunction*%
%TO.P,U4,44*%
%TO.N,USBD-*%
%TA.AperFunction,SMDPad,CuDef*%
G36*
G01*
X59476300Y-116114700D02*
X59476300Y-116264700D01*
G75*
G02*
X59401300Y-116339700I-75000J0D01*
G01*
X58001300Y-116339700D01*
G75*
G02*
X57926300Y-116264700I0J75000D01*
G01*
X57926300Y-116114700D01*
G75*
G02*
X58001300Y-116039700I75000J0D01*
G01*
X59401300Y-116039700D01*
G75*
G02*
X59476300Y-116114700I0J-75000D01*
G01*
G37*
%TD.AperFunction*%
%TO.P,U4,45*%
%TO.N,USBD+*%
%TA.AperFunction,SMDPad,CuDef*%
G36*
G01*
X59476300Y-116614700D02*
X59476300Y-116764700D01*
G75*
G02*
X59401300Y-116839700I-75000J0D01*
G01*
X58001300Y-116839700D01*
G75*
G02*
X57926300Y-116764700I0J75000D01*
G01*
X57926300Y-116614700D01*
G75*
G02*
X58001300Y-116539700I75000J0D01*
G01*
X59401300Y-116539700D01*
G75*
G02*
X59476300Y-116614700I0J-75000D01*
G01*
G37*
%TD.AperFunction*%
%TO.P,U4,46*%
%TO.N,N/C*%
%TA.AperFunction,SMDPad,CuDef*%
G36*
G01*
X59476300Y-117114700D02*
X59476300Y-117264700D01*
G75*
G02*
X59401300Y-117339700I-75000J0D01*
G01*
X58001300Y-117339700D01*
G75*
G02*
X57926300Y-117264700I0J75000D01*
G01*
X57926300Y-117114700D01*
G75*
G02*
X58001300Y-117039700I75000J0D01*
G01*
X59401300Y-117039700D01*
G75*
G02*
X59476300Y-117114700I0J-75000D01*
G01*
G37*
%TD.AperFunction*%
%TO.P,U4,47*%
%TO.N,VSS*%
%TA.AperFunction,SMDPad,CuDef*%
G36*
G01*
X59476300Y-117614700D02*
X59476300Y-117764700D01*
G75*
G02*
X59401300Y-117839700I-75000J0D01*
G01*
X58001300Y-117839700D01*
G75*
G02*
X57926300Y-117764700I0J75000D01*
G01*
X57926300Y-117614700D01*
G75*
G02*
X58001300Y-117539700I75000J0D01*
G01*
X59401300Y-117539700D01*
G75*
G02*
X59476300Y-117614700I0J-75000D01*
G01*
G37*
%TD.AperFunction*%
%TO.P,U4,48*%
%TO.N,VDD_3.3*%
%TA.AperFunction,SMDPad,CuDef*%
G36*
G01*
X59476300Y-118114700D02*
X59476300Y-118264700D01*
G75*
G02*
X59401300Y-118339700I-75000J0D01*
G01*
X58001300Y-118339700D01*
G75*
G02*
X57926300Y-118264700I0J75000D01*
G01*
X57926300Y-118114700D01*
G75*
G02*
X58001300Y-118039700I75000J0D01*
G01*
X59401300Y-118039700D01*
G75*
G02*
X59476300Y-118114700I0J-75000D01*
G01*
G37*
%TD.AperFunction*%
%TO.P,U4,49*%
%TO.N,Net-(U4-Pad49)*%
%TA.AperFunction,SMDPad,CuDef*%
G36*
G01*
X60776300Y-119414700D02*
X60776300Y-120814700D01*
G75*
G02*
X60701300Y-120889700I-75000J0D01*
G01*
X60551300Y-120889700D01*
G75*
G02*
X60476300Y-120814700I0J75000D01*
G01*
X60476300Y-119414700D01*
G75*
G02*
X60551300Y-119339700I75000J0D01*
G01*
X60701300Y-119339700D01*
G75*
G02*
X60776300Y-119414700I0J-75000D01*
G01*
G37*
%TD.AperFunction*%
%TO.P,U4,50*%
%TO.N,Net-(U4-Pad50)*%
%TA.AperFunction,SMDPad,CuDef*%
G36*
G01*
X61276300Y-119414700D02*
X61276300Y-120814700D01*
G75*
G02*
X61201300Y-120889700I-75000J0D01*
G01*
X61051300Y-120889700D01*
G75*
G02*
X60976300Y-120814700I0J75000D01*
G01*
X60976300Y-119414700D01*
G75*
G02*
X61051300Y-119339700I75000J0D01*
G01*
X61201300Y-119339700D01*
G75*
G02*
X61276300Y-119414700I0J-75000D01*
G01*
G37*
%TD.AperFunction*%
%TO.P,U4,51*%
%TO.N,Net-(U4-Pad51)*%
%TA.AperFunction,SMDPad,CuDef*%
G36*
G01*
X61776300Y-119414700D02*
X61776300Y-120814700D01*
G75*
G02*
X61701300Y-120889700I-75000J0D01*
G01*
X61551300Y-120889700D01*
G75*
G02*
X61476300Y-120814700I0J75000D01*
G01*
X61476300Y-119414700D01*
G75*
G02*
X61551300Y-119339700I75000J0D01*
G01*
X61701300Y-119339700D01*
G75*
G02*
X61776300Y-119414700I0J-75000D01*
G01*
G37*
%TD.AperFunction*%
%TO.P,U4,52*%
%TO.N,Net-(U4-Pad52)*%
%TA.AperFunction,SMDPad,CuDef*%
G36*
G01*
X62276300Y-119414700D02*
X62276300Y-120814700D01*
G75*
G02*
X62201300Y-120889700I-75000J0D01*
G01*
X62051300Y-120889700D01*
G75*
G02*
X61976300Y-120814700I0J75000D01*
G01*
X61976300Y-119414700D01*
G75*
G02*
X62051300Y-119339700I75000J0D01*
G01*
X62201300Y-119339700D01*
G75*
G02*
X62276300Y-119414700I0J-75000D01*
G01*
G37*
%TD.AperFunction*%
%TO.P,U4,53*%
%TO.N,Net-(U4-Pad53)*%
%TA.AperFunction,SMDPad,CuDef*%
G36*
G01*
X62776300Y-119414700D02*
X62776300Y-120814700D01*
G75*
G02*
X62701300Y-120889700I-75000J0D01*
G01*
X62551300Y-120889700D01*
G75*
G02*
X62476300Y-120814700I0J75000D01*
G01*
X62476300Y-119414700D01*
G75*
G02*
X62551300Y-119339700I75000J0D01*
G01*
X62701300Y-119339700D01*
G75*
G02*
X62776300Y-119414700I0J-75000D01*
G01*
G37*
%TD.AperFunction*%
%TO.P,U4,54*%
%TO.N,Net-(U4-Pad54)*%
%TA.AperFunction,SMDPad,CuDef*%
G36*
G01*
X63276300Y-119414700D02*
X63276300Y-120814700D01*
G75*
G02*
X63201300Y-120889700I-75000J0D01*
G01*
X63051300Y-120889700D01*
G75*
G02*
X62976300Y-120814700I0J75000D01*
G01*
X62976300Y-119414700D01*
G75*
G02*
X63051300Y-119339700I75000J0D01*
G01*
X63201300Y-119339700D01*
G75*
G02*
X63276300Y-119414700I0J-75000D01*
G01*
G37*
%TD.AperFunction*%
%TO.P,U4,55*%
%TO.N,SPI2_SCK*%
%TA.AperFunction,SMDPad,CuDef*%
G36*
G01*
X63776300Y-119414700D02*
X63776300Y-120814700D01*
G75*
G02*
X63701300Y-120889700I-75000J0D01*
G01*
X63551300Y-120889700D01*
G75*
G02*
X63476300Y-120814700I0J75000D01*
G01*
X63476300Y-119414700D01*
G75*
G02*
X63551300Y-119339700I75000J0D01*
G01*
X63701300Y-119339700D01*
G75*
G02*
X63776300Y-119414700I0J-75000D01*
G01*
G37*
%TD.AperFunction*%
%TO.P,U4,56*%
%TO.N,SPI2_MISO*%
%TA.AperFunction,SMDPad,CuDef*%
G36*
G01*
X64276300Y-119414700D02*
X64276300Y-120814700D01*
G75*
G02*
X64201300Y-120889700I-75000J0D01*
G01*
X64051300Y-120889700D01*
G75*
G02*
X63976300Y-120814700I0J75000D01*
G01*
X63976300Y-119414700D01*
G75*
G02*
X64051300Y-119339700I75000J0D01*
G01*
X64201300Y-119339700D01*
G75*
G02*
X64276300Y-119414700I0J-75000D01*
G01*
G37*
%TD.AperFunction*%
%TO.P,U4,57*%
%TO.N,Net-(U4-Pad57)*%
%TA.AperFunction,SMDPad,CuDef*%
G36*
G01*
X64776300Y-119414700D02*
X64776300Y-120814700D01*
G75*
G02*
X64701300Y-120889700I-75000J0D01*
G01*
X64551300Y-120889700D01*
G75*
G02*
X64476300Y-120814700I0J75000D01*
G01*
X64476300Y-119414700D01*
G75*
G02*
X64551300Y-119339700I75000J0D01*
G01*
X64701300Y-119339700D01*
G75*
G02*
X64776300Y-119414700I0J-75000D01*
G01*
G37*
%TD.AperFunction*%
%TO.P,U4,58*%
%TO.N,SPI2_~SS*%
%TA.AperFunction,SMDPad,CuDef*%
G36*
G01*
X65276300Y-119414700D02*
X65276300Y-120814700D01*
G75*
G02*
X65201300Y-120889700I-75000J0D01*
G01*
X65051300Y-120889700D01*
G75*
G02*
X64976300Y-120814700I0J75000D01*
G01*
X64976300Y-119414700D01*
G75*
G02*
X65051300Y-119339700I75000J0D01*
G01*
X65201300Y-119339700D01*
G75*
G02*
X65276300Y-119414700I0J-75000D01*
G01*
G37*
%TD.AperFunction*%
%TO.P,U4,59*%
%TO.N,Net-(U4-Pad59)*%
%TA.AperFunction,SMDPad,CuDef*%
G36*
G01*
X65776300Y-119414700D02*
X65776300Y-120814700D01*
G75*
G02*
X65701300Y-120889700I-75000J0D01*
G01*
X65551300Y-120889700D01*
G75*
G02*
X65476300Y-120814700I0J75000D01*
G01*
X65476300Y-119414700D01*
G75*
G02*
X65551300Y-119339700I75000J0D01*
G01*
X65701300Y-119339700D01*
G75*
G02*
X65776300Y-119414700I0J-75000D01*
G01*
G37*
%TD.AperFunction*%
%TO.P,U4,60*%
%TO.N,BOOT0*%
%TA.AperFunction,SMDPad,CuDef*%
G36*
G01*
X66276300Y-119414700D02*
X66276300Y-120814700D01*
G75*
G02*
X66201300Y-120889700I-75000J0D01*
G01*
X66051300Y-120889700D01*
G75*
G02*
X65976300Y-120814700I0J75000D01*
G01*
X65976300Y-119414700D01*
G75*
G02*
X66051300Y-119339700I75000J0D01*
G01*
X66201300Y-119339700D01*
G75*
G02*
X66276300Y-119414700I0J-75000D01*
G01*
G37*
%TD.AperFunction*%
%TO.P,U4,61*%
%TO.N,RELAY_CNTRL*%
%TA.AperFunction,SMDPad,CuDef*%
G36*
G01*
X66776300Y-119414700D02*
X66776300Y-120814700D01*
G75*
G02*
X66701300Y-120889700I-75000J0D01*
G01*
X66551300Y-120889700D01*
G75*
G02*
X66476300Y-120814700I0J75000D01*
G01*
X66476300Y-119414700D01*
G75*
G02*
X66551300Y-119339700I75000J0D01*
G01*
X66701300Y-119339700D01*
G75*
G02*
X66776300Y-119414700I0J-75000D01*
G01*
G37*
%TD.AperFunction*%
%TO.P,U4,62*%
%TO.N,N/C*%
%TA.AperFunction,SMDPad,CuDef*%
G36*
G01*
X67276300Y-119414700D02*
X67276300Y-120814700D01*
G75*
G02*
X67201300Y-120889700I-75000J0D01*
G01*
X67051300Y-120889700D01*
G75*
G02*
X66976300Y-120814700I0J75000D01*
G01*
X66976300Y-119414700D01*
G75*
G02*
X67051300Y-119339700I75000J0D01*
G01*
X67201300Y-119339700D01*
G75*
G02*
X67276300Y-119414700I0J-75000D01*
G01*
G37*
%TD.AperFunction*%
%TO.P,U4,63*%
%TO.N,VSS*%
%TA.AperFunction,SMDPad,CuDef*%
G36*
G01*
X67776300Y-119414700D02*
X67776300Y-120814700D01*
G75*
G02*
X67701300Y-120889700I-75000J0D01*
G01*
X67551300Y-120889700D01*
G75*
G02*
X67476300Y-120814700I0J75000D01*
G01*
X67476300Y-119414700D01*
G75*
G02*
X67551300Y-119339700I75000J0D01*
G01*
X67701300Y-119339700D01*
G75*
G02*
X67776300Y-119414700I0J-75000D01*
G01*
G37*
%TD.AperFunction*%
%TO.P,U4,64*%
%TO.N,VDD_3.3*%
%TA.AperFunction,SMDPad,CuDef*%
G36*
G01*
X68276300Y-119414700D02*
X68276300Y-120814700D01*
G75*
G02*
X68201300Y-120889700I-75000J0D01*
G01*
X68051300Y-120889700D01*
G75*
G02*
X67976300Y-120814700I0J75000D01*
G01*
X67976300Y-119414700D01*
G75*
G02*
X68051300Y-119339700I75000J0D01*
G01*
X68201300Y-119339700D01*
G75*
G02*
X68276300Y-119414700I0J-75000D01*
G01*
G37*
%TD.AperFunction*%
%TD*%
%TO.P,U2,1*%
%TO.N,VSS*%
%TA.AperFunction,SMDPad,CuDef*%
G36*
G01*
X54423900Y-124749700D02*
X54423900Y-124449700D01*
G75*
G02*
X54573900Y-124299700I150000J0D01*
G01*
X56223900Y-124299700D01*
G75*
G02*
X56373900Y-124449700I0J-150000D01*
G01*
X56373900Y-124749700D01*
G75*
G02*
X56223900Y-124899700I-150000J0D01*
G01*
X54573900Y-124899700D01*
G75*
G02*
X54423900Y-124749700I0J150000D01*
G01*
G37*
%TD.AperFunction*%
%TO.P,U2,2*%
%TO.N,/T-*%
%TA.AperFunction,SMDPad,CuDef*%
G36*
G01*
X54423900Y-126019700D02*
X54423900Y-125719700D01*
G75*
G02*
X54573900Y-125569700I150000J0D01*
G01*
X56223900Y-125569700D01*
G75*
G02*
X56373900Y-125719700I0J-150000D01*
G01*
X56373900Y-126019700D01*
G75*
G02*
X56223900Y-126169700I-150000J0D01*
G01*
X54573900Y-126169700D01*
G75*
G02*
X54423900Y-126019700I0J150000D01*
G01*
G37*
%TD.AperFunction*%
%TO.P,U2,3*%
%TO.N,/T+*%
%TA.AperFunction,SMDPad,CuDef*%
G36*
G01*
X54423900Y-127289700D02*
X54423900Y-126989700D01*
G75*
G02*
X54573900Y-126839700I150000J0D01*
G01*
X56223900Y-126839700D01*
G75*
G02*
X56373900Y-126989700I0J-150000D01*
G01*
X56373900Y-127289700D01*
G75*
G02*
X56223900Y-127439700I-150000J0D01*
G01*
X54573900Y-127439700D01*
G75*
G02*
X54423900Y-127289700I0J150000D01*
G01*
G37*
%TD.AperFunction*%
%TO.P,U2,4*%
%TO.N,VDD_3.3*%
%TA.AperFunction,SMDPad,CuDef*%
G36*
G01*
X54423900Y-128559700D02*
X54423900Y-128259700D01*
G75*
G02*
X54573900Y-128109700I150000J0D01*
G01*
X56223900Y-128109700D01*
G75*
G02*
X56373900Y-128259700I0J-150000D01*
G01*
X56373900Y-128559700D01*
G75*
G02*
X56223900Y-128709700I-150000J0D01*
G01*
X54573900Y-128709700D01*
G75*
G02*
X54423900Y-128559700I0J150000D01*
G01*
G37*
%TD.AperFunction*%
%TO.P,U2,5*%
%TO.N,SPI2_SCK*%
%TA.AperFunction,SMDPad,CuDef*%
G36*
G01*
X59373900Y-128559700D02*
X59373900Y-128259700D01*
G75*
G02*
X59523900Y-128109700I150000J0D01*
G01*
X61173900Y-128109700D01*
G75*
G02*
X61323900Y-128259700I0J-150000D01*
G01*
X61323900Y-128559700D01*
G75*
G02*
X61173900Y-128709700I-150000J0D01*
G01*
X59523900Y-128709700D01*
G75*
G02*
X59373900Y-128559700I0J150000D01*
G01*
G37*
%TD.AperFunction*%
%TO.P,U2,6*%
%TO.N,SPI2_~SS*%
%TA.AperFunction,SMDPad,CuDef*%
G36*
G01*
X59373900Y-127289700D02*
X59373900Y-126989700D01*
G75*
G02*
X59523900Y-126839700I150000J0D01*
G01*
X61173900Y-126839700D01*
G75*
G02*
X61323900Y-126989700I0J-150000D01*
G01*
X61323900Y-127289700D01*
G75*
G02*
X61173900Y-127439700I-150000J0D01*
G01*
X59523900Y-127439700D01*
G75*
G02*
X59373900Y-127289700I0J150000D01*
G01*
G37*
%TD.AperFunction*%
%TO.P,U2,7*%
%TO.N,SPI2_MISO*%
%TA.AperFunction,SMDPad,CuDef*%
G36*
G01*
X59373900Y-126019700D02*
X59373900Y-125719700D01*
G75*
G02*
X59523900Y-125569700I150000J0D01*
G01*
X61173900Y-125569700D01*
G75*
G02*
X61323900Y-125719700I0J-150000D01*
G01*
X61323900Y-126019700D01*
G75*
G02*
X61173900Y-126169700I-150000J0D01*
G01*
X59523900Y-126169700D01*
G75*
G02*
X59373900Y-126019700I0J150000D01*
G01*
G37*
%TD.AperFunction*%
%TO.P,U2,8*%
%TO.N,N/C*%
%TA.AperFunction,SMDPad,CuDef*%
G36*
G01*
X59373900Y-124749700D02*
X59373900Y-124449700D01*
G75*
G02*
X59523900Y-124299700I150000J0D01*
G01*
X61173900Y-124299700D01*
G75*
G02*
X61323900Y-124449700I0J-150000D01*
G01*
X61323900Y-124749700D01*
G75*
G02*
X61173900Y-124899700I-150000J0D01*
G01*
X59523900Y-124899700D01*
G75*
G02*
X59373900Y-124749700I0J150000D01*
G01*
G37*
%TD.AperFunction*%
%TD*%
D12*
%TO.P,J7,MP*%
%TO.N,N/C*%
X88325500Y-123728000D03*
X88325500Y-108428000D03*
D13*
%TO.P,J7,1*%
%TO.N,LEDA*%
X91575500Y-110328000D03*
%TO.P,J7,2*%
%TO.N,LEDK*%
X91575500Y-110828000D03*
%TO.P,J7,3*%
%TO.N,VSS*%
X91575500Y-111328000D03*
%TO.P,J7,4*%
%TO.N,VDD_3.3*%
X91575500Y-111828000D03*
%TO.P,J7,5*%
X91575500Y-112328000D03*
%TO.P,J7,6*%
%TO.N,VSS*%
X91575500Y-112828000D03*
%TO.P,J7,7*%
%TO.N,~RES*%
X91575500Y-113328000D03*
%TO.P,J7,8*%
%TO.N,~CS*%
X91575500Y-113828000D03*
%TO.P,J7,9*%
%TO.N,DC*%
X91575500Y-114328000D03*
%TO.P,J7,10*%
%TO.N,RS*%
X91575500Y-114828000D03*
%TO.P,J7,11*%
%TO.N,VSS*%
X91575500Y-115328000D03*
%TO.P,J7,12*%
%TO.N,SDA*%
X91575500Y-115828000D03*
%TO.P,J7,13*%
%TO.N,VSS*%
X91575500Y-116328000D03*
%TO.P,J7,14*%
X91575500Y-116828000D03*
%TO.P,J7,15*%
X91575500Y-117328000D03*
%TO.P,J7,16*%
X91575500Y-117828000D03*
%TO.P,J7,17*%
X91575500Y-118328000D03*
%TO.P,J7,18*%
X91575500Y-118828000D03*
%TO.P,J7,19*%
X91575500Y-119328000D03*
%TO.P,J7,20*%
X91575500Y-119828000D03*
%TO.P,J7,21*%
%TO.N,TE*%
X91575500Y-120328000D03*
%TO.P,J7,22*%
%TO.N,Net-(J7-Pad22)*%
X91575500Y-120828000D03*
%TO.P,J7,23*%
%TO.N,VSS*%
X91575500Y-121328000D03*
%TO.P,J7,24*%
X91575500Y-121828000D03*
%TD*%
D14*
%TO.P,SW1,2*%
%TO.N,VSS*%
X83530000Y-112560000D03*
%TO.P,SW1,1*%
%TO.N,NRST*%
X79030000Y-112560000D03*
X79030000Y-104610000D03*
%TO.P,SW1,2*%
%TO.N,VSS*%
X83530000Y-104610000D03*
%TD*%
D15*
%TO.P,J1,2*%
%TO.N,VDD_10*%
X98933000Y-126762500D03*
D16*
%TO.P,J1,1*%
%TO.N,Net-(J1-Pad1)*%
X98933000Y-131762500D03*
%TD*%
%TO.P,J3,1*%
%TO.N,/T-*%
X44577000Y-126784100D03*
D15*
%TO.P,J3,2*%
%TO.N,/T+*%
X44577000Y-131784100D03*
%TD*%
D17*
%TO.P,Q1,1*%
%TO.N,Net-(Q1-Pad1)*%
X78477000Y-128149000D03*
%TO.P,Q1,2*%
%TO.N,Net-(Q1-Pad2)*%
X78477000Y-130429000D03*
%TO.P,Q1,3*%
%TO.N,VSS*%
X78477000Y-132709000D03*
D18*
%TO.P,Q1,4*%
%TO.N,Net-(Q1-Pad4)*%
X84777000Y-130429000D03*
%TD*%
D19*
%TO.P,U3,1*%
%TO.N,USB_CONN-*%
X50144500Y-114493000D03*
%TO.P,U3,2*%
%TO.N,VSS*%
X50144500Y-115443000D03*
%TO.P,U3,3*%
%TO.N,USB_CONN+*%
X50144500Y-116393000D03*
%TO.P,U3,4*%
%TO.N,USBD+*%
X52344500Y-116393000D03*
%TO.P,U3,6*%
%TO.N,USBD-*%
X52344500Y-114493000D03*
%TO.P,U3,5*%
%TO.N,VDD_5*%
X52344500Y-115443000D03*
%TD*%
D20*
%TO.P,U5,1*%
%TO.N,Net-(C10-Pad1)*%
X100522100Y-77673200D03*
%TO.P,U5,2*%
%TO.N,VSS*%
X100522100Y-75133200D03*
%TO.P,U5,3*%
%TO.N,Net-(U5-Pad3)*%
X94372100Y-75133200D03*
%TO.P,U5,4*%
%TO.N,Net-(U5-Pad4)*%
X94372100Y-77673200D03*
%TD*%
D21*
%TO.P,Y1,1*%
%TO.N,OSC_IN*%
X79128000Y-121020500D03*
%TO.P,Y1,2*%
%TO.N,VSS*%
X79128000Y-118120500D03*
%TO.P,Y1,3*%
%TO.N,OSC_OUT*%
X76828000Y-118120500D03*
%TO.P,Y1,4*%
%TO.N,VSS*%
X76828000Y-121020500D03*
%TD*%
D22*
%TO.P,U1,4*%
%TO.N,N/C*%
X102210000Y-95821500D03*
D23*
%TO.P,U1,2*%
%TO.N,VSS*%
X95910000Y-95821500D03*
%TO.P,U1,3*%
%TO.N,VDD_10*%
X95910000Y-98121500D03*
%TO.P,U1,1*%
%TO.N,Net-(C10-Pad1)*%
X95910000Y-93521500D03*
%TD*%
D16*
%TO.P,J6,1*%
%TO.N,Net-(J6-Pad1)*%
X44538900Y-76720700D03*
D15*
%TO.P,J6,2*%
%TO.N,Net-(J6-Pad2)*%
X44538900Y-81720700D03*
%TD*%
D11*
%TO.P,U6,1*%
%TO.N,Net-(J6-Pad1)*%
X56654700Y-78460600D03*
D10*
%TO.P,U6,4*%
%TO.N,Net-(J6-Pad2)*%
X56654700Y-97510600D03*
%TO.P,U6,5*%
%TO.N,Net-(U5-Pad3)*%
X87134700Y-78460600D03*
%TO.P,U6,6*%
%TO.N,Net-(U6-Pad6)*%
X87134700Y-84810600D03*
%TO.P,U6,7*%
X87134700Y-91160600D03*
%TO.P,U6,8*%
%TO.N,Net-(U5-Pad4)*%
X87134700Y-97510600D03*
%TD*%
D24*
%TO.P,U7,1*%
%TO.N,VDD_3.3*%
X63944500Y-132842000D03*
%TO.P,U7,2*%
%TO.N,Net-(D2-Pad2)*%
X66484500Y-132842000D03*
%TO.P,U7,3*%
%TO.N,VSS*%
X68961000Y-132842000D03*
%TD*%
D25*
%TO.P,J4,1*%
%TO.N,SPI1_MOSI*%
X41465500Y-101727000D03*
D26*
%TO.P,J4,2*%
%TO.N,VDD_3.3*%
X41465500Y-99187000D03*
%TO.P,J4,3*%
%TO.N,SPI1_MISO*%
X44005500Y-101727000D03*
%TO.P,J4,4*%
%TO.N,SPI_NSS*%
X44005500Y-99187000D03*
%TO.P,J4,5*%
%TO.N,SPI1_SCK*%
X46545500Y-101727000D03*
%TO.P,J4,6*%
%TO.N,VSS*%
X46545500Y-99187000D03*
%TD*%
D25*
%TO.P,J5,1*%
%TO.N,VDD_3.3*%
X41389300Y-92036900D03*
D26*
%TO.P,J5,2*%
%TO.N,VSS*%
X41389300Y-89496900D03*
%TD*%
%TO.P,D1,1*%
%TO.N,Net-(D1-Pad1)*%
%TA.AperFunction,SMDPad,CuDef*%
G36*
G01*
X91110000Y-105034501D02*
X91110000Y-104134499D01*
G75*
G02*
X91359999Y-103884500I249999J0D01*
G01*
X92010001Y-103884500D01*
G75*
G02*
X92260000Y-104134499I0J-249999D01*
G01*
X92260000Y-105034501D01*
G75*
G02*
X92010001Y-105284500I-249999J0D01*
G01*
X91359999Y-105284500D01*
G75*
G02*
X91110000Y-105034501I0J249999D01*
G01*
G37*
%TD.AperFunction*%
%TO.P,D1,2*%
%TO.N,VDD_3.3*%
%TA.AperFunction,SMDPad,CuDef*%
G36*
G01*
X93160000Y-105034501D02*
X93160000Y-104134499D01*
G75*
G02*
X93409999Y-103884500I249999J0D01*
G01*
X94060001Y-103884500D01*
G75*
G02*
X94310000Y-104134499I0J-249999D01*
G01*
X94310000Y-105034501D01*
G75*
G02*
X94060001Y-105284500I-249999J0D01*
G01*
X93409999Y-105284500D01*
G75*
G02*
X93160000Y-105034501I0J249999D01*
G01*
G37*
%TD.AperFunction*%
%TD*%
%TO.P,D2,2*%
%TO.N,Net-(D2-Pad2)*%
%TA.AperFunction,SMDPad,CuDef*%
G36*
G01*
X68333200Y-128823299D02*
X68333200Y-129723301D01*
G75*
G02*
X68083201Y-129973300I-249999J0D01*
G01*
X67433199Y-129973300D01*
G75*
G02*
X67183200Y-129723301I0J249999D01*
G01*
X67183200Y-128823299D01*
G75*
G02*
X67433199Y-128573300I249999J0D01*
G01*
X68083201Y-128573300D01*
G75*
G02*
X68333200Y-128823299I0J-249999D01*
G01*
G37*
%TD.AperFunction*%
%TO.P,D2,1*%
%TO.N,Net-(D2-Pad1)*%
%TA.AperFunction,SMDPad,CuDef*%
G36*
G01*
X70383200Y-128823299D02*
X70383200Y-129723301D01*
G75*
G02*
X70133201Y-129973300I-249999J0D01*
G01*
X69483199Y-129973300D01*
G75*
G02*
X69233200Y-129723301I0J249999D01*
G01*
X69233200Y-128823299D01*
G75*
G02*
X69483199Y-128573300I249999J0D01*
G01*
X70133201Y-128573300D01*
G75*
G02*
X70383200Y-128823299I0J-249999D01*
G01*
G37*
%TD.AperFunction*%
%TD*%
%TO.P,FB1,1*%
%TO.N,VDDA_3.3*%
%TA.AperFunction,SMDPad,CuDef*%
G36*
G01*
X75831500Y-106166499D02*
X75831500Y-107066501D01*
G75*
G02*
X75581501Y-107316500I-249999J0D01*
G01*
X74931499Y-107316500D01*
G75*
G02*
X74681500Y-107066501I0J249999D01*
G01*
X74681500Y-106166499D01*
G75*
G02*
X74931499Y-105916500I249999J0D01*
G01*
X75581501Y-105916500D01*
G75*
G02*
X75831500Y-106166499I0J-249999D01*
G01*
G37*
%TD.AperFunction*%
%TO.P,FB1,2*%
%TO.N,VDD_3.3*%
%TA.AperFunction,SMDPad,CuDef*%
G36*
G01*
X73781500Y-106166499D02*
X73781500Y-107066501D01*
G75*
G02*
X73531501Y-107316500I-249999J0D01*
G01*
X72881499Y-107316500D01*
G75*
G02*
X72631500Y-107066501I0J249999D01*
G01*
X72631500Y-106166499D01*
G75*
G02*
X72881499Y-105916500I249999J0D01*
G01*
X73531501Y-105916500D01*
G75*
G02*
X73781500Y-106166499I0J-249999D01*
G01*
G37*
%TD.AperFunction*%
%TD*%
D27*
%TO.P,J2,1*%
%TO.N,VDD_5*%
X46545500Y-116459000D03*
D28*
%TO.P,J2,2*%
%TO.N,USB_CONN-*%
X46545500Y-113959000D03*
%TO.P,J2,3*%
%TO.N,USB_CONN+*%
X44545500Y-113959000D03*
%TO.P,J2,4*%
%TO.N,VSS*%
X44545500Y-116459000D03*
D29*
%TO.P,J2,5*%
%TO.N,Net-(J2-Pad5)*%
X41685500Y-109209000D03*
X41685500Y-121209000D03*
%TD*%
%TO.P,R1,1*%
%TO.N,Net-(Q1-Pad1)*%
%TA.AperFunction,SMDPad,CuDef*%
G36*
G01*
X76466500Y-127692999D02*
X76466500Y-128593001D01*
G75*
G02*
X76216501Y-128843000I-249999J0D01*
G01*
X75516499Y-128843000D01*
G75*
G02*
X75266500Y-128593001I0J249999D01*
G01*
X75266500Y-127692999D01*
G75*
G02*
X75516499Y-127443000I249999J0D01*
G01*
X76216501Y-127443000D01*
G75*
G02*
X76466500Y-127692999I0J-249999D01*
G01*
G37*
%TD.AperFunction*%
%TO.P,R1,2*%
%TO.N,RELAY_CNTRL*%
%TA.AperFunction,SMDPad,CuDef*%
G36*
G01*
X74466500Y-127692999D02*
X74466500Y-128593001D01*
G75*
G02*
X74216501Y-128843000I-249999J0D01*
G01*
X73516499Y-128843000D01*
G75*
G02*
X73266500Y-128593001I0J249999D01*
G01*
X73266500Y-127692999D01*
G75*
G02*
X73516499Y-127443000I249999J0D01*
G01*
X74216501Y-127443000D01*
G75*
G02*
X74466500Y-127692999I0J-249999D01*
G01*
G37*
%TD.AperFunction*%
%TD*%
%TO.P,R2,1*%
%TO.N,Net-(J1-Pad1)*%
%TA.AperFunction,SMDPad,CuDef*%
G36*
G01*
X92468500Y-131502999D02*
X92468500Y-132403001D01*
G75*
G02*
X92218501Y-132653000I-249999J0D01*
G01*
X91518499Y-132653000D01*
G75*
G02*
X91268500Y-132403001I0J249999D01*
G01*
X91268500Y-131502999D01*
G75*
G02*
X91518499Y-131253000I249999J0D01*
G01*
X92218501Y-131253000D01*
G75*
G02*
X92468500Y-131502999I0J-249999D01*
G01*
G37*
%TD.AperFunction*%
%TO.P,R2,2*%
%TO.N,Net-(Q1-Pad4)*%
%TA.AperFunction,SMDPad,CuDef*%
G36*
G01*
X90468500Y-131502999D02*
X90468500Y-132403001D01*
G75*
G02*
X90218501Y-132653000I-249999J0D01*
G01*
X89518499Y-132653000D01*
G75*
G02*
X89268500Y-132403001I0J249999D01*
G01*
X89268500Y-131502999D01*
G75*
G02*
X89518499Y-131253000I249999J0D01*
G01*
X90218501Y-131253000D01*
G75*
G02*
X90468500Y-131502999I0J-249999D01*
G01*
G37*
%TD.AperFunction*%
%TD*%
%TO.P,R3,2*%
%TO.N,VSS*%
%TA.AperFunction,SMDPad,CuDef*%
G36*
G01*
X48914899Y-103473200D02*
X49814901Y-103473200D01*
G75*
G02*
X50064900Y-103723199I0J-249999D01*
G01*
X50064900Y-104423201D01*
G75*
G02*
X49814901Y-104673200I-249999J0D01*
G01*
X48914899Y-104673200D01*
G75*
G02*
X48664900Y-104423201I0J249999D01*
G01*
X48664900Y-103723199D01*
G75*
G02*
X48914899Y-103473200I249999J0D01*
G01*
G37*
%TD.AperFunction*%
%TO.P,R3,1*%
%TO.N,SPI1_SCK*%
%TA.AperFunction,SMDPad,CuDef*%
G36*
G01*
X48914899Y-101473200D02*
X49814901Y-101473200D01*
G75*
G02*
X50064900Y-101723199I0J-249999D01*
G01*
X50064900Y-102423201D01*
G75*
G02*
X49814901Y-102673200I-249999J0D01*
G01*
X48914899Y-102673200D01*
G75*
G02*
X48664900Y-102423201I0J249999D01*
G01*
X48664900Y-101723199D01*
G75*
G02*
X48914899Y-101473200I249999J0D01*
G01*
G37*
%TD.AperFunction*%
%TD*%
%TO.P,R4,2*%
%TO.N,VDD_3.3*%
%TA.AperFunction,SMDPad,CuDef*%
G36*
G01*
X96120000Y-102483499D02*
X96120000Y-103383501D01*
G75*
G02*
X95870001Y-103633500I-249999J0D01*
G01*
X95169999Y-103633500D01*
G75*
G02*
X94920000Y-103383501I0J249999D01*
G01*
X94920000Y-102483499D01*
G75*
G02*
X95169999Y-102233500I249999J0D01*
G01*
X95870001Y-102233500D01*
G75*
G02*
X96120000Y-102483499I0J-249999D01*
G01*
G37*
%TD.AperFunction*%
%TO.P,R4,1*%
%TO.N,VDD_10*%
%TA.AperFunction,SMDPad,CuDef*%
G36*
G01*
X98120000Y-102483499D02*
X98120000Y-103383501D01*
G75*
G02*
X97870001Y-103633500I-249999J0D01*
G01*
X97169999Y-103633500D01*
G75*
G02*
X96920000Y-103383501I0J249999D01*
G01*
X96920000Y-102483499D01*
G75*
G02*
X97169999Y-102233500I249999J0D01*
G01*
X97870001Y-102233500D01*
G75*
G02*
X98120000Y-102483499I0J-249999D01*
G01*
G37*
%TD.AperFunction*%
%TD*%
%TO.P,R5,1*%
%TO.N,VDD_3.3*%
%TA.AperFunction,SMDPad,CuDef*%
G36*
G01*
X94310000Y-102038999D02*
X94310000Y-102939001D01*
G75*
G02*
X94060001Y-103189000I-249999J0D01*
G01*
X93359999Y-103189000D01*
G75*
G02*
X93110000Y-102939001I0J249999D01*
G01*
X93110000Y-102038999D01*
G75*
G02*
X93359999Y-101789000I249999J0D01*
G01*
X94060001Y-101789000D01*
G75*
G02*
X94310000Y-102038999I0J-249999D01*
G01*
G37*
%TD.AperFunction*%
%TO.P,R5,2*%
%TO.N,VSS*%
%TA.AperFunction,SMDPad,CuDef*%
G36*
G01*
X92310000Y-102038999D02*
X92310000Y-102939001D01*
G75*
G02*
X92060001Y-103189000I-249999J0D01*
G01*
X91359999Y-103189000D01*
G75*
G02*
X91110000Y-102939001I0J249999D01*
G01*
X91110000Y-102038999D01*
G75*
G02*
X91359999Y-101789000I249999J0D01*
G01*
X92060001Y-101789000D01*
G75*
G02*
X92310000Y-102038999I0J-249999D01*
G01*
G37*
%TD.AperFunction*%
%TD*%
%TO.P,R6,2*%
%TO.N,VSS*%
%TA.AperFunction,SMDPad,CuDef*%
G36*
G01*
X63454701Y-126955600D02*
X62554699Y-126955600D01*
G75*
G02*
X62304700Y-126705601I0J249999D01*
G01*
X62304700Y-126005599D01*
G75*
G02*
X62554699Y-125755600I249999J0D01*
G01*
X63454701Y-125755600D01*
G75*
G02*
X63704700Y-126005599I0J-249999D01*
G01*
X63704700Y-126705601D01*
G75*
G02*
X63454701Y-126955600I-249999J0D01*
G01*
G37*
%TD.AperFunction*%
%TO.P,R6,1*%
%TO.N,SPI2_SCK*%
%TA.AperFunction,SMDPad,CuDef*%
G36*
G01*
X63454701Y-128955600D02*
X62554699Y-128955600D01*
G75*
G02*
X62304700Y-128705601I0J249999D01*
G01*
X62304700Y-128005599D01*
G75*
G02*
X62554699Y-127755600I249999J0D01*
G01*
X63454701Y-127755600D01*
G75*
G02*
X63704700Y-128005599I0J-249999D01*
G01*
X63704700Y-128705601D01*
G75*
G02*
X63454701Y-128955600I-249999J0D01*
G01*
G37*
%TD.AperFunction*%
%TD*%
%TO.P,R7,1*%
%TO.N,VSS*%
%TA.AperFunction,SMDPad,CuDef*%
G36*
G01*
X87109500Y-105034501D02*
X87109500Y-104134499D01*
G75*
G02*
X87359499Y-103884500I249999J0D01*
G01*
X88059501Y-103884500D01*
G75*
G02*
X88309500Y-104134499I0J-249999D01*
G01*
X88309500Y-105034501D01*
G75*
G02*
X88059501Y-105284500I-249999J0D01*
G01*
X87359499Y-105284500D01*
G75*
G02*
X87109500Y-105034501I0J249999D01*
G01*
G37*
%TD.AperFunction*%
%TO.P,R7,2*%
%TO.N,Net-(D1-Pad1)*%
%TA.AperFunction,SMDPad,CuDef*%
G36*
G01*
X89109500Y-105034501D02*
X89109500Y-104134499D01*
G75*
G02*
X89359499Y-103884500I249999J0D01*
G01*
X90059501Y-103884500D01*
G75*
G02*
X90309500Y-104134499I0J-249999D01*
G01*
X90309500Y-105034501D01*
G75*
G02*
X90059501Y-105284500I-249999J0D01*
G01*
X89359499Y-105284500D01*
G75*
G02*
X89109500Y-105034501I0J249999D01*
G01*
G37*
%TD.AperFunction*%
%TD*%
%TO.P,R8,1*%
%TO.N,Net-(D2-Pad2)*%
%TA.AperFunction,SMDPad,CuDef*%
G36*
G01*
X66350301Y-129971600D02*
X65450299Y-129971600D01*
G75*
G02*
X65200300Y-129721601I0J249999D01*
G01*
X65200300Y-129021599D01*
G75*
G02*
X65450299Y-128771600I249999J0D01*
G01*
X66350301Y-128771600D01*
G75*
G02*
X66600300Y-129021599I0J-249999D01*
G01*
X66600300Y-129721601D01*
G75*
G02*
X66350301Y-129971600I-249999J0D01*
G01*
G37*
%TD.AperFunction*%
%TO.P,R8,2*%
%TO.N,BOOT0*%
%TA.AperFunction,SMDPad,CuDef*%
G36*
G01*
X66350301Y-127971600D02*
X65450299Y-127971600D01*
G75*
G02*
X65200300Y-127721601I0J249999D01*
G01*
X65200300Y-127021599D01*
G75*
G02*
X65450299Y-126771600I249999J0D01*
G01*
X66350301Y-126771600D01*
G75*
G02*
X66600300Y-127021599I0J-249999D01*
G01*
X66600300Y-127721601D01*
G75*
G02*
X66350301Y-127971600I-249999J0D01*
G01*
G37*
%TD.AperFunction*%
%TD*%
%TO.P,R9,2*%
%TO.N,Net-(D2-Pad1)*%
%TA.AperFunction,SMDPad,CuDef*%
G36*
G01*
X71304999Y-128797000D02*
X72205001Y-128797000D01*
G75*
G02*
X72455000Y-129046999I0J-249999D01*
G01*
X72455000Y-129747001D01*
G75*
G02*
X72205001Y-129997000I-249999J0D01*
G01*
X71304999Y-129997000D01*
G75*
G02*
X71055000Y-129747001I0J249999D01*
G01*
X71055000Y-129046999D01*
G75*
G02*
X71304999Y-128797000I249999J0D01*
G01*
G37*
%TD.AperFunction*%
%TO.P,R9,1*%
%TO.N,VSS*%
%TA.AperFunction,SMDPad,CuDef*%
G36*
G01*
X71304999Y-126797000D02*
X72205001Y-126797000D01*
G75*
G02*
X72455000Y-127046999I0J-249999D01*
G01*
X72455000Y-127747001D01*
G75*
G02*
X72205001Y-127997000I-249999J0D01*
G01*
X71304999Y-127997000D01*
G75*
G02*
X71055000Y-127747001I0J249999D01*
G01*
X71055000Y-127046999D01*
G75*
G02*
X71304999Y-126797000I249999J0D01*
G01*
G37*
%TD.AperFunction*%
%TD*%
%TO.P,R10,2*%
%TO.N,VSS*%
%TA.AperFunction,SMDPad,CuDef*%
G36*
G01*
X49853001Y-121393000D02*
X48952999Y-121393000D01*
G75*
G02*
X48703000Y-121143001I0J249999D01*
G01*
X48703000Y-120442999D01*
G75*
G02*
X48952999Y-120193000I249999J0D01*
G01*
X49853001Y-120193000D01*
G75*
G02*
X50103000Y-120442999I0J-249999D01*
G01*
X50103000Y-121143001D01*
G75*
G02*
X49853001Y-121393000I-249999J0D01*
G01*
G37*
%TD.AperFunction*%
%TO.P,R10,1*%
%TO.N,Net-(J2-Pad5)*%
%TA.AperFunction,SMDPad,CuDef*%
G36*
G01*
X49853001Y-123393000D02*
X48952999Y-123393000D01*
G75*
G02*
X48703000Y-123143001I0J249999D01*
G01*
X48703000Y-122442999D01*
G75*
G02*
X48952999Y-122193000I249999J0D01*
G01*
X49853001Y-122193000D01*
G75*
G02*
X50103000Y-122442999I0J-249999D01*
G01*
X50103000Y-123143001D01*
G75*
G02*
X49853001Y-123393000I-249999J0D01*
G01*
G37*
%TD.AperFunction*%
%TD*%
D30*
%TO.N,VSS*%
X98552000Y-75184000D03*
X93599000Y-121793000D03*
X93599000Y-120713500D03*
X93218000Y-119570500D03*
X93218000Y-118173500D03*
X93281500Y-116713000D03*
X93281500Y-115316000D03*
X93408500Y-110363000D03*
X93408500Y-113665000D03*
X54546500Y-116522500D03*
X55943500Y-116522500D03*
X58356500Y-130365500D03*
X64452500Y-106553000D03*
X64452500Y-104394000D03*
X73088500Y-111887000D03*
X79883000Y-115697000D03*
X76073000Y-123507500D03*
X76644500Y-110617000D03*
X83502500Y-106045000D03*
X83502500Y-111125000D03*
X94170500Y-100901500D03*
X70421500Y-104394000D03*
X70421500Y-106489500D03*
X69659500Y-124142500D03*
X71818500Y-124142500D03*
X51752500Y-113220500D03*
X49403000Y-119380000D03*
X44513500Y-117983000D03*
X87693500Y-103124000D03*
X90360500Y-102489000D03*
X94107000Y-95821500D03*
X64401700Y-126822200D03*
X71767700Y-126085600D03*
X49364900Y-105384600D03*
X76631800Y-132689600D03*
X76301600Y-112318800D03*
%TO.N,LEDA*%
X66611500Y-114808000D03*
X86741000Y-110299500D03*
%TO.N,LEDK*%
X65722500Y-113982500D03*
X86868000Y-111506000D03*
%TO.N,DC*%
X62103000Y-110617000D03*
X88773000Y-114681000D03*
%TO.N,TE*%
X63064526Y-110891721D03*
X88265000Y-121158000D03*
%TO.N,~RES*%
X65015392Y-113275392D03*
X87883290Y-113128006D03*
%TO.N,~CS*%
X64389000Y-112458500D03*
X87407795Y-114331795D03*
%TO.N,RS*%
X63754000Y-111633000D03*
X88201500Y-116205000D03*
%TO.N,SDA*%
X61087000Y-110553500D03*
X89725500Y-117284500D03*
%TD*%
D31*
%TO.N,OSC_IN*%
X79128000Y-120785498D02*
X79128000Y-121020500D01*
X77988001Y-119645499D02*
X79128000Y-120785498D01*
X75817997Y-119645499D02*
X77988001Y-119645499D01*
X72362198Y-116189700D02*
X75817997Y-119645499D01*
X70051300Y-116189700D02*
X72362198Y-116189700D01*
X79460000Y-121352500D02*
X79128000Y-121020500D01*
X79460000Y-123507500D02*
X79460000Y-121352500D01*
D32*
%TO.N,VSS*%
X98602800Y-75133200D02*
X98552000Y-75184000D01*
X100522100Y-75133200D02*
X98602800Y-75133200D01*
D33*
X57049300Y-117689700D02*
X58701300Y-117689700D01*
X56642000Y-118097000D02*
X57049300Y-117689700D01*
D31*
X56642000Y-118097000D02*
X56642000Y-117602000D01*
X56729700Y-117689700D02*
X56642000Y-117602000D01*
X58701300Y-117689700D02*
X56729700Y-117689700D01*
X93564000Y-121828000D02*
X93599000Y-121793000D01*
X91575500Y-121828000D02*
X93564000Y-121828000D01*
X92984500Y-121328000D02*
X93599000Y-120713500D01*
X91575500Y-121328000D02*
X92984500Y-121328000D01*
X91575500Y-116328000D02*
X91575500Y-116828000D01*
X91575500Y-116828000D02*
X91575500Y-117328000D01*
X91575500Y-117328000D02*
X91575500Y-117828000D01*
X91575500Y-117828000D02*
X91575500Y-118328000D01*
X91575500Y-118328000D02*
X91575500Y-118828000D01*
X91575500Y-118828000D02*
X91575500Y-119328000D01*
X91575500Y-119328000D02*
X91575500Y-119828000D01*
X92960500Y-119828000D02*
X93218000Y-119570500D01*
X91575500Y-119828000D02*
X92960500Y-119828000D01*
X93063500Y-118328000D02*
X93218000Y-118173500D01*
X91575500Y-118328000D02*
X93063500Y-118328000D01*
X93166500Y-116828000D02*
X93281500Y-116713000D01*
X91575500Y-116828000D02*
X93166500Y-116828000D01*
X93269500Y-115328000D02*
X93281500Y-115316000D01*
X91575500Y-115328000D02*
X93269500Y-115328000D01*
X92443500Y-111328000D02*
X93408500Y-110363000D01*
X91575500Y-111328000D02*
X92443500Y-111328000D01*
X92571500Y-112828000D02*
X93408500Y-113665000D01*
X91575500Y-112828000D02*
X92571500Y-112828000D01*
X54546500Y-117834500D02*
X54546500Y-116522500D01*
X54546500Y-117834500D02*
X56642000Y-117834500D01*
X56642000Y-117221000D02*
X55943500Y-116522500D01*
X56642000Y-117834500D02*
X56642000Y-117221000D01*
X56373900Y-124599700D02*
X55398900Y-124599700D01*
X57044500Y-125270300D02*
X56373900Y-124599700D01*
X57044500Y-130365500D02*
X57044500Y-125270300D01*
X57044500Y-130365500D02*
X58356500Y-130365500D01*
X62028810Y-107664690D02*
X63140500Y-106553000D01*
X61385608Y-107664690D02*
X62028810Y-107664690D01*
X61126300Y-107923998D02*
X61385608Y-107664690D01*
X61126300Y-108764700D02*
X61126300Y-107923998D01*
X63140500Y-106553000D02*
X63140500Y-104394000D01*
X63140500Y-106553000D02*
X64452500Y-106553000D01*
X63140500Y-104394000D02*
X64452500Y-104394000D01*
X73088500Y-110575000D02*
X75184000Y-110575000D01*
X73088500Y-110575000D02*
X73088500Y-111887000D01*
X72178000Y-110575000D02*
X73088500Y-110575000D01*
X71882000Y-110871000D02*
X72178000Y-110575000D01*
X71882000Y-111950500D02*
X71882000Y-110871000D01*
X71142800Y-112689700D02*
X71882000Y-111950500D01*
X70051300Y-112689700D02*
X71142800Y-112689700D01*
X76828000Y-121020500D02*
X76828000Y-121024000D01*
X77385000Y-121581000D02*
X77385000Y-123507500D01*
X76828000Y-121024000D02*
X77385000Y-121581000D01*
X79128000Y-118120500D02*
X79128000Y-117926500D01*
X78571000Y-117369500D02*
X78571000Y-115697000D01*
X79128000Y-117926500D02*
X78571000Y-117369500D01*
X78571000Y-115697000D02*
X79883000Y-115697000D01*
X77385000Y-123507500D02*
X76073000Y-123507500D01*
X76602500Y-110575000D02*
X76644500Y-110617000D01*
X75184000Y-110575000D02*
X76602500Y-110575000D01*
X83530000Y-106017500D02*
X83502500Y-106045000D01*
X83530000Y-104610000D02*
X83530000Y-106017500D01*
X83530000Y-111152500D02*
X83502500Y-111125000D01*
X83530000Y-112560000D02*
X83530000Y-111152500D01*
D34*
X94234000Y-100838000D02*
X94170500Y-100901500D01*
X95482500Y-100838000D02*
X94234000Y-100838000D01*
D33*
X67626300Y-108764700D02*
X67626300Y-107921172D01*
X68847000Y-106700472D02*
X68847000Y-106680000D01*
X67626300Y-107921172D02*
X68847000Y-106700472D01*
D31*
X69109500Y-106553000D02*
X69109500Y-104394000D01*
X69109500Y-104394000D02*
X70421500Y-104394000D01*
X70358000Y-106553000D02*
X70421500Y-106489500D01*
X69109500Y-106553000D02*
X70358000Y-106553000D01*
X71797000Y-122830500D02*
X71818500Y-122809000D01*
X69659500Y-122830500D02*
X71797000Y-122830500D01*
X69659500Y-122830500D02*
X69659500Y-124142500D01*
X71818500Y-122809000D02*
X71818500Y-124142500D01*
X68934500Y-122830500D02*
X69659500Y-122830500D01*
X67626300Y-121522300D02*
X68934500Y-122830500D01*
X67626300Y-120114700D02*
X67626300Y-121522300D01*
X51489499Y-113483501D02*
X51752500Y-113220500D01*
X51489499Y-114588003D02*
X51489499Y-113483501D01*
X50634502Y-115443000D02*
X51489499Y-114588003D01*
X50144500Y-115443000D02*
X50634502Y-115443000D01*
D34*
X49403000Y-120793000D02*
X49403000Y-119380000D01*
X44545500Y-117951000D02*
X44513500Y-117983000D01*
X44545500Y-116459000D02*
X44545500Y-117951000D01*
X87709500Y-103140000D02*
X87693500Y-103124000D01*
X87709500Y-104584500D02*
X87709500Y-103140000D01*
X91710000Y-102489000D02*
X90360500Y-102489000D01*
X95910000Y-95821500D02*
X94107000Y-95821500D01*
D31*
X63935100Y-126355600D02*
X64401700Y-126822200D01*
X63004700Y-126355600D02*
X63935100Y-126355600D01*
X71755000Y-126098300D02*
X71767700Y-126085600D01*
X71755000Y-127397000D02*
X71755000Y-126098300D01*
X49364900Y-104073200D02*
X49364900Y-105384600D01*
D34*
X76651200Y-132709000D02*
X76631800Y-132689600D01*
X78477000Y-132709000D02*
X76651200Y-132709000D01*
D31*
X75209400Y-113411000D02*
X76301600Y-112318800D01*
X75015000Y-113411000D02*
X75209400Y-113411000D01*
%TO.N,NRST*%
X72670702Y-113411000D02*
X72940000Y-113411000D01*
X70892002Y-115189700D02*
X72670702Y-113411000D01*
X70051300Y-115189700D02*
X70892002Y-115189700D01*
X78063799Y-111593799D02*
X79030000Y-112560000D01*
X74757201Y-111593799D02*
X78063799Y-111593799D01*
X72940000Y-113411000D02*
X74757201Y-111593799D01*
D33*
%TO.N,VDD_3.3*%
X91575500Y-112328000D02*
X91575500Y-111828000D01*
X91575500Y-112328000D02*
X94484500Y-112328000D01*
D31*
X56642000Y-119909500D02*
X56642000Y-119634000D01*
X58086300Y-118189700D02*
X58701300Y-118189700D01*
X56642000Y-119634000D02*
X58086300Y-118189700D01*
X54546500Y-119909500D02*
X56642000Y-119909500D01*
X60626300Y-106992200D02*
X61065500Y-106553000D01*
X60626300Y-108764700D02*
X60626300Y-106992200D01*
X61065500Y-106553000D02*
X61065500Y-104394000D01*
X91575500Y-112328000D02*
X95310000Y-112328000D01*
X94810000Y-111828000D02*
X93467500Y-111828000D01*
D33*
X93467500Y-111828000D02*
X94619500Y-111828000D01*
D31*
X95310000Y-112328000D02*
X94810000Y-111828000D01*
D33*
X91575500Y-111828000D02*
X93467500Y-111828000D01*
D31*
X67034500Y-106553000D02*
X67034500Y-104394000D01*
D33*
X67126300Y-108764700D02*
X67126300Y-106850700D01*
X67126300Y-106850700D02*
X67297000Y-106680000D01*
D31*
X71797000Y-120755500D02*
X71818500Y-120734000D01*
X69659500Y-120755500D02*
X71797000Y-120755500D01*
X68126300Y-120114700D02*
X68643500Y-120631900D01*
X69535900Y-120631900D02*
X69659500Y-120755500D01*
X68643500Y-120631900D02*
X69535900Y-120631900D01*
D34*
X94154500Y-102933500D02*
X93710000Y-102489000D01*
X95520000Y-102933500D02*
X94154500Y-102933500D01*
X93710000Y-104559500D02*
X93735000Y-104584500D01*
X93710000Y-102489000D02*
X93710000Y-104559500D01*
D35*
X54969500Y-130365500D02*
X54969500Y-128921600D01*
X54969500Y-128839100D02*
X55398900Y-128409700D01*
X54969500Y-130365500D02*
X54969500Y-128839100D01*
D31*
%TO.N,OSC_OUT*%
X76828000Y-116029000D02*
X76496000Y-115697000D01*
X76828000Y-118120500D02*
X76828000Y-116029000D01*
X70051300Y-115689700D02*
X72573200Y-115689700D01*
X75004000Y-118120500D02*
X76828000Y-118120500D01*
X72573200Y-115689700D02*
X75004000Y-118120500D01*
D32*
%TO.N,Net-(C10-Pad1)*%
X98793300Y-77673200D02*
X100522100Y-77673200D01*
D34*
X94805500Y-92417000D02*
X95910000Y-93521500D01*
X94805500Y-86042500D02*
X94805500Y-92417000D01*
X94805500Y-81661000D02*
X96901000Y-79565500D01*
X94805500Y-86042500D02*
X94805500Y-81661000D01*
D32*
X96901000Y-79565500D02*
X98793300Y-77673200D01*
%TO.N,VDD_10*%
X98933000Y-126762500D02*
X98933000Y-106870500D01*
D34*
X95910000Y-98121500D02*
X96280000Y-98121500D01*
X97557500Y-99399000D02*
X97557500Y-100838000D01*
X96280000Y-98121500D02*
X97557500Y-99399000D01*
X97557500Y-102804500D02*
X97686500Y-102933500D01*
X97557500Y-100838000D02*
X97557500Y-102804500D01*
X97686500Y-105624000D02*
X98933000Y-106870500D01*
X97686500Y-102933500D02*
X97686500Y-105624000D01*
D31*
%TO.N,VDDA_3.3*%
X70892002Y-112189700D02*
X71374000Y-111707702D01*
X70051300Y-112189700D02*
X70892002Y-112189700D01*
X71374000Y-110214500D02*
X73088500Y-108500000D01*
X71374000Y-111707702D02*
X71374000Y-110214500D01*
X73088500Y-108500000D02*
X75184000Y-108500000D01*
X75184000Y-106814000D02*
X75381500Y-106616500D01*
X75184000Y-108500000D02*
X75184000Y-106814000D01*
D32*
%TO.N,Net-(J1-Pad1)*%
X98742500Y-131953000D02*
X98933000Y-131762500D01*
X91781000Y-131953000D02*
X98742500Y-131953000D01*
D36*
%TO.N,USB_CONN-*%
X48346897Y-113959000D02*
X48880897Y-114493000D01*
X46545500Y-113959000D02*
X48346897Y-113959000D01*
X48880897Y-114493000D02*
X50144500Y-114493000D01*
D37*
%TO.N,VDD_5*%
X46609000Y-116459000D02*
X47625000Y-116459000D01*
X47625000Y-116459000D02*
X48958500Y-117792500D01*
X48958500Y-117792500D02*
X50355500Y-117792500D01*
X51674498Y-115443000D02*
X52344500Y-115443000D01*
X51389499Y-115727999D02*
X51674498Y-115443000D01*
X51389499Y-116758501D02*
X51389499Y-115727999D01*
X50355500Y-117792500D02*
X51389499Y-116758501D01*
D36*
%TO.N,USB_CONN+*%
X49819501Y-116068001D02*
X50144500Y-116393000D01*
X48239294Y-116068001D02*
X49819501Y-116068001D01*
X47430311Y-115259018D02*
X48239294Y-116068001D01*
X46217516Y-115259018D02*
X47430311Y-115259018D01*
X45367498Y-114409000D02*
X46217516Y-115259018D01*
X44995500Y-114409000D02*
X45367498Y-114409000D01*
X44545500Y-113959000D02*
X44995500Y-114409000D01*
D31*
%TO.N,SPI_NSS*%
X49266891Y-100362001D02*
X50990500Y-102085610D01*
X45180501Y-100362001D02*
X49266891Y-100362001D01*
X44005500Y-99187000D02*
X45180501Y-100362001D01*
X50990500Y-102085610D02*
X50990500Y-109359700D01*
X52320500Y-110689700D02*
X58701300Y-110689700D01*
X50990500Y-109359700D02*
X52320500Y-110689700D01*
%TO.N,SPI1_SCK*%
X49018700Y-101727000D02*
X49364900Y-102073200D01*
X46545500Y-101727000D02*
X49018700Y-101727000D01*
X50389910Y-103098210D02*
X50389910Y-109787810D01*
X49364900Y-102073200D02*
X50389910Y-103098210D01*
X51791800Y-111189700D02*
X58701300Y-111189700D01*
X50389910Y-109787810D02*
X51791800Y-111189700D01*
%TO.N,SPI1_MOSI*%
X57835608Y-112214690D02*
X58610500Y-112214690D01*
X41465500Y-101727000D02*
X41465500Y-102946200D01*
X41465500Y-102946200D02*
X50733990Y-112214690D01*
X50733990Y-112214690D02*
X57835608Y-112214690D01*
%TO.N,SPI1_MISO*%
X44005500Y-104266100D02*
X51429100Y-111689700D01*
X44005500Y-101727000D02*
X44005500Y-104266100D01*
X51429100Y-111689700D02*
X58701300Y-111689700D01*
%TO.N,SPI2_MISO*%
X61648910Y-123594690D02*
X64126300Y-121117300D01*
X61648910Y-124946458D02*
X61648910Y-123594690D01*
X60725668Y-125869700D02*
X61648910Y-124946458D01*
X64126300Y-121117300D02*
X64126300Y-120114700D01*
X60348900Y-125869700D02*
X60725668Y-125869700D01*
%TO.N,SPI2_~SS*%
X60348900Y-127139700D02*
X61391800Y-127139700D01*
X65126300Y-122105478D02*
X65126300Y-120114700D01*
X61979690Y-125252088D02*
X65126300Y-122105478D01*
X61979690Y-126551810D02*
X61979690Y-125252088D01*
X61391800Y-127139700D02*
X61979690Y-126551810D01*
%TO.N,SPI2_SCK*%
X63626300Y-120955402D02*
X63626300Y-120114700D01*
X62598202Y-121983500D02*
X63626300Y-120955402D01*
X61318332Y-121983500D02*
X62598202Y-121983500D01*
X58980166Y-128015966D02*
X58980166Y-124321666D01*
X59373900Y-128409700D02*
X58980166Y-128015966D01*
X60348900Y-128409700D02*
X59373900Y-128409700D01*
X59773916Y-123527916D02*
X61318332Y-121983500D01*
X58980166Y-124321666D02*
X59773916Y-123527916D01*
X62620400Y-128409700D02*
X62649100Y-128381000D01*
X60348900Y-128409700D02*
X62620400Y-128409700D01*
%TO.N,Net-(Q1-Pad1)*%
X78471000Y-128143000D02*
X78477000Y-128149000D01*
X75779000Y-128143000D02*
X78471000Y-128143000D01*
D32*
%TO.N,Net-(Q1-Pad4)*%
X86301000Y-131953000D02*
X84777000Y-130429000D01*
X89956000Y-131953000D02*
X86301000Y-131953000D01*
D31*
%TO.N,RELAY_CNTRL*%
X66626300Y-122695390D02*
X68935909Y-125004999D01*
X66626300Y-120114700D02*
X66626300Y-122695390D01*
X73954000Y-126855998D02*
X73954000Y-127611500D01*
X72103001Y-125004999D02*
X73954000Y-126855998D01*
X68935909Y-125004999D02*
X72103001Y-125004999D01*
X73954000Y-127611500D02*
X73954000Y-128143000D01*
D36*
%TO.N,USBD-*%
X56465893Y-115372508D02*
X57308085Y-116214700D01*
X54024107Y-115372508D02*
X56465893Y-115372508D01*
X53469598Y-114817999D02*
X54024107Y-115372508D01*
X52344500Y-114493000D02*
X52669498Y-114817999D01*
X58676300Y-116214700D02*
X58701300Y-116189700D01*
X52669498Y-114817999D02*
X53469598Y-114817999D01*
X57308085Y-116214700D02*
X58676300Y-116214700D01*
%TO.N,USBD+*%
X58676300Y-116664700D02*
X58701300Y-116689700D01*
X57121702Y-116664700D02*
X58676300Y-116664700D01*
X56279501Y-115822499D02*
X57121702Y-116664700D01*
X54178604Y-115822499D02*
X56279501Y-115822499D01*
X53608103Y-116393000D02*
X54178604Y-115822499D01*
X52344500Y-116393000D02*
X53608103Y-116393000D01*
D31*
%TO.N,Net-(U4-Pad27)*%
X63126300Y-109163800D02*
X63101310Y-109188790D01*
X63126300Y-108764700D02*
X63126300Y-109163800D01*
D38*
%TO.N,Net-(J6-Pad1)*%
X54914800Y-76720700D02*
X56654700Y-78460600D01*
X44538900Y-76720700D02*
X54914800Y-76720700D01*
%TO.N,Net-(J6-Pad2)*%
X44538900Y-81720700D02*
X54644300Y-81720700D01*
X54644300Y-81720700D02*
X56159400Y-83235800D01*
X56159400Y-97015300D02*
X56654700Y-97510600D01*
X56159400Y-83235800D02*
X56159400Y-97015300D01*
%TO.N,Net-(U5-Pad4)*%
X91948000Y-78232000D02*
X92456000Y-77724000D01*
X92506800Y-77673200D02*
X91948000Y-78232000D01*
X94372100Y-77673200D02*
X92506800Y-77673200D01*
X87134700Y-97510600D02*
X83566000Y-93941900D01*
X83566000Y-93941900D02*
X83566000Y-85026500D01*
X83566000Y-85026500D02*
X85979000Y-82613500D01*
X87566500Y-82613500D02*
X91948000Y-78232000D01*
X85979000Y-82613500D02*
X87566500Y-82613500D01*
%TO.N,Net-(U5-Pad3)*%
X87134700Y-78460600D02*
X89496900Y-78460600D01*
X92824300Y-75133200D02*
X94372100Y-75133200D01*
X89496900Y-78460600D02*
X92824300Y-75133200D01*
%TO.N,Net-(U6-Pad6)*%
X87134700Y-91160600D02*
X87134700Y-84810600D01*
D36*
%TO.N,/T-*%
X54988900Y-126279700D02*
X55398900Y-125869700D01*
X48940603Y-126784100D02*
X49445003Y-126279700D01*
X44577000Y-126784100D02*
X48940603Y-126784100D01*
X49445003Y-126279700D02*
X54988900Y-126279700D01*
%TO.N,/T+*%
X54988900Y-126729700D02*
X55398900Y-127139700D01*
X49631400Y-126729700D02*
X54988900Y-126729700D01*
X44577000Y-131784100D02*
X49631400Y-126729700D01*
D31*
%TO.N,LEDA*%
X66626300Y-109107800D02*
X66611500Y-109122600D01*
X66626300Y-108764700D02*
X66626300Y-109107800D01*
X66626300Y-114793200D02*
X66611500Y-114808000D01*
X66626300Y-108764700D02*
X66626300Y-114793200D01*
X91547000Y-110299500D02*
X91575500Y-110328000D01*
X86741000Y-110299500D02*
X91547000Y-110299500D01*
%TO.N,LEDK*%
X66126300Y-113578700D02*
X65722500Y-113982500D01*
X66126300Y-108764700D02*
X66126300Y-113578700D01*
X87546000Y-110828000D02*
X91575500Y-110828000D01*
X86868000Y-111506000D02*
X87546000Y-110828000D01*
%TO.N,DC*%
X62126300Y-110593700D02*
X62103000Y-110617000D01*
X62126300Y-108764700D02*
X62126300Y-110593700D01*
X89126000Y-114328000D02*
X91575500Y-114328000D01*
X88773000Y-114681000D02*
X89126000Y-114328000D01*
%TO.N,TE*%
X64126300Y-109829947D02*
X64126300Y-108764700D01*
X63064526Y-110891721D02*
X64126300Y-109829947D01*
X89095000Y-120328000D02*
X91575500Y-120328000D01*
X88265000Y-121158000D02*
X89095000Y-120328000D01*
%TO.N,~RES*%
X65626300Y-112664484D02*
X65015392Y-113275392D01*
X65626300Y-108764700D02*
X65626300Y-112664484D01*
X88083284Y-113328000D02*
X91575500Y-113328000D01*
X87883290Y-113128006D02*
X88083284Y-113328000D01*
%TO.N,~CS*%
X65126300Y-111721200D02*
X64389000Y-112458500D01*
X65126300Y-108764700D02*
X65126300Y-111721200D01*
X91550501Y-113852999D02*
X91575500Y-113828000D01*
X87886590Y-113852999D02*
X89214999Y-113852999D01*
X89214999Y-113852999D02*
X91550501Y-113852999D01*
X87407795Y-114331795D02*
X87886590Y-113852999D01*
%TO.N,RS*%
X64626300Y-110760700D02*
X63754000Y-111633000D01*
X64626300Y-108764700D02*
X64626300Y-110760700D01*
X89826685Y-114828000D02*
X91575500Y-114828000D01*
X88449685Y-116205000D02*
X89826685Y-114828000D01*
X88201500Y-116205000D02*
X88449685Y-116205000D01*
%TO.N,SDA*%
X61626300Y-110014200D02*
X61087000Y-110553500D01*
X61626300Y-108764700D02*
X61626300Y-110014200D01*
X90616315Y-115828000D02*
X91575500Y-115828000D01*
X89725500Y-116718815D02*
X90616315Y-115828000D01*
X89725500Y-117284500D02*
X89725500Y-116718815D01*
D34*
%TO.N,Net-(D1-Pad1)*%
X89709500Y-104584500D02*
X91685000Y-104584500D01*
D31*
%TO.N,Net-(D2-Pad1)*%
X71731500Y-129286000D02*
X71755000Y-129309500D01*
X69963000Y-129286000D02*
X71731500Y-129286000D01*
%TO.N,Net-(D2-Pad2)*%
X66484500Y-129309500D02*
X66548000Y-129246000D01*
X68173000Y-129246000D02*
X68213000Y-129286000D01*
X66548000Y-129246000D02*
X68173000Y-129246000D01*
X66484500Y-132842000D02*
X65722500Y-132080000D01*
X65722500Y-129549400D02*
X65900300Y-129371600D01*
X65722500Y-132080000D02*
X65722500Y-129549400D01*
%TO.N,BOOT0*%
X66126300Y-120114700D02*
X66126300Y-122831800D01*
X65900300Y-123057800D02*
X66126300Y-122831800D01*
X65900300Y-127371600D02*
X65900300Y-123057800D01*
D34*
%TO.N,Net-(J2-Pad5)*%
X41685500Y-109209000D02*
X41685500Y-121209000D01*
X41685500Y-121209000D02*
X41685500Y-121251000D01*
X43227500Y-122793000D02*
X49403000Y-122793000D01*
X41685500Y-121251000D02*
X43227500Y-122793000D01*
%TD*%
D39*
%TO.N,VDD_3.3*%
X103581600Y-85077974D02*
X103545893Y-85024535D01*
X103323465Y-84802107D01*
X103061916Y-84627345D01*
X102771299Y-84506968D01*
X102462781Y-84445600D01*
X102148219Y-84445600D01*
X101839701Y-84506968D01*
X101549084Y-84627345D01*
X101287535Y-84802107D01*
X101065107Y-85024535D01*
X100890345Y-85286084D01*
X100769968Y-85576701D01*
X100708600Y-85885219D01*
X100708600Y-86199781D01*
X100769968Y-86508299D01*
X100890345Y-86798916D01*
X101065107Y-87060465D01*
X101287535Y-87282893D01*
X101549084Y-87457655D01*
X101839701Y-87578032D01*
X102148219Y-87639400D01*
X102462781Y-87639400D01*
X102771299Y-87578032D01*
X103061916Y-87457655D01*
X103323465Y-87282893D01*
X103545893Y-87060465D01*
X103581600Y-87007026D01*
X103581600Y-93454289D01*
X103543224Y-93422795D01*
X103439529Y-93367368D01*
X103327013Y-93333237D01*
X103210000Y-93321712D01*
X101210000Y-93321712D01*
X101092987Y-93333237D01*
X100980471Y-93367368D01*
X100876776Y-93422795D01*
X100785886Y-93497386D01*
X100711295Y-93588276D01*
X100655868Y-93691971D01*
X100621737Y-93804487D01*
X100610212Y-93921500D01*
X100610212Y-97721500D01*
X100621737Y-97838513D01*
X100655868Y-97951029D01*
X100711295Y-98054724D01*
X100785886Y-98145614D01*
X100876776Y-98220205D01*
X100980471Y-98275632D01*
X101092987Y-98309763D01*
X101210000Y-98321288D01*
X103210000Y-98321288D01*
X103327013Y-98309763D01*
X103439529Y-98275632D01*
X103543224Y-98220205D01*
X103581600Y-98188711D01*
X103581601Y-134239400D01*
X40004600Y-134239400D01*
X40004600Y-133810801D01*
X63209185Y-133810801D01*
X63281351Y-134035632D01*
X63526960Y-134142070D01*
X63788614Y-134198548D01*
X64056259Y-134202894D01*
X64319609Y-134154942D01*
X64568543Y-134056534D01*
X64607649Y-134035632D01*
X64679815Y-133810801D01*
X63944500Y-133075487D01*
X63209185Y-133810801D01*
X40004600Y-133810801D01*
X40004600Y-125484100D01*
X42677212Y-125484100D01*
X42677212Y-128084100D01*
X42688737Y-128201113D01*
X42722868Y-128313629D01*
X42778295Y-128417324D01*
X42852886Y-128508214D01*
X42943776Y-128582805D01*
X43047471Y-128638232D01*
X43159987Y-128672363D01*
X43277000Y-128683888D01*
X45877000Y-128683888D01*
X45994013Y-128672363D01*
X46106529Y-128638232D01*
X46210224Y-128582805D01*
X46301114Y-128508214D01*
X46375705Y-128417324D01*
X46431132Y-128313629D01*
X46465263Y-128201113D01*
X46476788Y-128084100D01*
X46476788Y-127481000D01*
X47894535Y-127481000D01*
X45331925Y-130043611D01*
X45130305Y-129960097D01*
X44763828Y-129887200D01*
X44390172Y-129887200D01*
X44023695Y-129960097D01*
X43678481Y-130103089D01*
X43367797Y-130310682D01*
X43103582Y-130574897D01*
X42895989Y-130885581D01*
X42752997Y-131230795D01*
X42680100Y-131597272D01*
X42680100Y-131970928D01*
X42752997Y-132337405D01*
X42895989Y-132682619D01*
X43103582Y-132993303D01*
X43367797Y-133257518D01*
X43678481Y-133465111D01*
X44023695Y-133608103D01*
X44390172Y-133681000D01*
X44763828Y-133681000D01*
X45130305Y-133608103D01*
X45475519Y-133465111D01*
X45786203Y-133257518D01*
X46050418Y-132993303D01*
X46076840Y-132953759D01*
X62583606Y-132953759D01*
X62631558Y-133217109D01*
X62729966Y-133466043D01*
X62750868Y-133505149D01*
X62975699Y-133577315D01*
X63711013Y-132842000D01*
X62975699Y-132106685D01*
X62750868Y-132178851D01*
X62644430Y-132424460D01*
X62587952Y-132686114D01*
X62583606Y-132953759D01*
X46076840Y-132953759D01*
X46258011Y-132682619D01*
X46401003Y-132337405D01*
X46473900Y-131970928D01*
X46473900Y-131873199D01*
X63209185Y-131873199D01*
X63944500Y-132608513D01*
X64679815Y-131873199D01*
X64607649Y-131648368D01*
X64362040Y-131541930D01*
X64100386Y-131485452D01*
X63832741Y-131481106D01*
X63569391Y-131529058D01*
X63320457Y-131627466D01*
X63281351Y-131648368D01*
X63209185Y-131873199D01*
X46473900Y-131873199D01*
X46473900Y-131597272D01*
X46401003Y-131230795D01*
X46342891Y-131090500D01*
X53782212Y-131090500D01*
X53793737Y-131207513D01*
X53827868Y-131320029D01*
X53883295Y-131423724D01*
X53957886Y-131514614D01*
X54048776Y-131589205D01*
X54152471Y-131644632D01*
X54264987Y-131678763D01*
X54382000Y-131690288D01*
X54655175Y-131687400D01*
X54804400Y-131538175D01*
X54804400Y-130530600D01*
X53934325Y-130530600D01*
X53785100Y-130679825D01*
X53782212Y-131090500D01*
X46342891Y-131090500D01*
X46317489Y-131029175D01*
X49920065Y-127426600D01*
X53837596Y-127426600D01*
X53838519Y-127435976D01*
X53881186Y-127576631D01*
X53950474Y-127706260D01*
X53966664Y-127725988D01*
X53927077Y-127773676D01*
X53871068Y-127877058D01*
X53836304Y-127989380D01*
X53827000Y-128095375D01*
X53976225Y-128244600D01*
X55233800Y-128244600D01*
X55233800Y-128224600D01*
X55564000Y-128224600D01*
X55564000Y-128244600D01*
X55584000Y-128244600D01*
X55584000Y-128574800D01*
X55564000Y-128574800D01*
X55564000Y-128594800D01*
X55233800Y-128594800D01*
X55233800Y-128574800D01*
X53976225Y-128574800D01*
X53827000Y-128724025D01*
X53836304Y-128830020D01*
X53871068Y-128942342D01*
X53927077Y-129045724D01*
X54002178Y-129136193D01*
X54029043Y-129157989D01*
X53957886Y-129216386D01*
X53883295Y-129307276D01*
X53827868Y-129410971D01*
X53793737Y-129523487D01*
X53782212Y-129640500D01*
X53785100Y-130051175D01*
X53934325Y-130200400D01*
X54804400Y-130200400D01*
X54804400Y-130180400D01*
X55134600Y-130180400D01*
X55134600Y-130200400D01*
X55154600Y-130200400D01*
X55154600Y-130530600D01*
X55134600Y-130530600D01*
X55134600Y-131538175D01*
X55283825Y-131687400D01*
X55557000Y-131690288D01*
X55674013Y-131678763D01*
X55786529Y-131644632D01*
X55890224Y-131589205D01*
X55981114Y-131514614D01*
X56055705Y-131423724D01*
X56069867Y-131397230D01*
X56106109Y-131441391D01*
X56234883Y-131547073D01*
X56381800Y-131625602D01*
X56541215Y-131673960D01*
X56707000Y-131690288D01*
X57382000Y-131690288D01*
X57547785Y-131673960D01*
X57707200Y-131625602D01*
X57854117Y-131547073D01*
X57982891Y-131441391D01*
X58077271Y-131326389D01*
X58258314Y-131362400D01*
X58454686Y-131362400D01*
X58647285Y-131324090D01*
X58828709Y-131248942D01*
X58991987Y-131139843D01*
X59130843Y-131000987D01*
X59239942Y-130837709D01*
X59315090Y-130656285D01*
X59353400Y-130463686D01*
X59353400Y-130267314D01*
X59315090Y-130074715D01*
X59239942Y-129893291D01*
X59130843Y-129730013D01*
X58991987Y-129591157D01*
X58828709Y-129482058D01*
X58647285Y-129406910D01*
X58454686Y-129368600D01*
X58258314Y-129368600D01*
X58077271Y-129404611D01*
X57982891Y-129289609D01*
X57854117Y-129183927D01*
X57766400Y-129137041D01*
X57766400Y-125305753D01*
X57769892Y-125270300D01*
X57764570Y-125216263D01*
X57755954Y-125128783D01*
X57714675Y-124992704D01*
X57708907Y-124981913D01*
X57647641Y-124867293D01*
X57580031Y-124784910D01*
X57557430Y-124757370D01*
X57529888Y-124734767D01*
X57116786Y-124321666D01*
X58254774Y-124321666D01*
X58258267Y-124357129D01*
X58258266Y-127980513D01*
X58254774Y-128015966D01*
X58258266Y-128051419D01*
X58258266Y-128051420D01*
X58268712Y-128157482D01*
X58307247Y-128284516D01*
X58309991Y-128293561D01*
X58377025Y-128418972D01*
X58397164Y-128443511D01*
X58467236Y-128528895D01*
X58494784Y-128551503D01*
X58838359Y-128895078D01*
X58860970Y-128922630D01*
X58880278Y-128938475D01*
X58900474Y-128976260D01*
X58993720Y-129089880D01*
X59107340Y-129183126D01*
X59236969Y-129252414D01*
X59377624Y-129295081D01*
X59523900Y-129309488D01*
X61173900Y-129309488D01*
X61320176Y-129295081D01*
X61460831Y-129252414D01*
X61590460Y-129183126D01*
X61653244Y-129131600D01*
X61823477Y-129131600D01*
X61848127Y-129177717D01*
X61953809Y-129306491D01*
X62082583Y-129412173D01*
X62229500Y-129490702D01*
X62388914Y-129539060D01*
X62554699Y-129555388D01*
X63454701Y-129555388D01*
X63481993Y-129552700D01*
X64600512Y-129552700D01*
X64600512Y-129721601D01*
X64616840Y-129887386D01*
X64665198Y-130046800D01*
X64743727Y-130193717D01*
X64849409Y-130322491D01*
X64978183Y-130428173D01*
X65000601Y-130440156D01*
X65000600Y-132044547D01*
X64997108Y-132080000D01*
X65000600Y-132115453D01*
X65000600Y-132115454D01*
X65002558Y-132135335D01*
X64913301Y-132106685D01*
X64177987Y-132842000D01*
X64913301Y-133577315D01*
X65138132Y-133505149D01*
X65214924Y-133327948D01*
X65280259Y-133485680D01*
X65428974Y-133708248D01*
X65618252Y-133897526D01*
X65840820Y-134046241D01*
X66088124Y-134148678D01*
X66350660Y-134200900D01*
X66618340Y-134200900D01*
X66880876Y-134148678D01*
X67128180Y-134046241D01*
X67350748Y-133897526D01*
X67540026Y-133708248D01*
X67688741Y-133485680D01*
X67722750Y-133403575D01*
X67756759Y-133485680D01*
X67905474Y-133708248D01*
X68094752Y-133897526D01*
X68317320Y-134046241D01*
X68564624Y-134148678D01*
X68827160Y-134200900D01*
X69094840Y-134200900D01*
X69357376Y-134148678D01*
X69604680Y-134046241D01*
X69827248Y-133897526D01*
X70016526Y-133708248D01*
X70165241Y-133485680D01*
X70267678Y-133238376D01*
X70319900Y-132975840D01*
X70319900Y-132708160D01*
X70267678Y-132445624D01*
X70165241Y-132198320D01*
X70016526Y-131975752D01*
X69827248Y-131786474D01*
X69604680Y-131637759D01*
X69357376Y-131535322D01*
X69094840Y-131483100D01*
X68827160Y-131483100D01*
X68564624Y-131535322D01*
X68317320Y-131637759D01*
X68094752Y-131786474D01*
X67905474Y-131975752D01*
X67756759Y-132198320D01*
X67722750Y-132280425D01*
X67688741Y-132198320D01*
X67540026Y-131975752D01*
X67350748Y-131786474D01*
X67128180Y-131637759D01*
X66880876Y-131535322D01*
X66618340Y-131483100D01*
X66444400Y-131483100D01*
X66444400Y-130562120D01*
X66516086Y-130555060D01*
X66675500Y-130506702D01*
X66822417Y-130428173D01*
X66890714Y-130372123D01*
X66961083Y-130429873D01*
X67108000Y-130508402D01*
X67267414Y-130556760D01*
X67433199Y-130573088D01*
X68083201Y-130573088D01*
X68248986Y-130556760D01*
X68408400Y-130508402D01*
X68555317Y-130429873D01*
X68684091Y-130324191D01*
X68783200Y-130203426D01*
X68882309Y-130324191D01*
X69011083Y-130429873D01*
X69158000Y-130508402D01*
X69317414Y-130556760D01*
X69483199Y-130573088D01*
X70133201Y-130573088D01*
X70298986Y-130556760D01*
X70458400Y-130508402D01*
X70605317Y-130429873D01*
X70704661Y-130348344D01*
X70832883Y-130453573D01*
X70979800Y-130532102D01*
X71139214Y-130580460D01*
X71304999Y-130596788D01*
X72205001Y-130596788D01*
X72370786Y-130580460D01*
X72530200Y-130532102D01*
X72677117Y-130453573D01*
X72805891Y-130347891D01*
X72911573Y-130219117D01*
X72990102Y-130072200D01*
X73038460Y-129912786D01*
X73054788Y-129747001D01*
X73054788Y-129305135D01*
X73191300Y-129378102D01*
X73350714Y-129426460D01*
X73516499Y-129442788D01*
X74216501Y-129442788D01*
X74382286Y-129426460D01*
X74541700Y-129378102D01*
X74688617Y-129299573D01*
X74817391Y-129193891D01*
X74866500Y-129134051D01*
X74915609Y-129193891D01*
X75044383Y-129299573D01*
X75191300Y-129378102D01*
X75350714Y-129426460D01*
X75516499Y-129442788D01*
X76216501Y-129442788D01*
X76382286Y-129426460D01*
X76541700Y-129378102D01*
X76688617Y-129299573D01*
X76817391Y-129193891D01*
X76893664Y-129100952D01*
X76952886Y-129173114D01*
X77043776Y-129247705D01*
X77121032Y-129289000D01*
X77043776Y-129330295D01*
X76952886Y-129404886D01*
X76878295Y-129495776D01*
X76822868Y-129599471D01*
X76788737Y-129711987D01*
X76777212Y-129829000D01*
X76777212Y-131029000D01*
X76788737Y-131146013D01*
X76822868Y-131258529D01*
X76878295Y-131362224D01*
X76952886Y-131453114D01*
X77043776Y-131527705D01*
X77121032Y-131569000D01*
X77043776Y-131610295D01*
X76952886Y-131684886D01*
X76916093Y-131729719D01*
X76729986Y-131692700D01*
X76533614Y-131692700D01*
X76341015Y-131731010D01*
X76159591Y-131806158D01*
X75996313Y-131915257D01*
X75857457Y-132054113D01*
X75748358Y-132217391D01*
X75673210Y-132398815D01*
X75634900Y-132591414D01*
X75634900Y-132787786D01*
X75673210Y-132980385D01*
X75748358Y-133161809D01*
X75857457Y-133325087D01*
X75996313Y-133463943D01*
X76159591Y-133573042D01*
X76341015Y-133648190D01*
X76533614Y-133686500D01*
X76729986Y-133686500D01*
X76883824Y-133655900D01*
X76889519Y-133655900D01*
X76952886Y-133733114D01*
X77043776Y-133807705D01*
X77147471Y-133863132D01*
X77259987Y-133897263D01*
X77377000Y-133908788D01*
X79577000Y-133908788D01*
X79694013Y-133897263D01*
X79806529Y-133863132D01*
X79910224Y-133807705D01*
X80001114Y-133733114D01*
X80075705Y-133642224D01*
X80131132Y-133538529D01*
X80165263Y-133426013D01*
X80176788Y-133309000D01*
X80176788Y-132109000D01*
X80165263Y-131991987D01*
X80131132Y-131879471D01*
X80075705Y-131775776D01*
X80001114Y-131684886D01*
X79910224Y-131610295D01*
X79832968Y-131569000D01*
X79910224Y-131527705D01*
X80001114Y-131453114D01*
X80075705Y-131362224D01*
X80131132Y-131258529D01*
X80165263Y-131146013D01*
X80176788Y-131029000D01*
X80176788Y-129829000D01*
X80165263Y-129711987D01*
X80131132Y-129599471D01*
X80075705Y-129495776D01*
X80001114Y-129404886D01*
X79910224Y-129330295D01*
X79832968Y-129289000D01*
X79910224Y-129247705D01*
X80001114Y-129173114D01*
X80075705Y-129082224D01*
X80131132Y-128978529D01*
X80165263Y-128866013D01*
X80176788Y-128749000D01*
X80176788Y-127549000D01*
X80174819Y-127529000D01*
X80977212Y-127529000D01*
X80977212Y-133329000D01*
X80988737Y-133446013D01*
X81022868Y-133558529D01*
X81078295Y-133662224D01*
X81152886Y-133753114D01*
X81243776Y-133827705D01*
X81347471Y-133883132D01*
X81459987Y-133917263D01*
X81577000Y-133928788D01*
X87977000Y-133928788D01*
X88094013Y-133917263D01*
X88206529Y-133883132D01*
X88310224Y-133827705D01*
X88401114Y-133753114D01*
X88475705Y-133662224D01*
X88531132Y-133558529D01*
X88565263Y-133446013D01*
X88576788Y-133329000D01*
X88576788Y-132905500D01*
X88836862Y-132905500D01*
X88917609Y-133003891D01*
X89046383Y-133109573D01*
X89193300Y-133188102D01*
X89352714Y-133236460D01*
X89518499Y-133252788D01*
X90218501Y-133252788D01*
X90384286Y-133236460D01*
X90543700Y-133188102D01*
X90690617Y-133109573D01*
X90819391Y-133003891D01*
X90868500Y-132944051D01*
X90917609Y-133003891D01*
X91046383Y-133109573D01*
X91193300Y-133188102D01*
X91352714Y-133236460D01*
X91518499Y-133252788D01*
X92218501Y-133252788D01*
X92384286Y-133236460D01*
X92543700Y-133188102D01*
X92690617Y-133109573D01*
X92819391Y-133003891D01*
X92900138Y-132905500D01*
X97033212Y-132905500D01*
X97033212Y-133062500D01*
X97044737Y-133179513D01*
X97078868Y-133292029D01*
X97134295Y-133395724D01*
X97208886Y-133486614D01*
X97299776Y-133561205D01*
X97403471Y-133616632D01*
X97515987Y-133650763D01*
X97633000Y-133662288D01*
X100233000Y-133662288D01*
X100350013Y-133650763D01*
X100462529Y-133616632D01*
X100566224Y-133561205D01*
X100657114Y-133486614D01*
X100731705Y-133395724D01*
X100787132Y-133292029D01*
X100821263Y-133179513D01*
X100832788Y-133062500D01*
X100832788Y-130462500D01*
X100821263Y-130345487D01*
X100787132Y-130232971D01*
X100731705Y-130129276D01*
X100657114Y-130038386D01*
X100566224Y-129963795D01*
X100462529Y-129908368D01*
X100350013Y-129874237D01*
X100233000Y-129862712D01*
X97633000Y-129862712D01*
X97515987Y-129874237D01*
X97403471Y-129908368D01*
X97299776Y-129963795D01*
X97208886Y-130038386D01*
X97134295Y-130129276D01*
X97078868Y-130232971D01*
X97044737Y-130345487D01*
X97033212Y-130462500D01*
X97033212Y-131000500D01*
X92900138Y-131000500D01*
X92819391Y-130902109D01*
X92690617Y-130796427D01*
X92543700Y-130717898D01*
X92384286Y-130669540D01*
X92218501Y-130653212D01*
X91518499Y-130653212D01*
X91352714Y-130669540D01*
X91193300Y-130717898D01*
X91046383Y-130796427D01*
X90917609Y-130902109D01*
X90868500Y-130961949D01*
X90819391Y-130902109D01*
X90690617Y-130796427D01*
X90543700Y-130717898D01*
X90384286Y-130669540D01*
X90218501Y-130653212D01*
X89518499Y-130653212D01*
X89352714Y-130669540D01*
X89193300Y-130717898D01*
X89046383Y-130796427D01*
X88917609Y-130902109D01*
X88836862Y-131000500D01*
X88576788Y-131000500D01*
X88576788Y-127529000D01*
X88565263Y-127411987D01*
X88531132Y-127299471D01*
X88475705Y-127195776D01*
X88401114Y-127104886D01*
X88310224Y-127030295D01*
X88206529Y-126974868D01*
X88094013Y-126940737D01*
X87977000Y-126929212D01*
X81577000Y-126929212D01*
X81459987Y-126940737D01*
X81347471Y-126974868D01*
X81243776Y-127030295D01*
X81152886Y-127104886D01*
X81078295Y-127195776D01*
X81022868Y-127299471D01*
X80988737Y-127411987D01*
X80977212Y-127529000D01*
X80174819Y-127529000D01*
X80165263Y-127431987D01*
X80131132Y-127319471D01*
X80075705Y-127215776D01*
X80001114Y-127124886D01*
X79910224Y-127050295D01*
X79806529Y-126994868D01*
X79694013Y-126960737D01*
X79577000Y-126949212D01*
X77377000Y-126949212D01*
X77259987Y-126960737D01*
X77147471Y-126994868D01*
X77043776Y-127050295D01*
X76952886Y-127124886D01*
X76898588Y-127191048D01*
X76817391Y-127092109D01*
X76688617Y-126986427D01*
X76541700Y-126907898D01*
X76382286Y-126859540D01*
X76216501Y-126843212D01*
X75516499Y-126843212D01*
X75350714Y-126859540D01*
X75191300Y-126907898D01*
X75044383Y-126986427D01*
X74915609Y-127092109D01*
X74866500Y-127151949D01*
X74817391Y-127092109D01*
X74688617Y-126986427D01*
X74675900Y-126979630D01*
X74675900Y-126891451D01*
X74679392Y-126855998D01*
X74674791Y-126809284D01*
X74665454Y-126714481D01*
X74624175Y-126578402D01*
X74609962Y-126551811D01*
X74557141Y-126452991D01*
X74509589Y-126395050D01*
X74466929Y-126343068D01*
X74439388Y-126320466D01*
X72711223Y-124592302D01*
X72777090Y-124433285D01*
X72815400Y-124240686D01*
X72815400Y-124044314D01*
X72777090Y-123851715D01*
X72774599Y-123845702D01*
X72894391Y-123747391D01*
X73000073Y-123618617D01*
X73078602Y-123471700D01*
X73126960Y-123312285D01*
X73143288Y-123146500D01*
X73143288Y-122471500D01*
X73126960Y-122305715D01*
X73078602Y-122146300D01*
X73000073Y-121999383D01*
X72894391Y-121870609D01*
X72850230Y-121834367D01*
X72876724Y-121820205D01*
X72967614Y-121745614D01*
X73042205Y-121654724D01*
X73097632Y-121551029D01*
X73131763Y-121438513D01*
X73143288Y-121321500D01*
X73140400Y-121048325D01*
X72991175Y-120899100D01*
X71983600Y-120899100D01*
X71983600Y-120919100D01*
X71653400Y-120919100D01*
X71653400Y-120899100D01*
X70645825Y-120899100D01*
X70624325Y-120920600D01*
X69824600Y-120920600D01*
X69824600Y-120940600D01*
X69494400Y-120940600D01*
X69494400Y-120920600D01*
X69474400Y-120920600D01*
X69474400Y-120590400D01*
X69494400Y-120590400D01*
X69494400Y-119720325D01*
X69824600Y-119720325D01*
X69824600Y-120590400D01*
X70832175Y-120590400D01*
X70853675Y-120568900D01*
X71653400Y-120568900D01*
X71653400Y-119698825D01*
X71983600Y-119698825D01*
X71983600Y-120568900D01*
X72991175Y-120568900D01*
X73140400Y-120419675D01*
X73143288Y-120146500D01*
X73131763Y-120029487D01*
X73097632Y-119916971D01*
X73042205Y-119813276D01*
X72967614Y-119722386D01*
X72876724Y-119647795D01*
X72773029Y-119592368D01*
X72660513Y-119558237D01*
X72543500Y-119546712D01*
X72132825Y-119549600D01*
X71983600Y-119698825D01*
X71653400Y-119698825D01*
X71504175Y-119549600D01*
X71093500Y-119546712D01*
X70976487Y-119558237D01*
X70863971Y-119592368D01*
X70760276Y-119647795D01*
X70725901Y-119676006D01*
X70717724Y-119669295D01*
X70614029Y-119613868D01*
X70501513Y-119579737D01*
X70384500Y-119568212D01*
X69973825Y-119571100D01*
X69824600Y-119720325D01*
X69494400Y-119720325D01*
X69345175Y-119571100D01*
X68934500Y-119568212D01*
X68874551Y-119574117D01*
X68875851Y-119356547D01*
X68867618Y-119239256D01*
X68836660Y-119125826D01*
X68784168Y-119020615D01*
X68712159Y-118927666D01*
X68623400Y-118850551D01*
X68521303Y-118792234D01*
X68409790Y-118754955D01*
X68336625Y-118742800D01*
X68296325Y-118783100D01*
X67956275Y-118783100D01*
X67915975Y-118742800D01*
X67842810Y-118754955D01*
X67841374Y-118755435D01*
X67832945Y-118752878D01*
X67701300Y-118739912D01*
X67551300Y-118739912D01*
X67419655Y-118752878D01*
X67376300Y-118766030D01*
X67332945Y-118752878D01*
X67201300Y-118739912D01*
X67051300Y-118739912D01*
X66919655Y-118752878D01*
X66876300Y-118766030D01*
X66832945Y-118752878D01*
X66701300Y-118739912D01*
X66551300Y-118739912D01*
X66419655Y-118752878D01*
X66376300Y-118766030D01*
X66332945Y-118752878D01*
X66201300Y-118739912D01*
X66051300Y-118739912D01*
X65919655Y-118752878D01*
X65876300Y-118766030D01*
X65832945Y-118752878D01*
X65701300Y-118739912D01*
X65551300Y-118739912D01*
X65419655Y-118752878D01*
X65376300Y-118766030D01*
X65332945Y-118752878D01*
X65201300Y-118739912D01*
X65051300Y-118739912D01*
X64919655Y-118752878D01*
X64876300Y-118766030D01*
X64832945Y-118752878D01*
X64701300Y-118739912D01*
X64551300Y-118739912D01*
X64419655Y-118752878D01*
X64376300Y-118766030D01*
X64332945Y-118752878D01*
X64201300Y-118739912D01*
X64051300Y-118739912D01*
X63919655Y-118752878D01*
X63876300Y-118766030D01*
X63832945Y-118752878D01*
X63701300Y-118739912D01*
X63551300Y-118739912D01*
X63419655Y-118752878D01*
X63376300Y-118766030D01*
X63332945Y-118752878D01*
X63201300Y-118739912D01*
X63051300Y-118739912D01*
X62919655Y-118752878D01*
X62876300Y-118766030D01*
X62832945Y-118752878D01*
X62701300Y-118739912D01*
X62551300Y-118739912D01*
X62419655Y-118752878D01*
X62376300Y-118766030D01*
X62332945Y-118752878D01*
X62201300Y-118739912D01*
X62051300Y-118739912D01*
X61919655Y-118752878D01*
X61876300Y-118766030D01*
X61832945Y-118752878D01*
X61701300Y-118739912D01*
X61551300Y-118739912D01*
X61419655Y-118752878D01*
X61376300Y-118766030D01*
X61332945Y-118752878D01*
X61201300Y-118739912D01*
X61051300Y-118739912D01*
X60919655Y-118752878D01*
X60876300Y-118766030D01*
X60832945Y-118752878D01*
X60701300Y-118739912D01*
X60551300Y-118739912D01*
X60419655Y-118752878D01*
X60293070Y-118791277D01*
X60176408Y-118853634D01*
X60074153Y-118937553D01*
X59990234Y-119039808D01*
X59927877Y-119156470D01*
X59889478Y-119283055D01*
X59876512Y-119414700D01*
X59876512Y-120814700D01*
X59889478Y-120946345D01*
X59927877Y-121072930D01*
X59990234Y-121189592D01*
X60074153Y-121291847D01*
X60176408Y-121375766D01*
X60293070Y-121438123D01*
X60419655Y-121476522D01*
X60551300Y-121489488D01*
X60701300Y-121489488D01*
X60797666Y-121479997D01*
X60782795Y-121498117D01*
X59288531Y-122992382D01*
X59288526Y-122992386D01*
X58494783Y-123786130D01*
X58467237Y-123808736D01*
X58413424Y-123874308D01*
X58377025Y-123918660D01*
X58309991Y-124044071D01*
X58289798Y-124110641D01*
X58269464Y-124177675D01*
X58268713Y-124180150D01*
X58254774Y-124321666D01*
X57116786Y-124321666D01*
X56909440Y-124114321D01*
X56886830Y-124086770D01*
X56867522Y-124070925D01*
X56847326Y-124033140D01*
X56754080Y-123919520D01*
X56640460Y-123826274D01*
X56510831Y-123756986D01*
X56370176Y-123714319D01*
X56223900Y-123699912D01*
X54573900Y-123699912D01*
X54427624Y-123714319D01*
X54286969Y-123756986D01*
X54157340Y-123826274D01*
X54043720Y-123919520D01*
X53950474Y-124033140D01*
X53881186Y-124162769D01*
X53838519Y-124303424D01*
X53824112Y-124449700D01*
X53824112Y-124749700D01*
X53838519Y-124895976D01*
X53881186Y-125036631D01*
X53950474Y-125166260D01*
X54006642Y-125234700D01*
X53950474Y-125303140D01*
X53881186Y-125432769D01*
X53838519Y-125573424D01*
X53837596Y-125582800D01*
X49479230Y-125582800D01*
X49445002Y-125579429D01*
X49410774Y-125582800D01*
X49410768Y-125582800D01*
X49322247Y-125591519D01*
X49308386Y-125592884D01*
X49279268Y-125601717D01*
X49177021Y-125632733D01*
X49055953Y-125697445D01*
X48949836Y-125784533D01*
X48928014Y-125811123D01*
X48651938Y-126087200D01*
X46476788Y-126087200D01*
X46476788Y-125484100D01*
X46465263Y-125367087D01*
X46431132Y-125254571D01*
X46375705Y-125150876D01*
X46301114Y-125059986D01*
X46210224Y-124985395D01*
X46106529Y-124929968D01*
X45994013Y-124895837D01*
X45877000Y-124884312D01*
X43277000Y-124884312D01*
X43159987Y-124895837D01*
X43047471Y-124929968D01*
X42943776Y-124985395D01*
X42852886Y-125059986D01*
X42778295Y-125150876D01*
X42722868Y-125254571D01*
X42688737Y-125367087D01*
X42677212Y-125484100D01*
X40004600Y-125484100D01*
X40004600Y-123200671D01*
X40030073Y-123226144D01*
X40455407Y-123510343D01*
X40928012Y-123706102D01*
X41429728Y-123805900D01*
X41941272Y-123805900D01*
X42442988Y-123706102D01*
X42715727Y-123593130D01*
X42863384Y-123672054D01*
X43041875Y-123726199D01*
X43227499Y-123744481D01*
X43274012Y-123739900D01*
X48348834Y-123739900D01*
X48352109Y-123743891D01*
X48480883Y-123849573D01*
X48627800Y-123928102D01*
X48787214Y-123976460D01*
X48952999Y-123992788D01*
X49853001Y-123992788D01*
X50018786Y-123976460D01*
X50178200Y-123928102D01*
X50325117Y-123849573D01*
X50453891Y-123743891D01*
X50559573Y-123615117D01*
X50638102Y-123468200D01*
X50686460Y-123308786D01*
X50702788Y-123143001D01*
X50702788Y-122442999D01*
X50686460Y-122277214D01*
X50638102Y-122117800D01*
X50559573Y-121970883D01*
X50453891Y-121842109D01*
X50394051Y-121793000D01*
X50453891Y-121743891D01*
X50559573Y-121615117D01*
X50638102Y-121468200D01*
X50686460Y-121308786D01*
X50702788Y-121143001D01*
X50702788Y-120497000D01*
X53221712Y-120497000D01*
X53233237Y-120614013D01*
X53267368Y-120726529D01*
X53322795Y-120830224D01*
X53397386Y-120921114D01*
X53488276Y-120995705D01*
X53591971Y-121051132D01*
X53704487Y-121085263D01*
X53821500Y-121096788D01*
X54232175Y-121093900D01*
X54381400Y-120944675D01*
X54381400Y-120074600D01*
X54711600Y-120074600D01*
X54711600Y-120944675D01*
X54860825Y-121093900D01*
X55271500Y-121096788D01*
X55388513Y-121085263D01*
X55501029Y-121051132D01*
X55594250Y-121001304D01*
X55687471Y-121051132D01*
X55799987Y-121085263D01*
X55917000Y-121096788D01*
X56327675Y-121093900D01*
X56476900Y-120944675D01*
X56476900Y-120074600D01*
X56807100Y-120074600D01*
X56807100Y-120944675D01*
X56956325Y-121093900D01*
X57367000Y-121096788D01*
X57484013Y-121085263D01*
X57596529Y-121051132D01*
X57700224Y-120995705D01*
X57791114Y-120921114D01*
X57865705Y-120830224D01*
X57921132Y-120726529D01*
X57955263Y-120614013D01*
X57966788Y-120497000D01*
X57963900Y-120223825D01*
X57814675Y-120074600D01*
X56807100Y-120074600D01*
X56476900Y-120074600D01*
X54711600Y-120074600D01*
X54381400Y-120074600D01*
X53373825Y-120074600D01*
X53224600Y-120223825D01*
X53221712Y-120497000D01*
X50702788Y-120497000D01*
X50702788Y-120442999D01*
X50686460Y-120277214D01*
X50638102Y-120117800D01*
X50559573Y-119970883D01*
X50453891Y-119842109D01*
X50349900Y-119756766D01*
X50349900Y-119748300D01*
X53555900Y-119748300D01*
X53569989Y-119747176D01*
X53580538Y-119744400D01*
X54381400Y-119744400D01*
X54381400Y-119724400D01*
X54711600Y-119724400D01*
X54711600Y-119744400D01*
X56476900Y-119744400D01*
X56476900Y-119724400D01*
X56807100Y-119724400D01*
X56807100Y-119744400D01*
X57814675Y-119744400D01*
X57963900Y-119595175D01*
X57966788Y-119322000D01*
X57955574Y-119208150D01*
X58202824Y-118960900D01*
X59182000Y-118960900D01*
X59199344Y-118959192D01*
X59216021Y-118954133D01*
X59231390Y-118945918D01*
X59241103Y-118937947D01*
X59459453Y-118939251D01*
X59576744Y-118931018D01*
X59690174Y-118900060D01*
X59795385Y-118847568D01*
X59888334Y-118775559D01*
X59965449Y-118686800D01*
X60023766Y-118584703D01*
X60061045Y-118473190D01*
X60073200Y-118400025D01*
X59923975Y-118250800D01*
X59867538Y-118250800D01*
X59878447Y-118241847D01*
X59962366Y-118139592D01*
X60019071Y-118033504D01*
X60073200Y-117979375D01*
X60061045Y-117906210D01*
X60060565Y-117904774D01*
X60063122Y-117896345D01*
X60076088Y-117764700D01*
X60076088Y-117614700D01*
X60063122Y-117483055D01*
X60049970Y-117439700D01*
X60063122Y-117396345D01*
X60076088Y-117264700D01*
X60076088Y-117114700D01*
X60063122Y-116983055D01*
X60049970Y-116939700D01*
X60063122Y-116896345D01*
X60076088Y-116764700D01*
X60076088Y-116614700D01*
X60063122Y-116483055D01*
X60049970Y-116439700D01*
X60063122Y-116396345D01*
X60076088Y-116264700D01*
X60076088Y-116114700D01*
X60063122Y-115983055D01*
X60049970Y-115939700D01*
X60063122Y-115896345D01*
X60076088Y-115764700D01*
X60076088Y-115614700D01*
X60063122Y-115483055D01*
X60049970Y-115439700D01*
X60063122Y-115396345D01*
X60076088Y-115264700D01*
X60076088Y-115114700D01*
X60063122Y-114983055D01*
X60049970Y-114939700D01*
X60063122Y-114896345D01*
X60076088Y-114764700D01*
X60076088Y-114614700D01*
X60063122Y-114483055D01*
X60049970Y-114439700D01*
X60063122Y-114396345D01*
X60076088Y-114264700D01*
X60076088Y-114114700D01*
X60063122Y-113983055D01*
X60049970Y-113939700D01*
X60063122Y-113896345D01*
X60076088Y-113764700D01*
X60076088Y-113614700D01*
X60063122Y-113483055D01*
X60049970Y-113439700D01*
X60063122Y-113396345D01*
X60076088Y-113264700D01*
X60076088Y-113114700D01*
X60063122Y-112983055D01*
X60049970Y-112939700D01*
X60063122Y-112896345D01*
X60076088Y-112764700D01*
X60076088Y-112614700D01*
X60063122Y-112483055D01*
X60049970Y-112439700D01*
X60063122Y-112396345D01*
X60076088Y-112264700D01*
X60076088Y-112114700D01*
X60063122Y-111983055D01*
X60049970Y-111939700D01*
X60063122Y-111896345D01*
X60076088Y-111764700D01*
X60076088Y-111614700D01*
X60063122Y-111483055D01*
X60049970Y-111439700D01*
X60063122Y-111396345D01*
X60076088Y-111264700D01*
X60076088Y-111114700D01*
X60063122Y-110983055D01*
X60049970Y-110939700D01*
X60063122Y-110896345D01*
X60076088Y-110764700D01*
X60076088Y-110614700D01*
X60063122Y-110483055D01*
X60024723Y-110356470D01*
X59962366Y-110239808D01*
X59878447Y-110137553D01*
X59776192Y-110053634D01*
X59659530Y-109991277D01*
X59532945Y-109952878D01*
X59401300Y-109939912D01*
X58001300Y-109939912D01*
X57869655Y-109952878D01*
X57820464Y-109967800D01*
X52619520Y-109967800D01*
X51712400Y-109060681D01*
X51712400Y-108006547D01*
X59876749Y-108006547D01*
X59879400Y-108450375D01*
X59918600Y-108489575D01*
X59918600Y-109039825D01*
X59879400Y-109079025D01*
X59876749Y-109522853D01*
X59884982Y-109640144D01*
X59915940Y-109753574D01*
X59968432Y-109858785D01*
X60040441Y-109951734D01*
X60129200Y-110028849D01*
X60208379Y-110074076D01*
X60203558Y-110081291D01*
X60128410Y-110262715D01*
X60090100Y-110455314D01*
X60090100Y-110651686D01*
X60128410Y-110844285D01*
X60203558Y-111025709D01*
X60312657Y-111188987D01*
X60451513Y-111327843D01*
X60614791Y-111436942D01*
X60796215Y-111512090D01*
X60988814Y-111550400D01*
X61185186Y-111550400D01*
X61377785Y-111512090D01*
X61544731Y-111442939D01*
X61630791Y-111500442D01*
X61812215Y-111575590D01*
X62004814Y-111613900D01*
X62201186Y-111613900D01*
X62347727Y-111584752D01*
X62429039Y-111666064D01*
X62592317Y-111775163D01*
X62773741Y-111850311D01*
X62781086Y-111851772D01*
X62795410Y-111923785D01*
X62870558Y-112105209D01*
X62979657Y-112268487D01*
X63118513Y-112407343D01*
X63281791Y-112516442D01*
X63393281Y-112562622D01*
X63430410Y-112749285D01*
X63505558Y-112930709D01*
X63614657Y-113093987D01*
X63753513Y-113232843D01*
X63916791Y-113341942D01*
X64020766Y-113385010D01*
X64056802Y-113566177D01*
X64131950Y-113747601D01*
X64241049Y-113910879D01*
X64379905Y-114049735D01*
X64543183Y-114158834D01*
X64724607Y-114233982D01*
X64757389Y-114240503D01*
X64763910Y-114273285D01*
X64839058Y-114454709D01*
X64948157Y-114617987D01*
X65087013Y-114756843D01*
X65250291Y-114865942D01*
X65431715Y-114941090D01*
X65624314Y-114979400D01*
X65629163Y-114979400D01*
X65652910Y-115098785D01*
X65728058Y-115280209D01*
X65837157Y-115443487D01*
X65976013Y-115582343D01*
X66139291Y-115691442D01*
X66320715Y-115766590D01*
X66513314Y-115804900D01*
X66709686Y-115804900D01*
X66902285Y-115766590D01*
X67083709Y-115691442D01*
X67246987Y-115582343D01*
X67385843Y-115443487D01*
X67494942Y-115280209D01*
X67570090Y-115098785D01*
X67602668Y-114935000D01*
X68554600Y-114935000D01*
X68554600Y-116903500D01*
X68556308Y-116920844D01*
X68561367Y-116937521D01*
X68569582Y-116952890D01*
X68580638Y-116966362D01*
X68594110Y-116977418D01*
X68609479Y-116985633D01*
X68626156Y-116990692D01*
X68643500Y-116992400D01*
X68688558Y-116992400D01*
X68676512Y-117114700D01*
X68676512Y-117264700D01*
X68689478Y-117396345D01*
X68702630Y-117439700D01*
X68689478Y-117483055D01*
X68676512Y-117614700D01*
X68676512Y-117764700D01*
X68689478Y-117896345D01*
X68702630Y-117939700D01*
X68689478Y-117983055D01*
X68676512Y-118114700D01*
X68676512Y-118264700D01*
X68689478Y-118396345D01*
X68727877Y-118522930D01*
X68790234Y-118639592D01*
X68874153Y-118741847D01*
X68976408Y-118825766D01*
X69093070Y-118888123D01*
X69219655Y-118926522D01*
X69351300Y-118939488D01*
X70751300Y-118939488D01*
X70882945Y-118926522D01*
X71009530Y-118888123D01*
X71126192Y-118825766D01*
X71228447Y-118741847D01*
X71312366Y-118639592D01*
X71374723Y-118522930D01*
X71413122Y-118396345D01*
X71426088Y-118264700D01*
X71426088Y-118114700D01*
X71413122Y-117983055D01*
X71399970Y-117939700D01*
X71413122Y-117896345D01*
X71426088Y-117764700D01*
X71426088Y-117614700D01*
X71413122Y-117483055D01*
X71399970Y-117439700D01*
X71413122Y-117396345D01*
X71426088Y-117264700D01*
X71426088Y-117114700D01*
X71414042Y-116992400D01*
X72086369Y-116992400D01*
X75107603Y-120026118D01*
X75089882Y-123340028D01*
X75076100Y-123409314D01*
X75076100Y-123605686D01*
X75088137Y-123666203D01*
X75082401Y-124738925D01*
X75084031Y-124756353D01*
X75089016Y-124773053D01*
X75097162Y-124788459D01*
X75108158Y-124801980D01*
X75121580Y-124813096D01*
X75136912Y-124821380D01*
X75153567Y-124826513D01*
X75170902Y-124828299D01*
X80847802Y-124853699D01*
X80865651Y-124851970D01*
X80882322Y-124846891D01*
X80897682Y-124838657D01*
X80911139Y-124827584D01*
X80922179Y-124814099D01*
X80930375Y-124798719D01*
X80935413Y-124782036D01*
X80937100Y-124764690D01*
X80924400Y-114490390D01*
X80924400Y-111785000D01*
X82280212Y-111785000D01*
X82280212Y-113335000D01*
X82291737Y-113452013D01*
X82325868Y-113564529D01*
X82381295Y-113668224D01*
X82455886Y-113759114D01*
X82546776Y-113833705D01*
X82650471Y-113889132D01*
X82762987Y-113923263D01*
X82880000Y-113934788D01*
X84180000Y-113934788D01*
X84297013Y-113923263D01*
X84409529Y-113889132D01*
X84513224Y-113833705D01*
X84604114Y-113759114D01*
X84678705Y-113668224D01*
X84734132Y-113564529D01*
X84768263Y-113452013D01*
X84779788Y-113335000D01*
X84779788Y-111785000D01*
X84768263Y-111667987D01*
X84734132Y-111555471D01*
X84678705Y-111451776D01*
X84604114Y-111360886D01*
X84513224Y-111286295D01*
X84489382Y-111273551D01*
X84499400Y-111223186D01*
X84499400Y-111026814D01*
X84461090Y-110834215D01*
X84385942Y-110652791D01*
X84276843Y-110489513D01*
X84137987Y-110350657D01*
X83974709Y-110241558D01*
X83793285Y-110166410D01*
X83600686Y-110128100D01*
X83404314Y-110128100D01*
X83211715Y-110166410D01*
X83030291Y-110241558D01*
X82867013Y-110350657D01*
X82728157Y-110489513D01*
X82619058Y-110652791D01*
X82543910Y-110834215D01*
X82505600Y-111026814D01*
X82505600Y-111223186D01*
X82522170Y-111306489D01*
X82455886Y-111360886D01*
X82381295Y-111451776D01*
X82325868Y-111555471D01*
X82291737Y-111667987D01*
X82280212Y-111785000D01*
X80924400Y-111785000D01*
X80924400Y-110959900D01*
X80922692Y-110942556D01*
X80917633Y-110925879D01*
X80909418Y-110910510D01*
X80898362Y-110897038D01*
X80884890Y-110885982D01*
X80869521Y-110877767D01*
X80852844Y-110872708D01*
X80835500Y-110871000D01*
X78090124Y-110871000D01*
X78063799Y-110868407D01*
X78037474Y-110871000D01*
X77622400Y-110871000D01*
X77614494Y-110871899D01*
X77610228Y-110871899D01*
X77641400Y-110715186D01*
X77641400Y-110518814D01*
X77603090Y-110326215D01*
X77527942Y-110144791D01*
X77418843Y-109981513D01*
X77279987Y-109842657D01*
X77116709Y-109733558D01*
X76935285Y-109658410D01*
X76742686Y-109620100D01*
X76546314Y-109620100D01*
X76542900Y-109620779D01*
X76542900Y-108267500D01*
X85382100Y-108267500D01*
X85382100Y-123761500D01*
X85383808Y-123778844D01*
X85388867Y-123795521D01*
X85397082Y-123810890D01*
X85408138Y-123824362D01*
X85421610Y-123835418D01*
X85436979Y-123843633D01*
X85453656Y-123848692D01*
X85471000Y-123850400D01*
X86625712Y-123850400D01*
X86625712Y-124628000D01*
X86637237Y-124745013D01*
X86671368Y-124857529D01*
X86726795Y-124961224D01*
X86801386Y-125052114D01*
X86892276Y-125126705D01*
X86995971Y-125182132D01*
X87108487Y-125216263D01*
X87225500Y-125227788D01*
X89425500Y-125227788D01*
X89542513Y-125216263D01*
X89655029Y-125182132D01*
X89758724Y-125126705D01*
X89849614Y-125052114D01*
X89924205Y-124961224D01*
X89979632Y-124857529D01*
X90013763Y-124745013D01*
X90025288Y-124628000D01*
X90025288Y-123850400D01*
X94615000Y-123850400D01*
X94632344Y-123848692D01*
X94649021Y-123843633D01*
X94664390Y-123835418D01*
X94677862Y-123824362D01*
X94688918Y-123810890D01*
X94697133Y-123795521D01*
X94702192Y-123778844D01*
X94703900Y-123761500D01*
X94703900Y-108267500D01*
X94702192Y-108250156D01*
X94697133Y-108233479D01*
X94688918Y-108218110D01*
X94677862Y-108204638D01*
X94664390Y-108193582D01*
X94649021Y-108185367D01*
X94632344Y-108180308D01*
X94615000Y-108178600D01*
X90025288Y-108178600D01*
X90025288Y-107528000D01*
X90013763Y-107410987D01*
X89979632Y-107298471D01*
X89924205Y-107194776D01*
X89849614Y-107103886D01*
X89758724Y-107029295D01*
X89655029Y-106973868D01*
X89542513Y-106939737D01*
X89425500Y-106928212D01*
X87225500Y-106928212D01*
X87108487Y-106939737D01*
X86995971Y-106973868D01*
X86892276Y-107029295D01*
X86801386Y-107103886D01*
X86726795Y-107194776D01*
X86671368Y-107298471D01*
X86637237Y-107410987D01*
X86625712Y-107528000D01*
X86625712Y-108178600D01*
X85471000Y-108178600D01*
X85453656Y-108180308D01*
X85436979Y-108185367D01*
X85421610Y-108193582D01*
X85408138Y-108204638D01*
X85397082Y-108218110D01*
X85388867Y-108233479D01*
X85383808Y-108250156D01*
X85382100Y-108267500D01*
X76542900Y-108267500D01*
X76542900Y-105473500D01*
X76541192Y-105456156D01*
X76536133Y-105439479D01*
X76527918Y-105424110D01*
X76516862Y-105410638D01*
X76503390Y-105399582D01*
X76488021Y-105391367D01*
X76471344Y-105386308D01*
X76454000Y-105384600D01*
X75912691Y-105384600D01*
X75906700Y-105381398D01*
X75747286Y-105333040D01*
X75581501Y-105316712D01*
X74931499Y-105316712D01*
X74765714Y-105333040D01*
X74606300Y-105381398D01*
X74600309Y-105384600D01*
X74052621Y-105384600D01*
X74011029Y-105362368D01*
X73898513Y-105328237D01*
X73781500Y-105316712D01*
X73520825Y-105319600D01*
X73454331Y-105386094D01*
X73452156Y-105386308D01*
X73435479Y-105391367D01*
X73420110Y-105399582D01*
X73406638Y-105410638D01*
X73395582Y-105424110D01*
X73387367Y-105439479D01*
X73382308Y-105456156D01*
X73382094Y-105458331D01*
X73371600Y-105468825D01*
X73371600Y-106451400D01*
X73380600Y-106451400D01*
X73380600Y-106781600D01*
X73371600Y-106781600D01*
X73371600Y-106801600D01*
X73041400Y-106801600D01*
X73041400Y-106781600D01*
X72183825Y-106781600D01*
X72034600Y-106930825D01*
X72031712Y-107316500D01*
X72043237Y-107433513D01*
X72068244Y-107515951D01*
X72012609Y-107561609D01*
X71906927Y-107690383D01*
X71828398Y-107837300D01*
X71780040Y-107996715D01*
X71763712Y-108162500D01*
X71763712Y-108803868D01*
X70888617Y-109678964D01*
X70861071Y-109701570D01*
X70808702Y-109765383D01*
X70770859Y-109811494D01*
X70703825Y-109936905D01*
X70702913Y-109939912D01*
X69351300Y-109939912D01*
X69219655Y-109952878D01*
X69093070Y-109991277D01*
X68976408Y-110053634D01*
X68874153Y-110137553D01*
X68790234Y-110239808D01*
X68727877Y-110356470D01*
X68689478Y-110483055D01*
X68676512Y-110614700D01*
X68676512Y-110764700D01*
X68689478Y-110896345D01*
X68702630Y-110939700D01*
X68689478Y-110983055D01*
X68676512Y-111114700D01*
X68676512Y-111264700D01*
X68689478Y-111396345D01*
X68702630Y-111439700D01*
X68689478Y-111483055D01*
X68676512Y-111614700D01*
X68676512Y-111764700D01*
X68689478Y-111896345D01*
X68702630Y-111939700D01*
X68689478Y-111983055D01*
X68676512Y-112114700D01*
X68676512Y-112264700D01*
X68689478Y-112396345D01*
X68702630Y-112439700D01*
X68689478Y-112483055D01*
X68676512Y-112614700D01*
X68676512Y-112764700D01*
X68689478Y-112896345D01*
X68702630Y-112939700D01*
X68689478Y-112983055D01*
X68676512Y-113114700D01*
X68676512Y-113264700D01*
X68689478Y-113396345D01*
X68702630Y-113439700D01*
X68689478Y-113483055D01*
X68676512Y-113614700D01*
X68676512Y-113764700D01*
X68689478Y-113896345D01*
X68702630Y-113939700D01*
X68689478Y-113983055D01*
X68676512Y-114114700D01*
X68676512Y-114264700D01*
X68689478Y-114396345D01*
X68702630Y-114439700D01*
X68689478Y-114483055D01*
X68676512Y-114614700D01*
X68676512Y-114764700D01*
X68684529Y-114846100D01*
X68643500Y-114846100D01*
X68626156Y-114847808D01*
X68609479Y-114852867D01*
X68594110Y-114861082D01*
X68580638Y-114872138D01*
X68569582Y-114885610D01*
X68561367Y-114900979D01*
X68556308Y-114917656D01*
X68554600Y-114935000D01*
X67602668Y-114935000D01*
X67608400Y-114906186D01*
X67608400Y-114709814D01*
X67570090Y-114517215D01*
X67494942Y-114335791D01*
X67385843Y-114172513D01*
X67348200Y-114134870D01*
X67348200Y-110134677D01*
X67409790Y-110124445D01*
X67411226Y-110123965D01*
X67419655Y-110126522D01*
X67551300Y-110139488D01*
X67701300Y-110139488D01*
X67832945Y-110126522D01*
X67876300Y-110113370D01*
X67919655Y-110126522D01*
X68051300Y-110139488D01*
X68201300Y-110139488D01*
X68332945Y-110126522D01*
X68459530Y-110088123D01*
X68576192Y-110025766D01*
X68678447Y-109941847D01*
X68762366Y-109839592D01*
X68824723Y-109722930D01*
X68863122Y-109596345D01*
X68876088Y-109464700D01*
X68876088Y-108064700D01*
X68863122Y-107933055D01*
X68846357Y-107877788D01*
X69447000Y-107877788D01*
X69612785Y-107861460D01*
X69772200Y-107813102D01*
X69919117Y-107734573D01*
X70047891Y-107628891D01*
X70153573Y-107500117D01*
X70176513Y-107457200D01*
X70323314Y-107486400D01*
X70519686Y-107486400D01*
X70712285Y-107448090D01*
X70893709Y-107372942D01*
X71056987Y-107263843D01*
X71195843Y-107124987D01*
X71304942Y-106961709D01*
X71380090Y-106780285D01*
X71418400Y-106587686D01*
X71418400Y-106391314D01*
X71380090Y-106198715D01*
X71304942Y-106017291D01*
X71237596Y-105916500D01*
X72031712Y-105916500D01*
X72034600Y-106302175D01*
X72183825Y-106451400D01*
X73041400Y-106451400D01*
X73041400Y-105468825D01*
X72892175Y-105319600D01*
X72631500Y-105316712D01*
X72514487Y-105328237D01*
X72401971Y-105362368D01*
X72298276Y-105417795D01*
X72207386Y-105492386D01*
X72132795Y-105583276D01*
X72077368Y-105686971D01*
X72043237Y-105799487D01*
X72031712Y-105916500D01*
X71237596Y-105916500D01*
X71195843Y-105854013D01*
X71056987Y-105715157D01*
X70893709Y-105606058D01*
X70712285Y-105530910D01*
X70519686Y-105492600D01*
X70323314Y-105492600D01*
X70130715Y-105530910D01*
X70101855Y-105542864D01*
X70047891Y-105477109D01*
X70043493Y-105473500D01*
X70047891Y-105469891D01*
X70142271Y-105354889D01*
X70323314Y-105390900D01*
X70519686Y-105390900D01*
X70712285Y-105352590D01*
X70893709Y-105277442D01*
X71056987Y-105168343D01*
X71195843Y-105029487D01*
X71304942Y-104866209D01*
X71380090Y-104684785D01*
X71418400Y-104492186D01*
X71418400Y-104295814D01*
X71380090Y-104103215D01*
X71304942Y-103921791D01*
X71246951Y-103835000D01*
X77780212Y-103835000D01*
X77780212Y-105385000D01*
X77791737Y-105502013D01*
X77825868Y-105614529D01*
X77881295Y-105718224D01*
X77955886Y-105809114D01*
X78046776Y-105883705D01*
X78150471Y-105939132D01*
X78262987Y-105973263D01*
X78380000Y-105984788D01*
X79680000Y-105984788D01*
X79797013Y-105973263D01*
X79909529Y-105939132D01*
X80013224Y-105883705D01*
X80104114Y-105809114D01*
X80178705Y-105718224D01*
X80234132Y-105614529D01*
X80268263Y-105502013D01*
X80279788Y-105385000D01*
X80279788Y-103835000D01*
X82280212Y-103835000D01*
X82280212Y-105385000D01*
X82291737Y-105502013D01*
X82325868Y-105614529D01*
X82381295Y-105718224D01*
X82455886Y-105809114D01*
X82522170Y-105863511D01*
X82505600Y-105946814D01*
X82505600Y-106143186D01*
X82543910Y-106335785D01*
X82619058Y-106517209D01*
X82728157Y-106680487D01*
X82867013Y-106819343D01*
X83030291Y-106928442D01*
X83211715Y-107003590D01*
X83404314Y-107041900D01*
X83600686Y-107041900D01*
X83793285Y-107003590D01*
X83974709Y-106928442D01*
X84137987Y-106819343D01*
X84276843Y-106680487D01*
X84385942Y-106517209D01*
X84461090Y-106335785D01*
X84499400Y-106143186D01*
X84499400Y-105946814D01*
X84489382Y-105896449D01*
X84513224Y-105883705D01*
X84604114Y-105809114D01*
X84678705Y-105718224D01*
X84734132Y-105614529D01*
X84768263Y-105502013D01*
X84779788Y-105385000D01*
X84779788Y-103835000D01*
X84768263Y-103717987D01*
X84734132Y-103605471D01*
X84678705Y-103501776D01*
X84604114Y-103410886D01*
X84513224Y-103336295D01*
X84409529Y-103280868D01*
X84297013Y-103246737D01*
X84180000Y-103235212D01*
X82880000Y-103235212D01*
X82762987Y-103246737D01*
X82650471Y-103280868D01*
X82546776Y-103336295D01*
X82455886Y-103410886D01*
X82381295Y-103501776D01*
X82325868Y-103605471D01*
X82291737Y-103717987D01*
X82280212Y-103835000D01*
X80279788Y-103835000D01*
X80268263Y-103717987D01*
X80234132Y-103605471D01*
X80178705Y-103501776D01*
X80104114Y-103410886D01*
X80013224Y-103336295D01*
X79909529Y-103280868D01*
X79797013Y-103246737D01*
X79680000Y-103235212D01*
X78380000Y-103235212D01*
X78262987Y-103246737D01*
X78150471Y-103280868D01*
X78046776Y-103336295D01*
X77955886Y-103410886D01*
X77881295Y-103501776D01*
X77825868Y-103605471D01*
X77791737Y-103717987D01*
X77780212Y-103835000D01*
X71246951Y-103835000D01*
X71195843Y-103758513D01*
X71056987Y-103619657D01*
X70893709Y-103510558D01*
X70712285Y-103435410D01*
X70519686Y-103397100D01*
X70323314Y-103397100D01*
X70142271Y-103433111D01*
X70047891Y-103318109D01*
X69919117Y-103212427D01*
X69772200Y-103133898D01*
X69612785Y-103085540D01*
X69447000Y-103069212D01*
X68772000Y-103069212D01*
X68606215Y-103085540D01*
X68446800Y-103133898D01*
X68299883Y-103212427D01*
X68171109Y-103318109D01*
X68134867Y-103362270D01*
X68120705Y-103335776D01*
X68046114Y-103244886D01*
X67955224Y-103170295D01*
X67851529Y-103114868D01*
X67739013Y-103080737D01*
X67622000Y-103069212D01*
X67348825Y-103072100D01*
X67199600Y-103221325D01*
X67199600Y-104228900D01*
X67219600Y-104228900D01*
X67219600Y-104559100D01*
X67199600Y-104559100D01*
X67199600Y-106387900D01*
X67219600Y-106387900D01*
X67219600Y-106718100D01*
X67199600Y-106718100D01*
X67199600Y-106738100D01*
X66869400Y-106738100D01*
X66869400Y-106718100D01*
X65999325Y-106718100D01*
X65850100Y-106867325D01*
X65847212Y-107278000D01*
X65858737Y-107395013D01*
X65863978Y-107412292D01*
X65832945Y-107402878D01*
X65701300Y-107389912D01*
X65551300Y-107389912D01*
X65419655Y-107402878D01*
X65376300Y-107416030D01*
X65332945Y-107402878D01*
X65201300Y-107389912D01*
X65051300Y-107389912D01*
X64984499Y-107396491D01*
X65087987Y-107327343D01*
X65226843Y-107188487D01*
X65335942Y-107025209D01*
X65411090Y-106843785D01*
X65449400Y-106651186D01*
X65449400Y-106454814D01*
X65411090Y-106262215D01*
X65335942Y-106080791D01*
X65226843Y-105917513D01*
X65087987Y-105778657D01*
X64924709Y-105669558D01*
X64743285Y-105594410D01*
X64550686Y-105556100D01*
X64354314Y-105556100D01*
X64173271Y-105592111D01*
X64078891Y-105477109D01*
X64074493Y-105473500D01*
X64078891Y-105469891D01*
X64173271Y-105354889D01*
X64354314Y-105390900D01*
X64550686Y-105390900D01*
X64743285Y-105352590D01*
X64924709Y-105277442D01*
X65087987Y-105168343D01*
X65137330Y-105119000D01*
X65847212Y-105119000D01*
X65858737Y-105236013D01*
X65892868Y-105348529D01*
X65948295Y-105452224D01*
X65965756Y-105473500D01*
X65948295Y-105494776D01*
X65892868Y-105598471D01*
X65858737Y-105710987D01*
X65847212Y-105828000D01*
X65850100Y-106238675D01*
X65999325Y-106387900D01*
X66869400Y-106387900D01*
X66869400Y-104559100D01*
X65999325Y-104559100D01*
X65850100Y-104708325D01*
X65847212Y-105119000D01*
X65137330Y-105119000D01*
X65226843Y-105029487D01*
X65335942Y-104866209D01*
X65411090Y-104684785D01*
X65449400Y-104492186D01*
X65449400Y-104295814D01*
X65411090Y-104103215D01*
X65335942Y-103921791D01*
X65226843Y-103758513D01*
X65137330Y-103669000D01*
X65847212Y-103669000D01*
X65850100Y-104079675D01*
X65999325Y-104228900D01*
X66869400Y-104228900D01*
X66869400Y-103221325D01*
X66720175Y-103072100D01*
X66447000Y-103069212D01*
X66329987Y-103080737D01*
X66217471Y-103114868D01*
X66113776Y-103170295D01*
X66022886Y-103244886D01*
X65948295Y-103335776D01*
X65892868Y-103439471D01*
X65858737Y-103551987D01*
X65847212Y-103669000D01*
X65137330Y-103669000D01*
X65087987Y-103619657D01*
X64924709Y-103510558D01*
X64743285Y-103435410D01*
X64550686Y-103397100D01*
X64354314Y-103397100D01*
X64173271Y-103433111D01*
X64078891Y-103318109D01*
X63950117Y-103212427D01*
X63803200Y-103133898D01*
X63643785Y-103085540D01*
X63478000Y-103069212D01*
X62803000Y-103069212D01*
X62637215Y-103085540D01*
X62477800Y-103133898D01*
X62330883Y-103212427D01*
X62202109Y-103318109D01*
X62165867Y-103362270D01*
X62151705Y-103335776D01*
X62077114Y-103244886D01*
X61986224Y-103170295D01*
X61882529Y-103114868D01*
X61770013Y-103080737D01*
X61653000Y-103069212D01*
X61379825Y-103072100D01*
X61230600Y-103221325D01*
X61230600Y-104228900D01*
X61250600Y-104228900D01*
X61250600Y-104559100D01*
X61230600Y-104559100D01*
X61230600Y-106387900D01*
X61250600Y-106387900D01*
X61250600Y-106718100D01*
X61230600Y-106718100D01*
X61230600Y-106738100D01*
X60900400Y-106738100D01*
X60900400Y-106718100D01*
X60030325Y-106718100D01*
X59881100Y-106867325D01*
X59878212Y-107278000D01*
X59889737Y-107395013D01*
X59923868Y-107507529D01*
X59979295Y-107611224D01*
X59997375Y-107633255D01*
X59968432Y-107670615D01*
X59915940Y-107775826D01*
X59884982Y-107889256D01*
X59876749Y-108006547D01*
X51712400Y-108006547D01*
X51712400Y-105119000D01*
X59878212Y-105119000D01*
X59889737Y-105236013D01*
X59923868Y-105348529D01*
X59979295Y-105452224D01*
X59996756Y-105473500D01*
X59979295Y-105494776D01*
X59923868Y-105598471D01*
X59889737Y-105710987D01*
X59878212Y-105828000D01*
X59881100Y-106238675D01*
X60030325Y-106387900D01*
X60900400Y-106387900D01*
X60900400Y-104559100D01*
X60030325Y-104559100D01*
X59881100Y-104708325D01*
X59878212Y-105119000D01*
X51712400Y-105119000D01*
X51712400Y-103669000D01*
X59878212Y-103669000D01*
X59881100Y-104079675D01*
X60030325Y-104228900D01*
X60900400Y-104228900D01*
X60900400Y-103221325D01*
X60751175Y-103072100D01*
X60478000Y-103069212D01*
X60360987Y-103080737D01*
X60248471Y-103114868D01*
X60144776Y-103170295D01*
X60053886Y-103244886D01*
X59979295Y-103335776D01*
X59923868Y-103439471D01*
X59889737Y-103551987D01*
X59878212Y-103669000D01*
X51712400Y-103669000D01*
X51712400Y-102121062D01*
X51715892Y-102085609D01*
X51708581Y-102011383D01*
X51701954Y-101944093D01*
X51660675Y-101808014D01*
X51645997Y-101780553D01*
X51593641Y-101682603D01*
X51526030Y-101600219D01*
X51526028Y-101600217D01*
X51503429Y-101572680D01*
X51475893Y-101550082D01*
X49802432Y-99876623D01*
X49779821Y-99849071D01*
X49669897Y-99758860D01*
X49544487Y-99691826D01*
X49408408Y-99650547D01*
X49302346Y-99640101D01*
X49302344Y-99640101D01*
X49266891Y-99636609D01*
X49231438Y-99640101D01*
X47923933Y-99640101D01*
X47936797Y-99609045D01*
X47992400Y-99329507D01*
X47992400Y-99044493D01*
X47936797Y-98764955D01*
X47827726Y-98501636D01*
X47669381Y-98264655D01*
X47467845Y-98063119D01*
X47230864Y-97904774D01*
X46967545Y-97795703D01*
X46688007Y-97740100D01*
X46402993Y-97740100D01*
X46123455Y-97795703D01*
X45860136Y-97904774D01*
X45623155Y-98063119D01*
X45421619Y-98264655D01*
X45275500Y-98483338D01*
X45129381Y-98264655D01*
X44927845Y-98063119D01*
X44690864Y-97904774D01*
X44427545Y-97795703D01*
X44148007Y-97740100D01*
X43862993Y-97740100D01*
X43583455Y-97795703D01*
X43320136Y-97904774D01*
X43083155Y-98063119D01*
X42881619Y-98264655D01*
X42729817Y-98491843D01*
X42604868Y-98295161D01*
X42408986Y-98090018D01*
X42176847Y-97927031D01*
X41917371Y-97812464D01*
X41853434Y-97793075D01*
X41630600Y-97899870D01*
X41630600Y-99021900D01*
X41650600Y-99021900D01*
X41650600Y-99352100D01*
X41630600Y-99352100D01*
X41630600Y-99372100D01*
X41300400Y-99372100D01*
X41300400Y-99352100D01*
X40004600Y-99352100D01*
X40004600Y-98799065D01*
X40071569Y-98799065D01*
X40177269Y-99021900D01*
X41300400Y-99021900D01*
X41300400Y-97899870D01*
X41077566Y-97793075D01*
X41013629Y-97812464D01*
X40754153Y-97927031D01*
X40522014Y-98090018D01*
X40326132Y-98295161D01*
X40174035Y-98534577D01*
X40071569Y-98799065D01*
X40004600Y-98799065D01*
X40004600Y-93152783D01*
X40040595Y-93220124D01*
X40115186Y-93311014D01*
X40206076Y-93385605D01*
X40309771Y-93441032D01*
X40422287Y-93475163D01*
X40539300Y-93486688D01*
X41074975Y-93483800D01*
X41224200Y-93334575D01*
X41224200Y-92202000D01*
X41554400Y-92202000D01*
X41554400Y-93334575D01*
X41703625Y-93483800D01*
X42239300Y-93486688D01*
X42356313Y-93475163D01*
X42468829Y-93441032D01*
X42572524Y-93385605D01*
X42663414Y-93311014D01*
X42738005Y-93220124D01*
X42793432Y-93116429D01*
X42827563Y-93003913D01*
X42839088Y-92886900D01*
X42836200Y-92351225D01*
X42686975Y-92202000D01*
X41554400Y-92202000D01*
X41224200Y-92202000D01*
X41204200Y-92202000D01*
X41204200Y-91871800D01*
X41224200Y-91871800D01*
X41224200Y-91851800D01*
X41554400Y-91851800D01*
X41554400Y-91871800D01*
X42686975Y-91871800D01*
X42836200Y-91722575D01*
X42839088Y-91186900D01*
X42827563Y-91069887D01*
X42793432Y-90957371D01*
X42738005Y-90853676D01*
X42663414Y-90762786D01*
X42572524Y-90688195D01*
X42468829Y-90632768D01*
X42356313Y-90598637D01*
X42335809Y-90596617D01*
X42513181Y-90419245D01*
X42671526Y-90182264D01*
X42780597Y-89918945D01*
X42836200Y-89639407D01*
X42836200Y-89354393D01*
X42780597Y-89074855D01*
X42671526Y-88811536D01*
X42513181Y-88574555D01*
X42311645Y-88373019D01*
X42074664Y-88214674D01*
X41811345Y-88105603D01*
X41531807Y-88050000D01*
X41246793Y-88050000D01*
X40967255Y-88105603D01*
X40703936Y-88214674D01*
X40466955Y-88373019D01*
X40265419Y-88574555D01*
X40107074Y-88811536D01*
X40004600Y-89058929D01*
X40004600Y-84912200D01*
X52692300Y-84912200D01*
X52692300Y-101422200D01*
X52694008Y-101439544D01*
X52699067Y-101456221D01*
X52707282Y-101471590D01*
X52718338Y-101485062D01*
X52731810Y-101496118D01*
X52747179Y-101504333D01*
X52763856Y-101509392D01*
X52781200Y-101511100D01*
X86525100Y-101511100D01*
X86525100Y-103978258D01*
X86509712Y-104134499D01*
X86509712Y-105034501D01*
X86525100Y-105190742D01*
X86525100Y-105791000D01*
X86526808Y-105808344D01*
X86531867Y-105825021D01*
X86540082Y-105840390D01*
X86551138Y-105853862D01*
X86564610Y-105864918D01*
X86579979Y-105873133D01*
X86596656Y-105878192D01*
X86614000Y-105879900D01*
X87314946Y-105879900D01*
X87359499Y-105884288D01*
X88059501Y-105884288D01*
X88104054Y-105879900D01*
X89314946Y-105879900D01*
X89359499Y-105884288D01*
X90059501Y-105884288D01*
X90104054Y-105879900D01*
X91315446Y-105879900D01*
X91359999Y-105884288D01*
X92010001Y-105884288D01*
X92054554Y-105879900D01*
X93115449Y-105879900D01*
X93160000Y-105884288D01*
X93420675Y-105881400D01*
X93569900Y-105732175D01*
X93569900Y-104749600D01*
X93900100Y-104749600D01*
X93900100Y-105732175D01*
X94049325Y-105881400D01*
X94310000Y-105884288D01*
X94427013Y-105872763D01*
X94539529Y-105838632D01*
X94643224Y-105783205D01*
X94734114Y-105708614D01*
X94808705Y-105617724D01*
X94864132Y-105514029D01*
X94898263Y-105401513D01*
X94909788Y-105284500D01*
X94906900Y-104898825D01*
X94757675Y-104749600D01*
X93900100Y-104749600D01*
X93569900Y-104749600D01*
X93549900Y-104749600D01*
X93549900Y-104419400D01*
X93569900Y-104419400D01*
X93569900Y-103436825D01*
X93544900Y-103411825D01*
X93544900Y-102654100D01*
X93524900Y-102654100D01*
X93524900Y-102323900D01*
X93544900Y-102323900D01*
X93544900Y-102303900D01*
X93875100Y-102303900D01*
X93875100Y-102323900D01*
X93895100Y-102323900D01*
X93895100Y-102654100D01*
X93875100Y-102654100D01*
X93875100Y-103636675D01*
X93900100Y-103661675D01*
X93900100Y-104419400D01*
X95262700Y-104419400D01*
X95280044Y-104417692D01*
X95296721Y-104412633D01*
X95312090Y-104404418D01*
X95325562Y-104393362D01*
X95336618Y-104379890D01*
X95344833Y-104364521D01*
X95349892Y-104347844D01*
X95351600Y-104330500D01*
X95351600Y-104084475D01*
X95354900Y-104081175D01*
X95354900Y-103098600D01*
X95334900Y-103098600D01*
X95334900Y-102768400D01*
X95354900Y-102768400D01*
X95354900Y-102748400D01*
X95685100Y-102748400D01*
X95685100Y-102768400D01*
X95705100Y-102768400D01*
X95705100Y-103098600D01*
X95685100Y-103098600D01*
X95685100Y-103672908D01*
X95683508Y-103678156D01*
X95681800Y-103695500D01*
X95681800Y-104330500D01*
X95683508Y-104347844D01*
X95688567Y-104364521D01*
X95696782Y-104379890D01*
X95707838Y-104393362D01*
X95721310Y-104404418D01*
X95736679Y-104412633D01*
X95753356Y-104417692D01*
X95770700Y-104419400D01*
X96739601Y-104419400D01*
X96739601Y-105577478D01*
X96735019Y-105624000D01*
X96753301Y-105809624D01*
X96807447Y-105988116D01*
X96895372Y-106152614D01*
X96923195Y-106186516D01*
X97013702Y-106296799D01*
X97049833Y-106326451D01*
X97980501Y-107257119D01*
X97980500Y-125117558D01*
X97723797Y-125289082D01*
X97459582Y-125553297D01*
X97251989Y-125863981D01*
X97108997Y-126209195D01*
X97036100Y-126575672D01*
X97036100Y-126949328D01*
X97108997Y-127315805D01*
X97251989Y-127661019D01*
X97459582Y-127971703D01*
X97723797Y-128235918D01*
X98034481Y-128443511D01*
X98379695Y-128586503D01*
X98746172Y-128659400D01*
X99119828Y-128659400D01*
X99486305Y-128586503D01*
X99831519Y-128443511D01*
X100142203Y-128235918D01*
X100406418Y-127971703D01*
X100614011Y-127661019D01*
X100757003Y-127315805D01*
X100829900Y-126949328D01*
X100829900Y-126575672D01*
X100757003Y-126209195D01*
X100614011Y-125863981D01*
X100406418Y-125553297D01*
X100142203Y-125289082D01*
X99885500Y-125117558D01*
X99885500Y-106823715D01*
X99871717Y-106683777D01*
X99817252Y-106504231D01*
X99728806Y-106338759D01*
X99609778Y-106193722D01*
X99529266Y-106127648D01*
X98633400Y-105231782D01*
X98633400Y-103749301D01*
X98655102Y-103708700D01*
X98703460Y-103549286D01*
X98719788Y-103383501D01*
X98719788Y-102483499D01*
X98703460Y-102317714D01*
X98655102Y-102158300D01*
X98576573Y-102011383D01*
X98504400Y-101923440D01*
X98504400Y-101903523D01*
X98601573Y-101785117D01*
X98680102Y-101638200D01*
X98728460Y-101478785D01*
X98744788Y-101313000D01*
X98744788Y-100363000D01*
X98728460Y-100197215D01*
X98680102Y-100037800D01*
X98601573Y-99890883D01*
X98504400Y-99772477D01*
X98504400Y-99445513D01*
X98508981Y-99399000D01*
X98490699Y-99213375D01*
X98436554Y-99034883D01*
X98348628Y-98870385D01*
X98290097Y-98799065D01*
X98230299Y-98726201D01*
X98194168Y-98696549D01*
X97509788Y-98012170D01*
X97509788Y-97371500D01*
X97498263Y-97254487D01*
X97464132Y-97141971D01*
X97408705Y-97038276D01*
X97353904Y-96971500D01*
X97408705Y-96904724D01*
X97464132Y-96801029D01*
X97498263Y-96688513D01*
X97509788Y-96571500D01*
X97509788Y-95071500D01*
X97498263Y-94954487D01*
X97464132Y-94841971D01*
X97408705Y-94738276D01*
X97353904Y-94671500D01*
X97408705Y-94604724D01*
X97464132Y-94501029D01*
X97498263Y-94388513D01*
X97509788Y-94271500D01*
X97509788Y-92771500D01*
X97498263Y-92654487D01*
X97464132Y-92541971D01*
X97408705Y-92438276D01*
X97334114Y-92347386D01*
X97243224Y-92272795D01*
X97139529Y-92217368D01*
X97027013Y-92183237D01*
X96910000Y-92171712D01*
X95899330Y-92171712D01*
X95752400Y-92024782D01*
X95752400Y-87642288D01*
X95805500Y-87642288D01*
X95922513Y-87630763D01*
X96035029Y-87596632D01*
X96138724Y-87541205D01*
X96229614Y-87466614D01*
X96304205Y-87375724D01*
X96359632Y-87272029D01*
X96393763Y-87159513D01*
X96405288Y-87042500D01*
X96405288Y-85042500D01*
X96393763Y-84925487D01*
X96359632Y-84812971D01*
X96304205Y-84709276D01*
X96229614Y-84618386D01*
X96138724Y-84543795D01*
X96035029Y-84488368D01*
X95922513Y-84454237D01*
X95805500Y-84442712D01*
X95752400Y-84442712D01*
X95752400Y-82053218D01*
X97497276Y-80308342D01*
X97541437Y-80272101D01*
X99187838Y-78625700D01*
X99789518Y-78625700D01*
X99792571Y-78627332D01*
X99905087Y-78661463D01*
X100022100Y-78672988D01*
X101022100Y-78672988D01*
X101139113Y-78661463D01*
X101251629Y-78627332D01*
X101355324Y-78571905D01*
X101446214Y-78497314D01*
X101520805Y-78406424D01*
X101576232Y-78302729D01*
X101610363Y-78190213D01*
X101621888Y-78073200D01*
X101621888Y-77366291D01*
X101623692Y-77360344D01*
X101625400Y-77343000D01*
X101625400Y-74281900D01*
X103581600Y-74281900D01*
X103581600Y-85077974D01*
%TA.AperFunction,Conductor*%
D40*
G36*
X103581600Y-85077974D02*
G01*
X103545893Y-85024535D01*
X103323465Y-84802107D01*
X103061916Y-84627345D01*
X102771299Y-84506968D01*
X102462781Y-84445600D01*
X102148219Y-84445600D01*
X101839701Y-84506968D01*
X101549084Y-84627345D01*
X101287535Y-84802107D01*
X101065107Y-85024535D01*
X100890345Y-85286084D01*
X100769968Y-85576701D01*
X100708600Y-85885219D01*
X100708600Y-86199781D01*
X100769968Y-86508299D01*
X100890345Y-86798916D01*
X101065107Y-87060465D01*
X101287535Y-87282893D01*
X101549084Y-87457655D01*
X101839701Y-87578032D01*
X102148219Y-87639400D01*
X102462781Y-87639400D01*
X102771299Y-87578032D01*
X103061916Y-87457655D01*
X103323465Y-87282893D01*
X103545893Y-87060465D01*
X103581600Y-87007026D01*
X103581600Y-93454289D01*
X103543224Y-93422795D01*
X103439529Y-93367368D01*
X103327013Y-93333237D01*
X103210000Y-93321712D01*
X101210000Y-93321712D01*
X101092987Y-93333237D01*
X100980471Y-93367368D01*
X100876776Y-93422795D01*
X100785886Y-93497386D01*
X100711295Y-93588276D01*
X100655868Y-93691971D01*
X100621737Y-93804487D01*
X100610212Y-93921500D01*
X100610212Y-97721500D01*
X100621737Y-97838513D01*
X100655868Y-97951029D01*
X100711295Y-98054724D01*
X100785886Y-98145614D01*
X100876776Y-98220205D01*
X100980471Y-98275632D01*
X101092987Y-98309763D01*
X101210000Y-98321288D01*
X103210000Y-98321288D01*
X103327013Y-98309763D01*
X103439529Y-98275632D01*
X103543224Y-98220205D01*
X103581600Y-98188711D01*
X103581601Y-134239400D01*
X40004600Y-134239400D01*
X40004600Y-133810801D01*
X63209185Y-133810801D01*
X63281351Y-134035632D01*
X63526960Y-134142070D01*
X63788614Y-134198548D01*
X64056259Y-134202894D01*
X64319609Y-134154942D01*
X64568543Y-134056534D01*
X64607649Y-134035632D01*
X64679815Y-133810801D01*
X63944500Y-133075487D01*
X63209185Y-133810801D01*
X40004600Y-133810801D01*
X40004600Y-125484100D01*
X42677212Y-125484100D01*
X42677212Y-128084100D01*
X42688737Y-128201113D01*
X42722868Y-128313629D01*
X42778295Y-128417324D01*
X42852886Y-128508214D01*
X42943776Y-128582805D01*
X43047471Y-128638232D01*
X43159987Y-128672363D01*
X43277000Y-128683888D01*
X45877000Y-128683888D01*
X45994013Y-128672363D01*
X46106529Y-128638232D01*
X46210224Y-128582805D01*
X46301114Y-128508214D01*
X46375705Y-128417324D01*
X46431132Y-128313629D01*
X46465263Y-128201113D01*
X46476788Y-128084100D01*
X46476788Y-127481000D01*
X47894535Y-127481000D01*
X45331925Y-130043611D01*
X45130305Y-129960097D01*
X44763828Y-129887200D01*
X44390172Y-129887200D01*
X44023695Y-129960097D01*
X43678481Y-130103089D01*
X43367797Y-130310682D01*
X43103582Y-130574897D01*
X42895989Y-130885581D01*
X42752997Y-131230795D01*
X42680100Y-131597272D01*
X42680100Y-131970928D01*
X42752997Y-132337405D01*
X42895989Y-132682619D01*
X43103582Y-132993303D01*
X43367797Y-133257518D01*
X43678481Y-133465111D01*
X44023695Y-133608103D01*
X44390172Y-133681000D01*
X44763828Y-133681000D01*
X45130305Y-133608103D01*
X45475519Y-133465111D01*
X45786203Y-133257518D01*
X46050418Y-132993303D01*
X46076840Y-132953759D01*
X62583606Y-132953759D01*
X62631558Y-133217109D01*
X62729966Y-133466043D01*
X62750868Y-133505149D01*
X62975699Y-133577315D01*
X63711013Y-132842000D01*
X62975699Y-132106685D01*
X62750868Y-132178851D01*
X62644430Y-132424460D01*
X62587952Y-132686114D01*
X62583606Y-132953759D01*
X46076840Y-132953759D01*
X46258011Y-132682619D01*
X46401003Y-132337405D01*
X46473900Y-131970928D01*
X46473900Y-131873199D01*
X63209185Y-131873199D01*
X63944500Y-132608513D01*
X64679815Y-131873199D01*
X64607649Y-131648368D01*
X64362040Y-131541930D01*
X64100386Y-131485452D01*
X63832741Y-131481106D01*
X63569391Y-131529058D01*
X63320457Y-131627466D01*
X63281351Y-131648368D01*
X63209185Y-131873199D01*
X46473900Y-131873199D01*
X46473900Y-131597272D01*
X46401003Y-131230795D01*
X46342891Y-131090500D01*
X53782212Y-131090500D01*
X53793737Y-131207513D01*
X53827868Y-131320029D01*
X53883295Y-131423724D01*
X53957886Y-131514614D01*
X54048776Y-131589205D01*
X54152471Y-131644632D01*
X54264987Y-131678763D01*
X54382000Y-131690288D01*
X54655175Y-131687400D01*
X54804400Y-131538175D01*
X54804400Y-130530600D01*
X53934325Y-130530600D01*
X53785100Y-130679825D01*
X53782212Y-131090500D01*
X46342891Y-131090500D01*
X46317489Y-131029175D01*
X49920065Y-127426600D01*
X53837596Y-127426600D01*
X53838519Y-127435976D01*
X53881186Y-127576631D01*
X53950474Y-127706260D01*
X53966664Y-127725988D01*
X53927077Y-127773676D01*
X53871068Y-127877058D01*
X53836304Y-127989380D01*
X53827000Y-128095375D01*
X53976225Y-128244600D01*
X55233800Y-128244600D01*
X55233800Y-128224600D01*
X55564000Y-128224600D01*
X55564000Y-128244600D01*
X55584000Y-128244600D01*
X55584000Y-128574800D01*
X55564000Y-128574800D01*
X55564000Y-128594800D01*
X55233800Y-128594800D01*
X55233800Y-128574800D01*
X53976225Y-128574800D01*
X53827000Y-128724025D01*
X53836304Y-128830020D01*
X53871068Y-128942342D01*
X53927077Y-129045724D01*
X54002178Y-129136193D01*
X54029043Y-129157989D01*
X53957886Y-129216386D01*
X53883295Y-129307276D01*
X53827868Y-129410971D01*
X53793737Y-129523487D01*
X53782212Y-129640500D01*
X53785100Y-130051175D01*
X53934325Y-130200400D01*
X54804400Y-130200400D01*
X54804400Y-130180400D01*
X55134600Y-130180400D01*
X55134600Y-130200400D01*
X55154600Y-130200400D01*
X55154600Y-130530600D01*
X55134600Y-130530600D01*
X55134600Y-131538175D01*
X55283825Y-131687400D01*
X55557000Y-131690288D01*
X55674013Y-131678763D01*
X55786529Y-131644632D01*
X55890224Y-131589205D01*
X55981114Y-131514614D01*
X56055705Y-131423724D01*
X56069867Y-131397230D01*
X56106109Y-131441391D01*
X56234883Y-131547073D01*
X56381800Y-131625602D01*
X56541215Y-131673960D01*
X56707000Y-131690288D01*
X57382000Y-131690288D01*
X57547785Y-131673960D01*
X57707200Y-131625602D01*
X57854117Y-131547073D01*
X57982891Y-131441391D01*
X58077271Y-131326389D01*
X58258314Y-131362400D01*
X58454686Y-131362400D01*
X58647285Y-131324090D01*
X58828709Y-131248942D01*
X58991987Y-131139843D01*
X59130843Y-131000987D01*
X59239942Y-130837709D01*
X59315090Y-130656285D01*
X59353400Y-130463686D01*
X59353400Y-130267314D01*
X59315090Y-130074715D01*
X59239942Y-129893291D01*
X59130843Y-129730013D01*
X58991987Y-129591157D01*
X58828709Y-129482058D01*
X58647285Y-129406910D01*
X58454686Y-129368600D01*
X58258314Y-129368600D01*
X58077271Y-129404611D01*
X57982891Y-129289609D01*
X57854117Y-129183927D01*
X57766400Y-129137041D01*
X57766400Y-125305753D01*
X57769892Y-125270300D01*
X57764570Y-125216263D01*
X57755954Y-125128783D01*
X57714675Y-124992704D01*
X57708907Y-124981913D01*
X57647641Y-124867293D01*
X57580031Y-124784910D01*
X57557430Y-124757370D01*
X57529888Y-124734767D01*
X57116786Y-124321666D01*
X58254774Y-124321666D01*
X58258267Y-124357129D01*
X58258266Y-127980513D01*
X58254774Y-128015966D01*
X58258266Y-128051419D01*
X58258266Y-128051420D01*
X58268712Y-128157482D01*
X58307247Y-128284516D01*
X58309991Y-128293561D01*
X58377025Y-128418972D01*
X58397164Y-128443511D01*
X58467236Y-128528895D01*
X58494784Y-128551503D01*
X58838359Y-128895078D01*
X58860970Y-128922630D01*
X58880278Y-128938475D01*
X58900474Y-128976260D01*
X58993720Y-129089880D01*
X59107340Y-129183126D01*
X59236969Y-129252414D01*
X59377624Y-129295081D01*
X59523900Y-129309488D01*
X61173900Y-129309488D01*
X61320176Y-129295081D01*
X61460831Y-129252414D01*
X61590460Y-129183126D01*
X61653244Y-129131600D01*
X61823477Y-129131600D01*
X61848127Y-129177717D01*
X61953809Y-129306491D01*
X62082583Y-129412173D01*
X62229500Y-129490702D01*
X62388914Y-129539060D01*
X62554699Y-129555388D01*
X63454701Y-129555388D01*
X63481993Y-129552700D01*
X64600512Y-129552700D01*
X64600512Y-129721601D01*
X64616840Y-129887386D01*
X64665198Y-130046800D01*
X64743727Y-130193717D01*
X64849409Y-130322491D01*
X64978183Y-130428173D01*
X65000601Y-130440156D01*
X65000600Y-132044547D01*
X64997108Y-132080000D01*
X65000600Y-132115453D01*
X65000600Y-132115454D01*
X65002558Y-132135335D01*
X64913301Y-132106685D01*
X64177987Y-132842000D01*
X64913301Y-133577315D01*
X65138132Y-133505149D01*
X65214924Y-133327948D01*
X65280259Y-133485680D01*
X65428974Y-133708248D01*
X65618252Y-133897526D01*
X65840820Y-134046241D01*
X66088124Y-134148678D01*
X66350660Y-134200900D01*
X66618340Y-134200900D01*
X66880876Y-134148678D01*
X67128180Y-134046241D01*
X67350748Y-133897526D01*
X67540026Y-133708248D01*
X67688741Y-133485680D01*
X67722750Y-133403575D01*
X67756759Y-133485680D01*
X67905474Y-133708248D01*
X68094752Y-133897526D01*
X68317320Y-134046241D01*
X68564624Y-134148678D01*
X68827160Y-134200900D01*
X69094840Y-134200900D01*
X69357376Y-134148678D01*
X69604680Y-134046241D01*
X69827248Y-133897526D01*
X70016526Y-133708248D01*
X70165241Y-133485680D01*
X70267678Y-133238376D01*
X70319900Y-132975840D01*
X70319900Y-132708160D01*
X70267678Y-132445624D01*
X70165241Y-132198320D01*
X70016526Y-131975752D01*
X69827248Y-131786474D01*
X69604680Y-131637759D01*
X69357376Y-131535322D01*
X69094840Y-131483100D01*
X68827160Y-131483100D01*
X68564624Y-131535322D01*
X68317320Y-131637759D01*
X68094752Y-131786474D01*
X67905474Y-131975752D01*
X67756759Y-132198320D01*
X67722750Y-132280425D01*
X67688741Y-132198320D01*
X67540026Y-131975752D01*
X67350748Y-131786474D01*
X67128180Y-131637759D01*
X66880876Y-131535322D01*
X66618340Y-131483100D01*
X66444400Y-131483100D01*
X66444400Y-130562120D01*
X66516086Y-130555060D01*
X66675500Y-130506702D01*
X66822417Y-130428173D01*
X66890714Y-130372123D01*
X66961083Y-130429873D01*
X67108000Y-130508402D01*
X67267414Y-130556760D01*
X67433199Y-130573088D01*
X68083201Y-130573088D01*
X68248986Y-130556760D01*
X68408400Y-130508402D01*
X68555317Y-130429873D01*
X68684091Y-130324191D01*
X68783200Y-130203426D01*
X68882309Y-130324191D01*
X69011083Y-130429873D01*
X69158000Y-130508402D01*
X69317414Y-130556760D01*
X69483199Y-130573088D01*
X70133201Y-130573088D01*
X70298986Y-130556760D01*
X70458400Y-130508402D01*
X70605317Y-130429873D01*
X70704661Y-130348344D01*
X70832883Y-130453573D01*
X70979800Y-130532102D01*
X71139214Y-130580460D01*
X71304999Y-130596788D01*
X72205001Y-130596788D01*
X72370786Y-130580460D01*
X72530200Y-130532102D01*
X72677117Y-130453573D01*
X72805891Y-130347891D01*
X72911573Y-130219117D01*
X72990102Y-130072200D01*
X73038460Y-129912786D01*
X73054788Y-129747001D01*
X73054788Y-129305135D01*
X73191300Y-129378102D01*
X73350714Y-129426460D01*
X73516499Y-129442788D01*
X74216501Y-129442788D01*
X74382286Y-129426460D01*
X74541700Y-129378102D01*
X74688617Y-129299573D01*
X74817391Y-129193891D01*
X74866500Y-129134051D01*
X74915609Y-129193891D01*
X75044383Y-129299573D01*
X75191300Y-129378102D01*
X75350714Y-129426460D01*
X75516499Y-129442788D01*
X76216501Y-129442788D01*
X76382286Y-129426460D01*
X76541700Y-129378102D01*
X76688617Y-129299573D01*
X76817391Y-129193891D01*
X76893664Y-129100952D01*
X76952886Y-129173114D01*
X77043776Y-129247705D01*
X77121032Y-129289000D01*
X77043776Y-129330295D01*
X76952886Y-129404886D01*
X76878295Y-129495776D01*
X76822868Y-129599471D01*
X76788737Y-129711987D01*
X76777212Y-129829000D01*
X76777212Y-131029000D01*
X76788737Y-131146013D01*
X76822868Y-131258529D01*
X76878295Y-131362224D01*
X76952886Y-131453114D01*
X77043776Y-131527705D01*
X77121032Y-131569000D01*
X77043776Y-131610295D01*
X76952886Y-131684886D01*
X76916093Y-131729719D01*
X76729986Y-131692700D01*
X76533614Y-131692700D01*
X76341015Y-131731010D01*
X76159591Y-131806158D01*
X75996313Y-131915257D01*
X75857457Y-132054113D01*
X75748358Y-132217391D01*
X75673210Y-132398815D01*
X75634900Y-132591414D01*
X75634900Y-132787786D01*
X75673210Y-132980385D01*
X75748358Y-133161809D01*
X75857457Y-133325087D01*
X75996313Y-133463943D01*
X76159591Y-133573042D01*
X76341015Y-133648190D01*
X76533614Y-133686500D01*
X76729986Y-133686500D01*
X76883824Y-133655900D01*
X76889519Y-133655900D01*
X76952886Y-133733114D01*
X77043776Y-133807705D01*
X77147471Y-133863132D01*
X77259987Y-133897263D01*
X77377000Y-133908788D01*
X79577000Y-133908788D01*
X79694013Y-133897263D01*
X79806529Y-133863132D01*
X79910224Y-133807705D01*
X80001114Y-133733114D01*
X80075705Y-133642224D01*
X80131132Y-133538529D01*
X80165263Y-133426013D01*
X80176788Y-133309000D01*
X80176788Y-132109000D01*
X80165263Y-131991987D01*
X80131132Y-131879471D01*
X80075705Y-131775776D01*
X80001114Y-131684886D01*
X79910224Y-131610295D01*
X79832968Y-131569000D01*
X79910224Y-131527705D01*
X80001114Y-131453114D01*
X80075705Y-131362224D01*
X80131132Y-131258529D01*
X80165263Y-131146013D01*
X80176788Y-131029000D01*
X80176788Y-129829000D01*
X80165263Y-129711987D01*
X80131132Y-129599471D01*
X80075705Y-129495776D01*
X80001114Y-129404886D01*
X79910224Y-129330295D01*
X79832968Y-129289000D01*
X79910224Y-129247705D01*
X80001114Y-129173114D01*
X80075705Y-129082224D01*
X80131132Y-128978529D01*
X80165263Y-128866013D01*
X80176788Y-128749000D01*
X80176788Y-127549000D01*
X80174819Y-127529000D01*
X80977212Y-127529000D01*
X80977212Y-133329000D01*
X80988737Y-133446013D01*
X81022868Y-133558529D01*
X81078295Y-133662224D01*
X81152886Y-133753114D01*
X81243776Y-133827705D01*
X81347471Y-133883132D01*
X81459987Y-133917263D01*
X81577000Y-133928788D01*
X87977000Y-133928788D01*
X88094013Y-133917263D01*
X88206529Y-133883132D01*
X88310224Y-133827705D01*
X88401114Y-133753114D01*
X88475705Y-133662224D01*
X88531132Y-133558529D01*
X88565263Y-133446013D01*
X88576788Y-133329000D01*
X88576788Y-132905500D01*
X88836862Y-132905500D01*
X88917609Y-133003891D01*
X89046383Y-133109573D01*
X89193300Y-133188102D01*
X89352714Y-133236460D01*
X89518499Y-133252788D01*
X90218501Y-133252788D01*
X90384286Y-133236460D01*
X90543700Y-133188102D01*
X90690617Y-133109573D01*
X90819391Y-133003891D01*
X90868500Y-132944051D01*
X90917609Y-133003891D01*
X91046383Y-133109573D01*
X91193300Y-133188102D01*
X91352714Y-133236460D01*
X91518499Y-133252788D01*
X92218501Y-133252788D01*
X92384286Y-133236460D01*
X92543700Y-133188102D01*
X92690617Y-133109573D01*
X92819391Y-133003891D01*
X92900138Y-132905500D01*
X97033212Y-132905500D01*
X97033212Y-133062500D01*
X97044737Y-133179513D01*
X97078868Y-133292029D01*
X97134295Y-133395724D01*
X97208886Y-133486614D01*
X97299776Y-133561205D01*
X97403471Y-133616632D01*
X97515987Y-133650763D01*
X97633000Y-133662288D01*
X100233000Y-133662288D01*
X100350013Y-133650763D01*
X100462529Y-133616632D01*
X100566224Y-133561205D01*
X100657114Y-133486614D01*
X100731705Y-133395724D01*
X100787132Y-133292029D01*
X100821263Y-133179513D01*
X100832788Y-133062500D01*
X100832788Y-130462500D01*
X100821263Y-130345487D01*
X100787132Y-130232971D01*
X100731705Y-130129276D01*
X100657114Y-130038386D01*
X100566224Y-129963795D01*
X100462529Y-129908368D01*
X100350013Y-129874237D01*
X100233000Y-129862712D01*
X97633000Y-129862712D01*
X97515987Y-129874237D01*
X97403471Y-129908368D01*
X97299776Y-129963795D01*
X97208886Y-130038386D01*
X97134295Y-130129276D01*
X97078868Y-130232971D01*
X97044737Y-130345487D01*
X97033212Y-130462500D01*
X97033212Y-131000500D01*
X92900138Y-131000500D01*
X92819391Y-130902109D01*
X92690617Y-130796427D01*
X92543700Y-130717898D01*
X92384286Y-130669540D01*
X92218501Y-130653212D01*
X91518499Y-130653212D01*
X91352714Y-130669540D01*
X91193300Y-130717898D01*
X91046383Y-130796427D01*
X90917609Y-130902109D01*
X90868500Y-130961949D01*
X90819391Y-130902109D01*
X90690617Y-130796427D01*
X90543700Y-130717898D01*
X90384286Y-130669540D01*
X90218501Y-130653212D01*
X89518499Y-130653212D01*
X89352714Y-130669540D01*
X89193300Y-130717898D01*
X89046383Y-130796427D01*
X88917609Y-130902109D01*
X88836862Y-131000500D01*
X88576788Y-131000500D01*
X88576788Y-127529000D01*
X88565263Y-127411987D01*
X88531132Y-127299471D01*
X88475705Y-127195776D01*
X88401114Y-127104886D01*
X88310224Y-127030295D01*
X88206529Y-126974868D01*
X88094013Y-126940737D01*
X87977000Y-126929212D01*
X81577000Y-126929212D01*
X81459987Y-126940737D01*
X81347471Y-126974868D01*
X81243776Y-127030295D01*
X81152886Y-127104886D01*
X81078295Y-127195776D01*
X81022868Y-127299471D01*
X80988737Y-127411987D01*
X80977212Y-127529000D01*
X80174819Y-127529000D01*
X80165263Y-127431987D01*
X80131132Y-127319471D01*
X80075705Y-127215776D01*
X80001114Y-127124886D01*
X79910224Y-127050295D01*
X79806529Y-126994868D01*
X79694013Y-126960737D01*
X79577000Y-126949212D01*
X77377000Y-126949212D01*
X77259987Y-126960737D01*
X77147471Y-126994868D01*
X77043776Y-127050295D01*
X76952886Y-127124886D01*
X76898588Y-127191048D01*
X76817391Y-127092109D01*
X76688617Y-126986427D01*
X76541700Y-126907898D01*
X76382286Y-126859540D01*
X76216501Y-126843212D01*
X75516499Y-126843212D01*
X75350714Y-126859540D01*
X75191300Y-126907898D01*
X75044383Y-126986427D01*
X74915609Y-127092109D01*
X74866500Y-127151949D01*
X74817391Y-127092109D01*
X74688617Y-126986427D01*
X74675900Y-126979630D01*
X74675900Y-126891451D01*
X74679392Y-126855998D01*
X74674791Y-126809284D01*
X74665454Y-126714481D01*
X74624175Y-126578402D01*
X74609962Y-126551811D01*
X74557141Y-126452991D01*
X74509589Y-126395050D01*
X74466929Y-126343068D01*
X74439388Y-126320466D01*
X72711223Y-124592302D01*
X72777090Y-124433285D01*
X72815400Y-124240686D01*
X72815400Y-124044314D01*
X72777090Y-123851715D01*
X72774599Y-123845702D01*
X72894391Y-123747391D01*
X73000073Y-123618617D01*
X73078602Y-123471700D01*
X73126960Y-123312285D01*
X73143288Y-123146500D01*
X73143288Y-122471500D01*
X73126960Y-122305715D01*
X73078602Y-122146300D01*
X73000073Y-121999383D01*
X72894391Y-121870609D01*
X72850230Y-121834367D01*
X72876724Y-121820205D01*
X72967614Y-121745614D01*
X73042205Y-121654724D01*
X73097632Y-121551029D01*
X73131763Y-121438513D01*
X73143288Y-121321500D01*
X73140400Y-121048325D01*
X72991175Y-120899100D01*
X71983600Y-120899100D01*
X71983600Y-120919100D01*
X71653400Y-120919100D01*
X71653400Y-120899100D01*
X70645825Y-120899100D01*
X70624325Y-120920600D01*
X69824600Y-120920600D01*
X69824600Y-120940600D01*
X69494400Y-120940600D01*
X69494400Y-120920600D01*
X69474400Y-120920600D01*
X69474400Y-120590400D01*
X69494400Y-120590400D01*
X69494400Y-119720325D01*
X69824600Y-119720325D01*
X69824600Y-120590400D01*
X70832175Y-120590400D01*
X70853675Y-120568900D01*
X71653400Y-120568900D01*
X71653400Y-119698825D01*
X71983600Y-119698825D01*
X71983600Y-120568900D01*
X72991175Y-120568900D01*
X73140400Y-120419675D01*
X73143288Y-120146500D01*
X73131763Y-120029487D01*
X73097632Y-119916971D01*
X73042205Y-119813276D01*
X72967614Y-119722386D01*
X72876724Y-119647795D01*
X72773029Y-119592368D01*
X72660513Y-119558237D01*
X72543500Y-119546712D01*
X72132825Y-119549600D01*
X71983600Y-119698825D01*
X71653400Y-119698825D01*
X71504175Y-119549600D01*
X71093500Y-119546712D01*
X70976487Y-119558237D01*
X70863971Y-119592368D01*
X70760276Y-119647795D01*
X70725901Y-119676006D01*
X70717724Y-119669295D01*
X70614029Y-119613868D01*
X70501513Y-119579737D01*
X70384500Y-119568212D01*
X69973825Y-119571100D01*
X69824600Y-119720325D01*
X69494400Y-119720325D01*
X69345175Y-119571100D01*
X68934500Y-119568212D01*
X68874551Y-119574117D01*
X68875851Y-119356547D01*
X68867618Y-119239256D01*
X68836660Y-119125826D01*
X68784168Y-119020615D01*
X68712159Y-118927666D01*
X68623400Y-118850551D01*
X68521303Y-118792234D01*
X68409790Y-118754955D01*
X68336625Y-118742800D01*
X68296325Y-118783100D01*
X67956275Y-118783100D01*
X67915975Y-118742800D01*
X67842810Y-118754955D01*
X67841374Y-118755435D01*
X67832945Y-118752878D01*
X67701300Y-118739912D01*
X67551300Y-118739912D01*
X67419655Y-118752878D01*
X67376300Y-118766030D01*
X67332945Y-118752878D01*
X67201300Y-118739912D01*
X67051300Y-118739912D01*
X66919655Y-118752878D01*
X66876300Y-118766030D01*
X66832945Y-118752878D01*
X66701300Y-118739912D01*
X66551300Y-118739912D01*
X66419655Y-118752878D01*
X66376300Y-118766030D01*
X66332945Y-118752878D01*
X66201300Y-118739912D01*
X66051300Y-118739912D01*
X65919655Y-118752878D01*
X65876300Y-118766030D01*
X65832945Y-118752878D01*
X65701300Y-118739912D01*
X65551300Y-118739912D01*
X65419655Y-118752878D01*
X65376300Y-118766030D01*
X65332945Y-118752878D01*
X65201300Y-118739912D01*
X65051300Y-118739912D01*
X64919655Y-118752878D01*
X64876300Y-118766030D01*
X64832945Y-118752878D01*
X64701300Y-118739912D01*
X64551300Y-118739912D01*
X64419655Y-118752878D01*
X64376300Y-118766030D01*
X64332945Y-118752878D01*
X64201300Y-118739912D01*
X64051300Y-118739912D01*
X63919655Y-118752878D01*
X63876300Y-118766030D01*
X63832945Y-118752878D01*
X63701300Y-118739912D01*
X63551300Y-118739912D01*
X63419655Y-118752878D01*
X63376300Y-118766030D01*
X63332945Y-118752878D01*
X63201300Y-118739912D01*
X63051300Y-118739912D01*
X62919655Y-118752878D01*
X62876300Y-118766030D01*
X62832945Y-118752878D01*
X62701300Y-118739912D01*
X62551300Y-118739912D01*
X62419655Y-118752878D01*
X62376300Y-118766030D01*
X62332945Y-118752878D01*
X62201300Y-118739912D01*
X62051300Y-118739912D01*
X61919655Y-118752878D01*
X61876300Y-118766030D01*
X61832945Y-118752878D01*
X61701300Y-118739912D01*
X61551300Y-118739912D01*
X61419655Y-118752878D01*
X61376300Y-118766030D01*
X61332945Y-118752878D01*
X61201300Y-118739912D01*
X61051300Y-118739912D01*
X60919655Y-118752878D01*
X60876300Y-118766030D01*
X60832945Y-118752878D01*
X60701300Y-118739912D01*
X60551300Y-118739912D01*
X60419655Y-118752878D01*
X60293070Y-118791277D01*
X60176408Y-118853634D01*
X60074153Y-118937553D01*
X59990234Y-119039808D01*
X59927877Y-119156470D01*
X59889478Y-119283055D01*
X59876512Y-119414700D01*
X59876512Y-120814700D01*
X59889478Y-120946345D01*
X59927877Y-121072930D01*
X59990234Y-121189592D01*
X60074153Y-121291847D01*
X60176408Y-121375766D01*
X60293070Y-121438123D01*
X60419655Y-121476522D01*
X60551300Y-121489488D01*
X60701300Y-121489488D01*
X60797666Y-121479997D01*
X60782795Y-121498117D01*
X59288531Y-122992382D01*
X59288526Y-122992386D01*
X58494783Y-123786130D01*
X58467237Y-123808736D01*
X58413424Y-123874308D01*
X58377025Y-123918660D01*
X58309991Y-124044071D01*
X58289798Y-124110641D01*
X58269464Y-124177675D01*
X58268713Y-124180150D01*
X58254774Y-124321666D01*
X57116786Y-124321666D01*
X56909440Y-124114321D01*
X56886830Y-124086770D01*
X56867522Y-124070925D01*
X56847326Y-124033140D01*
X56754080Y-123919520D01*
X56640460Y-123826274D01*
X56510831Y-123756986D01*
X56370176Y-123714319D01*
X56223900Y-123699912D01*
X54573900Y-123699912D01*
X54427624Y-123714319D01*
X54286969Y-123756986D01*
X54157340Y-123826274D01*
X54043720Y-123919520D01*
X53950474Y-124033140D01*
X53881186Y-124162769D01*
X53838519Y-124303424D01*
X53824112Y-124449700D01*
X53824112Y-124749700D01*
X53838519Y-124895976D01*
X53881186Y-125036631D01*
X53950474Y-125166260D01*
X54006642Y-125234700D01*
X53950474Y-125303140D01*
X53881186Y-125432769D01*
X53838519Y-125573424D01*
X53837596Y-125582800D01*
X49479230Y-125582800D01*
X49445002Y-125579429D01*
X49410774Y-125582800D01*
X49410768Y-125582800D01*
X49322247Y-125591519D01*
X49308386Y-125592884D01*
X49279268Y-125601717D01*
X49177021Y-125632733D01*
X49055953Y-125697445D01*
X48949836Y-125784533D01*
X48928014Y-125811123D01*
X48651938Y-126087200D01*
X46476788Y-126087200D01*
X46476788Y-125484100D01*
X46465263Y-125367087D01*
X46431132Y-125254571D01*
X46375705Y-125150876D01*
X46301114Y-125059986D01*
X46210224Y-124985395D01*
X46106529Y-124929968D01*
X45994013Y-124895837D01*
X45877000Y-124884312D01*
X43277000Y-124884312D01*
X43159987Y-124895837D01*
X43047471Y-124929968D01*
X42943776Y-124985395D01*
X42852886Y-125059986D01*
X42778295Y-125150876D01*
X42722868Y-125254571D01*
X42688737Y-125367087D01*
X42677212Y-125484100D01*
X40004600Y-125484100D01*
X40004600Y-123200671D01*
X40030073Y-123226144D01*
X40455407Y-123510343D01*
X40928012Y-123706102D01*
X41429728Y-123805900D01*
X41941272Y-123805900D01*
X42442988Y-123706102D01*
X42715727Y-123593130D01*
X42863384Y-123672054D01*
X43041875Y-123726199D01*
X43227499Y-123744481D01*
X43274012Y-123739900D01*
X48348834Y-123739900D01*
X48352109Y-123743891D01*
X48480883Y-123849573D01*
X48627800Y-123928102D01*
X48787214Y-123976460D01*
X48952999Y-123992788D01*
X49853001Y-123992788D01*
X50018786Y-123976460D01*
X50178200Y-123928102D01*
X50325117Y-123849573D01*
X50453891Y-123743891D01*
X50559573Y-123615117D01*
X50638102Y-123468200D01*
X50686460Y-123308786D01*
X50702788Y-123143001D01*
X50702788Y-122442999D01*
X50686460Y-122277214D01*
X50638102Y-122117800D01*
X50559573Y-121970883D01*
X50453891Y-121842109D01*
X50394051Y-121793000D01*
X50453891Y-121743891D01*
X50559573Y-121615117D01*
X50638102Y-121468200D01*
X50686460Y-121308786D01*
X50702788Y-121143001D01*
X50702788Y-120497000D01*
X53221712Y-120497000D01*
X53233237Y-120614013D01*
X53267368Y-120726529D01*
X53322795Y-120830224D01*
X53397386Y-120921114D01*
X53488276Y-120995705D01*
X53591971Y-121051132D01*
X53704487Y-121085263D01*
X53821500Y-121096788D01*
X54232175Y-121093900D01*
X54381400Y-120944675D01*
X54381400Y-120074600D01*
X54711600Y-120074600D01*
X54711600Y-120944675D01*
X54860825Y-121093900D01*
X55271500Y-121096788D01*
X55388513Y-121085263D01*
X55501029Y-121051132D01*
X55594250Y-121001304D01*
X55687471Y-121051132D01*
X55799987Y-121085263D01*
X55917000Y-121096788D01*
X56327675Y-121093900D01*
X56476900Y-120944675D01*
X56476900Y-120074600D01*
X56807100Y-120074600D01*
X56807100Y-120944675D01*
X56956325Y-121093900D01*
X57367000Y-121096788D01*
X57484013Y-121085263D01*
X57596529Y-121051132D01*
X57700224Y-120995705D01*
X57791114Y-120921114D01*
X57865705Y-120830224D01*
X57921132Y-120726529D01*
X57955263Y-120614013D01*
X57966788Y-120497000D01*
X57963900Y-120223825D01*
X57814675Y-120074600D01*
X56807100Y-120074600D01*
X56476900Y-120074600D01*
X54711600Y-120074600D01*
X54381400Y-120074600D01*
X53373825Y-120074600D01*
X53224600Y-120223825D01*
X53221712Y-120497000D01*
X50702788Y-120497000D01*
X50702788Y-120442999D01*
X50686460Y-120277214D01*
X50638102Y-120117800D01*
X50559573Y-119970883D01*
X50453891Y-119842109D01*
X50349900Y-119756766D01*
X50349900Y-119748300D01*
X53555900Y-119748300D01*
X53569989Y-119747176D01*
X53580538Y-119744400D01*
X54381400Y-119744400D01*
X54381400Y-119724400D01*
X54711600Y-119724400D01*
X54711600Y-119744400D01*
X56476900Y-119744400D01*
X56476900Y-119724400D01*
X56807100Y-119724400D01*
X56807100Y-119744400D01*
X57814675Y-119744400D01*
X57963900Y-119595175D01*
X57966788Y-119322000D01*
X57955574Y-119208150D01*
X58202824Y-118960900D01*
X59182000Y-118960900D01*
X59199344Y-118959192D01*
X59216021Y-118954133D01*
X59231390Y-118945918D01*
X59241103Y-118937947D01*
X59459453Y-118939251D01*
X59576744Y-118931018D01*
X59690174Y-118900060D01*
X59795385Y-118847568D01*
X59888334Y-118775559D01*
X59965449Y-118686800D01*
X60023766Y-118584703D01*
X60061045Y-118473190D01*
X60073200Y-118400025D01*
X59923975Y-118250800D01*
X59867538Y-118250800D01*
X59878447Y-118241847D01*
X59962366Y-118139592D01*
X60019071Y-118033504D01*
X60073200Y-117979375D01*
X60061045Y-117906210D01*
X60060565Y-117904774D01*
X60063122Y-117896345D01*
X60076088Y-117764700D01*
X60076088Y-117614700D01*
X60063122Y-117483055D01*
X60049970Y-117439700D01*
X60063122Y-117396345D01*
X60076088Y-117264700D01*
X60076088Y-117114700D01*
X60063122Y-116983055D01*
X60049970Y-116939700D01*
X60063122Y-116896345D01*
X60076088Y-116764700D01*
X60076088Y-116614700D01*
X60063122Y-116483055D01*
X60049970Y-116439700D01*
X60063122Y-116396345D01*
X60076088Y-116264700D01*
X60076088Y-116114700D01*
X60063122Y-115983055D01*
X60049970Y-115939700D01*
X60063122Y-115896345D01*
X60076088Y-115764700D01*
X60076088Y-115614700D01*
X60063122Y-115483055D01*
X60049970Y-115439700D01*
X60063122Y-115396345D01*
X60076088Y-115264700D01*
X60076088Y-115114700D01*
X60063122Y-114983055D01*
X60049970Y-114939700D01*
X60063122Y-114896345D01*
X60076088Y-114764700D01*
X60076088Y-114614700D01*
X60063122Y-114483055D01*
X60049970Y-114439700D01*
X60063122Y-114396345D01*
X60076088Y-114264700D01*
X60076088Y-114114700D01*
X60063122Y-113983055D01*
X60049970Y-113939700D01*
X60063122Y-113896345D01*
X60076088Y-113764700D01*
X60076088Y-113614700D01*
X60063122Y-113483055D01*
X60049970Y-113439700D01*
X60063122Y-113396345D01*
X60076088Y-113264700D01*
X60076088Y-113114700D01*
X60063122Y-112983055D01*
X60049970Y-112939700D01*
X60063122Y-112896345D01*
X60076088Y-112764700D01*
X60076088Y-112614700D01*
X60063122Y-112483055D01*
X60049970Y-112439700D01*
X60063122Y-112396345D01*
X60076088Y-112264700D01*
X60076088Y-112114700D01*
X60063122Y-111983055D01*
X60049970Y-111939700D01*
X60063122Y-111896345D01*
X60076088Y-111764700D01*
X60076088Y-111614700D01*
X60063122Y-111483055D01*
X60049970Y-111439700D01*
X60063122Y-111396345D01*
X60076088Y-111264700D01*
X60076088Y-111114700D01*
X60063122Y-110983055D01*
X60049970Y-110939700D01*
X60063122Y-110896345D01*
X60076088Y-110764700D01*
X60076088Y-110614700D01*
X60063122Y-110483055D01*
X60024723Y-110356470D01*
X59962366Y-110239808D01*
X59878447Y-110137553D01*
X59776192Y-110053634D01*
X59659530Y-109991277D01*
X59532945Y-109952878D01*
X59401300Y-109939912D01*
X58001300Y-109939912D01*
X57869655Y-109952878D01*
X57820464Y-109967800D01*
X52619520Y-109967800D01*
X51712400Y-109060681D01*
X51712400Y-108006547D01*
X59876749Y-108006547D01*
X59879400Y-108450375D01*
X59918600Y-108489575D01*
X59918600Y-109039825D01*
X59879400Y-109079025D01*
X59876749Y-109522853D01*
X59884982Y-109640144D01*
X59915940Y-109753574D01*
X59968432Y-109858785D01*
X60040441Y-109951734D01*
X60129200Y-110028849D01*
X60208379Y-110074076D01*
X60203558Y-110081291D01*
X60128410Y-110262715D01*
X60090100Y-110455314D01*
X60090100Y-110651686D01*
X60128410Y-110844285D01*
X60203558Y-111025709D01*
X60312657Y-111188987D01*
X60451513Y-111327843D01*
X60614791Y-111436942D01*
X60796215Y-111512090D01*
X60988814Y-111550400D01*
X61185186Y-111550400D01*
X61377785Y-111512090D01*
X61544731Y-111442939D01*
X61630791Y-111500442D01*
X61812215Y-111575590D01*
X62004814Y-111613900D01*
X62201186Y-111613900D01*
X62347727Y-111584752D01*
X62429039Y-111666064D01*
X62592317Y-111775163D01*
X62773741Y-111850311D01*
X62781086Y-111851772D01*
X62795410Y-111923785D01*
X62870558Y-112105209D01*
X62979657Y-112268487D01*
X63118513Y-112407343D01*
X63281791Y-112516442D01*
X63393281Y-112562622D01*
X63430410Y-112749285D01*
X63505558Y-112930709D01*
X63614657Y-113093987D01*
X63753513Y-113232843D01*
X63916791Y-113341942D01*
X64020766Y-113385010D01*
X64056802Y-113566177D01*
X64131950Y-113747601D01*
X64241049Y-113910879D01*
X64379905Y-114049735D01*
X64543183Y-114158834D01*
X64724607Y-114233982D01*
X64757389Y-114240503D01*
X64763910Y-114273285D01*
X64839058Y-114454709D01*
X64948157Y-114617987D01*
X65087013Y-114756843D01*
X65250291Y-114865942D01*
X65431715Y-114941090D01*
X65624314Y-114979400D01*
X65629163Y-114979400D01*
X65652910Y-115098785D01*
X65728058Y-115280209D01*
X65837157Y-115443487D01*
X65976013Y-115582343D01*
X66139291Y-115691442D01*
X66320715Y-115766590D01*
X66513314Y-115804900D01*
X66709686Y-115804900D01*
X66902285Y-115766590D01*
X67083709Y-115691442D01*
X67246987Y-115582343D01*
X67385843Y-115443487D01*
X67494942Y-115280209D01*
X67570090Y-115098785D01*
X67602668Y-114935000D01*
X68554600Y-114935000D01*
X68554600Y-116903500D01*
X68556308Y-116920844D01*
X68561367Y-116937521D01*
X68569582Y-116952890D01*
X68580638Y-116966362D01*
X68594110Y-116977418D01*
X68609479Y-116985633D01*
X68626156Y-116990692D01*
X68643500Y-116992400D01*
X68688558Y-116992400D01*
X68676512Y-117114700D01*
X68676512Y-117264700D01*
X68689478Y-117396345D01*
X68702630Y-117439700D01*
X68689478Y-117483055D01*
X68676512Y-117614700D01*
X68676512Y-117764700D01*
X68689478Y-117896345D01*
X68702630Y-117939700D01*
X68689478Y-117983055D01*
X68676512Y-118114700D01*
X68676512Y-118264700D01*
X68689478Y-118396345D01*
X68727877Y-118522930D01*
X68790234Y-118639592D01*
X68874153Y-118741847D01*
X68976408Y-118825766D01*
X69093070Y-118888123D01*
X69219655Y-118926522D01*
X69351300Y-118939488D01*
X70751300Y-118939488D01*
X70882945Y-118926522D01*
X71009530Y-118888123D01*
X71126192Y-118825766D01*
X71228447Y-118741847D01*
X71312366Y-118639592D01*
X71374723Y-118522930D01*
X71413122Y-118396345D01*
X71426088Y-118264700D01*
X71426088Y-118114700D01*
X71413122Y-117983055D01*
X71399970Y-117939700D01*
X71413122Y-117896345D01*
X71426088Y-117764700D01*
X71426088Y-117614700D01*
X71413122Y-117483055D01*
X71399970Y-117439700D01*
X71413122Y-117396345D01*
X71426088Y-117264700D01*
X71426088Y-117114700D01*
X71414042Y-116992400D01*
X72086369Y-116992400D01*
X75107603Y-120026118D01*
X75089882Y-123340028D01*
X75076100Y-123409314D01*
X75076100Y-123605686D01*
X75088137Y-123666203D01*
X75082401Y-124738925D01*
X75084031Y-124756353D01*
X75089016Y-124773053D01*
X75097162Y-124788459D01*
X75108158Y-124801980D01*
X75121580Y-124813096D01*
X75136912Y-124821380D01*
X75153567Y-124826513D01*
X75170902Y-124828299D01*
X80847802Y-124853699D01*
X80865651Y-124851970D01*
X80882322Y-124846891D01*
X80897682Y-124838657D01*
X80911139Y-124827584D01*
X80922179Y-124814099D01*
X80930375Y-124798719D01*
X80935413Y-124782036D01*
X80937100Y-124764690D01*
X80924400Y-114490390D01*
X80924400Y-111785000D01*
X82280212Y-111785000D01*
X82280212Y-113335000D01*
X82291737Y-113452013D01*
X82325868Y-113564529D01*
X82381295Y-113668224D01*
X82455886Y-113759114D01*
X82546776Y-113833705D01*
X82650471Y-113889132D01*
X82762987Y-113923263D01*
X82880000Y-113934788D01*
X84180000Y-113934788D01*
X84297013Y-113923263D01*
X84409529Y-113889132D01*
X84513224Y-113833705D01*
X84604114Y-113759114D01*
X84678705Y-113668224D01*
X84734132Y-113564529D01*
X84768263Y-113452013D01*
X84779788Y-113335000D01*
X84779788Y-111785000D01*
X84768263Y-111667987D01*
X84734132Y-111555471D01*
X84678705Y-111451776D01*
X84604114Y-111360886D01*
X84513224Y-111286295D01*
X84489382Y-111273551D01*
X84499400Y-111223186D01*
X84499400Y-111026814D01*
X84461090Y-110834215D01*
X84385942Y-110652791D01*
X84276843Y-110489513D01*
X84137987Y-110350657D01*
X83974709Y-110241558D01*
X83793285Y-110166410D01*
X83600686Y-110128100D01*
X83404314Y-110128100D01*
X83211715Y-110166410D01*
X83030291Y-110241558D01*
X82867013Y-110350657D01*
X82728157Y-110489513D01*
X82619058Y-110652791D01*
X82543910Y-110834215D01*
X82505600Y-111026814D01*
X82505600Y-111223186D01*
X82522170Y-111306489D01*
X82455886Y-111360886D01*
X82381295Y-111451776D01*
X82325868Y-111555471D01*
X82291737Y-111667987D01*
X82280212Y-111785000D01*
X80924400Y-111785000D01*
X80924400Y-110959900D01*
X80922692Y-110942556D01*
X80917633Y-110925879D01*
X80909418Y-110910510D01*
X80898362Y-110897038D01*
X80884890Y-110885982D01*
X80869521Y-110877767D01*
X80852844Y-110872708D01*
X80835500Y-110871000D01*
X78090124Y-110871000D01*
X78063799Y-110868407D01*
X78037474Y-110871000D01*
X77622400Y-110871000D01*
X77614494Y-110871899D01*
X77610228Y-110871899D01*
X77641400Y-110715186D01*
X77641400Y-110518814D01*
X77603090Y-110326215D01*
X77527942Y-110144791D01*
X77418843Y-109981513D01*
X77279987Y-109842657D01*
X77116709Y-109733558D01*
X76935285Y-109658410D01*
X76742686Y-109620100D01*
X76546314Y-109620100D01*
X76542900Y-109620779D01*
X76542900Y-108267500D01*
X85382100Y-108267500D01*
X85382100Y-123761500D01*
X85383808Y-123778844D01*
X85388867Y-123795521D01*
X85397082Y-123810890D01*
X85408138Y-123824362D01*
X85421610Y-123835418D01*
X85436979Y-123843633D01*
X85453656Y-123848692D01*
X85471000Y-123850400D01*
X86625712Y-123850400D01*
X86625712Y-124628000D01*
X86637237Y-124745013D01*
X86671368Y-124857529D01*
X86726795Y-124961224D01*
X86801386Y-125052114D01*
X86892276Y-125126705D01*
X86995971Y-125182132D01*
X87108487Y-125216263D01*
X87225500Y-125227788D01*
X89425500Y-125227788D01*
X89542513Y-125216263D01*
X89655029Y-125182132D01*
X89758724Y-125126705D01*
X89849614Y-125052114D01*
X89924205Y-124961224D01*
X89979632Y-124857529D01*
X90013763Y-124745013D01*
X90025288Y-124628000D01*
X90025288Y-123850400D01*
X94615000Y-123850400D01*
X94632344Y-123848692D01*
X94649021Y-123843633D01*
X94664390Y-123835418D01*
X94677862Y-123824362D01*
X94688918Y-123810890D01*
X94697133Y-123795521D01*
X94702192Y-123778844D01*
X94703900Y-123761500D01*
X94703900Y-108267500D01*
X94702192Y-108250156D01*
X94697133Y-108233479D01*
X94688918Y-108218110D01*
X94677862Y-108204638D01*
X94664390Y-108193582D01*
X94649021Y-108185367D01*
X94632344Y-108180308D01*
X94615000Y-108178600D01*
X90025288Y-108178600D01*
X90025288Y-107528000D01*
X90013763Y-107410987D01*
X89979632Y-107298471D01*
X89924205Y-107194776D01*
X89849614Y-107103886D01*
X89758724Y-107029295D01*
X89655029Y-106973868D01*
X89542513Y-106939737D01*
X89425500Y-106928212D01*
X87225500Y-106928212D01*
X87108487Y-106939737D01*
X86995971Y-106973868D01*
X86892276Y-107029295D01*
X86801386Y-107103886D01*
X86726795Y-107194776D01*
X86671368Y-107298471D01*
X86637237Y-107410987D01*
X86625712Y-107528000D01*
X86625712Y-108178600D01*
X85471000Y-108178600D01*
X85453656Y-108180308D01*
X85436979Y-108185367D01*
X85421610Y-108193582D01*
X85408138Y-108204638D01*
X85397082Y-108218110D01*
X85388867Y-108233479D01*
X85383808Y-108250156D01*
X85382100Y-108267500D01*
X76542900Y-108267500D01*
X76542900Y-105473500D01*
X76541192Y-105456156D01*
X76536133Y-105439479D01*
X76527918Y-105424110D01*
X76516862Y-105410638D01*
X76503390Y-105399582D01*
X76488021Y-105391367D01*
X76471344Y-105386308D01*
X76454000Y-105384600D01*
X75912691Y-105384600D01*
X75906700Y-105381398D01*
X75747286Y-105333040D01*
X75581501Y-105316712D01*
X74931499Y-105316712D01*
X74765714Y-105333040D01*
X74606300Y-105381398D01*
X74600309Y-105384600D01*
X74052621Y-105384600D01*
X74011029Y-105362368D01*
X73898513Y-105328237D01*
X73781500Y-105316712D01*
X73520825Y-105319600D01*
X73454331Y-105386094D01*
X73452156Y-105386308D01*
X73435479Y-105391367D01*
X73420110Y-105399582D01*
X73406638Y-105410638D01*
X73395582Y-105424110D01*
X73387367Y-105439479D01*
X73382308Y-105456156D01*
X73382094Y-105458331D01*
X73371600Y-105468825D01*
X73371600Y-106451400D01*
X73380600Y-106451400D01*
X73380600Y-106781600D01*
X73371600Y-106781600D01*
X73371600Y-106801600D01*
X73041400Y-106801600D01*
X73041400Y-106781600D01*
X72183825Y-106781600D01*
X72034600Y-106930825D01*
X72031712Y-107316500D01*
X72043237Y-107433513D01*
X72068244Y-107515951D01*
X72012609Y-107561609D01*
X71906927Y-107690383D01*
X71828398Y-107837300D01*
X71780040Y-107996715D01*
X71763712Y-108162500D01*
X71763712Y-108803868D01*
X70888617Y-109678964D01*
X70861071Y-109701570D01*
X70808702Y-109765383D01*
X70770859Y-109811494D01*
X70703825Y-109936905D01*
X70702913Y-109939912D01*
X69351300Y-109939912D01*
X69219655Y-109952878D01*
X69093070Y-109991277D01*
X68976408Y-110053634D01*
X68874153Y-110137553D01*
X68790234Y-110239808D01*
X68727877Y-110356470D01*
X68689478Y-110483055D01*
X68676512Y-110614700D01*
X68676512Y-110764700D01*
X68689478Y-110896345D01*
X68702630Y-110939700D01*
X68689478Y-110983055D01*
X68676512Y-111114700D01*
X68676512Y-111264700D01*
X68689478Y-111396345D01*
X68702630Y-111439700D01*
X68689478Y-111483055D01*
X68676512Y-111614700D01*
X68676512Y-111764700D01*
X68689478Y-111896345D01*
X68702630Y-111939700D01*
X68689478Y-111983055D01*
X68676512Y-112114700D01*
X68676512Y-112264700D01*
X68689478Y-112396345D01*
X68702630Y-112439700D01*
X68689478Y-112483055D01*
X68676512Y-112614700D01*
X68676512Y-112764700D01*
X68689478Y-112896345D01*
X68702630Y-112939700D01*
X68689478Y-112983055D01*
X68676512Y-113114700D01*
X68676512Y-113264700D01*
X68689478Y-113396345D01*
X68702630Y-113439700D01*
X68689478Y-113483055D01*
X68676512Y-113614700D01*
X68676512Y-113764700D01*
X68689478Y-113896345D01*
X68702630Y-113939700D01*
X68689478Y-113983055D01*
X68676512Y-114114700D01*
X68676512Y-114264700D01*
X68689478Y-114396345D01*
X68702630Y-114439700D01*
X68689478Y-114483055D01*
X68676512Y-114614700D01*
X68676512Y-114764700D01*
X68684529Y-114846100D01*
X68643500Y-114846100D01*
X68626156Y-114847808D01*
X68609479Y-114852867D01*
X68594110Y-114861082D01*
X68580638Y-114872138D01*
X68569582Y-114885610D01*
X68561367Y-114900979D01*
X68556308Y-114917656D01*
X68554600Y-114935000D01*
X67602668Y-114935000D01*
X67608400Y-114906186D01*
X67608400Y-114709814D01*
X67570090Y-114517215D01*
X67494942Y-114335791D01*
X67385843Y-114172513D01*
X67348200Y-114134870D01*
X67348200Y-110134677D01*
X67409790Y-110124445D01*
X67411226Y-110123965D01*
X67419655Y-110126522D01*
X67551300Y-110139488D01*
X67701300Y-110139488D01*
X67832945Y-110126522D01*
X67876300Y-110113370D01*
X67919655Y-110126522D01*
X68051300Y-110139488D01*
X68201300Y-110139488D01*
X68332945Y-110126522D01*
X68459530Y-110088123D01*
X68576192Y-110025766D01*
X68678447Y-109941847D01*
X68762366Y-109839592D01*
X68824723Y-109722930D01*
X68863122Y-109596345D01*
X68876088Y-109464700D01*
X68876088Y-108064700D01*
X68863122Y-107933055D01*
X68846357Y-107877788D01*
X69447000Y-107877788D01*
X69612785Y-107861460D01*
X69772200Y-107813102D01*
X69919117Y-107734573D01*
X70047891Y-107628891D01*
X70153573Y-107500117D01*
X70176513Y-107457200D01*
X70323314Y-107486400D01*
X70519686Y-107486400D01*
X70712285Y-107448090D01*
X70893709Y-107372942D01*
X71056987Y-107263843D01*
X71195843Y-107124987D01*
X71304942Y-106961709D01*
X71380090Y-106780285D01*
X71418400Y-106587686D01*
X71418400Y-106391314D01*
X71380090Y-106198715D01*
X71304942Y-106017291D01*
X71237596Y-105916500D01*
X72031712Y-105916500D01*
X72034600Y-106302175D01*
X72183825Y-106451400D01*
X73041400Y-106451400D01*
X73041400Y-105468825D01*
X72892175Y-105319600D01*
X72631500Y-105316712D01*
X72514487Y-105328237D01*
X72401971Y-105362368D01*
X72298276Y-105417795D01*
X72207386Y-105492386D01*
X72132795Y-105583276D01*
X72077368Y-105686971D01*
X72043237Y-105799487D01*
X72031712Y-105916500D01*
X71237596Y-105916500D01*
X71195843Y-105854013D01*
X71056987Y-105715157D01*
X70893709Y-105606058D01*
X70712285Y-105530910D01*
X70519686Y-105492600D01*
X70323314Y-105492600D01*
X70130715Y-105530910D01*
X70101855Y-105542864D01*
X70047891Y-105477109D01*
X70043493Y-105473500D01*
X70047891Y-105469891D01*
X70142271Y-105354889D01*
X70323314Y-105390900D01*
X70519686Y-105390900D01*
X70712285Y-105352590D01*
X70893709Y-105277442D01*
X71056987Y-105168343D01*
X71195843Y-105029487D01*
X71304942Y-104866209D01*
X71380090Y-104684785D01*
X71418400Y-104492186D01*
X71418400Y-104295814D01*
X71380090Y-104103215D01*
X71304942Y-103921791D01*
X71246951Y-103835000D01*
X77780212Y-103835000D01*
X77780212Y-105385000D01*
X77791737Y-105502013D01*
X77825868Y-105614529D01*
X77881295Y-105718224D01*
X77955886Y-105809114D01*
X78046776Y-105883705D01*
X78150471Y-105939132D01*
X78262987Y-105973263D01*
X78380000Y-105984788D01*
X79680000Y-105984788D01*
X79797013Y-105973263D01*
X79909529Y-105939132D01*
X80013224Y-105883705D01*
X80104114Y-105809114D01*
X80178705Y-105718224D01*
X80234132Y-105614529D01*
X80268263Y-105502013D01*
X80279788Y-105385000D01*
X80279788Y-103835000D01*
X82280212Y-103835000D01*
X82280212Y-105385000D01*
X82291737Y-105502013D01*
X82325868Y-105614529D01*
X82381295Y-105718224D01*
X82455886Y-105809114D01*
X82522170Y-105863511D01*
X82505600Y-105946814D01*
X82505600Y-106143186D01*
X82543910Y-106335785D01*
X82619058Y-106517209D01*
X82728157Y-106680487D01*
X82867013Y-106819343D01*
X83030291Y-106928442D01*
X83211715Y-107003590D01*
X83404314Y-107041900D01*
X83600686Y-107041900D01*
X83793285Y-107003590D01*
X83974709Y-106928442D01*
X84137987Y-106819343D01*
X84276843Y-106680487D01*
X84385942Y-106517209D01*
X84461090Y-106335785D01*
X84499400Y-106143186D01*
X84499400Y-105946814D01*
X84489382Y-105896449D01*
X84513224Y-105883705D01*
X84604114Y-105809114D01*
X84678705Y-105718224D01*
X84734132Y-105614529D01*
X84768263Y-105502013D01*
X84779788Y-105385000D01*
X84779788Y-103835000D01*
X84768263Y-103717987D01*
X84734132Y-103605471D01*
X84678705Y-103501776D01*
X84604114Y-103410886D01*
X84513224Y-103336295D01*
X84409529Y-103280868D01*
X84297013Y-103246737D01*
X84180000Y-103235212D01*
X82880000Y-103235212D01*
X82762987Y-103246737D01*
X82650471Y-103280868D01*
X82546776Y-103336295D01*
X82455886Y-103410886D01*
X82381295Y-103501776D01*
X82325868Y-103605471D01*
X82291737Y-103717987D01*
X82280212Y-103835000D01*
X80279788Y-103835000D01*
X80268263Y-103717987D01*
X80234132Y-103605471D01*
X80178705Y-103501776D01*
X80104114Y-103410886D01*
X80013224Y-103336295D01*
X79909529Y-103280868D01*
X79797013Y-103246737D01*
X79680000Y-103235212D01*
X78380000Y-103235212D01*
X78262987Y-103246737D01*
X78150471Y-103280868D01*
X78046776Y-103336295D01*
X77955886Y-103410886D01*
X77881295Y-103501776D01*
X77825868Y-103605471D01*
X77791737Y-103717987D01*
X77780212Y-103835000D01*
X71246951Y-103835000D01*
X71195843Y-103758513D01*
X71056987Y-103619657D01*
X70893709Y-103510558D01*
X70712285Y-103435410D01*
X70519686Y-103397100D01*
X70323314Y-103397100D01*
X70142271Y-103433111D01*
X70047891Y-103318109D01*
X69919117Y-103212427D01*
X69772200Y-103133898D01*
X69612785Y-103085540D01*
X69447000Y-103069212D01*
X68772000Y-103069212D01*
X68606215Y-103085540D01*
X68446800Y-103133898D01*
X68299883Y-103212427D01*
X68171109Y-103318109D01*
X68134867Y-103362270D01*
X68120705Y-103335776D01*
X68046114Y-103244886D01*
X67955224Y-103170295D01*
X67851529Y-103114868D01*
X67739013Y-103080737D01*
X67622000Y-103069212D01*
X67348825Y-103072100D01*
X67199600Y-103221325D01*
X67199600Y-104228900D01*
X67219600Y-104228900D01*
X67219600Y-104559100D01*
X67199600Y-104559100D01*
X67199600Y-106387900D01*
X67219600Y-106387900D01*
X67219600Y-106718100D01*
X67199600Y-106718100D01*
X67199600Y-106738100D01*
X66869400Y-106738100D01*
X66869400Y-106718100D01*
X65999325Y-106718100D01*
X65850100Y-106867325D01*
X65847212Y-107278000D01*
X65858737Y-107395013D01*
X65863978Y-107412292D01*
X65832945Y-107402878D01*
X65701300Y-107389912D01*
X65551300Y-107389912D01*
X65419655Y-107402878D01*
X65376300Y-107416030D01*
X65332945Y-107402878D01*
X65201300Y-107389912D01*
X65051300Y-107389912D01*
X64984499Y-107396491D01*
X65087987Y-107327343D01*
X65226843Y-107188487D01*
X65335942Y-107025209D01*
X65411090Y-106843785D01*
X65449400Y-106651186D01*
X65449400Y-106454814D01*
X65411090Y-106262215D01*
X65335942Y-106080791D01*
X65226843Y-105917513D01*
X65087987Y-105778657D01*
X64924709Y-105669558D01*
X64743285Y-105594410D01*
X64550686Y-105556100D01*
X64354314Y-105556100D01*
X64173271Y-105592111D01*
X64078891Y-105477109D01*
X64074493Y-105473500D01*
X64078891Y-105469891D01*
X64173271Y-105354889D01*
X64354314Y-105390900D01*
X64550686Y-105390900D01*
X64743285Y-105352590D01*
X64924709Y-105277442D01*
X65087987Y-105168343D01*
X65137330Y-105119000D01*
X65847212Y-105119000D01*
X65858737Y-105236013D01*
X65892868Y-105348529D01*
X65948295Y-105452224D01*
X65965756Y-105473500D01*
X65948295Y-105494776D01*
X65892868Y-105598471D01*
X65858737Y-105710987D01*
X65847212Y-105828000D01*
X65850100Y-106238675D01*
X65999325Y-106387900D01*
X66869400Y-106387900D01*
X66869400Y-104559100D01*
X65999325Y-104559100D01*
X65850100Y-104708325D01*
X65847212Y-105119000D01*
X65137330Y-105119000D01*
X65226843Y-105029487D01*
X65335942Y-104866209D01*
X65411090Y-104684785D01*
X65449400Y-104492186D01*
X65449400Y-104295814D01*
X65411090Y-104103215D01*
X65335942Y-103921791D01*
X65226843Y-103758513D01*
X65137330Y-103669000D01*
X65847212Y-103669000D01*
X65850100Y-104079675D01*
X65999325Y-104228900D01*
X66869400Y-104228900D01*
X66869400Y-103221325D01*
X66720175Y-103072100D01*
X66447000Y-103069212D01*
X66329987Y-103080737D01*
X66217471Y-103114868D01*
X66113776Y-103170295D01*
X66022886Y-103244886D01*
X65948295Y-103335776D01*
X65892868Y-103439471D01*
X65858737Y-103551987D01*
X65847212Y-103669000D01*
X65137330Y-103669000D01*
X65087987Y-103619657D01*
X64924709Y-103510558D01*
X64743285Y-103435410D01*
X64550686Y-103397100D01*
X64354314Y-103397100D01*
X64173271Y-103433111D01*
X64078891Y-103318109D01*
X63950117Y-103212427D01*
X63803200Y-103133898D01*
X63643785Y-103085540D01*
X63478000Y-103069212D01*
X62803000Y-103069212D01*
X62637215Y-103085540D01*
X62477800Y-103133898D01*
X62330883Y-103212427D01*
X62202109Y-103318109D01*
X62165867Y-103362270D01*
X62151705Y-103335776D01*
X62077114Y-103244886D01*
X61986224Y-103170295D01*
X61882529Y-103114868D01*
X61770013Y-103080737D01*
X61653000Y-103069212D01*
X61379825Y-103072100D01*
X61230600Y-103221325D01*
X61230600Y-104228900D01*
X61250600Y-104228900D01*
X61250600Y-104559100D01*
X61230600Y-104559100D01*
X61230600Y-106387900D01*
X61250600Y-106387900D01*
X61250600Y-106718100D01*
X61230600Y-106718100D01*
X61230600Y-106738100D01*
X60900400Y-106738100D01*
X60900400Y-106718100D01*
X60030325Y-106718100D01*
X59881100Y-106867325D01*
X59878212Y-107278000D01*
X59889737Y-107395013D01*
X59923868Y-107507529D01*
X59979295Y-107611224D01*
X59997375Y-107633255D01*
X59968432Y-107670615D01*
X59915940Y-107775826D01*
X59884982Y-107889256D01*
X59876749Y-108006547D01*
X51712400Y-108006547D01*
X51712400Y-105119000D01*
X59878212Y-105119000D01*
X59889737Y-105236013D01*
X59923868Y-105348529D01*
X59979295Y-105452224D01*
X59996756Y-105473500D01*
X59979295Y-105494776D01*
X59923868Y-105598471D01*
X59889737Y-105710987D01*
X59878212Y-105828000D01*
X59881100Y-106238675D01*
X60030325Y-106387900D01*
X60900400Y-106387900D01*
X60900400Y-104559100D01*
X60030325Y-104559100D01*
X59881100Y-104708325D01*
X59878212Y-105119000D01*
X51712400Y-105119000D01*
X51712400Y-103669000D01*
X59878212Y-103669000D01*
X59881100Y-104079675D01*
X60030325Y-104228900D01*
X60900400Y-104228900D01*
X60900400Y-103221325D01*
X60751175Y-103072100D01*
X60478000Y-103069212D01*
X60360987Y-103080737D01*
X60248471Y-103114868D01*
X60144776Y-103170295D01*
X60053886Y-103244886D01*
X59979295Y-103335776D01*
X59923868Y-103439471D01*
X59889737Y-103551987D01*
X59878212Y-103669000D01*
X51712400Y-103669000D01*
X51712400Y-102121062D01*
X51715892Y-102085609D01*
X51708581Y-102011383D01*
X51701954Y-101944093D01*
X51660675Y-101808014D01*
X51645997Y-101780553D01*
X51593641Y-101682603D01*
X51526030Y-101600219D01*
X51526028Y-101600217D01*
X51503429Y-101572680D01*
X51475893Y-101550082D01*
X49802432Y-99876623D01*
X49779821Y-99849071D01*
X49669897Y-99758860D01*
X49544487Y-99691826D01*
X49408408Y-99650547D01*
X49302346Y-99640101D01*
X49302344Y-99640101D01*
X49266891Y-99636609D01*
X49231438Y-99640101D01*
X47923933Y-99640101D01*
X47936797Y-99609045D01*
X47992400Y-99329507D01*
X47992400Y-99044493D01*
X47936797Y-98764955D01*
X47827726Y-98501636D01*
X47669381Y-98264655D01*
X47467845Y-98063119D01*
X47230864Y-97904774D01*
X46967545Y-97795703D01*
X46688007Y-97740100D01*
X46402993Y-97740100D01*
X46123455Y-97795703D01*
X45860136Y-97904774D01*
X45623155Y-98063119D01*
X45421619Y-98264655D01*
X45275500Y-98483338D01*
X45129381Y-98264655D01*
X44927845Y-98063119D01*
X44690864Y-97904774D01*
X44427545Y-97795703D01*
X44148007Y-97740100D01*
X43862993Y-97740100D01*
X43583455Y-97795703D01*
X43320136Y-97904774D01*
X43083155Y-98063119D01*
X42881619Y-98264655D01*
X42729817Y-98491843D01*
X42604868Y-98295161D01*
X42408986Y-98090018D01*
X42176847Y-97927031D01*
X41917371Y-97812464D01*
X41853434Y-97793075D01*
X41630600Y-97899870D01*
X41630600Y-99021900D01*
X41650600Y-99021900D01*
X41650600Y-99352100D01*
X41630600Y-99352100D01*
X41630600Y-99372100D01*
X41300400Y-99372100D01*
X41300400Y-99352100D01*
X40004600Y-99352100D01*
X40004600Y-98799065D01*
X40071569Y-98799065D01*
X40177269Y-99021900D01*
X41300400Y-99021900D01*
X41300400Y-97899870D01*
X41077566Y-97793075D01*
X41013629Y-97812464D01*
X40754153Y-97927031D01*
X40522014Y-98090018D01*
X40326132Y-98295161D01*
X40174035Y-98534577D01*
X40071569Y-98799065D01*
X40004600Y-98799065D01*
X40004600Y-93152783D01*
X40040595Y-93220124D01*
X40115186Y-93311014D01*
X40206076Y-93385605D01*
X40309771Y-93441032D01*
X40422287Y-93475163D01*
X40539300Y-93486688D01*
X41074975Y-93483800D01*
X41224200Y-93334575D01*
X41224200Y-92202000D01*
X41554400Y-92202000D01*
X41554400Y-93334575D01*
X41703625Y-93483800D01*
X42239300Y-93486688D01*
X42356313Y-93475163D01*
X42468829Y-93441032D01*
X42572524Y-93385605D01*
X42663414Y-93311014D01*
X42738005Y-93220124D01*
X42793432Y-93116429D01*
X42827563Y-93003913D01*
X42839088Y-92886900D01*
X42836200Y-92351225D01*
X42686975Y-92202000D01*
X41554400Y-92202000D01*
X41224200Y-92202000D01*
X41204200Y-92202000D01*
X41204200Y-91871800D01*
X41224200Y-91871800D01*
X41224200Y-91851800D01*
X41554400Y-91851800D01*
X41554400Y-91871800D01*
X42686975Y-91871800D01*
X42836200Y-91722575D01*
X42839088Y-91186900D01*
X42827563Y-91069887D01*
X42793432Y-90957371D01*
X42738005Y-90853676D01*
X42663414Y-90762786D01*
X42572524Y-90688195D01*
X42468829Y-90632768D01*
X42356313Y-90598637D01*
X42335809Y-90596617D01*
X42513181Y-90419245D01*
X42671526Y-90182264D01*
X42780597Y-89918945D01*
X42836200Y-89639407D01*
X42836200Y-89354393D01*
X42780597Y-89074855D01*
X42671526Y-88811536D01*
X42513181Y-88574555D01*
X42311645Y-88373019D01*
X42074664Y-88214674D01*
X41811345Y-88105603D01*
X41531807Y-88050000D01*
X41246793Y-88050000D01*
X40967255Y-88105603D01*
X40703936Y-88214674D01*
X40466955Y-88373019D01*
X40265419Y-88574555D01*
X40107074Y-88811536D01*
X40004600Y-89058929D01*
X40004600Y-84912200D01*
X52692300Y-84912200D01*
X52692300Y-101422200D01*
X52694008Y-101439544D01*
X52699067Y-101456221D01*
X52707282Y-101471590D01*
X52718338Y-101485062D01*
X52731810Y-101496118D01*
X52747179Y-101504333D01*
X52763856Y-101509392D01*
X52781200Y-101511100D01*
X86525100Y-101511100D01*
X86525100Y-103978258D01*
X86509712Y-104134499D01*
X86509712Y-105034501D01*
X86525100Y-105190742D01*
X86525100Y-105791000D01*
X86526808Y-105808344D01*
X86531867Y-105825021D01*
X86540082Y-105840390D01*
X86551138Y-105853862D01*
X86564610Y-105864918D01*
X86579979Y-105873133D01*
X86596656Y-105878192D01*
X86614000Y-105879900D01*
X87314946Y-105879900D01*
X87359499Y-105884288D01*
X88059501Y-105884288D01*
X88104054Y-105879900D01*
X89314946Y-105879900D01*
X89359499Y-105884288D01*
X90059501Y-105884288D01*
X90104054Y-105879900D01*
X91315446Y-105879900D01*
X91359999Y-105884288D01*
X92010001Y-105884288D01*
X92054554Y-105879900D01*
X93115449Y-105879900D01*
X93160000Y-105884288D01*
X93420675Y-105881400D01*
X93569900Y-105732175D01*
X93569900Y-104749600D01*
X93900100Y-104749600D01*
X93900100Y-105732175D01*
X94049325Y-105881400D01*
X94310000Y-105884288D01*
X94427013Y-105872763D01*
X94539529Y-105838632D01*
X94643224Y-105783205D01*
X94734114Y-105708614D01*
X94808705Y-105617724D01*
X94864132Y-105514029D01*
X94898263Y-105401513D01*
X94909788Y-105284500D01*
X94906900Y-104898825D01*
X94757675Y-104749600D01*
X93900100Y-104749600D01*
X93569900Y-104749600D01*
X93549900Y-104749600D01*
X93549900Y-104419400D01*
X93569900Y-104419400D01*
X93569900Y-103436825D01*
X93544900Y-103411825D01*
X93544900Y-102654100D01*
X93524900Y-102654100D01*
X93524900Y-102323900D01*
X93544900Y-102323900D01*
X93544900Y-102303900D01*
X93875100Y-102303900D01*
X93875100Y-102323900D01*
X93895100Y-102323900D01*
X93895100Y-102654100D01*
X93875100Y-102654100D01*
X93875100Y-103636675D01*
X93900100Y-103661675D01*
X93900100Y-104419400D01*
X95262700Y-104419400D01*
X95280044Y-104417692D01*
X95296721Y-104412633D01*
X95312090Y-104404418D01*
X95325562Y-104393362D01*
X95336618Y-104379890D01*
X95344833Y-104364521D01*
X95349892Y-104347844D01*
X95351600Y-104330500D01*
X95351600Y-104084475D01*
X95354900Y-104081175D01*
X95354900Y-103098600D01*
X95334900Y-103098600D01*
X95334900Y-102768400D01*
X95354900Y-102768400D01*
X95354900Y-102748400D01*
X95685100Y-102748400D01*
X95685100Y-102768400D01*
X95705100Y-102768400D01*
X95705100Y-103098600D01*
X95685100Y-103098600D01*
X95685100Y-103672908D01*
X95683508Y-103678156D01*
X95681800Y-103695500D01*
X95681800Y-104330500D01*
X95683508Y-104347844D01*
X95688567Y-104364521D01*
X95696782Y-104379890D01*
X95707838Y-104393362D01*
X95721310Y-104404418D01*
X95736679Y-104412633D01*
X95753356Y-104417692D01*
X95770700Y-104419400D01*
X96739601Y-104419400D01*
X96739601Y-105577478D01*
X96735019Y-105624000D01*
X96753301Y-105809624D01*
X96807447Y-105988116D01*
X96895372Y-106152614D01*
X96923195Y-106186516D01*
X97013702Y-106296799D01*
X97049833Y-106326451D01*
X97980501Y-107257119D01*
X97980500Y-125117558D01*
X97723797Y-125289082D01*
X97459582Y-125553297D01*
X97251989Y-125863981D01*
X97108997Y-126209195D01*
X97036100Y-126575672D01*
X97036100Y-126949328D01*
X97108997Y-127315805D01*
X97251989Y-127661019D01*
X97459582Y-127971703D01*
X97723797Y-128235918D01*
X98034481Y-128443511D01*
X98379695Y-128586503D01*
X98746172Y-128659400D01*
X99119828Y-128659400D01*
X99486305Y-128586503D01*
X99831519Y-128443511D01*
X100142203Y-128235918D01*
X100406418Y-127971703D01*
X100614011Y-127661019D01*
X100757003Y-127315805D01*
X100829900Y-126949328D01*
X100829900Y-126575672D01*
X100757003Y-126209195D01*
X100614011Y-125863981D01*
X100406418Y-125553297D01*
X100142203Y-125289082D01*
X99885500Y-125117558D01*
X99885500Y-106823715D01*
X99871717Y-106683777D01*
X99817252Y-106504231D01*
X99728806Y-106338759D01*
X99609778Y-106193722D01*
X99529266Y-106127648D01*
X98633400Y-105231782D01*
X98633400Y-103749301D01*
X98655102Y-103708700D01*
X98703460Y-103549286D01*
X98719788Y-103383501D01*
X98719788Y-102483499D01*
X98703460Y-102317714D01*
X98655102Y-102158300D01*
X98576573Y-102011383D01*
X98504400Y-101923440D01*
X98504400Y-101903523D01*
X98601573Y-101785117D01*
X98680102Y-101638200D01*
X98728460Y-101478785D01*
X98744788Y-101313000D01*
X98744788Y-100363000D01*
X98728460Y-100197215D01*
X98680102Y-100037800D01*
X98601573Y-99890883D01*
X98504400Y-99772477D01*
X98504400Y-99445513D01*
X98508981Y-99399000D01*
X98490699Y-99213375D01*
X98436554Y-99034883D01*
X98348628Y-98870385D01*
X98290097Y-98799065D01*
X98230299Y-98726201D01*
X98194168Y-98696549D01*
X97509788Y-98012170D01*
X97509788Y-97371500D01*
X97498263Y-97254487D01*
X97464132Y-97141971D01*
X97408705Y-97038276D01*
X97353904Y-96971500D01*
X97408705Y-96904724D01*
X97464132Y-96801029D01*
X97498263Y-96688513D01*
X97509788Y-96571500D01*
X97509788Y-95071500D01*
X97498263Y-94954487D01*
X97464132Y-94841971D01*
X97408705Y-94738276D01*
X97353904Y-94671500D01*
X97408705Y-94604724D01*
X97464132Y-94501029D01*
X97498263Y-94388513D01*
X97509788Y-94271500D01*
X97509788Y-92771500D01*
X97498263Y-92654487D01*
X97464132Y-92541971D01*
X97408705Y-92438276D01*
X97334114Y-92347386D01*
X97243224Y-92272795D01*
X97139529Y-92217368D01*
X97027013Y-92183237D01*
X96910000Y-92171712D01*
X95899330Y-92171712D01*
X95752400Y-92024782D01*
X95752400Y-87642288D01*
X95805500Y-87642288D01*
X95922513Y-87630763D01*
X96035029Y-87596632D01*
X96138724Y-87541205D01*
X96229614Y-87466614D01*
X96304205Y-87375724D01*
X96359632Y-87272029D01*
X96393763Y-87159513D01*
X96405288Y-87042500D01*
X96405288Y-85042500D01*
X96393763Y-84925487D01*
X96359632Y-84812971D01*
X96304205Y-84709276D01*
X96229614Y-84618386D01*
X96138724Y-84543795D01*
X96035029Y-84488368D01*
X95922513Y-84454237D01*
X95805500Y-84442712D01*
X95752400Y-84442712D01*
X95752400Y-82053218D01*
X97497276Y-80308342D01*
X97541437Y-80272101D01*
X99187838Y-78625700D01*
X99789518Y-78625700D01*
X99792571Y-78627332D01*
X99905087Y-78661463D01*
X100022100Y-78672988D01*
X101022100Y-78672988D01*
X101139113Y-78661463D01*
X101251629Y-78627332D01*
X101355324Y-78571905D01*
X101446214Y-78497314D01*
X101520805Y-78406424D01*
X101576232Y-78302729D01*
X101610363Y-78190213D01*
X101621888Y-78073200D01*
X101621888Y-77366291D01*
X101623692Y-77360344D01*
X101625400Y-77343000D01*
X101625400Y-74281900D01*
X103581600Y-74281900D01*
X103581600Y-85077974D01*
G37*
%TD.AperFunction*%
%TD*%
M02*
